<?xml version="1.0" standalone="no"?>
<!DOCTYPE svg PUBLIC "-//W3C//DTD SVG 1.1//EN" "http://www.w3.org/Graphics/SVG/1.1/DTD/svg11.dtd" >
<svg xmlns="http://www.w3.org/2000/svg">
<metadata>Generated by IcoMoon</metadata>
<defs>
<font id="icomoon" horiz-adv-x="1024">
<font-face units-per-em="1024" ascent="960" descent="-64" />
<missing-glyph horiz-adv-x="1024" />
<glyph unicode="&#x20;" horiz-adv-x="512" d="" />
<glyph unicode="&#xe49;" glyph-name="uniE49" horiz-adv-x="896" d="M130.176 431.424c55.232-161.024 142.208-275.776 261.312-394.944 40.512-40.512 157.312 10.752 113.024 55.040-113.088 113.152-198.080 219.776-250.688 373.056-19.84 57.792-143.104 23.552-123.648-33.152v0zM509.248 73.856c112.896 211.52 179.968 440.64 272 661.312 11.648 27.776-108.16 14.656-122.496-19.712-92.032-220.672-159.104-449.792-272-661.312-12.608-23.68 104.64-13.76 122.496 19.712v0z" />
<glyph unicode="&#xe50;" glyph-name="uniE50" d="M852.692 672h-92.8v92.844h-46.38v-92.844h-92.842v-46.38h92.842v-92.842h46.38v92.842h92.8zM523.178 383.488c-18.688 13.952-59.222 42.71-59.222 61.952 0 22.572 6.358 33.706 40.276 60.202 34.944 27.222 59.564 63.060 59.564 107.562 0 48.512-19.884 92.458-57.174 113.792h52.822l45.014 47.188c0 0-148.564 0-201.26 0-102.1 0-187.18-75.308-187.18-158.164 0-84.608 55.936-152.020 151.894-152.020 6.7 0 13.184 0.298 19.54 0.81-6.228-11.948-10.666-25.3-10.666-39.21 0-23.51 12.928-36.908 28.928-52.524-12.074 0-23.764-0.298-36.438-0.298-116.864 0-198.742-80.428-198.742-157.654 0-76.076 98.646-123.606 215.508-123.606 133.29 0 215.296 75.606 215.296 151.638 0 60.884-13.184 91.562-78.164 140.332zM406.912 494.678c-54.228 1.664-105.812 51.37-115.156 122.624-9.428 71.212 27.008 125.74 81.236 124.118 54.188-1.664 100.564-60.076 109.996-131.286 9.344-71.212-21.888-117.076-76.074-115.456zM385.664 125.056c-80.854 0-139.18 51.116-139.18 112.596 0 60.202 68.436 112.172 149.29 111.274 18.774-0.212 36.394-3.244 52.394-8.362 43.734-30.548 79.232-49.578 88.064-84.394 1.706-6.996 2.644-14.25 2.644-21.632 0-61.44-39.638-109.484-153.216-109.484z" />
<glyph unicode="&#xe7d;" glyph-name="uniE48" horiz-adv-x="1016" d="M919.756 459.678c0-216.168-175.238-391.406-391.406-391.406s-391.406 175.238-391.406 391.406c0 216.168 175.238 391.406 391.406 391.406s391.406-175.238 391.406-391.406z" />
<glyph unicode="&#xe001;" glyph-name="uniE001" d="M512.174 950.898l-465.658-186.31v-819.486l461.236 188.986 469.732-188.638v814.074l-465.31 191.374zM919.298 31.508l-411.778 165.364-402.82-165.014v693.398l407.124 162.86 407.474-167.516v-689.092zM162.888 609.464l290.928 116.372v68.192l-290.928-113.346zM162.888 493.094l290.928 116.37v68.192l-290.928-113.346zM162.888 376.722l290.928 116.37v68.192l-290.928-113.346zM162.888 260.35l290.928 116.37v68.192l-290.928-113.346zM162.888 143.98l290.928 116.37v68.192l-290.928-113.346zM861.114 409.19v271.494l-290.928 113.346v-300.936l290.928-116.372v32.468zM628.37 702.56l174.558-69.822v-162.106l-174.558 67.962v163.966zM861.114 331.572l-290.928 113.346v-68.192l290.928-116.37zM861.114 215.2l-290.928 113.346v-68.192l290.928-116.37z" />
<glyph unicode="&#xe002;" glyph-name="uniE002" d="M0 960v-1024h1024v1024h-1024zM64 336c0 53.632 25.856 97.344 42.176 134.336l153.664-138.24-195.84-102.016v105.92zM208.768 0h-144.768v157.248l234.432 118.592 99.648-168.704-189.312-107.136zM457.6 347.072l84.48 45.888 88.896-163.648-168.704-91.648-91.648 168.768 84.16 45.696 2.816-5.056zM342.848 0l93.76 50.944 27.648-50.944h-121.408zM537.152 0l-44.224 81.408 168.704 91.648 93.888-173.056h-218.368zM960 0h-131.648l-126.592 203.648 258.24 148.928v-352.576zM960 425.344l-288.768-165.504-80.768 159.36 35.904 19.52-59.904 110.208-168.768-91.584 25.344-46.592-86.848-48-185.536 160.192c107.84 136.704 304.896 171.264 479.552 171.264 210.688 0 271.168 137.792 271.168 201.792h58.624v-470.656z" />
<glyph unicode="&#xe003;" glyph-name="uniE003" d="M399.266 905.24v-252.244c0-6.932-3.496-13.866-9.472-21.026-23.11 48.42-71.926 82.128-129.194 82.128-78.914 0-143.23-64.202-143.23-143.286 0-53.548 29.874-99.772 73.39-124.346-10.372-22.434-17.134-62.004-17.134-90.132 0-169.102 225.694-409.396 225.694-409.396h225.468c0 0 225.414 240.294 225.414 409.396 0 28.126-6.65 60.256-17.078 82.692 43.684 24.632 73.504 74.518 73.504 128.068 0 79.028-64.37 145.146-143.23 145.146-57.27 0-106.084-32.862-129.192-81.224-6.030 7.214-9.47 15.050-9.47 21.982v252.244h-225.468zM221.088 493.87c-27.958 14.488-47.406 43.346-47.406 76.942 0 47.912 38.95 86.918 87.086 86.918 39.512 0 72.6-26.832 83.084-63.132-37.766-26.042-86.862-57.608-122.766-100.728zM802.856 493.87c-35.906 43.12-84.944 74.688-122.654 100.728 10.316 36.356 43.46 63.132 83.198 63.132 47.912 0 86.806-39.006 86.806-86.918 0-33.594-19.39-62.454-47.35-76.942z" />
<glyph unicode="&#xe004;" glyph-name="uniE004" d="M128 512h448v-256h-448zM1024 384c0-63.424-138.624-115.904-320-126.080v64c180.992 10.176 319.36 62.464 320 125.696v192.384c0-63.424-138.624-115.904-320-126.080v64c180.992 10.176 319.36 62.464 320 125.696v128c0 0.128 0 0.256 0 0.384 0 70.656-172.032 128-383.872 128-212.096 0-384.128-57.344-384.128-128v0-128c0-23.36 19.136-45.184 51.904-64h-307.904v-512h256v-128h-128v-64.002h448.002v64h-128v81.28c56.512-10.944 121.984-17.28 192.128-17.28 211.84 0 383.872 57.344 383.872 128 0 0.128 0 0.256 0 0.384v191.616zM640 192h-576v384h576v-384z" />
<glyph unicode="&#xe005;" glyph-name="uniE005" d="M0 80h1024v-64h-1024zM1024 528v64h-256v320l-448-128v-192h-320v-64h320v-64h-320v-64h320v-64h-320v-64h197.888c-3.584-10.048-5.888-20.672-5.888-32s2.304-21.952 5.888-32h-197.888v-64h1024v64h-645.888c3.264 9.28 5.312 19.072 5.632 29.312h0.256v34.688h640v64h-261.888c3.584 10.112 5.888 20.736 5.888 32v32h256v64h-256v64h256zM384 674.304l320 91.456v-173.76h-320v82.304zM384 336v64h197.888c-3.584-10.048-5.888-20.672-5.888-32s2.304-21.952 5.888-32h-197.888zM704 464h-320v64h320v-64z" />
<glyph unicode="&#xe006;" glyph-name="uniE006" d="M128 960v-1024h767.872l0.128 767.232-254.72 256.768h-513.28zM806.72 704h-166.72v166.72l166.72-166.72zM192 0v896h384v-256h256v-640h-640zM512 640h-256v64h256v-64zM768 512h-512v64h512v-64zM768 384h-512v64h512v-64zM768 256h-512v64h512v-64zM768 128h-512v64h512v-64z" />
<glyph unicode="&#xe007;" glyph-name="uniE007" d="M640 608h-512v128h512v-128zM512 544h-384v-64h384v64zM577.408 141.248l338.816 180.672-60.288 112.96-338.816-180.736 60.288-112.896zM1089.344 269.248l-564.672-301.248-170.688 320h-353.984v576h832v-296.896l76.672 40.896 180.672-338.752zM428.736 352l339.264 181.056v266.944h-704v-448h364.736zM551.040 54.656l451.776 240.96-120.512 225.92-451.712-241.024 120.448-225.856z" />
<glyph unicode="&#xe008;" glyph-name="uniE008" d="M450 246l-124 124-186-310h744v248l-186 248zM140 525c0 51.362 41.638 93 93 93s93-41.638 93-93c0-51.362-41.638-93-93-93s-93 41.638-93 93zM794.162 742l-282.162 225.742-282.162-225.742h-213.838v-806h992v806h-213.838zM512 888.32l182.838-146.32h-365.676l182.838 146.32zM946-2h-868v682h868v-682z" />
<glyph unicode="&#xe009;" glyph-name="uniE009" d="M663.232 447.872c0-75.136-45.76-137.984-108.096-158.784l29.632-58.048c85.568 31.872 147.456 116.544 147.456 216.896 0 100.608-62.336 185.472-148.288 217.152l-29.632-58.176c62.784-20.48 108.928-83.584 108.928-159.040zM652.736 800.704l-28.864-56.64c106.496-48.384 181.632-162.944 181.632-296.448 0-132.864-74.304-247.104-179.968-295.936l28.736-56.384c128.064 59.008 217.728 194.688 217.728 352.32 0 158.272-90.368 294.4-219.264 353.088zM725.504 941.824l-29.376-57.6c152.96-75.904 259.648-242.688 259.648-436.224 0-193.6-106.688-360.32-259.648-436.16l29.376-57.6c175.872 86.144 298.496 274.816 298.496 493.76s-122.624 407.616-298.496 493.824zM196.544 640h-196.544v-384h192l256-192v768z" />
<glyph unicode="&#xe00a;" glyph-name="uniE00A" d="M1024 896v64h-1024v-64h128v-64h-128v-768h128v-64h-128v-64h1024v64h-64v64h64v768h-64v64h64zM640 896v-64h-64v64h64zM512 896v-64h-64v64h64zM384 896v-64h-64v64h64zM256 0h-64v64h64v-64zM192 832v64h64v-64h-64zM384 0h-64v64h64v-64zM384 642.176l322.112-194.176-322.112-194.112v388.288zM512 0h-64v64h64v-64zM640 0h-64v64h64v-64zM768 0h-64v64h64v-64zM704 832v64h64v-64h-64zM896 0h-64v64h64v-64zM896 832h-64v64h64v-64z" />
<glyph unicode="&#xe00b;" glyph-name="uniE00B" d="M438.144 895.872c34.304 0 64.512-9.344 89.792-27.84 32.832-24 39.040-60.864 44.928-114.432 4.992-47.040 12.736-118.208 83.2-136.32 11.904-3.008 23.36-4.608 34.304-4.608 70.72 0 97.664 58.176 112.064 89.408 16.576 35.584 21.056 40.192 40.384 41.536 2.24 0.128 4.352 0.192 6.528 0.192v0c19.84 0 26.048-6.912 28.672-9.92 6.72-7.36 28.032-39.424 18.496-140.48-17.984-193.536-165.824-593.344-507.648-593.344-5.76 0-11.648 0.128-17.536 0.384-170.816 6.656-246.784 266.944-246.336 449.664 0.768 180.032 66.24 333.696 170.944 400.896 43.84 28.096 96.96 44.864 142.208 44.864zM438.144 960c-66.688 0-131.84-26.112-176.768-54.976-134.016-86.016-199.808-270.144-200.576-454.592-0.64-203.712 88.064-505.344 307.968-513.984 6.848-0.32 13.632-0.448 20.096-0.448 373.504 0 549.504 415.36 571.52 651.52 13.952 148.032-26.368 220.48-111.040 220.48-3.52 0-7.104-0.128-10.88-0.384-107.52-7.424-81.216-130.816-148.032-130.816-5.376 0-11.584 0.832-18.304 2.56-62.208 16.064-2.048 164.352-106.368 240.512-39.744 28.928-84.096 40.128-127.616 40.128v0zM395.392 779.584c-53.056 0-96.192-43.008-96.192-96.192 0-53.12 43.136-96.192 96.192-96.192 53.12 0 96.192 43.072 96.192 96.192s-43.072 96.192-96.192 96.192zM253.376 537.088c-34.304 0-62.144-27.84-62.144-62.144s27.84-62.144 62.144-62.144 62.144 27.84 62.144 62.144-27.84 62.144-62.144 62.144zM293.184 342.656c-34.304 0-62.144-27.84-62.144-62.144s27.84-62.144 62.144-62.144 62.144 27.84 62.144 62.144-27.84 62.144-62.144 62.144zM589.952 284.544c-34.368 0-62.144-27.776-62.144-62.144 0-34.304 27.776-62.144 62.144-62.144 34.304 0 62.144 27.84 62.144 62.144-0.064 34.368-27.84 62.144-62.144 62.144zM417.536 200.384c-34.304 0-62.144-27.84-62.144-62.144s27.84-62.144 62.144-62.144 62.144 27.84 62.144 62.144-27.776 62.144-62.144 62.144zM710.144 444.928c-34.304 0-62.144-27.84-62.144-62.144s27.84-62.144 62.144-62.144 62.144 27.84 62.144 62.144-27.84 62.144-62.144 62.144z" />
<glyph unicode="&#xe00c;" glyph-name="uniE00C" d="M256 704h256v-64h-256zM256 576h512v-64h-512zM256 448h512v-64h-512zM256 320h256v-64h-256zM896 703.232l-254.72 256.768h-513.28v-1024h439.104l-20.8-52.096 59.392-23.744 30.336 75.84h72l30.336-75.904 59.392 23.744-20.864 52.16h118.976l0.128 767.232zM640 870.784l166.72-166.784h-166.72v166.784zM661.632 0l10.368 25.92 10.368-25.92h-20.736zM832 0h-80.768l-30.976 77.44c28.416 16.704 47.744 47.296 47.744 82.56 0 52.992-43.008 96-96 96s-96-42.944-96-96c0-35.328 19.328-65.856 47.744-82.56l-30.976-77.44h-400.768v896h384v-256h256v-640z" />
<glyph unicode="&#xe00d;" glyph-name="uniE00D" d="M890.206 460.57l161.524 83.38-191.548 223.374-346.32 150.468-349.23-150.99-192.42-222.908 161.582-83.322v-325.256l378.206-189.104 378.206 189.104v325.258zM513.746 854.37l278.592-121.084-280.338-140.168-279.406 139.702 281.154 121.55zM191.98 171.27v259.216l170.774-88.15 120.154 139.82v-456.348l-290.928 145.464zM541.092 25.808v456.348l120.154-139.762 170.774 88.092v-259.216l-290.928-145.464z" />
<glyph unicode="&#xe00e;" glyph-name="uniE00E" d="M688 189.184c-39.872 13.184-54.848 81.856-26.688 125.248 21.44 32.96 71.936 163.84 80 242.688s7.744 144.448 2.624 186.624c-15.104 122.112-85.44 216.576-231.936 216.576s-216.832-94.464-231.936-216.704c-5.12-42.176-5.44-107.776 2.624-186.624 8.064-78.784 58.56-209.728 80-242.688 28.16-43.392 13.184-111.936-26.688-125.12-190.592-62.976-336-61.184-336-253.184h1024c0 192-145.408 190.208-336 253.184z" />
<glyph unicode="&#xe00f;" glyph-name="uniE00F" d="M512 960c-282.752 0-512-229.184-512-512s229.248-512 512-512 512 229.184 512 512-229.248 512-512 512zM576 128h-128v384h128v-384zM576 640h-128v128h128v-128z" />
<glyph unicode="&#xe010;" glyph-name="uniE010" d="M512 956.294c-280.788 0-508.294-227.504-508.294-508.294s227.502-508.294 508.294-508.294 508.294 227.504 508.294 508.294-227.504 508.294-508.294 508.294zM554.36 236.212h-84.714v296.504h84.714v-296.504zM554.36 617.43h-84.714v84.714h84.714v-84.714z" />
<glyph unicode="&#xe011;" glyph-name="uniE011" d="M1024 71.294l-257.218 257.154c40 64.704 61.826 139.202 61.826 217.346 0.066 110.848-43.072 214.912-121.28 293.056-78.080 78.144-182.208 121.152-292.992 121.152s-214.912-43.008-292.992-121.216c-78.144-78.144-121.346-182.208-121.346-292.992s43.2-214.912 121.346-293.056 182.274-121.152 292.992-121.152c78.016 0 152.578 21.762 217.216 61.698l257.28-257.28 135.168 135.296zM414.4 259.072c-76.67 0-148.736 29.762-202.88 83.84s-83.966 126.144-83.966 202.88c0 76.736 29.888 148.736 84.032 202.88 54.016 54.144 126.080 83.904 202.752 83.904 76.736 0 148.8-29.762 202.944-83.966 54.080-54.016 83.84-126.080 83.84-202.816s-29.76-148.8-83.84-202.88c-54.144-54.080-126.208-83.84-202.88-83.84z" />
<glyph unicode="&#xe012;" glyph-name="uniE012" d="M1024 640h-1024l128 128h64v192h640v-192h64l128-128zM1024 256h-168.832l45.696-320h-777.728l45.696 320h-168.832v320h1024v-320zM827.136 0l-54.848 384h-520.512l-54.848-384h630.208z" />
<glyph unicode="&#xe013;" glyph-name="uniE013" d="M149.952 85.952c-199.936 200-199.936 524.224 0.064 724.16 199.872 199.872 524.096 199.872 723.968 0 200-200 200-524.224 0.064-724.16-199.936-199.872-524.16-199.872-724.096 0zM768 512.128h-192v192h-128v-192h-192v-128h192v-192h128v192h192v128z" />
<glyph unicode="&#xe014;" glyph-name="uniE014" d="M-31.104-95.040c-299.904 299.904-299.904 786.176 0.064 1086.144 299.904 299.904 786.176 299.904 1086.080 0 299.968-299.904 299.968-786.24 0-1086.144s-786.24-299.904-1086.144 0zM831.936 512h-256v256h-128v-256h-256v-128h256v-256h128v256h256v128z" />
<glyph unicode="&#xe015;" glyph-name="uniE015" d="M944.32 431.808c106.24 106.048 106.24 278.080 0 384.192-106.176 106.176-278.336 106.176-384.32 0l-48.128-47.872-47.872 47.872c-106.048 106.112-278.272 106.112-384.32 0-106.24-106.176-106.24-278.208 0-384.256l432.256-432.192 432.384 432.256z" />
<glyph unicode="&#xe016;" glyph-name="uniE016" d="M910.016 960h-217.152l-621.568-619.712-71.296-404.288 403.584 76.16 620.416 624.192v218.048l-113.984 105.6zM258.88 341.76l125.12-139.2v-114.432l-13.504-15.616-203.072-37.952-28.288 49.28-44.928 24.96 36.096 200.576 588.864 586.624h98.112l-558.4-554.24z" />
<glyph unicode="&#xe017;" glyph-name="uniE017" d="M512-64c-282.752 0-512.064 229.312-512 512 0 282.688 229.248 512 511.936 512 282.816 0 512.064-229.248 512.064-512s-229.312-512-512-512zM768 512h-192v192h-128v-192h-192v-128h192v-192h128v192h192v128z" />
<glyph unicode="&#xe018;" glyph-name="uniE018" d="M-31.104-95.104c-299.904 299.904-299.904 786.24 0.128 1086.208 299.904 299.904 786.112 299.904 1086.016 0 300.032-299.904 300.032-786.304 0-1086.208-299.904-299.84-786.176-299.84-1086.144 0zM832 512h-256v256h-128v-256h-256v-128h256v-256h128v256h256v128z" />
<glyph unicode="&#xe019;" glyph-name="uniE019" d="M512-64c-282.752 0-512 229.248-512 512s229.248 512 512 512 512-229.248 512-512-229.248-512-512-512zM256 384h512v128h-512v-128z" />
<glyph unicode="&#xe01a;" glyph-name="uniE01A" d="M962.476 768.654v48.096h-623.338l-338.676-387.73 338.676-381.764h623.338v48.096h47.948v673.308h-47.948zM806.27 320.038l-67.812-68.004-111.626 111.962-111.626-112.010-67.764 68.052 111.626 111.962-111.674 112.010 67.764 68.004 111.626-111.962 111.626 111.962 67.86-68.004-111.626-112.010 111.626-111.962z" />
<glyph unicode="&#xe01b;" glyph-name="uniE01B" d="M1000.256 629.632l-80.512 99.52c-56.704-45.824-108.992-91.072-159.744-140.928v115.008l-254.72 256.768h-505.28v-1024h759.872l0.064 464.64c76.032 88.32 151.424 157.12 240.32 228.992zM512 870.72l158.72-166.72h-158.72v166.72zM704 0h-640v896h384v-256h256v-109.696c-64.768-69.952-128.704-150.784-198.080-254.528-76.288 84.992-145.792 133.696-149.44 136.256l-73.088-105.152c0.96-0.64 95.168-67.136 177.216-177.6l55.744-75.136 49.792 79.232c49.024 77.888 94.016 141.952 137.792 198.592v-331.968z" />
<glyph unicode="&#xe01c;" glyph-name="uniE01C" d="M774.856 222.606l-132.050 132.020c20.536 33.22 31.74 71.464 31.74 111.582 0.034 56.908-22.114 110.334-62.264 150.452-40.086 40.12-93.544 62.198-150.42 62.198s-110.334-22.080-150.42-62.23c-40.12-40.12-62.298-93.544-62.298-150.42s22.178-110.334 62.298-150.45 93.576-62.198 150.42-62.198c40.052 0 78.332 11.174 111.516 31.674l132.082-132.082 69.394 69.458zM461.892 319.006c-39.36 0-76.358 15.278-104.156 43.044s-43.106 64.762-43.106 104.156c0 39.396 15.344 76.358 43.14 104.156 27.732 27.798 64.726 43.074 104.094 43.074 39.396 0 76.392-15.278 104.19-43.106 27.764-27.732 43.044-64.726 43.044-104.122s-15.278-76.392-43.044-104.156c-27.798-27.764-64.794-43.044-104.156-43.044z" />
<glyph unicode="&#xe01d;" glyph-name="uniE01D" d="M512 896c-282.816 0-512-173.12-512-386.688 0-121.344 74.048-229.44 189.76-300.288-37.888-140.096-120.448-209.024-120.448-209.024s217.024 39.936 332.096 131.968c35.648-5.952 72.576-9.28 110.592-9.28 282.752 0 512 173.12 512 386.688s-229.248 386.624-512 386.624z" />
<glyph unicode="&#xe01e;" glyph-name="uniE01E" d="M1024 703.232l-254.72 256.768h-449.28v-245.376c-62.4-25.408-94.72-83.584-103.424-153.792-3.968-32.64-4.16-83.328 2.048-144.32 6.208-60.928 45.248-162.176 61.888-187.648 21.76-33.536 10.112-86.72-20.672-96.896-147.328-48.704-259.84-45.376-259.84-195.968h791.872c0 67.904-23.744 103.808-62.464 128h294.592v639.232zM768 870.784l166.72-166.784h-166.72v166.784zM960 128h-415.104c-4.352 1.344-8.448 2.432-12.864 3.904-30.784 10.176-42.432 63.36-20.608 96.896 3.584 5.696 8.448 15.424 13.696 27.2h370.88v64h-346.304c7.104 21.376 13.504 43.456 17.92 64h328.384v64h-320.256c1.664 23.616 2.304 44.992 2.112 64h318.144v64h-323.648c-15.488 86.912-69.44 152.448-176.384 152.448-4.288 0-7.872-0.768-11.968-1.024v168.576h320v-256h256v-512z" />
<glyph unicode="&#xe01f;" glyph-name="uniE01F" d="M17.615 719.688v-772.476h988.77v772.476h-988.77zM913.688 626.99v-30.899l-401.688-278.092-401.688 278.092v30.899h803.376zM110.312 39.908v432.587l401.688-278.092 401.688 278.092v-432.587h-803.376z" />
<glyph unicode="&#xe020;" glyph-name="uniE020" d="M670.656 959.36l225.344-317.952h-128c-0.512-69.12-17.024-291.392-321.344-291.392 0 0 123.264 36.48 129.344 291.392h-131.264l225.92 317.952zM960 576.64v-640h-896v640h444.224c0 0 1.728-43.008-11.136-64-4.032 0-369.152 0-369.152 0v-60.352l384.064-246.656 384 245.184v61.824c0 0-80.256 0-86.976 0 12.032 23.296 17.28 64 17.28 64h133.696zM896 0.64v374.272l-384.064-245.248-383.936 246.528v-375.552h768z" />
<glyph unicode="&#xe021;" glyph-name="uniE021" d="M1088 574.144l-346.816 302.464v-171.84c-112.128 0-419.84-104.256-419.84-512.768 0 0 48 255.040 419.84 255.040v-176.256l346.816 303.36zM832 180.224v-116.224h-704v512h169.92c33.536 51.2 72.832 93.504 114.88 128h-412.8v-768h960v356.096l-128-111.872z" />
<glyph unicode="&#xe022;" glyph-name="uniE022" d="M512 1216c424.128 0 768-343.872 768-768s-343.872-768-768-768-768 343.936-768 768 343.872 768 768 768zM512 785.792v0l-352-547.584h704l-352 547.584z" />
<glyph unicode="&#xe023;" glyph-name="uniE023" d="M512 785.792v0l-352-547.584h704l-352 547.584z" />
<glyph unicode="&#xe024;" glyph-name="uniE024" d="M1280 448c0-424.128-343.872-768-768-768s-768 343.936-768 768 343.872 768 768 768 768-343.872 768-768zM849.728 448v0l-547.52 352v-704l547.52 352z" />
<glyph unicode="&#xe025;" glyph-name="uniE025" d="M849.728 448v0l-547.52 352v-704l547.52 352z" />
<glyph unicode="&#xe026;" glyph-name="uniE026" d="M512-320c-424.128 0-768 343.936-768 768s343.872 768 768 768 768-343.872 768-768-343.872-768-768-768zM512 110.272v0l352 547.584h-704l352-547.584z" />
<glyph unicode="&#xe027;" glyph-name="uniE027" d="M512 110.272v0l352 547.584h-704l352-547.584z" />
<glyph unicode="&#xe028;" glyph-name="uniE028" d="M-256 448c0 424.128 343.872 768 768 768s768-343.872 768-768-343.872-768-768-768-768 343.936-768 768zM174.272 448v0l547.584-352v704l-547.584-352z" />
<glyph unicode="&#xe029;" glyph-name="uniE029" d="M174.272 448v0l547.584-352v704l-547.584-352z" />
<glyph unicode="&#xe02a;" glyph-name="uniE02A" d="M1024 0h-1024v896h1024v-896zM64 64h896v768h-896v-768zM320 704h576v-128h-576zM320 512h576v-128h-576zM320 320h576v-128h-576zM128 644.032c0 35.346 28.654 64 64 64s64-28.654 64-64c0-35.346-28.654-64-64-64s-64 28.654-64 64zM128 452.032c0 35.346 28.654 64 64 64s64-28.654 64-64c0-35.346-28.654-64-64-64s-64 28.654-64 64zM128 260.032c0 35.346 28.654 64 64 64s64-28.654 64-64c0-35.346-28.654-64-64-64s-64 28.654-64 64z" />
<glyph unicode="&#xe02b;" glyph-name="uniE02B" d="M511.296 950.336l175.36-297.792 336.704-74.176-227.84-260.288 32.256-341.696-316.928 134.912-315.904-134.912 31.36 341.696-226.944 260.288 336.448 71.232z" />
<glyph unicode="&#xe02c;" glyph-name="uniE02C" d="M960 174.208v273.792h-384v139.776c74.368 26.432 128 96.768 128 180.224 0 105.984-86.016 192-192 192s-192-85.952-192-192c0-83.52 53.632-153.792 128-180.224v-139.776h-384v-273.792c-38.144-22.208-64-62.976-64-110.208 0-70.656 57.344-128 128-128s128 57.344 128 128c0 47.232-25.856 88.064-64 110.272v145.728h256v-145.792c-38.144-22.208-64-62.976-64-110.208 0-70.656 57.344-128 128-128s128 57.344 128 128c0 47.232-25.856 88.064-64 110.272v145.728h256v-145.792c-38.144-22.208-64-62.976-64-110.272 0-70.656 57.344-128 128-128s128 57.344 128 128c0 47.296-25.856 88.064-64 110.272z" />
<glyph unicode="&#xe02d;" glyph-name="uniE02D" d="M321.6-64l-84.48 114.048c-124.352 167.488-267.392 268.416-268.736 269.376l110.72 159.488c5.504-3.904 110.848-77.696 226.752-206.72 216.768 324.288 398.656 502.528 627.776 687.808l121.984-150.912c-244.096-197.568-421.248-376.064-658.24-752.896l-75.776-120.192z" />
<glyph unicode="&#xe02e;" glyph-name="uniE02E" d="M896 649.6l-134.4 134.4-249.6-249.6-249.6 249.6-134.4-134.4 249.6-249.6-249.6-249.6 134.4-134.4 249.6 249.6 249.6-249.6 134.4 134.4-249.6 249.6z" />
<glyph unicode="&#xe02f;" glyph-name="uniE02F" d="M512 896c247.040 0 448-200.96 448-448s-200.96-448-448-448-448 200.96-448 448 200.96 448 448 448zM512 960c-282.752 0-512-229.184-512-512 0-282.752 229.248-512 512-512 282.88 0 512 229.248 512 512 0 282.816-229.12 512-512 512v0zM507.584 291.712c-124.864 0-222.656-63.616-222.656-144.768h63.872c0 38.272 65.28 80.832 158.72 80.832s158.656-42.56 158.656-80.832h63.936c0.064 81.152-97.664 144.768-222.528 144.768zM382.464 545.664c0 52.992-42.944 96-95.936 96-53.056 0-95.936-43.008-95.936-96s42.88-95.936 95.936-95.936c52.992 0 95.936 42.944 95.936 95.936zM830.272 545.664c0 52.992-42.944 96-96 96-52.992 0-95.936-43.008-95.936-96s42.944-95.936 95.936-95.936c53.056 0 96 42.944 96 95.936z" />
<glyph unicode="&#xe030;" glyph-name="uniE030" d="M299.968-64l-299.968 299.968v424.064l299.968 299.968h424.128l299.904-299.968v-424.128l-299.968-299.904h-424.064zM176.192 402.944h-51.008v-10.304c0-23.36 6.208-41.344 18.624-53.888 12.352-12.48 33.024-18.752 61.824-18.752 27.648 0 49.216 6.080 64.704 18.24s23.232 31.616 23.232 58.304c0 7.808-0.768 14.912-2.112 21.312-1.408 6.4-3.968 12.224-7.616 17.536-3.712 5.312-8.576 10.304-14.72 14.912s-14.080 9.024-23.744 13.312l-39.36 16.96c-10.88 4.48-17.984 9.408-21.248 14.72-3.328 5.312-4.992 11.84-4.992 19.648 0 3.776 0.448 7.424 1.28 10.944 0.768 3.584 2.304 6.72 4.544 9.472s5.248 4.928 9.024 6.592c3.84 1.6 8.512 2.496 14.208 2.496 9.92 0 17.024-3.264 21.248-9.728s6.464-15.808 6.464-27.84h48.896v7.040c0 12.032-1.92 22.4-5.824 30.976-3.968 8.64-9.408 15.744-16.384 21.312-6.976 5.504-15.232 9.536-24.768 12.032s-20.032 3.712-31.36 3.712c-24.384 0-43.52-6.144-57.408-18.432-14.016-12.288-20.992-30.976-20.992-56 0-10.368 1.344-19.52 3.968-27.456 2.56-7.936 6.656-14.848 12.224-20.928 5.504-6.016 12.416-11.264 20.672-15.808 8.32-4.48 18.112-8.64 29.44-12.416 8.512-2.816 15.616-5.568 21.44-8.32s10.432-5.76 14.016-9.024c3.584-3.328 6.080-7.040 7.616-11.2 1.536-4.096 2.304-9.024 2.304-14.656 0-10.688-3.136-18.496-9.344-23.616-6.336-5.056-13.376-7.616-21.184-7.616-6.656 0-12.096 0.96-16.512 2.816-4.352 1.92-7.808 4.48-10.432 7.808-2.56 3.392-4.352 7.424-5.312 12.288s-1.408 10.176-1.408 16.128v7.424zM485.312 576.96h-161.6v-41.792h55.296v-211.264h51.008v211.264h55.296v41.792zM520.064 450.432c0-19.392 0.96-37.12 2.688-53.184s5.696-29.888 11.712-41.408c6.080-11.584 14.72-20.416 26.048-26.624 11.328-6.144 26.56-9.216 45.76-9.216 19.136 0 34.368 3.072 45.696 9.216s20.032 14.976 26.048 26.624c6.016 11.584 9.92 25.408 11.712 41.472s2.688 33.792 2.688 53.184c0 19.136-0.896 36.8-2.688 52.992-1.728 16.192-5.696 30.080-11.712 41.664-6.016 11.52-14.72 20.544-26.048 27.008-11.328 6.528-26.624 9.792-45.696 9.792-19.2 0-34.432-3.264-45.76-9.728s-20.032-15.552-26.048-27.136c-6.016-11.584-9.984-25.472-11.712-41.664s-2.688-33.856-2.688-52.992zM571.136 450.432c0 17.024 0.448 31.424 1.28 43.264s2.432 21.504 4.928 29.056c2.496 7.552 6.016 13.056 10.688 16.448 4.544 3.456 10.688 5.184 18.24 5.184s13.632-1.728 18.24-5.184c4.544-3.392 8.128-8.896 10.624-16.448 2.432-7.552 4.096-17.28 4.928-29.056s1.28-26.24 1.28-43.264c0-17.024-0.448-31.488-1.28-43.392s-2.496-21.632-4.928-29.056c-2.496-7.424-6.080-12.928-10.624-16.32-4.608-3.456-10.688-5.184-18.24-5.184s-13.696 1.728-18.24 5.184c-4.672 3.392-8.192 8.896-10.688 16.32s-4.16 17.088-4.992 29.056-1.216 26.368-1.216 43.392zM740.672 576.96v-253.056h51.008v101.056h27.328c12.032 0 23.040 1.536 32.96 4.608s18.368 7.68 25.344 13.824c6.912 6.144 12.352 14.080 16.32 23.744 3.904 9.664 5.824 21.056 5.824 34.048 0 9.472-1.216 18.688-3.52 27.84-2.368 9.088-6.336 17.216-11.776 24.256s-12.544 12.8-21.44 17.216c-8.832 4.352-19.776 6.528-32.768 6.528h-89.28zM791.68 462.528v76.864h21.248c12.8 0 21.888-3.328 27.328-9.92 5.44-6.656 8.192-16.32 8.192-29.056 0-12.992-3.2-22.592-9.408-28.736-6.272-6.144-14.464-9.216-24.64-9.216h-22.72z" />
<glyph unicode="&#xe031;" glyph-name="uniE031" d="M0 874.667h1024v-136.661h-1024v136.661zM0 628.672h1024v-136.661h-1024v136.661zM0 382.677h1024v-136.661h-1024v136.661zM0 136.661h1024v-136.661h-1024v136.661z" />
<glyph unicode="&#xe032;" glyph-name="uniE032" d="M32 608.064h320v320h-320v-320zM672 608.064h320v320h-320v-320zM672-31.936h320v320h-320v-320zM32-31.936h320v320h-320v-320z" />
<glyph unicode="&#xe033;" glyph-name="uniE033" d="M768 640v256h-512v-256h-256v-64h1.856l60.032-640h900.16l61.12 640h0.832v64h-256zM940.608 384h-236.608v128h248.832l-12.224-128zM72.128 512h247.872v-128h-235.904l-11.968 128zM320 768h384v-128h-384v128zM640 512v-128h-256v128h256zM90.112 320h229.888v-128h-217.856l-12.032 128zM384 320h256v-128h-256v128zM704 320h230.528l-12.224-128h-218.304v128zM120.128 0l-12.032 128h211.904v-128h-199.872zM384 0v128h256v-128h-256zM704 0v128h212.096l-12.16-128h-199.936z" />
<glyph unicode="&#xe034;" glyph-name="uniE034" d="M0 872.96h192v-190.293h-192v190.293zM320 874.667h704v-192h-704v192zM0 531.627h192v-190.293h-192v190.293zM320 533.333h704v-192h-704v192zM0 190.293h192v-190.293h-192v190.293zM320 192h704v-192h-704v192z" />
<glyph unicode="&#xe035;" glyph-name="uniE035" d="M118.144-64c-65.216 0-118.144 52.992-118.144 118.208s52.928 118.144 118.144 118.144c65.28 0 118.208-52.928 118.208-118.144s-52.992-118.208-118.208-118.208zM0 960v-236.288c435.136 0 787.776-352.64 787.776-787.712h236.224c0 565.568-458.432 1024-1024 1024zM0 566.208v-236.288c217.536 0 393.856-176.32 393.856-393.856h236.224c0.064 347.968-281.984 630.144-630.080 630.144z" />
<glyph unicode="&#xe036;" glyph-name="uniE036" d="M320 704v-128.64h-64v-191.36h64v-448h256v448.32h64l64 191.68h-127.232v150.72c0 17.6 23.168 41.28 46.016 41.28h81.216v192h-64c-256 0-320-192-320-256z" />
<glyph unicode="&#xe037;" glyph-name="uniE037" d="M62.848 832.256c0 0 151.872-212.608 431.68-217.024 0 0-23.744 184.448 136.768 240.896 0 0 136.704 56.384 227.84-49.92 0 0 106.304 17.344 130.176 49.92 0 0-6.592-65.344-80.256-112.96 0 0 67.2 0.064 114.944 26.176 0 0-67.136-83.968-96.192-97.088-0.448-0.192-0.96-0.384-1.408-0.576-28.16-10.88 30.4-199.68-145.344-423.104 0 0-133.184-180.032-381.888-214.72-101.184-14.208-249.472-26.112-399.168 86.72 0 0 151.808-19.584 303.68 93.312 0 0-156.224 12.992-193.152 143.168 0 0 71.616 0 86.848 2.176 0 0-167.104 56.448-164.992 215.872 0 0 56.512-24.896 88-21.696 0.064 0-141.056 105.28-57.536 278.848z" />
<glyph unicode="&#xe038;" glyph-name="uniE038" d="M536 960c-279.488 0-420.352-200.32-420.352-367.424 0-101.184 38.336-191.168 120.448-224.704 13.44-5.504 25.536-0.192 29.44 14.72 2.752 10.304 9.216 36.352 12.032 47.168 3.968 14.72 2.432 19.968-8.448 32.768-23.744 27.968-38.848 64.128-38.848 115.392 0 148.672 111.168 281.728 289.536 281.728 157.952 0 244.736-96.512 244.736-225.408 0-169.6-75.072-312.704-186.496-312.704-61.504 0-107.584 50.88-92.8 113.344 17.664 74.496 51.968 154.88 51.968 208.704 0 48.128-25.856 88.32-79.296 88.32-62.912 0-113.408-65.088-113.408-152.256 0-55.488 18.752-93.056 18.752-93.056s-64.384-272.768-75.712-320.512c-22.464-95.168-3.392-211.776-1.728-223.552 1.024-6.976 9.92-8.64 14.016-3.392 5.824 7.616 80.704 100.096 106.176 192.512 7.168 26.176 41.344 161.664 41.344 161.664 20.416-38.976 80.128-73.344 143.68-73.344 189.056 0 317.376 172.352 317.376 403.072-0.064 174.464-147.84 336.96-372.416 336.96z" />
<glyph unicode="&#xe03a;" glyph-name="uniE03A" d="M336.448 533.12l90.496 90.496-189.696 189.696 146.752 146.688h-384v-384l146.752 146.752zM426.88 272.384l-90.496 90.496-189.632-189.568-146.752 146.688v-384h384l-146.752 146.752zM687.616 362.88l-90.496-90.496 189.632-189.632-146.752-146.752h384v384l-146.752-146.688zM640 960l146.752-146.688-189.696-189.696 90.496-90.496 189.696 189.632 146.752-146.752v384z" />
<glyph unicode="&#xe03b;" glyph-name="uniE03B" d="M896 502.272v-566.272h-896v896h566.272l-128.064-128h-310.208v-640h640v310.208l128 128.064zM1024 960.064l-466.368-0.064 165.248-165.312-406.784-406.784 135.744-135.744 406.72 406.784 165.44-165.312v466.432z" />
<glyph unicode="&#xe03c;" glyph-name="uniE03C" d="M576 896v64h-128v-64h-64v64h-384v-384h384v256h128v64h64zM64 896h256v-256h-256v256zM512 832h64v-64h-64zM576 704h-128v-64h64v-64h64zM448 576h64v-64h-64zM576 576h64v-64h-64zM640 960v-192h-64v-64h64v-128h192v-64h64v64h128v384h-384zM960 640h-256v256h256v-256zM768 832h128v-128h-128zM512 512h64v-64h-64zM128 512h64v-64h-64zM384 512h64v-64h-64zM640 512h64v-64h-64zM896 512h64v-64h-64zM128 384v64h-64v64h-64v-128zM320 384v128h-64v-64h-64v-64zM832 384h-64v64h-64v-128h64v-64h-128v-64h128v-128h64v192h64v-64h64v-64h64v128h-64v64h-64v128h-64zM768 512h64v-64h-64zM960 448h64v-64h-64zM640 448h-64v-64h-64v64h-64v-128h64v-64h-64v-128h64v64h64v64h64zM640 128h64v-64h-64zM896 128h64v-64h-64zM512 64v-64h-128v320h-384v-384h640v128h-128zM256 0h-192v256h256v-256h-64zM832 0h-64v64h-64v-128h192v128h-64zM960 64h64v-128h-64zM128 192v-128h128v128h-64zM128 832h128v-128h-128z" />
<glyph unicode="&#xe03d;" glyph-name="uniE03D" d="M832 320c-51.712 0-98.432-20.672-132.992-53.952l-317.376 158.72c1.024 7.68 2.368 15.296 2.368 23.232s-1.344 15.616-2.368 23.296l317.376 158.656c34.56-33.216 81.28-53.952 132.992-53.952 105.984 0 192 85.952 192 192s-86.016 192-192 192-192-85.952-192-192c0-8 1.344-15.552 2.368-23.232l-317.376-158.656c-34.56 33.216-81.28 53.888-132.992 53.888-105.984 0-192-85.952-192-192s86.016-192 192-192c51.712 0 98.432 20.672 132.992 53.952l317.376-158.656c-1.024-7.68-2.368-15.296-2.368-23.296 0-106.048 86.016-192 192-192s192 85.952 192 192-86.016 192-192 192z" />
<glyph unicode="&#xe03e;" glyph-name="uniE03E" d="M640 86.336c44.864 15.872 85.888 39.616 121.28 69.952l115.904-66.88c60.032 60.992 104.384 137.024 127.872 221.76l-115.648 66.752c4.096 22.784 6.592 46.144 6.592 70.080s-2.496 47.296-6.656 70.016l115.648 66.752c-23.488 84.736-67.904 160.768-127.744 221.76l-115.904-66.88c-35.456 30.4-76.48 54.208-121.344 70.080v133.504c-41.024 10.56-83.776 16.768-128 16.768s-86.976-6.208-128-16.768v-133.504c-44.864-15.872-85.888-39.68-121.28-70.016l-115.84 66.88c-60.032-60.992-104.384-137.024-127.872-221.824l115.776-66.752c-4.288-22.72-6.784-46.016-6.784-70.016s2.496-47.296 6.72-70.080l-115.648-66.752c23.488-84.8 67.904-160.768 127.744-221.76l115.904 66.88c35.392-30.336 76.544-54.080 121.28-69.952v-133.504c41.024-10.56 83.776-16.832 128-16.832s86.976 6.208 128 16.768v133.568zM320 448c0 106.048 86.016 192 192 192s192-85.952 192-192-86.016-192-192-192-192 86.016-192 192z" />
<glyph unicode="&#xe03f;" glyph-name="uniE03F" d="M256 320h320v-64h-320v64zM256 384h320v64h-320v-64zM256 128h320v64h-320v-64zM256 832v-64h512v-704h64v768h-576zM128 704h576v-768h-576v768zM192 0h448v640h-448v-640zM320 512h256v64h-256v-64zM896 960h-512v-64h512v-704h64v768h-64z" />
<glyph unicode="&#xe040;" glyph-name="uniE040" d="M610.304 780.736c5.76-47.68 4.864-115.136-2.368-184.832-5.248-53.056-27.84-127.36-49.856-183.616 3.584-7.040 6.592-12.928 9.28-17.088 10.752-16.384 13.952-43.968 11.968-71.232 8.896-1.664 8.384-3.456 17.344-4.992 110.464-19.328 235.328-43.392 235.328-297.472v-85.504h317.12c0 320-128.128 230.656-295.68 286.080-34.944 11.584-48.192 103.616-23.616 141.76 18.88 29.12 63.616 160.128 70.656 229.504 6.976 69.312 6.72 134.976 2.368 172.032-13.376 107.584-75.52 194.688-204.096 194.688-58.048 0-102.144-16.576-134.656-44.928 23.168-38.080 39.744-82.24 46.208-134.4zM480 222.080c-35.136 11.584-48.192 103.616-23.424 141.76 18.688 29.12 63.296 160.128 70.208 229.504 7.296 69.312 6.912 134.976 2.304 172.032-13.12 107.584-75.136 194.688-203.904 194.688-128.896 0-190.592-81.216-204.096-188.736-4.352-37.12-4.736-93.824 2.432-163.264 6.976-69.312 51.392-183.936 70.4-212.992 24.768-38.144 11.52-161.664-23.488-173.248-167.68-55.488-295.552 34.176-295.552-285.824h900.864c0 320-128.128 230.656-295.744 286.080z" />
<glyph unicode="&#xe041;" glyph-name="uniE041" d="M512 955.304l-507.306-507.304h112.734v-450.938h281.836v281.836h225.468v-281.836h281.836v450.938h112.734z" />
<glyph unicode="&#xe042;" glyph-name="uniE042" d="M540 116h60v120l-60 60zM540 836v-300l60 60v300h-600v-780l480-180v780l-319.98 120zM780 536v120l-240-240 240-240v120h180v240z" />
<glyph unicode="&#xe043;" glyph-name="uniE043" d="M512.064-64c-282.752 0-512 229.248-512 512s229.248 512 512 512 512-229.248 512-512-229.248-512-512-512zM896 448c0 212.032-171.904 384-383.936 384s-383.936-171.968-383.936-384 171.904-384 383.936-384 383.936 171.968 383.936 384zM704 448c0 105.984-85.952 192-191.936 192s-191.936-86.016-191.936-192 85.952-192 191.936-192 191.936 86.016 191.936 192z" />
<glyph unicode="&#xe044;" glyph-name="uniE044" d="M512-64c-282.752 0-512 229.248-512 512s229.248 512 512 512 512-229.248 512-512-229.248-512-512-512zM751.552 597.056l-90.56 90.496-148.992-148.992-148.992 148.992-90.496-90.496 148.992-149.056-148.992-149.056 90.496-90.56 148.992 149.12 148.992-148.992 90.496 90.496-148.992 148.992 149.056 149.056z" />
<glyph unicode="&#xe045;" glyph-name="uniE045" d="M512-320c-424.128 0-768 343.872-768 768s343.872 768 768 768 768-343.872 768-768-343.872-768-768-768zM806.144 651.648l-90.496 90.496-203.648-203.648-203.648 203.648-90.496-90.496 203.648-203.648-203.648-203.712 90.496-90.496 203.648 203.712 203.648-203.712 90.496 90.496-203.648 203.712 203.648 203.648z" />
<glyph unicode="&#xe046;" glyph-name="uniE046" d="M256 688v-320h-256v-384h512v128h512v576h-768zM384 112h-256v128h256v-128zM896 240h-384v128h-128v192h512v-320z" />
<glyph unicode="&#xe047;" glyph-name="uniE047" d="M420 116h-60v120l60 60zM420 836v-300l-60 60v300h600v-780l-480-180v780l319.98 120zM180 536v120l240-240-240-240v120h-180v240z" />
<glyph unicode="&#xe600;" glyph-name="uniE600" d="M820.502 65.39l-205.6 205.496c31.976 51.706 49.35 111.254 49.35 173.674 0.102 88.606-34.336 171.778-96.856 234.194-62.468 62.52-145.694 96.908-234.194 96.908-88.606 0-171.778-34.388-234.094-96.908-62.52-62.47-97.010-145.642-97.010-234.194s34.488-171.778 97.010-234.194c62.47-62.47 145.642-96.856 234.144-96.856 62.316 0 121.914 17.374 173.572 49.298l205.6-205.548 108.078 108.13zM333.252 215.438c-61.29 0-118.892 23.778-162.092 67.032-43.304 43.2-67.184 100.8-67.184 162.144s23.882 118.892 67.184 162.144c43.098 43.252 100.7 67.030 162.042 67.030s118.892-23.778 162.144-67.080c43.252-43.2 67.030-100.75 67.030-162.144 0-61.342-23.778-118.944-67.032-162.144s-100.854-66.98-162.092-66.98zM1023.898 674.914h-102.288v102.288h-102.34v-102.288h-102.288v-102.288h102.288v-102.288h102.338v102.288h102.288z" />
<glyph unicode="&#xe601;" glyph-name="uniE601" d="M593.434 837.292c1.412-42.304-29.704-76.242-79.198-76.242-43.722 0-74.948 33.938-74.948 76.242 0 43.836 32.528 77.78 77.78 77.78 46.674 0 76.364-33.938 76.364-77.78zM455.082 645.084h124.326v-619.162h-124.326v619.162z" />
<glyph unicode="&#xe602;" glyph-name="uniE602" d="M834.336 44.734v-64.468h-644.668v64.47h-64.468v451.266h773.606v-451.266h-64.47zM834.98 496c0 386.798-35.004 421.098-322.98 421.098-282.17 0-322.592-64.468-322.592-421.098zM321.37 496c0 316.276 19.276 300.158 190.63 300.158 191.274 0 195.14 16.118 195.14-300.158z" />
<glyph unicode="&#xe603;" glyph-name="uniE603" d="M996.006 91.894l-243.15 243.094c37.814 61.166 58.442 131.592 58.442 205.46 0.062 104.788-40.718 203.164-114.648 277.034-73.808 73.87-172.246 114.528-276.972 114.528s-203.164-40.658-276.972-114.59c-73.87-73.87-114.71-172.246-114.71-276.972s40.838-203.164 114.71-277.034 172.306-114.528 276.972-114.528c73.75 0 144.232 20.57 205.34 58.322l243.212-243.212 127.776 127.898zM419.736 269.402c-72.48 0-140.606 28.134-191.788 79.254s-79.378 119.246-79.378 191.788c0 72.538 28.254 140.606 79.438 191.788 51.064 51.186 119.186 79.318 191.666 79.318 72.538 0 140.664-28.134 191.844-79.378 51.122-51.064 79.254-119.184 79.254-191.726s-28.134-140.664-79.254-191.788c-51.184-51.122-119.308-79.254-191.788-79.254zM464.63 579.528h124.754v-95.228h-344.128v95.226h124.754z" />
<glyph unicode="&#xe604;" glyph-name="uniE604" d="M492.876 450.166v0 0l486.684-312.838v625.756l-243.38-156.418zM-19.5 450.24v0 0l486.686-312.838v625.684l-243.38-156.418z" />
<glyph unicode="&#xe605;" glyph-name="uniE605" d="M538.074 432v0 0l-486.686 312.916v-625.756l243.38 156.418zM1050.45 432v0 0l-486.684 312.838v-625.684l243.38 156.418z" />
<glyph unicode="&#xe606;" glyph-name="uniE606" d="M1011.62 80.408l-250.996 250.936c39.034 63.14 60.328 135.836 60.328 212.088 0.062 108.168-42.030 209.716-118.346 285.972-76.19 76.254-177.802 118.222-285.906 118.222s-209.718-41.97-285.906-118.286c-76.254-76.254-118.412-177.802-118.412-285.906s42.156-209.716 118.412-285.972 177.864-118.222 285.906-118.222c76.13 0 148.886 21.234 211.964 60.204l251.058-251.058 131.898 132.024zM416.76 263.64c-74.82 0-145.14 29.042-197.974 81.812s-81.938 123.094-81.938 197.976c0 74.878 29.164 145.14 81.998 197.976 52.712 52.836 123.030 81.876 197.848 81.876 74.878 0 145.202-29.040 198.034-81.938 52.77-52.712 81.812-123.030 81.812-197.912s-29.042-145.202-81.812-197.976c-52.836-52.77-123.156-81.812-197.976-81.812zM463.1 357.382h-97.676v128.152h-128.778v98.238h128.778v128.462h97.612v-128.462h128.778v-98.298h-128.778v-128.090z" />
<glyph unicode="&#xe607;" glyph-name="uniE607" d="M204.534-17.192l30.502 331.63-220.278 252.612 326.538 69.172 170.334 291.904 170.21-289.048 326.818-71.998-221.178-252.646 31.278-331.63-307.498 130.888-306.722-130.888zM511.224 147.492l271.746-115.668-27.644 292.994 195.432 223.2-288.798 63.61-150.208 255.068 0.248-258.018v-260.658l-0.278-21.37v-16.494l-0.498-162.664z" />
<glyph unicode="&#xe608;" glyph-name="uniE608" d="M1017.194 652.678c0-120.973-224.153-219.040-500.66-219.040s-500.66 98.065-500.66 219.038c0 120.973 224.153 219.038 500.66 219.038s500.66-98.065 500.66-219.038zM510.652 180.366c-214.345 0-385.633 62.893-494.778 179.236v149.323c160.962-171.602 370.677-213.406 692.662-153.326 0 0-22.341-52.945-26.846-77.101-8.636-46.75-5.82-83.423-5.82-83.423-60.579-14.707-102.761-16.021-165.22-14.707zM511.467-72.784c-214.342 0-386.447 49.19-495.588 170.786v156.019c160.962-179.3 390.014-229.425 686.966-167.595 0 0 16.269-46.684 34.48-72.033 29.603-41.241 52.694-72.096 63.331-77.039-0.062 0-158.332-10.137-289.194-10.137zM1029.148 376.561c0.751-22.466-15.772-40.487-42.057-40.487-23.217 0-39.802 18.022-39.802 40.487 0 23.279 17.273 41.303 41.303 41.303 24.784 0 40.553-18.022 40.553-41.303zM955.675 274.487h66.023v-328.807h-66.023v328.81z" />
<glyph unicode="&#xe609;" glyph-name="uniE609" d="M1019.85 684.572c0-125.134-231.867-226.576-517.886-226.576s-517.886 101.441-517.886 226.576c0 125.134 231.867 226.576 517.886 226.576s517.886-101.441 517.886-226.576zM495.878 196.009c-221.718 0-398.906 65.057-511.803 185.405v154.46c166.499-177.505 383.43-220.748 716.495-158.604 0 0-23.109-54.765-27.769-79.754-8.933-48.357-6.020-86.292-6.020-86.292-62.663-15.212-106.297-16.572-170.903-15.212zM496.721-65.849c-221.718 0-399.746 50.882-512.643 176.662v161.385c166.499-185.468 403.435-237.322 710.606-173.361 0 0 16.832-48.293 35.668-74.51 30.62-42.66 54.507-74.579 65.514-79.689-0.063 0-163.783-10.485-299.147-10.485zM1277.759-124.628l-111.865 125.781c-46.156-36.578-93.674-50.495-156.983-50.495-148.893 0-270.012 121.119-270.012 270.014s121.119 270.014 270.014 270.014 270.014-121.119 270.014-270.014c0-64.992-23.044-124.743-61.437-171.292l114.385-130.639-54.119-43.374zM1008.976 433.459c-117.302 0-212.787-95.421-212.787-212.787s95.485-212.787 212.787-212.787 212.787 95.485 212.787 212.787-95.421 212.787-212.787 212.787z" />
<glyph unicode="&#xe60a;" glyph-name="uniE60A" d="M363.308 446.932l224.384 324.778 70.23-48.512-190.548-275.798 193.322-273.962-69.674-49.152z" />
<glyph unicode="&#xe60b;" glyph-name="finnalogo" horiz-adv-x="1704" d="M697.965 809.045l-232.766 115.91c-3.284 1.66-33.272 16.024-73.587 16.024-24.695 0-48.030-5.418-69.295-16.024l-232.779-115.91c-3.021-1.495-74.562-38.079-74.562-120.442v-427.412c0-3.412 0.863-83.733 74.567-120.458l232.766-115.891c3.305-1.66 33.283-16.024 73.587-16.024h0.001c24.689 0 47.976 5.418 69.286 16.024l232.766 115.891c3.021 1.509 74.567 38.080 74.567 120.458v427.412c0 3.389-0.85 83.709-74.567 120.442zM714.826 261.217c0-46.159-41.042-67.982-42.584-68.791l-232.766-115.891c-13.255-6.605-27.901-9.914-43.544-9.914h-0.001c-26.923 0-47.842 9.849-47.868 9.914l-140.698 70.063 140.012 69.98c11.894-15.914 30.84-26.341 52.248-26.341 35.969 0 65.209 29.177 65.17 65.092-0.001 5.635-0.002 203.362-0.002 203.362l16.917 8.233c7.229-6.945 16.937-11.271 27.719-11.271 22.004 0 39.933 17.96 39.933 39.966s-17.947 39.899-39.933 39.899c-22.006 0-39.947-17.899-39.947-39.899 0-0.207 0.004-0.355 0.004-0.562l-26.414-13.212c-5.184-2.592-8.488-7.886-8.488-13.694v-157.907c-6.204 3.971-13.083 6.863-20.467 8.591v303.911l94.188 47.335c7.020-6.025 16.082-9.724 26.014-9.724 22.006 0 39.933 17.954 39.933 39.963 0 22.013-17.922 39.947-39.933 39.947-21.969 0-39.909-17.912-39.909-39.947 0-0.95 0.011-1.876 0.177-2.849l-97.862-49.214c-11.995 13.984-29.733 22.915-49.582 22.915-35.97 0-65.22-29.285-65.22-65.251 0-1.388-0.012-206.203-0.012-206.203l-20.994-10.477c-6.554 4.658-14.509 7.441-23.146 7.441-21.969 0-39.933-17.912-39.933-39.933 0-22.004 17.954-39.933 39.933-39.933 22.006 0 39.933 17.947 39.933 39.933 0 2.167-0.214 4.261-0.544 6.382l26.935 13.472c5.184 2.59 8.488 7.886 8.488 13.71v160.557c6.221-3.964 13.152-6.856 20.516-8.522v-298.663l-159.948-79.943-57.709 28.718c-41.305 20.576-42.566 67.028-42.586 68.791v427.384c0 46.159 41.045 67.982 42.586 68.771l232.731 115.91c13.266 6.605 27.901 9.929 43.577 9.929 26.923 0 47.796-9.912 47.865-9.929l232.766-115.91c41.303-20.574 42.535-67.026 42.584-68.771v-427.412zM399.613 289.010c18.607 0 33.717-15.060 33.717-33.682 0-18.583-15.081-33.682-33.717-33.682s-33.657 15.092-33.657 33.682c0 18.617 15.063 33.682 33.657 33.682zM383.466 318.4c-7.157-1.809-13.874-4.824-19.893-8.79v233.242c7.17 1.907 13.932 4.865 19.893 8.926v-233.366zM347.143 571.798c-18.813 0-34.093 15.291-34.093 34.116s15.276 34.116 34.093 34.116c18.85 0 34.14-15.291 34.14-34.116s-15.313-34.116-34.14-34.116zM490.715 495.596c0 10.274 8.385 18.629 18.638 18.629s18.617-8.364 18.617-18.629c0-10.289-8.361-18.638-18.617-18.638s-18.638 8.348-18.638 18.638zM515.726 700.331c0 10.289 8.361 18.629 18.607 18.629 10.282 0 18.629-8.348 18.629-18.629s-8.361-18.629-18.629-18.629c-10.249-0.001-18.607 8.361-18.607 18.629zM256.315 356.703c0-10.282-8.348-18.617-18.629-18.617-10.249 0-18.638 8.348-18.638 18.617s8.388 18.638 18.638 18.638c10.282 0 18.629-8.361 18.629-18.638zM2857.097 404.396h-83.307c13.619 53.622 28.078 113.458 41.666 164.038 13.638-50.561 28.012-110.391 41.643-164.038zM2963.395 268.387l-114.878 450.651c-3.636 16.344-16.601 27.266-33.079 27.266-16.541 0-29.418-10.895-33.050-27.266l-114.932-450.651c-5.031-20.968 5.713-40.387 23.695-45.804 19.42-5.339 37.278 6.221 42.365 25.666 2.13 6.221 3.604 13.96 5.816 22.513 3.516 14.739 8.565 34.977 15.050 59.043h122.15c5.669-24.081 11.507-44.291 15.077-59.043 2.13-8.554 3.541-16.299 5.803-22.513 4.986-19.438 22.929-31.002 42.409-25.666 17.973 5.388 28.658 24.856 23.608 45.804zM2442.645 221.771c15.063 3.961 26.572 18.734 26.572 36.582v450.621c0 20.964-15.131 37.315-34.556 37.315-19.369 0-34.481-16.366-34.481-37.315v-287.485c-30.805 67.565-63.884 142.97-90.422 202.027-15.829 34.984-30.884 68.354-45.375 101.834-7.777 15.535-22.197 24.045-38.744 20.068-16.535-3.799-26.561-18.583-26.561-36.47v-450.621c0-21.012 15.081-37.346 34.477-37.346 19.4 0 34.477 16.328 34.477 37.346v287.485c29.5-67.607 63.918-142.974 90.516-202.026 15.829-34.977 30.926-68.355 45.268-101.772 6.399-15.546 22.212-24.151 38.78-20.308zM1944.062 221.771c15.135 3.961 26.572 18.734 26.572 36.582v450.621c0 20.964-15.063 37.315-34.392 37.315-19.382 0-34.481-16.366-34.481-37.315v-287.485c-30.976 67.565-63.918 142.97-90.568 202.027-15.769 34.984-30.843 68.354-45.225 101.834-7.85 15.535-22.236 24.045-38.86 20.068-16.501-3.799-26.549-18.583-26.549-36.47v-450.621c0-21.012 15.135-37.346 34.432-37.346 19.438 0 34.563 16.328 34.563 37.346v287.485c29.416-67.607 63.981-142.974 90.493-202.026 15.833-34.977 30.841-68.355 45.219-101.772 6.519-15.546 22.314-24.151 38.78-20.308zM1437.722 221.035c19.349 0 34.455 16.328 34.455 37.346v450.621c0 20.964-15.131 37.315-34.455 37.315-19.4 0-34.543-16.366-34.543-37.315v-450.621c0.001-21.043 15.131-37.346 34.543-37.346zM1025.341 224.137c19.369 0 34.477 16.34 34.477 37.248v192.71h94.806c19.435 0 34.567 16.344 34.567 37.299 0 21.012-15.14 37.313-34.567 37.313h-94.806v139.882h109.218c19.441 0 34.477 16.344 34.477 37.278 0 21.012-15.032 37.315-34.477 37.315h-143.678c-19.382 0-34.479-16.299-34.479-37.315v-444.46c0-20.87 15.092-37.248 34.477-37.248z" />
<glyph unicode="&#xe60c;" glyph-name="uniE60C" d="M724.94 8.982c0 0-145.802 8.524-358.846 190.13-110.34-75.424-206.77-167.352-317.314-242.64-4.296-2.932-8.932-5.866-15.138-7.16 79.106 118.318 168.17 214.544 248.096 334.226-179.968 143.142-200.836 369.414-200.836 369.414zM80.9 652.954c33.552 42.282 33.552 42.282 74.128 61.512 45.214-25.234 175.466-102.566 222.726-157.736 6.888-5.796 5.66-2.114 11.456 1.092 73.31 40.1 145.938 121.66 227.228 202.336-13.434-13.366-3.068-3.546 0 0s-21.346 18.822-41.53 51.146c-8.932 14.322-11.39 26.186-11.73 28.778-3.068 22.982 17.048 56.466 58.58 40.576 95.884-24.482 291.946-183.308 360.14-319.702-1.024-2.114 22.436-24.618-2.114-53.26-31.982-37.302-47.942-32.052-64.99-14.936-59.74 60.012-62.876 51.146-62.876 51.146 2.728-2.318 2.114 1.91 0 0-61.784-57.558-158.078-177.174-198.926-251.37-3-5.524-3.546-7.57 3-14.934 41.736-46.1 102.158-146.346 121.32-194.086-15.072-40.644-28.37-46.442-58.784-76.722z" />
<glyph unicode="&#xe60d;" glyph-name="uniE60D" d="M199.738-51.556h-65.074v1000.924h65.074v-1000.924zM884.84 12.024h-685.1v-63.576h685.1v63.576zM884.84 695.124h-59.268v-683.104h59.268v683.102zM574.454 641.726h251.122v53.398h-251.122v-53.398zM634.282 949.366h-434.544v-60.452h434.544v60.452zM634.282 888.972h-59.83v-193.85h59.83v193.85zM634.282 949.366v-66.136l183.17-188.168h67.384l-250.56 254.306zM364.988 118.814h-63.764v435.852h63.764v-435.852zM720.154 180.018h-355.166v-61.14h355.228v61.14zM634.282 369.31h-269.294v-64.386h269.294v64.386zM720.154 554.668h-355.166v-62.454h355.228v62.454z" />
<glyph unicode="&#xe60e;" glyph-name="uniE60E" d="M683.692 552.832c0-95.27-77.23-172.5-172.5-172.5s-172.5 77.23-172.5 172.5c0 95.27 77.23 172.5 172.5 172.5s172.5-77.23 172.5-172.5zM506.324-60.5l-15.916 18.688c-13.908 16.384-340.992 403.244-340.992 599.98 0 148.14 114.176 367.36 359.252 367.36 252.458 0 365.996-217.942 365.996-372.692 0-196.010-337.664-578.774-352.044-594.986l-16.298-18.346zM508.672 882.86c-215.98 0-316.586-193.75-316.586-324.694 0-157.866 248.876-472.448 314.924-553.13 68.010 79.572 324.992 390.912 324.992 547.798 0 137.044-100.352 330.028-323.328 330.028z" />
<glyph unicode="&#xe60f;" glyph-name="uniE60F" d="M196.87-42.424l31.2 339.954-226.002 259.192 334.898 70.922 174.61 299.212 174.61-296.504 335.020-73.782-226.754-259.010 32.106-339.954-315.31 134.2-314.378-134.23zM511.248 124.512l280.586-119.428-28.526 302.55 201.782 230.488-298.19 65.684-155.202 263.556-155.444-266.384-297.798-63.068 200.79-230.278-27.802-302.55 279.802 119.428z" />
<glyph unicode="&#xe610;" glyph-name="uniE610" horiz-adv-x="896" d="M378.752 244.8c-0.384 12.736-0.512 22.336-0.512 28.672 0 37.504 5.248 69.952 15.872 97.216 7.808 20.544 20.352 41.28 37.76 62.144 12.736 15.232 35.712 37.44 68.8 66.688 33.152 29.248 54.656 52.544 64.576 69.888 9.856 17.344 14.848 36.288 14.848 56.832 0 37.184-14.592 69.824-43.648 98.048-28.992 28.096-64.64 42.24-106.752 42.24-40.768 0-74.752-12.736-102.016-38.272s-45.056-65.408-53.568-119.552l-98.304 11.648c8.896 72.64 35.136 128.256 78.848 166.848s101.568 57.92 173.44 57.92c76.16 0 136.96-20.736 182.272-62.144s68.032-91.584 68.032-150.4c0-33.984-8-65.344-23.872-94.016-16-28.672-47.168-63.552-93.504-104.64-31.232-27.648-51.584-48-61.12-61.12s-16.64-28.16-21.248-45.184-7.232-44.608-8-82.88h-91.904zM372.864 52.992v108.928h108.928v-108.928h-108.928z" />
<glyph unicode="&#xe611;" glyph-name="uniE611" d="M660.692 449.068l-224.384-324.778-70.228 48.512 190.55 275.798-193.322 273.962 69.676 49.152z" />
<glyph unicode="&#xe612;" glyph-name="uniE612" d="M510.464 608.086l324.778-224.428-48.512-70.23-275.754 190.548-273.964-193.322-49.194 69.716z" />
<glyph unicode="&#xe613;" glyph-name="uniE613" d="M512.64 310.614l-324.822 224.47 48.512 70.186 275.796-190.548 273.962 193.322 49.152-69.676z" />
<glyph unicode="&#xe614;" glyph-name="uniE614" d="M1027.736-67.736h-193.402v515.736h-128.932v-515.736h-128.932v709.134h-128.932v-709.134h-128.932v451.266h-128.932v-451.266h-193.402v1031.47h1031.47z" />
<glyph unicode="&#xe615;" glyph-name="uniE615" d="M51.138 570.658l14.96-120.432c4.012-30.126 7.207-57.938 9.586-84.323h1.702c4.692 26.385 10.271 57.054 15.368 83.235l24.481 121.453h57.736l24.005-118.528c5.577-31.488 10.88-58.756 14.214-86.159h1.567c1.769 26.385 5.17 55.354 9.792 85.614l17.276 119.074h73.374l-71.88-278.814h-63.379l-21.012 97.449c-5.847 25.841-10.811 55.354-14.147 87.451h-1.223c-3.603-32.643-9.725-61.611-16.049-87.927l-24.005-96.902h-63.786l-68.479 278.814h79.903zM417.953 570.658l14.96-120.432c3.947-30.126 7.138-57.938 9.655-84.323h1.632c4.626 26.385 10.2 57.054 15.302 83.235l24.551 121.453h57.734l24.005-118.528c5.782-31.488 10.743-58.756 14.212-86.159h1.495c1.702 26.385 5.17 55.354 9.862 85.614l17.067 119.074h73.58l-71.948-278.814h-63.241l-21.151 97.449c-5.782 25.772-10.743 55.284-14.145 87.386h-1.294c-3.466-32.643-9.655-61.611-15.98-87.927l-23.939-96.902h-63.721l-68.479 278.814h79.835zM784.762 570.658l14.756-120.432c4.011-30.126 7.414-57.938 9.792-84.323h1.702c4.557 26.385 10.132 57.054 15.368 83.235l24.481 121.453h57.666l23.869-118.528c5.712-31.488 10.813-58.756 14.212-86.159h1.906c1.567 26.385 4.827 55.354 9.586 85.614l17.067 119.074h73.58l-71.948-278.814h-63.241l-21.151 97.449c-5.712 25.772-10.611 55.284-14.282 87.386h-1.088c-3.401-32.643-9.792-61.611-15.98-87.927l-24.005-96.902h-63.788l-68.479 278.814h79.972zM163.619 171.547c24.346-36.519 35.363-54.946 56.646-76.232 80.785-81.062 188.503-125.601 302.888-125.601 114.109 0 221.758 44.609 302.956 125.67 21.217 21.080 41.615 51.342 57.938 76.232h71.606c-19.515-46.176-56.306-96.224-82.692-123.090-92.755-94.524-217.952-144.986-349.808-144.986-132.127 0-256.372 51.479-349.808 144.986-39.509 39.644-59.161 63.788-96.087 123.090zM869.29 723.465c-24.346 36.519-35.363 54.946-56.648 76.232-80.787 81.060-188.503 125.601-302.888 125.601-114.109 0-221.758-44.608-302.958-125.668-21.217-21.080-41.687-51.342-57.938-76.164h-71.606c19.515 46.176 56.306 96.224 82.692 123.090 92.755 94.524 217.95 144.986 349.808 144.986 132.127 0 256.372-51.479 349.808-144.986 39.509-39.644 59.161-63.788 96.087-123.090z" />
<glyph unicode="&#xe616;" glyph-name="uniE616" d="M896 832v-832h-832c0 0 1.984-64 64-64s800 0 800 0h32v896h-64zM128 960c0 0-20.768-1.216-40.672-20-23.328-21.984-23.328-44-23.328-44v-896h64v128h704v832h-704z" />
<glyph unicode="&#xe617;" glyph-name="uniE617" d="M137.288 947.62c61.234 0 686.974 0 686.974 0v-62.454h-749.428c0 0 1.224 62.454 62.454 62.454zM262.188 885.164h562.072v-124.904h-562.070v124.904zM636.9 760.262h187.356v-624.522h-187.356v624.522zM324.642 697.81h312.262v-124.904h-312.262v124.904zM324.642 510.454h312.262v-124.902h-312.262v124.904zM574.452 572.904h62.456v-62.454h-62.456v62.454zM199.738 323.096h437.164v-187.356h-437.164v187.356zM74.836 10.836h874.332v-62.454c0 0-755.038 0-811.876 0s-62.454 62.456-62.454 62.456zM886.712 822.712h62.452v-811.876h-62.452v811.876zM74.836 885.164h124.904v-749.432l-61.718-0.244 0.152-124.66h-63.336v874.332zM199.738 885.164h62.454v-562.070h-62.454v562.070z" />
<glyph unicode="&#xe618;" glyph-name="phone" horiz-adv-x="1016" d="M517.049 947.739c-268.886 0-486.867-217.965-486.867-486.867 0-91.985 25.527-178.020 69.867-251.406l-87.866-261.201 269.555 86.292c69.754-38.565 149.963-60.556 235.315-60.556 268.902 0 486.867 217.995 486.867 486.867 0.022 268.902-217.965 486.867-486.867 486.867zM517.049 55.558c-82.32 0-158.983 24.684-222.993 67.009l-155.755-49.851 50.629 150.5c-48.526 66.832-77.175 148.944-77.175 237.638 0 223.494 181.815 405.327 405.296 405.327 223.494 0 405.31-181.83 405.31-405.327 0-223.477-181.815-405.296-405.31-405.296zM745.327 350.231c-12.213 6.685-72.151 39.036-83.407 43.606-11.241 4.556-19.441 6.944-28.204-5.185-8.757-12.098-33.617-39.2-41.158-47.226-7.573-8.027-14.854-8.774-27.066-2.077-12.178 6.668-51.749 21.297-97.632 65.404-35.71 34.317-59.13 75.948-65.908 88.642-6.795 12.718-0.048 19.202 6.407 25.14 5.79 5.369 12.974 14.059 19.463 21.083 6.469 7.021 8.757 12.116 13.199 20.276 4.444 8.125 2.659 15.47-0.226 21.793s-25.446 68.422-34.864 93.675-19.931 21.506-27.18 21.78c-7.248 0.276-15.507 1.627-23.79 1.927-8.288 0.326-21.877-2.286-33.718-14.301-11.85-11.999-45.085-40.853-47.373-102.010s40.023-121.907 45.927-130.42c5.902-8.53 80.795-141.074 205.266-195.601 124.487-54.49 125.136-37.886 147.972-36.669 22.85 1.201 74.668 27.326 86.118 55.938s12.377 53.502 9.456 58.802c-2.917 5.321-11.075 8.757-23.274 15.423z" />
<glyph unicode="&#xe619;" glyph-name="citation" d="M750.048 411.741h-15.898c-43.119 0-81.892 16.429-116.367 49.362s-51.637 74.006-51.637 123.166c0 48.453 17.186 88.361 51.637 119.73 34.451 31.443 77.014 47.138 127.716 47.138 55.276 0 101.228-22.141 137.928-66.424 36.725-44.283 55.049-107.293 55.049-189.034 0-74.89-16.051-145.080-48.225-210.567-32.15-65.437-71.503-117.276-118.060-155.468-46.582-38.19-87.983-57.324-124.305-57.324-24.188 0-43.144 7.203-56.794 21.585-13.573 14.357-20.398 32.882-20.398 55.606 0 33.312 14.76 57.879 44.257 73.803 40.136 21.889 71.882 47.669 95.363 77.14 23.481 29.546 36.7 66.652 39.733 111.288zM248.31 411.741h-14.735c-42.386 0-80.779 16.429-115.256 49.362-34.399 32.934-51.637 74.006-51.637 123.166 0 47.694 17.239 87.806 51.637 120.335 34.451 32.555 77.014 48.831 127.716 48.831 56.034 0 102.163-22.697 138.482-68.117s54.467-108.582 54.467-189.59c0-58.26-9.427-113.081-28.36-164.568-18.905-51.46-43.323-96.298-73.222-134.515-29.901-38.19-62.025-68.471-96.476-90.84-34.425-22.318-65.261-33.49-92.508-33.49-24.971 0-44.056 6.976-57.324 21.029-13.219 14.004-19.866 32.706-19.866 56.187 0 34.045 14.735 58.613 44.257 73.803 41.629 23.43 73.070 49.338 94.227 77.696 21.181 28.409 34.045 65.286 38.595 110.706z" />
<glyph unicode="&#xe61a;" glyph-name="checkbox_checked" horiz-adv-x="1017" d="M508.422-50.518c-274.849 0-498.488 223.64-498.488 498.488s223.64 498.547 498.488 498.547c274.849 0 498.488-223.64 498.488-498.547-0.059-274.849-223.64-498.488-498.488-498.488zM508.422 835.762c-213.883 0-387.792-173.909-387.792-387.851 0-213.824 173.909-387.792 387.792-387.792 213.824 0 387.792 173.909 387.792 387.792-0.059 213.942-173.968 387.851-387.792 387.851zM739.927 447.97c0-127.845-103.66-231.504-231.504-231.504-127.904 0-231.563 103.66-231.563 231.504 0 127.904 103.66 231.563 231.563 231.563 127.845 0 231.504-103.66 231.504-231.563z" />
<glyph unicode="&#xe61b;" glyph-name="checkbox" horiz-adv-x="1017" d="M508.422-50.518c-274.849 0-498.488 223.64-498.488 498.488s223.64 498.547 498.488 498.547c274.849 0 498.488-223.64 498.488-498.547-0.059-274.849-223.64-498.488-498.488-498.488zM508.422 835.762c-213.883 0-387.792-173.909-387.792-387.851 0-213.824 173.909-387.792 387.792-387.792 213.824 0 387.792 173.909 387.792 387.792-0.059 213.942-173.968 387.851-387.792 387.851z" />
<glyph unicode="&#xe61c;" glyph-name="sposti" d="M17.615 818.789v-741.577h988.77v741.577h-988.77zM913.687 756.99v-61.798l-401.687-247.193-401.687 247.193v61.798h803.376zM110.313 139.009v463.486l401.687-278.092 401.687 278.092v-463.486h-803.376z" />
<glyph unicode="&#xe61d;" glyph-name="condense" d="M90.911 959.496l-90.407-90.407 189.509-184.010-146.607-141.173h372.689v372.721l-141.141-146.607zM0.504 26.943l90.407-90.439 184.010 189.446 141.173-146.607v372.753h-372.753l146.607-141.173zM933.089-63.496l90.407 90.439-189.446 183.979 146.607 141.173h-372.753v-372.753l141.173 146.607zM980.594 543.906l-146.607 141.173 189.509 186.76-90.407 89.033-184.043-190.181-141.141 145.936v-372.721z" />
<glyph unicode="&#xe61e;" glyph-name="facebook-button" d="M96.766-18.756c-28.459 0-51.519 23.071-51.519 51.519v830.468c0 28.459 23.060 51.525 51.519 51.525h830.471c28.446 0 51.517-23.066 51.517-51.525v-830.471c0-28.452-23.073-51.519-51.517-51.519h-830.471zM689.351-18.756v361.501h121.346l18.167 140.888h-139.51v89.946c0 40.789 11.324 68.588 69.818 68.588l74.606 0.036v126.007c-12.902 1.713-57.189 5.551-108.709 5.551-107.566 0-181.202-65.655-181.202-186.232v-103.898h-121.655v-140.888h121.653v-361.501h145.489z" />
</font>
</defs>
</svg>
