<?xml version="1.0" encoding="utf-8"?>
<!-- Generator: Adobe Illustrator 24.0.3, SVG Export Plug-In . SVG Version: 6.00 Build 0)  -->
<svg version="1.1" id="Ebene_1" xmlns="http://www.w3.org/2000/svg" xmlns:xlink="http://www.w3.org/1999/xlink" x="0px" y="0px"
	 viewBox="0 0 253 111" style="enable-background:new 0 0 253 111;" xml:space="preserve">
<style type="text/css">
	.st0{fill:#090B0C;}
	.st1{fill:#ED2738;}
</style>
<g>
	<path class="st0" d="M244.8,109.5c-0.5-0.6-0.8-1.4-0.8-2.4v-3.7h-1.2v-2.3h1.2v-1.9l3.1-0.8v2.7h2.2l-0.1,2.3h-2.1v3.5
		c0,0.4,0.1,0.7,0.3,0.9c0.2,0.2,0.5,0.3,1,0.3c0.4,0,0.7-0.1,1.1-0.2v2.1c-0.6,0.3-1.3,0.4-2.2,0.4
		C246.2,110.4,245.4,110.1,244.8,109.5L244.8,109.5z M231.7,97.3h3.1v6.7l3-2.9h3.5l-3.6,3.8l3.8,5.3h-3.3l-2.5-3.7l-0.9,0.9v2.8
		h-3.1V97.3z M219.7,101.1h2.9l0.1,0.8c0.4-0.3,0.9-0.5,1.4-0.7c0.6-0.2,1.2-0.3,1.8-0.3c1.2,0,2,0.3,2.6,0.8
		c0.5,0.6,0.8,1.4,0.8,2.6v5.8h-3.1v-5.6c0-0.5-0.1-0.9-0.3-1.1s-0.6-0.3-1.2-0.3c-0.3,0-0.7,0.1-1,0.2s-0.6,0.3-0.9,0.6v6.2h-3.1
		V101.1z M208.6,109.5c-0.6-0.6-0.9-1.5-0.9-2.7v-5.7h3.1v5.5c0,0.5,0.1,0.9,0.4,1.1c0.2,0.2,0.6,0.4,1.1,0.4c0.4,0,0.7-0.1,1-0.2
		s0.6-0.3,0.8-0.6v-6.2h3.1v9.1h-2.9l-0.1-0.8c-0.9,0.6-1.9,1-3.2,1C210,110.4,209.2,110.1,208.6,109.5z M201,104.2
		c0.6,0,1.1-0.2,1.5-0.5c0.3-0.4,0.5-0.8,0.5-1.4c0-0.7-0.2-1.1-0.5-1.5c-0.3-0.3-0.8-0.5-1.4-0.5h-2.3v4L201,104.2L201,104.2z
		 M195.7,97.8h6.1c1.4,0,2.5,0.4,3.2,1.2c0.7,0.8,1.1,1.9,1.1,3.2c0,0.8-0.2,1.6-0.5,2.2c-0.4,0.7-0.9,1.2-1.5,1.5
		c-0.7,0.4-1.4,0.5-2.3,0.5h-2.9v3.6h-3.1V97.8H195.7z M177.4,101.1h2.9l0.1,0.8c0.4-0.3,0.9-0.5,1.4-0.7c0.6-0.2,1.2-0.3,1.8-0.3
		c1.2,0,2,0.3,2.6,0.8c0.5,0.6,0.8,1.4,0.8,2.6v5.8h-3.1v-5.6c0-0.5-0.1-0.9-0.3-1.1s-0.6-0.3-1.2-0.3c-0.3,0-0.7,0.1-1,0.2
		c-0.3,0.2-0.6,0.3-0.9,0.6v6.2h-3.1V101.1z M172.6,104.9v-0.4c0-1-0.6-1.5-1.8-1.5c-0.7,0-1.2,0.1-1.5,0.4s-0.4,0.8-0.4,1.4
		L172.6,104.9L172.6,104.9z M167.4,109.2c-0.9-0.8-1.4-2-1.4-3.5s0.4-2.6,1.2-3.5c0.8-0.8,2-1.3,3.5-1.3c1.4,0,2.5,0.4,3.3,1.1
		s1.2,1.7,1.2,3v1.6h-6.4c0.1,0.6,0.5,1,1,1.2s1.2,0.4,2.1,0.4c0.5,0,1,0,1.5-0.1s0.9-0.2,1.3-0.3v2c-0.9,0.4-2,0.6-3.5,0.6
		C169.6,110.4,168.4,110,167.4,109.2z M160.8,107.4v-3.7c-0.4-0.4-1-0.6-1.7-0.6s-1.1,0.2-1.5,0.7c-0.3,0.5-0.5,1.2-0.5,2.1
		c0,0.8,0.2,1.4,0.5,1.7c0.3,0.3,0.8,0.5,1.5,0.5S160.4,107.9,160.8,107.4z M155.1,109.3c-0.7-0.7-1.1-1.8-1.1-3.4
		c0-1.1,0.2-2,0.6-2.7c0.4-0.8,0.9-1.3,1.6-1.7c0.7-0.4,1.4-0.6,2.3-0.6c0.9,0,1.7,0.2,2.3,0.6v-4.3h3.1v12.9h-2.7l-0.2-0.8
		c-0.4,0.3-0.8,0.6-1.3,0.7c-0.5,0.2-1,0.2-1.6,0.2C156.8,110.4,155.8,110,155.1,109.3z M141.1,103.4h-1.2v-2.3h1.2v-0.7
		c0-1,0.3-1.8,0.9-2.5c0.6-0.6,1.4-0.9,2.5-0.9c0.8,0,1.6,0.1,2.2,0.4v2.1c-0.4-0.1-0.8-0.2-1.1-0.2c-0.5,0-0.8,0.1-1.1,0.3
		c-0.2,0.2-0.3,0.5-0.3,0.9v0.7h2.2l-0.1,2.3h-2.1v6.7h-3.1L141.1,103.4z M129.5,109.5c-0.6-0.6-0.9-1.5-0.9-2.7v-5.7h3.1v5.5
		c0,0.5,0.1,0.9,0.4,1.1c0.2,0.2,0.6,0.4,1.1,0.4c0.4,0,0.7-0.1,1-0.2s0.6-0.3,0.8-0.6v-6.2h3.1v9.1h-2.9l-0.1-0.8
		c-0.9,0.6-1.9,1-3.2,1C130.9,110.4,130.1,110.1,129.5,109.5z M123.3,107.6v-1.3h-2.2c-0.5,0-0.8,0.1-1,0.3
		c-0.2,0.2-0.3,0.5-0.3,0.8c0,0.7,0.5,1.1,1.4,1.1C122.1,108.5,122.8,108.2,123.3,107.6z M117.9,109.6c-0.6-0.5-0.9-1.2-0.9-2.1
		s0.3-1.7,1-2.2c0.6-0.5,1.6-0.8,2.8-0.8h2.5v-0.2c0-0.5-0.2-0.8-0.5-1s-0.9-0.3-1.7-0.3c-1,0-2,0.2-3,0.5v-2c0.5-0.2,1-0.3,1.7-0.4
		s1.3-0.2,2-0.2c1.4,0,2.6,0.3,3.3,0.9c0.8,0.6,1.2,1.5,1.2,2.7v5.7h-2.7l-0.2-0.8c-0.7,0.6-1.8,1-3.2,1
		C119.3,110.4,118.5,110.1,117.9,109.6z M99.1,101.1h2.9l0.1,0.8c0.4-0.3,0.9-0.5,1.4-0.7c0.6-0.2,1.2-0.3,1.8-0.3
		c1.2,0,2,0.3,2.6,0.8c0.5,0.6,0.8,1.4,0.8,2.6v5.8h-3.1v-5.6c0-0.5-0.1-0.9-0.3-1.1c-0.2-0.2-0.6-0.3-1.2-0.3c-0.3,0-0.7,0.1-1,0.2
		c-0.3,0.2-0.6,0.3-0.9,0.6v6.2h-3.1L99.1,101.1z M93.4,107.4c0.3-0.4,0.5-1,0.5-1.8s-0.2-1.4-0.5-1.8s-0.8-0.5-1.5-0.5
		s-1.2,0.2-1.5,0.5c-0.3,0.4-0.5,1-0.5,1.8s0.2,1.4,0.5,1.8s0.8,0.5,1.5,0.5C92.6,108,93.1,107.8,93.4,107.4z M86.8,105.6
		c0-1.5,0.4-2.7,1.3-3.5c0.8-0.8,2.1-1.2,3.8-1.2c1.7,0,3,0.4,3.9,1.2c0.8,0.8,1.3,2,1.3,3.5c0,3.2-1.7,4.7-5.1,4.7
		C88.5,110.4,86.8,108.8,86.8,105.6z M81.4,97.3h3.4v2.3h-3.4V97.3z M81.6,103.4h-1.3l0.3-2.3h4.2v9.1h-3.1L81.6,103.4z M74.1,109.5
		c-0.5-0.6-0.8-1.4-0.8-2.4v-3.7h-1.2v-2.3h1.2v-1.9l3.1-0.8v2.7h2.2l-0.1,2.3h-2.1v3.5c0,0.4,0.1,0.7,0.3,0.9
		c0.2,0.2,0.5,0.3,1,0.3c0.4,0,0.7-0.1,1.1-0.2v2.1c-0.6,0.3-1.3,0.4-2.2,0.4C75.5,110.4,74.6,110.1,74.1,109.5z M67.6,107.6v-1.3
		h-2.2c-0.5,0-0.8,0.1-1,0.3c-0.2,0.2-0.3,0.5-0.3,0.8c0,0.7,0.5,1.1,1.4,1.1S67.1,108.2,67.6,107.6z M62.2,109.6
		c-0.6-0.5-0.9-1.2-0.9-2.1s0.3-1.7,1-2.2c0.6-0.5,1.6-0.8,2.8-0.8h2.5v-0.2c0-0.5-0.2-0.8-0.5-1s-0.9-0.3-1.7-0.3c-1,0-2,0.2-3,0.5
		v-2c0.5-0.2,1-0.3,1.7-0.4s1.3-0.2,2-0.2c1.4,0,2.6,0.3,3.3,0.9c0.8,0.6,1.2,1.5,1.2,2.7v5.7h-2.7l-0.2-0.8c-0.7,0.6-1.8,1-3.2,1
		C63.5,110.4,62.8,110.1,62.2,109.6z M44.7,101.1h2.9l0.1,0.8c0.9-0.7,1.9-1,3-1c0.6,0,1.1,0.1,1.4,0.3c0.3,0.2,0.6,0.4,0.8,0.8
		c0.5-0.3,1-0.6,1.5-0.8c0.5-0.2,1.1-0.3,1.8-0.3c1,0,1.8,0.3,2.3,0.8s0.8,1.4,0.8,2.5v5.9h-3v-5.6c0-0.5-0.1-0.9-0.3-1.1
		s-0.6-0.3-1-0.3c-0.3,0-0.6,0.1-0.9,0.2c-0.3,0.1-0.5,0.3-0.7,0.5c0,0.2,0.1,0.5,0.1,0.9v5.4h-2.9v-5.6c0-0.5-0.1-0.8-0.2-1.1
		c-0.2-0.2-0.5-0.3-0.9-0.3c-0.5,0-1.1,0.3-1.7,0.8v6.2h-3L44.7,101.1z M36.8,101.1h2.9l0.1,0.8c0.4-0.2,0.9-0.5,1.5-0.7
		s1.2-0.3,1.7-0.4v2.3c-0.5,0.1-1.1,0.2-1.7,0.3c-0.6,0.2-1.1,0.3-1.5,0.5v6.1h-3.1L36.8,101.1z M31.1,107.4c0.3-0.4,0.5-1,0.5-1.8
		s-0.2-1.4-0.5-1.8s-0.8-0.5-1.5-0.5s-1.2,0.2-1.5,0.5c-0.3,0.4-0.5,1-0.5,1.8s0.2,1.4,0.5,1.8s0.8,0.5,1.5,0.5
		C30.3,108,30.8,107.8,31.1,107.4z M24.5,105.6c0-1.5,0.4-2.7,1.3-3.5c0.8-0.8,2.1-1.2,3.8-1.2c1.7,0,3,0.4,3.9,1.2
		c0.8,0.8,1.3,2,1.3,3.5c0,3.2-1.7,4.7-5.1,4.7C26.2,110.4,24.5,108.8,24.5,105.6z M18,103.4h-1.2v-2.3H18v-0.7c0-1,0.3-1.8,0.9-2.5
		c0.6-0.6,1.4-0.9,2.5-0.9c0.8,0,1.6,0.1,2.2,0.4v2.1c-0.4-0.1-0.8-0.2-1.1-0.2c-0.5,0-0.8,0.1-1.1,0.3c-0.2,0.2-0.3,0.5-0.3,0.9
		v0.7h2.2l-0.1,2.3h-2.1v6.7H18V103.4z M5.6,101.1h2.9l0.1,0.8c0.4-0.3,0.9-0.5,1.4-0.7c0.6-0.2,1.2-0.3,1.8-0.3
		c1.2,0,2,0.3,2.6,0.8c0.5,0.6,0.8,1.4,0.8,2.6v5.8h-3.1v-5.6c0-0.5-0.1-0.9-0.3-1.1s-0.6-0.3-1.2-0.3c-0.3,0-0.7,0.1-1,0.2
		c-0.3,0.2-0.6,0.3-0.9,0.6v6.2H5.6V101.1z M0,97.8h3.1v12.3H0V97.8 M0,0h2.8v25.8c2.6-2.3,5.5-4.1,8.6-5.3
		c3.1-1.2,6.8-1.8,11.1-1.8c5.6,0,9.8,1.3,12.4,3.9c2.6,2.6,3.9,6.8,3.9,12.5v31.2H36V35.2c0-3.5-0.4-6.2-1.3-8.2
		c-0.9-2-2.4-3.5-4.6-4.4s-5.2-1.4-9.1-1.4c-3.5,0-6.8,0.7-9.9,2.1s-5.8,3.2-8.3,5.6v37.5H0V0 M88.4,42.3v-5.1c0-5.1-1.3-9-3.8-11.8
		s-6.4-4.2-11.8-4.2c-6.5,0-11.1,1.8-13.9,5.4c-2.8,3.6-4.2,8.9-4.2,15.8L88.4,42.3z M57.4,61.5C53.8,57.6,52,51.3,52,42.6
		c0-7.8,1.7-13.8,5-17.8c3.3-4.1,8.6-6.1,15.9-6.1c6.2,0,10.8,1.7,13.8,5.1s4.5,7.7,4.5,13v8.1H54.8c0.1,4.7,0.9,8.5,2.2,11.4
		s3.5,5,6.6,6.5c3.1,1.4,7.2,2.1,12.4,2.1c4,0,8-0.8,12.1-2.5V65c-4,1.6-8.2,2.4-12.6,2.4C67,67.4,61,65.4,57.4,61.5 M138.7,59.3
		c3-3.7,4.4-9.3,4.4-16.7c0-7.5-1.5-12.9-4.6-16.3s-7.8-5.1-14.2-5.1c-6.3,0-11.8,1.9-16.5,5.7v31c2.3,2.4,4.8,4.2,7.5,5.3
		s5.8,1.7,9.2,1.7C131,64.9,135.7,63,138.7,59.3z M115.3,65.8c-2.8-1-5.3-2.7-7.6-5l-0.4,5.6H105V0h2.8v24c2.6-1.8,5.2-3.2,8-4
		c2.8-0.9,5.9-1.3,9.4-1.3c6.7,0,11.8,1.9,15.3,5.8c3.5,3.8,5.3,9.9,5.3,18.2s-1.8,14.5-5.4,18.6c-3.6,4.1-8.7,6.1-15.4,6.1
		C121.3,67.4,118.1,66.8,115.3,65.8 M164.7,22.3h-7.6v-2.6h10.3v46.7h-2.8V22.3 M182.6,65.6V63c4.2,1.2,8.6,1.9,13.1,1.9
		c5,0,8.6-0.8,10.8-2.3c2.2-1.5,3.3-4.1,3.3-7.6c0-2.2-0.4-4-1.2-5.2s-2-2.2-3.5-2.9s-4-1.7-7.4-2.9l-2.1-0.7
		c-0.3-0.1-1.1-0.4-2.2-0.7c-2.9-1-5.1-1.9-6.7-2.7c-1.6-0.8-2.9-1.9-3.9-3.4c-1.1-1.5-1.6-3.5-1.6-6.1c0-3.9,1.3-6.9,3.8-8.8
		c2.5-1.9,6.6-2.9,12.2-2.9c4.6,0,8.5,0.5,11.7,1.5v2.6c-3.7-1-7.5-1.6-11.3-1.6c-5.1,0-8.7,0.7-10.7,2.2c-2,1.4-3,3.8-3,7
		c0,2.1,0.4,3.7,1.2,4.9s2,2.2,3.6,2.9c1.6,0.8,4.2,1.7,7.7,2.8c4.1,1.3,7.2,2.5,9.3,3.4c2.1,1,3.8,2.3,5,3.9
		c1.2,1.6,1.8,3.8,1.8,6.6c0,4.4-1.4,7.6-4.2,9.5c-2.8,1.9-6.9,2.9-12.2,2.9C190.9,67.4,186.5,66.8,182.6,65.6"/>
	<path id="path26" class="st1" d="M253,53.8c0,7.5-6.1,13.6-13.6,13.6s-13.6-6.1-13.6-13.6s6.1-13.6,13.6-13.6S253,46.3,253,53.8"/>
</g>
</svg>
