<svg version="1.1" id="Layer_1" xmlns="http://www.w3.org/2000/svg" xmlns:xlink="http://www.w3.org/1999/xlink" x="0px" y="0px" viewBox="0 0 320 46" style="enable-background:new 0 0 320 46;" xml:space="preserve">
<style type="text/css">
	.st0{fill:none;stroke:#562100;stroke-width:0.98;}
	.st1{fill:#FFFFFF;}
	.st2{fill:#FFE320;}
	.st3{fill:#F0493E;}
	.st4{fill:#562100;}
	.st5{fill:#231F20;}
	.st6{fill:transparent;}
</style>
<path class="st0" d="M228.2,0.4v44"></path>

	<g id="lehigh">
		<path class="st1" d="M0.9,1.7V24c0,7.7,8.9,16.7,15.4,20.9c6.6-4.2,15.4-13.2,15.4-20.9V1.7H0.9z M30.8,24.1
			c0,7.1-8.3,15.7-14.5,19.8C10.1,39.7,1.8,31.1,1.8,24.1V2.6h29V24.1z"></path>
		<path class="st1" d="M12.2,36.4c-1.3-0.7-2.8-1.2-4.5-1.1c0.3,0.4,0.6,0.7,1,1.1H12.2z"></path>
		<path class="st1" d="M20.4,36.4H24c0.3-0.4,0.6-0.7,0.9-1.1C23.3,35.2,21.7,35.7,20.4,36.4L20.4,36.4z"></path>
		<path class="st1" d="M26.4,24h-0.8v10.5c0.3-0.4,0.6-0.7,0.8-1.1V24L26.4,24z"></path>
		<path class="st1" d="M7.1,24H6.2v9.4c0.3,0.4,0.6,0.7,0.8,1.1L7.1,24L7.1,24z"></path>
		<path class="st1" d="M16.1,33.6h0.4v4.6c1.5-1.4,4.5-3.9,8.1-3.8v-12c-0.8-0.1-2-0.2-2.9-0.2c-3.4,0-4.7,1.3-4.8,1.3
			c0,0-0.4,0.4-0.4,1.9H16c0-1.5-0.4-1.9-0.4-1.9s-1.4-1.3-4.8-1.3c-0.9,0-2.1,0.1-2.9,0.2v12c3.7-0.1,6.7,2.4,8.1,3.8L16.1,33.6
			L16.1,33.6z M12.4,27.9c0-0.6,0.5-2.1,1.9-2.1s2,1.1,2,1.1s0.6-1.1,2-1.1s1.9,1.5,1.9,2.1c0,2-3.9,4.3-3.9,4.9
			C16.3,32.2,12.4,30,12.4,27.9L12.4,27.9z"></path>
		<path class="st2" d="M29.7,20.8c0,0,0.6-0.8,0.6-1.6c0-1.2-1.4-3.1-3.6-3.1c-0.5,0-1.1,0.1-1.6,0.3l4.4-7L22.2,14
			c0.1-0.9,0-1.8,0.6-2.4c0.6-0.6,1.8-0.6,1.8-0.6s-0.1-0.9-0.8-1.5C22.9,8.6,20.5,8.4,19,10c-0.4,0.4-0.6,0.8-0.9,1.3l-1.8-8
			l-2.1,9c-0.6-0.7-1.3-1.2-1.3-2.1s0.9-1.7,0.9-1.7S13,8,12.2,8c-1.2,0.1-3,1.6-2.9,3.8c0,0.5,0.2,1.1,0.3,1.6l-6.4-4L8.1,17
			c-1.2,0-2.3,0.4-3.1-0.2C4.3,16.3,4.3,15,4.3,15s-0.9,0.3-1.4,1c-0.7,1-0.6,3.4,1.2,4.7c0.8,0.6,2,0.9,3,1.1v-0.3
			c0,0,1.4-0.2,2.8-0.2c0-0.2,0-0.3,0.1-0.5C8.4,21,6.3,21,5.1,20.1c-1.6-1.1-1.3-2.6-1.3-2.6s0.2,0.4,0.6,0.7
			c1.8,1.3,3.5-0.4,5.1,0.8c0.3,0.2,0.6,0.5,0.7,0.8c0.1-0.4,0.3-0.7,0.5-1.1l-3.9-5.4L12,17c0.3-0.2,0.6-0.4,0.9-0.6
			c-0.5-0.5-2.3-2.6-2.3-4.2c0-1.9,1.2-2.5,1.2-2.5s-0.2,0.4-0.1,0.9c0.1,2.2,2.5,2.3,2.6,4.4c0,0.4,0,0.7-0.1,0.9
			c0.4-0.1,0.7-0.2,1.1-0.3l1.1-6.9l1.1,6.9c0.4,0.1,0.7,0.1,1,0.3c0-1,0.2-3.2,1.4-4.5c1.2-1.4,2.7-0.9,2.7-0.9s-0.4,0.2-0.7,0.5
			c-1.5,1.6,0.1,3.5-1.3,4.9c-0.2,0.2-0.5,0.4-0.7,0.5c0.3,0.2,0.6,0.4,0.9,0.7l5.2-3.8l-3.9,5.4c0.2,0.3,0.3,0.6,0.4,0.9
			c0.8-0.8,2.2-2,3.9-2c1.9,0,2.6,1.4,2.6,1.4s-0.4-0.2-0.9-0.2c-2.2,0-2.6,2.3-4.7,2.3c-0.2,0-0.4,0-0.6-0.1c0,0.1,0,0.2,0,0.3
			c1,0,2,0.1,2.5,0.2c1.1-0.7,1.7-1.7,2.8-1.7C28.9,19.8,29.7,20.8,29.7,20.8L29.7,20.8z"></path>
		<path class="st2" d="M25.6,23.3h1.5v9.1c1.8-2.7,3.1-5.6,3.1-8.3v-1.9h-4.6V23.3z"></path>
		<path class="st2" d="M2.4,24.1c0,2.7,1.2,5.6,3.1,8.3v-9.1H7v-1.1H2.4V24.1z"></path>
		<path class="st2" d="M16.3,22.9c0,0,0.3-0.3,1.1-0.7c0.8-0.4,2.2-0.9,4.1-0.9c-0.3-2.6-2.5-4.6-5.2-4.6s-4.9,2-5.2,4.6
			c2,0,3.3,0.5,4.1,0.9C16,22.5,16.3,22.9,16.3,22.9L16.3,22.9z"></path>
		<path class="st2" d="M16.3,39.8c0,0-1.1-1.4-3-2.7h-4c2.3,2.5,4.9,4.6,7,6c2.1-1.5,4.7-3.6,7-6h-4.1
			C17.5,38.3,16.3,39.8,16.3,39.8L16.3,39.8z"></path>
		<path class="st3" d="M18.3,25.9c-1.4,0-2,1.1-2,1.1s-0.6-1.1-2-1.1s-1.9,1.5-1.9,2.1c0,2,3.9,4.3,3.9,4.9c0-0.6,3.9-2.8,3.9-4.9
			C20.2,27.3,19.7,25.9,18.3,25.9L18.3,25.9z"></path>
		<path class="st4" d="M0,24.1C0,32.6,10.2,42.2,16.3,46c6.1-3.8,16.3-13.4,16.3-21.9V0.8H0V24.1z M0.9,1.7h30.8V24
			c0,7.7-8.9,16.7-15.4,20.9C9.8,40.7,0.9,31.8,0.9,24.1V1.7z"></path>
		<path class="st4" d="M16.3,43.8c6.2-4.1,14.5-12.7,14.5-19.8V2.6h-29V24C1.8,31.1,10.1,39.7,16.3,43.8L16.3,43.8z M24,36.4h-3.6
			c1.3-0.7,2.8-1.2,4.5-1.1C24.6,35.7,24.3,36,24,36.4L24,36.4z M16.1,33.6v4.6c-1.5-1.4-4.5-3.9-8.1-3.8v-12c0.8-0.1,2-0.2,2.9-0.2
			c3.4,0,4.7,1.3,4.8,1.3c0,0,0.4,0.4,0.4,1.9h0.5c0-1.5,0.4-1.9,0.4-1.9s1.4-1.3,4.8-1.3c0.9,0,2.1,0.1,2.9,0.2v12
			c-3.7-0.1-6.7,2.4-8.1,3.8v-4.6H16.1z M11.1,21.3c0.3-2.6,2.5-4.6,5.2-4.6s4.9,2,5.2,4.6c-2,0-3.3,0.5-4.1,0.9
			c-0.7,0.4-1.1,0.7-1.1,0.7s-0.3-0.3-1.1-0.7C14.4,21.8,13.1,21.3,11.1,21.3L11.1,21.3z M26.4,33.4c-0.3,0.4-0.6,0.7-0.8,1.1V24
			h0.8V33.4L26.4,33.4z M30.2,24.1c0,2.7-1.2,5.6-3.1,8.3v-9.1h-1.5v-1.1h4.6V24.1z M2.9,16.1c0.5-0.7,1.4-1,1.4-1s0.1,1.3,0.7,1.8
			C5.9,17.4,6.9,17,8.1,17L3.2,9.4l6.4,4c-0.2-0.5-0.3-1-0.3-1.6C9.2,9.6,11,8.1,12.2,8c0.8,0,1.6,0.4,1.6,0.4s-0.9,0.9-0.9,1.7
			s0.7,1.4,1.3,2.1l2.1-9l1.8,8c0.2-0.5,0.5-0.9,0.9-1.3c1.5-1.6,3.9-1.4,4.8-0.5c0.6,0.6,0.8,1.5,0.8,1.5s-1.2-0.1-1.8,0.6
			c-0.6,0.6-0.5,1.5-0.6,2.4l7.3-4.6l-4.4,7c0.5-0.2,1.1-0.3,1.6-0.3c2.2,0,3.6,1.9,3.6,3.1c0,0.8-0.6,1.6-0.6,1.6s-0.8-1-1.6-1
			c-1.1,0-1.7,1.1-2.8,1.7c-0.5,0-1.5-0.1-2.5-0.2c0-0.1,0-0.2,0-0.3c0.2,0,0.4,0.1,0.6,0.1c2,0,2.5-2.3,4.7-2.3
			c0.5,0,0.9,0.2,0.9,0.2s-0.7-1.4-2.6-1.4c-1.7,0-3.2,1.2-3.9,2c-0.1-0.3-0.3-0.6-0.4-0.9l3.9-5.4L20.6,17
			c-0.3-0.2-0.6-0.5-0.9-0.7c0.2-0.1,0.5-0.3,0.7-0.5c1.4-1.5-0.2-3.3,1.3-4.9c0.3-0.3,0.7-0.5,0.7-0.5s-1.5-0.5-2.7,0.9
			c-1.2,1.3-1.4,3.5-1.4,4.5c-0.3-0.1-0.7-0.2-1-0.3l-1.1-6.9l-1.1,6.9c-0.4,0.1-0.8,0.2-1.1,0.3c0.1-0.2,0.1-0.6,0.1-0.9
			c-0.1-2-2.4-2.2-2.6-4.4c0-0.5,0.1-0.9,0.1-0.9s-1.2,0.6-1.2,2.5c0,1.6,1.8,3.8,2.3,4.2c-0.3,0.2-0.6,0.4-0.9,0.6l-5.2-3.8
			l3.9,5.4c-0.2,0.3-0.4,0.7-0.5,1.1c-0.2-0.2-0.4-0.5-0.7-0.8C7.7,17.6,6,19.3,4.2,18c-0.4-0.3-0.6-0.7-0.6-0.7s-0.2,1.5,1.3,2.6
			c1.2,0.9,3.4,0.9,4.8,0.7c0,0.2,0,0.3-0.1,0.5c-1.4,0.1-2.8,0.2-2.8,0.2v0.3c-1-0.2-2.1-0.5-3-1.1C2.3,19.4,2.2,17.1,2.9,16.1
			L2.9,16.1z M5.5,32.4c-1.8-2.7-3.1-5.6-3.1-8.3v-1.9H7v1.1H5.5V32.4z M6.2,24H7v10.5c-0.3-0.4-0.6-0.7-0.8-1.1V24L6.2,24z
			 M7.7,35.3c1.7-0.1,3.2,0.4,4.5,1.1H8.7C8.3,36,8,35.7,7.7,35.3z M13.4,37.1c1.8,1.2,3,2.7,3,2.7s1.1-1.4,3-2.7h4.1
			c-2.3,2.5-4.9,4.6-7,6c-2.1-1.5-4.7-3.6-7-6H13.4L13.4,37.1z"></path>
		<path class="st4" d="M50.3,28c1.2,0.3,2.4,0.3,3.5,0.3c3.4,0,8.6-0.1,9.3-0.8c0.4-0.4,0.7-1.8,0.9-2.7l0.5-2.1h1.3
			C65.6,25,65.3,27.9,65,30c-1.6,0-4.3,0.1-7,0.1h-1.3c-3.8,0-6.6-0.1-9.2-0.1c-1.4,0-2.5,0.1-3.6,0.1v-1l1.3-0.7
			c0.7-0.4,1.1-1.4,1.1-2.5v-20c0-1.6-0.1-2.7-0.4-3.2c-0.3-0.4-0.8-0.6-1.8-0.6l-2-0.1V0.7c2.2,0.1,4.2,0.1,6.2,0.1
			c1.9,0,3.9,0,6.1-0.1V2l-2,0.1c-1,0-1.5,0.2-1.8,0.6c-0.3,0.5-0.4,1.6-0.4,3.2L50.3,28L50.3,28z"></path>
		<path class="st4" d="M72,5.9c0-1.6-0.1-2.7-0.4-3.2c-0.3-0.4-0.8-0.6-1.8-0.6l-2-0.1V0.7c1.2,0,2.4,0,3.5,0.1c1.2,0,2.4,0,3.6,0
			c3.7,0,7.5-0.1,9.9-0.1c1.9,0,3.8,0,5.4,0.1c-0.5,1.9-0.7,4.3-0.7,6.4H88V4.5c0-0.6,0-1-0.4-1.1c-2.2-0.8-5.6-0.9-8.3-0.9
			c-1.1,0-2.4,0-3.5,0.3v11.3c1.3,0.1,2.9,0.1,4.9,0.1c2.6,0,4-0.2,4.5-0.5c0.2-0.2,0.3-0.6,0.3-1.1l0.2-2.2H87
			c0,1.7-0.1,3.3-0.1,4.9S87,18.5,87,20h-1.3l-0.2-2.5c0-0.6-0.1-0.9-0.3-1.1c-0.5-0.3-1.9-0.5-4.5-0.5c-2,0-3.6,0-4.9,0.1v12
			c1.2,0.3,2.4,0.3,3.5,0.3c3.4,0,7.7-0.1,8.5-0.6c0.6-0.3,1.2-2.2,1.5-4.7H91c-0.4,2-0.7,4.6-0.7,6.9c-1.6,0-4.3,0.1-7,0.1H82
			c-3.2,0-6.6-0.1-9.2-0.1c-1.6,0-3,0.1-4.5,0.1v-1.3l1.5-0.1c1-0.1,1.5-0.2,1.8-0.6c0.3-0.5,0.4-1.6,0.4-3.2L72,5.9L72,5.9z"></path>
		<path class="st4" d="M123.1,24.9c0,1.6,0.1,2.7,0.4,3.2c0.3,0.4,0.8,0.6,1.8,0.6l2,0.1v1.3c-2.2-0.1-4.2-0.1-6.1-0.1
			c-2.1,0-4,0-6.2,0.1v-1.3l2-0.1c1,0,1.5-0.2,1.8-0.6c0.3-0.5,0.4-1.6,0.4-3.2v-9.4c-0.5,0-1.6-0.1-3.5-0.1h-9.9
			c-1.9,0-3,0-3.5,0.1v9.4c0,1.6,0.1,2.7,0.4,3.2c0.3,0.4,0.8,0.6,1.8,0.6l2,0.1v1.3c-2.2-0.1-4.2-0.1-6.1-0.1c-2.1,0-4,0-6.2,0.1
			v-1.3l2-0.1c1,0,1.5-0.2,1.8-0.6c0.3-0.5,0.4-1.6,0.4-3.2v-19c0-1.6-0.1-2.7-0.4-3.2c-0.3-0.4-0.8-0.6-1.8-0.6l-2-0.1V0.7
			c2.2,0.1,4.2,0.1,6.2,0.1c1.9,0,3.9,0,6.1-0.1V2l-2,0.1c-1,0-1.5,0.2-1.8,0.6c-0.3,0.5-0.4,1.6-0.4,3.2v7.5c0.5,0,1.6,0.1,3.5,0.1
			h9.9c1.9,0,3,0,3.5-0.1V5.9c0-1.6-0.1-2.7-0.4-3.2c-0.3-0.4-0.8-0.6-1.8-0.6L115,2V0.7c2.2,0.1,4.2,0.1,6.2,0.1
			c1.9,0,3.9,0,6.1-0.1V2l-2,0.1c-1,0-1.5,0.2-1.8,0.6c-0.3,0.5-0.4,1.6-0.4,3.2V24.9z"></path>
		<path class="st4" d="M139,24.9c0,1.6,0.1,2.7,0.4,3.2c0.3,0.4,0.8,0.6,1.8,0.6l2,0.1v1.3C141,30,139,30,137.1,30
			c-2.1,0-4,0-6.2,0.1v-1.3l2-0.1c1,0,1.5-0.2,1.8-0.6c0.3-0.5,0.4-1.6,0.4-3.2v-19c0-1.6-0.1-2.7-0.4-3.2c-0.3-0.4-0.8-0.6-1.8-0.6
			l-2-0.1V0.7c2.2,0.1,4.2,0.1,6.2,0.1c1.9,0,3.9,0,6.1-0.1V2l-2,0.1c-1,0-1.5,0.2-1.8,0.6c-0.3,0.5-0.4,1.6-0.4,3.2V24.9z"></path>
		<path class="st4" d="M170.2,21.6c0-1-0.3-1.4-1.4-1.5l-3.5-0.3v-1.3c1.7,0,3.4,0.1,5.1,0.1c1.7,0,3.5,0,5.2-0.1l0.2,1.1l-1.2,0.4
			c-0.5,0.2-0.5,0.3-0.5,1.6v7.1c-3.6,1.1-8.2,2.2-11.1,2.2c-9.4,0-17-4.9-17-15.5C146.1,6,153.7,0,163.8,0c5.2,0,8.5,1.2,10.4,1.7
			c-0.5,2-0.8,4.2-0.8,6.4h-1.3V5.9c0-2-1.5-2.7-3.5-3.4c-1.3-0.5-3.2-0.8-5.9-0.8c-8,0-12.2,5.3-12.2,12.8
			c0,8.4,4.9,14.5,13.6,14.5c3.2,0,5.6-0.7,5.9-1.5c0.2-0.5,0.2-0.7,0.2-1.7V21.6L170.2,21.6z"></path>
		<path class="st4" d="M207.3,24.9c0,1.6,0.1,2.7,0.4,3.2c0.3,0.4,0.8,0.6,1.8,0.6l2,0.1v1.3c-2.2-0.1-4.2-0.1-6.1-0.1
			c-2.1,0-4,0-6.2,0.1v-1.3l2-0.1c1,0,1.5-0.2,1.8-0.6c0.3-0.5,0.4-1.6,0.4-3.2v-9.4c-0.5,0-1.6-0.1-3.5-0.1H190c-1.9,0-3,0-3.5,0.1
			v9.4c0,1.6,0.1,2.7,0.4,3.2c0.3,0.4,0.8,0.6,1.8,0.6l2,0.1v1.3c-2.2-0.1-4.2-0.1-6.1-0.1c-2.1,0-4,0-6.2,0.1v-1.3l2-0.1
			c1,0,1.5-0.2,1.8-0.6c0.3-0.5,0.4-1.6,0.4-3.2v-19c0-1.6-0.1-2.7-0.4-3.2c-0.3-0.4-0.8-0.6-1.8-0.6l-2-0.1V0.7
			c2.2,0.1,4.2,0.1,6.2,0.1c1.9,0,3.9,0,6.1-0.1V2l-2,0.1c-1,0-1.5,0.2-1.8,0.6c-0.3,0.5-0.4,1.6-0.4,3.2v7.5c0.5,0,1.6,0.1,3.5,0.1
			h9.9c1.9,0,3,0,3.5-0.1V5.9c0-1.6-0.1-2.7-0.4-3.2c-0.3-0.4-0.8-0.6-1.8-0.6l-2-0.1V0.7c2.2,0.1,4.2,0.1,6.2,0.1
			c1.9,0,3.9,0,6.1-0.1V2l-2,0.1c-1,0-1.5,0.2-1.8,0.6c-0.3,0.5-0.4,1.6-0.4,3.2V24.9z"></path>
		<path class="st4" d="M45,36.9c0-0.5,0-0.8-0.1-0.9c-0.1-0.1-0.2-0.2-0.5-0.2h-0.6v-0.4c0.6,0,1.2,0,1.8,0s1.1,0,1.8,0v0.4h-0.6
			c-0.3,0-0.4,0.1-0.5,0.2c-0.1,0.1-0.1,0.5-0.1,0.9v4.2c0,1.8,0.9,2.3,2.5,2.3c1.3,0,2.5-0.5,2.5-2.6v-4c0-0.5,0-0.8-0.1-0.9
			c-0.1-0.1-0.2-0.2-0.5-0.2h-0.5v-0.4c0.5,0,1,0,1.4,0c0.5,0,0.9,0,1.5,0v0.4h-0.5c-0.3,0-0.4,0.1-0.5,0.2
			c-0.1,0.1-0.1,0.5-0.1,0.9v3.6c0,2.6-1,3.7-3.5,3.7c-2.1,0-3.3-0.6-3.3-2.9L45,36.9L45,36.9z"></path>
		<path class="st4" d="M65,36.9c0-0.5,0-0.8-0.1-0.9c-0.1-0.1-0.2-0.2-0.5-0.2h-0.5v-0.4c0.5,0,1,0,1.5,0c0.2,0,0.4,0,0.7,0l5.9,7.3
			l0,0v-5.8c0-0.5,0-0.8-0.1-0.9c-0.1-0.1-0.2-0.2-0.5-0.2h-0.5v-0.4c0.5,0,1,0,1.4,0c0.5,0,0.9,0,1.5,0v0.4h-0.5
			c-0.3,0-0.4,0.1-0.5,0.2c-0.1,0.1-0.1,0.5-0.1,0.9v6.8c0,0.1,0,0.3,0,0.5L71.4,44l-5.8-7.2l0,0v5.7c0,0.5,0,0.8,0.1,0.9
			c0.1,0.1,0.2,0.2,0.5,0.2h0.5V44c-0.5,0-1,0-1.5,0c-0.4,0-0.9,0-1.4,0v-0.4h0.5c0.3,0,0.4-0.1,0.5-0.2c0.1-0.1,0.1-0.5,0.1-0.9
			v-5.6H65z"></path>
		<path class="st4" d="M86.8,42.5c0,0.5,0,0.8,0.1,0.9c0.1,0.1,0.2,0.2,0.5,0.2H88V44c-0.6,0-1.2,0-1.8,0c-0.6,0-1.2,0-1.8,0v-0.4
			H85c0.3,0,0.4-0.1,0.5-0.2c0.1-0.1,0.1-0.5,0.1-0.9V37c0-0.5,0-0.8-0.1-0.9c-0.1-0.1-0.2-0.2-0.5-0.2h-0.6v-0.4c0.6,0,1.2,0,1.8,0
			c0.6,0,1.1,0,1.8,0v0.4h-0.6c-0.3,0-0.4,0.1-0.5,0.2c-0.1,0.1-0.1,0.5-0.1,0.9V42.5z"></path>
		<path class="st4" d="M103.4,42.4l2.2-5.8c0.1-0.2,0.1-0.3,0.1-0.4c0-0.3-0.2-0.3-0.4-0.4h-0.6v-0.4c0.4,0,0.9,0,1.3,0
			c0.5,0,0.9,0,1.3,0v0.4h-0.4c-0.3,0-0.4,0.3-0.7,0.9l-2.1,5.2c-0.3,0.7-0.6,1.4-0.8,2.2h-0.6c-0.2-0.7-0.5-1.4-0.7-2l-2.3-5.7
			c-0.2-0.4-0.3-0.5-0.5-0.5h-0.4v-0.4c0.5,0,1.1,0,1.6,0c0.6,0,1.1,0,1.6,0v0.4h-0.7c-0.2,0-0.4,0.1-0.4,0.2v0.1L103.4,42.4
			L103.4,42.4z"></path>
		<path class="st4" d="M119.4,36.9c0-0.5,0-0.8-0.1-0.9c-0.1-0.1-0.2-0.2-0.5-0.2h-0.6v-0.4c0.3,0,0.7,0,1,0s0.7,0,1,0
			c1.1,0,2.2,0,2.9,0c0.6,0,1.1,0,1.6,0c-0.1,0.5-0.2,1.2-0.2,1.9h-0.4v-0.8c0-0.2,0-0.3-0.1-0.3c-0.7-0.2-1.6-0.3-2.4-0.3
			c-0.3,0-0.7,0-1,0.1v3.3c0.4,0,0.8,0,1.4,0c0.8,0,1.2-0.1,1.3-0.1c0.1-0.1,0.1-0.2,0.1-0.3l0.1-0.6h0.4c0,0.5,0,1,0,1.4
			c0,0.5,0,0.9,0,1.4h-0.4l-0.1-0.7c0-0.2,0-0.3-0.1-0.3c-0.1-0.1-0.6-0.1-1.3-0.1c-0.6,0-1,0-1.4,0v3.5c0.3,0.1,0.7,0.1,1,0.1
			c1,0,2.3,0,2.5-0.2c0.2-0.1,0.3-0.6,0.4-1.4h0.4c-0.1,0.6-0.2,1.4-0.2,2c-0.5,0-1.3,0-2,0h-0.4c-0.9,0-1.9,0-2.7,0
			c-0.5,0-0.9,0-1.3,0v-0.4h0.4c0.3,0,0.4-0.1,0.5-0.2c0.1-0.1,0.1-0.5,0.1-0.9L119.4,36.9L119.4,36.9z"></path>
		<path class="st4" d="M138.5,42.5c0,0.5,0,0.8,0.1,0.9c0.1,0.1,0.2,0.2,0.5,0.2h0.6V44c-0.6,0-1.2,0-1.8,0s-1.2,0-1.8,0v-0.4h0.6
			c0.3,0,0.4-0.1,0.5-0.2c0.1-0.1,0.1-0.5,0.1-0.9V37c0-0.5,0-0.8-0.1-0.9c-0.1-0.1-0.2-0.2-0.5-0.2h-0.5v-0.4c0.7,0,1.4,0,2.1,0
			s1.4,0,2.2,0h0.1c1.9,0,2.4,1,2.4,1.9c0,1.3-1.2,2.1-2.4,2.4l2.8,3.7c0.2,0.2,0.5,0.3,0.8,0.3V44c-0.3,0-0.6,0-0.9,0
			c-0.3,0-0.6,0-0.8,0c-0.2-0.2-0.3-0.4-0.5-0.7l-2.3-3.1c-0.2-0.3-0.4-0.5-0.6-0.8l0.1-0.1c0.1,0,0.2,0,0.3,0c0.2,0,0.5,0,0.8-0.1
			c0.9-0.1,1.6-0.8,1.6-1.7c0-1.3-1-1.7-1.9-1.7c-0.6,0-0.9,0.1-1.3,0.1L138.5,42.5L138.5,42.5z"></path>
		<path class="st4" d="M159.5,37.4l-0.1-0.7c0-0.3-0.1-0.5-0.5-0.7c-0.3-0.2-0.9-0.3-1.3-0.3c-0.9,0-1.8,0.6-1.8,1.8
			c0,0.8,0.5,1.4,2,1.5c1.7,0.2,2.8,0.6,2.8,2c0,2.1-1.9,3.1-3.7,3.1c-0.9,0-1.7-0.3-2.1-0.5c0.1-0.5,0.1-1,0.1-1.4v-0.5h0.4
			l0.1,0.8c0.1,0.5,1,1,2,1c1.1,0,2.2-0.7,2.2-1.9s-0.9-1.5-2.2-1.7c-1.9-0.2-2.7-0.8-2.7-2.1c0-1.9,1.7-2.8,3.1-2.8
			c1,0,1.7,0.3,2.2,0.5c-0.1,0.6-0.2,1.2-0.2,1.7L159.5,37.4L159.5,37.4z"></path>
		<path class="st4" d="M173.8,42.5c0,0.5,0,0.8,0.1,0.9c0.1,0.1,0.2,0.2,0.5,0.2h0.6V44c-0.6,0-1.2,0-1.8,0s-1.2,0-1.8,0v-0.4h0.6
			c0.3,0,0.4-0.1,0.5-0.2c0.1-0.1,0.1-0.5,0.1-0.9V37c0-0.5,0-0.8-0.1-0.9c-0.1-0.1-0.2-0.2-0.5-0.2h-0.6v-0.4c0.6,0,1.2,0,1.8,0
			s1.1,0,1.8,0v0.4h-0.6c-0.3,0-0.4,0.1-0.5,0.2c-0.1,0.1-0.1,0.5-0.1,0.9V42.5z"></path>
		<path class="st4" d="M188.9,37.2c0-0.5,0-0.9-0.1-1.2h-1.9c-0.4,0-0.5,0.1-0.5,0.4v1H186c0-0.7,0-1.3-0.1-2c0.9,0,1.8,0,2.7,0h1.8
			c0.4,0,0.9,0,1.3,0c0.4,0,0.9,0,1.3,0c-0.1,0.6-0.1,1.3-0.1,2h-0.4v-1c0-0.3-0.1-0.4-0.5-0.4h-1.9c0,0.4-0.1,0.8-0.1,1.2v5.2
			c0,0.5,0,0.8,0.1,0.9c0.1,0.1,0.2,0.2,0.5,0.2h0.6V44c-0.6,0-1.2,0-1.8,0s-1.2,0-1.8,0v-0.4h0.6c0.3,0,0.4-0.1,0.5-0.2
			c0.1-0.1,0.1-0.5,0.1-0.9L188.9,37.2L188.9,37.2z"></path>
		<path class="st4" d="M208.1,39.7l1.3-2c0.5-0.8,0.9-1.6,1.3-2.3h1v0.2c-1,1.2-2.5,3.3-3,4.4c-0.1,0.3-0.2,0.6-0.2,0.9v1.6
			c0,0.5,0,0.8,0.1,0.9c0.1,0.1,0.2,0.2,0.5,0.2h0.6V44c-0.6,0-1.2,0-1.8,0s-1.2,0-1.8,0v-0.4h0.6c0.3,0,0.4-0.1,0.5-0.2
			c0.1-0.1,0.1-0.5,0.1-0.9v-1.8c0-0.2,0-0.4-0.1-0.5l-1.5-2.7c-0.6-1.1-1.3-1.6-1.6-1.6h-0.4v-0.4l1.4-0.3c0,0,0,0,0.1,0
			c0.2,0,0.4,0.2,0.6,0.5c0.2,0.3,0.4,0.5,0.5,0.8L208.1,39.7L208.1,39.7z"></path>
	</g>

	<g id="lts">
		<path class="st5" d="M243.9,11.6V1.5h1.8V10h4.4v1.6H243.9L243.9,11.6z"></path>
		<path class="st5" d="M251.5,2.1c0-0.5,0.4-1,1-1s1,0.4,1,1c0,0.5-0.4,1-1,1S251.5,2.7,251.5,2.1z M251.7,11.6V4.3h1.6v7.3H251.7z"></path>
		<path class="st5" d="M255.3,11.6V1.5h1.6v3.8c0.6-0.8,1.4-1.2,2.3-1.2c1.9,0,3.2,1.5,3.2,3.8c0,2.4-1.4,3.8-3.2,3.8
			c-0.9,0-1.8-0.5-2.3-1.2v1L255.3,11.6L255.3,11.6z M256.9,9.4c0.3,0.5,1.1,1,1.9,1c1.3,0,2.1-1,2.1-2.4s-0.8-2.4-2.1-2.4
			c-0.7,0-1.5,0.5-1.9,1V9.4z"></path>
		<path class="st5" d="M264,11.6V4.3h1.6v1.1c0.5-0.7,1.4-1.2,2.4-1.2v1.6c-0.1,0-0.3,0-0.5,0c-0.7,0-1.5,0.5-1.9,1v5L264,11.6
			L264,11.6z"></path>
		<path class="st5" d="M273.7,11.6v-0.8c-0.5,0.6-1.4,1-2.3,1c-1.2,0-2.5-0.8-2.5-2.4s1.3-2.4,2.5-2.4c1,0,1.8,0.3,2.3,0.9V6.8
			c0-0.8-0.7-1.4-1.7-1.4c-0.8,0-1.5,0.3-2.1,0.9l-0.6-1.1c0.8-0.8,1.9-1.2,3.1-1.2c1.6,0,3,0.7,3,2.6v4.8h-1.7V11.6z M273.7,8.8
			c-0.4-0.5-1-0.8-1.7-0.8c-0.9,0-1.5,0.5-1.5,1.3s0.7,1.3,1.5,1.3c0.7,0,1.4-0.3,1.7-0.8V8.8z"></path>
		<path class="st5" d="M277.3,11.6V4.3h1.6v1.1c0.5-0.7,1.4-1.2,2.4-1.2v1.6c-0.1,0-0.3,0-0.5,0c-0.7,0-1.5,0.5-1.9,1v5L277.3,11.6
			L277.3,11.6z"></path>
		<path class="st5" d="M282.4,13c0.2,0.1,0.4,0.1,0.6,0.1c0.5,0,0.8-0.2,1-0.6l0.4-0.8l-3-7.4h1.7l2.1,5.5l2.1-5.5h1.7l-3.5,8.6
			c-0.5,1.2-1.4,1.6-2.5,1.6c-0.2,0-0.7,0-0.9-0.1L282.4,13L282.4,13z"></path>
		<path class="st5" d="M302.3,11.6h-2.1c-0.2-0.2-0.6-0.5-0.9-0.9c-0.8,0.6-1.7,1.1-2.8,1.1c-1.8,0-3.2-1-3.2-2.9
			c0-1.6,1-2.3,2.2-2.9c-0.4-0.8-0.7-1.5-0.7-2.2c0-1.4,1.2-2.4,2.7-2.4c1.4,0,2.5,0.8,2.5,2.1c0,1.5-1.2,2.2-2.5,2.8
			c0.3,0.5,0.7,0.9,1,1.2c0.3,0.4,0.7,0.8,1,1.2c0.5-0.7,0.8-1.5,1-2.1l1.3,0.6c-0.3,0.8-0.8,1.7-1.4,2.5
			C301,10.2,301.6,10.9,302.3,11.6L302.3,11.6z M298.5,9.8c-0.5-0.5-1-1.1-1.2-1.4c-0.4-0.4-0.8-0.9-1.1-1.5c-0.6,0.4-1.1,1-1.1,1.8
			c0,1.1,0.8,1.7,1.7,1.7C297.4,10.5,298,10.2,298.5,9.8L298.5,9.8z M296.9,5.3c0.9-0.5,1.7-0.9,1.7-1.8c0-0.6-0.4-1-1-1
			c-0.7,0-1.2,0.5-1.2,1.2C296.4,4.2,296.6,4.8,296.9,5.3z"></path>
		<path class="st5" d="M246.3,27.8v-8.5h-3v-1.6h7.8v1.6h-3v8.5H246.3L246.3,27.8z"></path>
		<path class="st5" d="M254.2,20.4c2.2,0,3.6,1.7,3.6,4v0.4h-5.6c0.1,1.1,0.9,2,2.3,2c0.7,0,1.5-0.3,2.1-0.8l0.7,1
			c-0.7,0.7-1.8,1.1-2.9,1.1c-2.2,0-3.8-1.5-3.8-3.8C250.5,22.1,252.1,20.4,254.2,20.4L254.2,20.4z M252.2,23.6h4.1
			c0-0.9-0.6-1.9-2-1.9S252.2,22.7,252.2,23.6L252.2,23.6z"></path>
		<path class="st5" d="M262.7,20.4c1.4,0,2.3,0.6,2.8,1.3l-1,1c-0.4-0.6-1-0.9-1.7-0.9c-1.3,0-2.2,1-2.2,2.4s0.9,2.4,2.2,2.4
			c0.7,0,1.3-0.3,1.7-0.9l1,1c-0.5,0.7-1.4,1.3-2.8,1.3c-2.2,0-3.8-1.6-3.8-3.8S260.5,20.4,262.7,20.4L262.7,20.4z"></path>
		<path class="st5" d="M271.7,27.8v-4.6c0-1.1-0.6-1.5-1.5-1.5c-0.8,0-1.5,0.5-1.9,1v5.1h-1.6v-10h1.6v3.8c0.5-0.6,1.4-1.2,2.6-1.2
			c1.6,0,2.3,0.8,2.3,2.3v5.2L271.7,27.8L271.7,27.8z"></path>
		<path class="st5" d="M280.3,27.8v-4.6c0-1.1-0.6-1.5-1.5-1.5c-0.8,0-1.5,0.5-1.9,1v5.1h-1.6v-7.3h1.6v1c0.5-0.6,1.4-1.2,2.6-1.2
			c1.6,0,2.3,0.8,2.3,2.3v5.1h-1.5V27.8z"></path>
		<path class="st5" d="M283.4,24.2c0-2.1,1.4-3.8,3.7-3.8s3.7,1.7,3.7,3.8s-1.4,3.8-3.7,3.8S283.4,26.3,283.4,24.2z M289.3,24.2
			c0-1.3-0.8-2.4-2.1-2.4s-2.1,1.1-2.1,2.4s0.8,2.4,2.1,2.4S289.3,25.5,289.3,24.2z"></path>
		<path class="st5" d="M292.5,27.8v-10h1.6v10.1h-1.6V27.8z"></path>
		<path class="st5" d="M295.7,24.2c0-2.1,1.4-3.8,3.7-3.8c2.3,0,3.7,1.7,3.7,3.8s-1.4,3.8-3.7,3.8S295.7,26.3,295.7,24.2z
			 M301.5,24.2c0-1.3-0.8-2.4-2.1-2.4c-1.4,0-2.1,1.1-2.1,2.4s0.8,2.4,2.1,2.4S301.5,25.5,301.5,24.2z"></path>
		<path class="st5" d="M305.4,28.6c0.6,0.7,1.3,0.9,2.3,0.9s2.1-0.5,2.1-2v-0.9c-0.6,0.7-1.4,1.2-2.3,1.2c-1.8,0-3.2-1.3-3.2-3.7
			s1.4-3.7,3.2-3.7c0.9,0,1.7,0.4,2.3,1.2v-1h1.6v6.9c0,2.6-1.9,3.3-3.7,3.3c-1.2,0-2.1-0.3-3-1.1L305.4,28.6L305.4,28.6z
			 M309.8,22.8c-0.3-0.5-1.1-1-1.9-1c-1.2,0-2,0.9-2,2.3s0.8,2.3,2,2.3c0.7,0,1.5-0.4,1.9-1V22.8z"></path>
		<path class="st5" d="M313.4,29.3c0.2,0.1,0.4,0.1,0.6,0.1c0.5,0,0.8-0.2,1-0.6l0.4-0.8l-3-7.4h1.7l2.1,5.5l2.1-5.5h1.7l-3.5,8.6
			c-0.5,1.2-1.4,1.6-2.5,1.6c-0.2,0-0.7,0-0.9-0.1L313.4,29.3L313.4,29.3z"></path>
		<path class="st5" d="M244.3,41.3c0.7,0.7,1.8,1.4,3.2,1.4s2-0.7,2-1.4c0-0.9-1.1-1.2-2.3-1.5c-1.6-0.4-3.6-0.9-3.6-3
			c0-1.7,1.5-2.9,3.7-2.9c1.6,0,2.8,0.5,3.8,1.4l-1,1.3c-0.8-0.8-1.8-1.1-2.9-1.1c-1.1,0-1.7,0.5-1.7,1.3s1,1,2.2,1.3
			c1.7,0.4,3.6,0.9,3.6,3.1c0,1.7-1.2,3.1-3.9,3.1c-1.9,0-3.2-0.7-4.1-1.6L244.3,41.3L244.3,41.3z"></path>
		<path class="st5" d="M256.1,36.6c2.2,0,3.6,1.7,3.6,4V41H254c0.1,1.1,0.9,2,2.3,2c0.7,0,1.5-0.3,2.1-0.8l0.7,1
			c-0.7,0.7-1.8,1.1-2.9,1.1c-2.2,0-3.8-1.5-3.8-3.8C252.4,38.3,253.9,36.6,256.1,36.6L256.1,36.6z M254,39.9h4.1
			c0-0.9-0.6-1.9-2-1.9C254.7,37.9,254.1,39,254,39.9L254,39.9z"></path>
		<path class="st5" d="M261.2,44.1v-7.3h1.6v1.1c0.5-0.7,1.4-1.2,2.4-1.2v1.6c-0.1,0-0.3,0-0.5,0c-0.7,0-1.5,0.5-1.9,1v5L261.2,44.1
			L261.2,44.1z"></path>
		<path class="st5" d="M268.3,44.1l-3-7.3h1.7l2.1,5.5l2.1-5.5h1.7l-3,7.3H268.3L268.3,44.1z"></path>
		<path class="st5" d="M273.8,34.6c0-0.5,0.5-1,1-1s1,0.4,1,1c0,0.5-0.4,1-1,1S273.8,35.2,273.8,34.6z M274,44.1v-7.3h1.6v7.3H274z"></path>
		<path class="st5" d="M280.9,36.6c1.4,0,2.3,0.6,2.8,1.3l-1,1c-0.4-0.6-1-0.9-1.7-0.9c-1.3,0-2.2,1-2.2,2.4s0.9,2.4,2.2,2.4
			c0.7,0,1.3-0.3,1.7-0.9l1,1c-0.5,0.7-1.4,1.3-2.8,1.3c-2.2,0-3.8-1.6-3.8-3.8S278.7,36.6,280.9,36.6L280.9,36.6z"></path>
		<path class="st5" d="M288.3,36.6c2.2,0,3.6,1.7,3.6,4V41h-5.6c0.1,1.1,0.9,2,2.3,2c0.7,0,1.5-0.3,2.1-0.8l0.7,1
			c-0.7,0.7-1.8,1.1-2.9,1.1c-2.2,0-3.8-1.5-3.8-3.8C284.6,38.3,286.1,36.6,288.3,36.6L288.3,36.6z M286.2,39.9h4.1
			c0-0.9-0.6-1.9-2-1.9C286.9,37.9,286.3,39,286.2,39.9L286.2,39.9z"></path>
		<path class="st5" d="M293.5,42c0.5,0.5,1.5,1,2.5,1c0.9,0,1.4-0.3,1.4-0.9c0-0.6-0.8-0.9-1.7-1.1c-1.2-0.3-2.7-0.6-2.7-2.2
			c0-1.2,1-2.2,2.9-2.2c1.2,0,2.2,0.4,2.8,1l-0.7,1.1c-0.4-0.5-1.2-0.9-2.2-0.9c-0.8,0-1.4,0.3-1.4,0.8c0,0.6,0.7,0.8,1.6,1
			c1.3,0.3,2.8,0.6,2.8,2.4c0,1.3-1.1,2.3-3,2.3c-1.2,0-2.4-0.4-3.1-1.1L293.5,42z"></path>
	</g>

<a xlink:href="https://www.lehigh.edu/" href="https://www.lehigh.edu/"><rect id="lehighmain" y="0.8" class="st6" width="228.2" height="45.2"></rect></a>
<a xlink:href="/" href="/"><rect id="lts_1_" x="228.2" y="0.8" class="st6" width="91" height="45.2"></rect></a>
</svg>