<?xml version="1.0" encoding="iso-8859-1"?>
<!-- Generator: Adobe Illustrator 16.0.0, SVG Export Plug-In . SVG Version: 6.00 Build 0)  -->
<!DOCTYPE svg PUBLIC "-//W3C//DTD SVG 1.1//EN" "http://www.w3.org/Graphics/SVG/1.1/DTD/svg11.dtd">
<svg xmlns="http://www.w3.org/2000/svg" xmlns:xlink="http://www.w3.org/1999/xlink" version="1.1" id="Capa_1" x="0px" y="0px" width="512px" height="512px" viewBox="0 0 56.48 56.48" style="enable-background:new 0 0 56.48 56.48;" xml:space="preserve">
<g>
	<path d="M15.051,25.813c-1.058,0-1.869,0.34-1.869,0.34l-0.224,1.33c0,0,0.669-0.272,1.682-0.272c0.575,0,0.995,0.064,0.995,0.531   c0,0.284-0.051,0.389-0.051,0.389s-0.453-0.037-0.663-0.037c-1.335,0-2.737,0.568-2.737,2.287c0,1.354,0.919,1.663,1.49,1.663   c1.089,0,1.559-0.706,1.583-0.708l-0.051,0.59h1.359l0.606-4.25C17.17,25.871,15.597,25.813,15.051,25.813z M14.289,30.75   c-0.479,0-0.604-0.365-0.604-0.583c0-0.422,0.229-0.93,1.36-0.93c0.264,0.001,0.292,0.028,0.336,0.036   C15.411,29.533,15.219,30.75,14.289,30.75z M19.11,27.741c0,0.771,1.839,0.392,1.839,2.31c0,2.051-1.987,1.961-2.334,1.961   c-1.295,0-1.695-0.178-1.732-0.188l0.206-1.351c0.002-0.01,0.65,0.236,1.371,0.236c0.416,0,0.956-0.041,0.956-0.537   c0-0.746-1.932-0.566-1.932-2.334c0-1.559,1.158-2.015,2.3-2.015c0.882,0,1.424,0.121,1.424,0.121l-0.195,1.362   c0,0-0.837-0.069-1.054-0.069C19.409,27.238,19.11,27.358,19.11,27.741z M22.773,30.089c-0.034,0.211,0.025,0.498,0.562,0.498   c0.137,0,0.292-0.046,0.398-0.046l-0.193,1.312c-0.155,0.043-0.594,0.199-1.157,0.203c-0.719,0.007-1.23-0.397-1.23-1.308   c0-0.612,0.877-5.655,0.911-5.688h1.543l-0.157,0.9h0.77l-0.197,1.452h-0.817L22.773,30.089z M28.727,29.452   c0,0,0.203-1,0.203-1.407c0-1.017-0.506-2.257-2.2-2.257c-1.552,0.001-2.701,1.673-2.701,3.563c0,2.181,1.439,2.699,2.666,2.699   c1.132,0,1.63-0.254,1.63-0.254l0.272-1.488c0,0-0.861,0.38-1.639,0.38c-1.657,0-1.367-1.236-1.367-1.236H28.727z M26.735,27.171   c0.871,0,0.71,0.979,0.71,1.057h-1.713C25.732,28.128,25.894,27.171,26.735,27.171z M12.737,24.583l-1.217,7.35H9.94l0.879-5.541   l-1.983,5.541H7.773l-0.138-5.541l-0.939,5.541H5.207l1.234-7.35h2.252l0.079,4.51l1.521-4.51H12.737z M32.26,23.615h-8.014   c0.079-0.15,0.359-0.754,0.781-1.553h6.607C31.871,22.564,32.079,23.082,32.26,23.615z M30.799,20.539h-4.913   c0.315-0.52,0.663-1.052,1.033-1.552h2.754C30.081,19.479,30.458,19.997,30.799,20.539z M28.235,38.991   c-0.537-0.485-1.023-1.022-1.482-1.584h2.993c-0.451,0.553-0.944,1.071-1.472,1.552h-0.003c0,0.001,0.001,0.001,0.001,0.001   C28.26,38.97,28.247,38.98,28.235,38.991z M30.817,35.913h-5.143c-0.313-0.5-0.605-1.013-0.856-1.552h6.843   C31.41,34.897,31.129,35.415,30.817,35.913z M32.651,25.905c-0.205,0.418-0.386,0.801-0.574,1.79   c-1.071-0.379-1.155,1.695-1.604,4.25h-1.584l0.963-5.982h1.437L31.15,26.83c0,0,0.512-0.943,1.203-0.943   C32.555,25.885,32.651,25.905,32.651,25.905z M35.508,30.548c0.52,0,1.276-0.379,1.276-0.379l-0.276,1.684   c0,0-0.83,0.211-1.35,0.211c-1.842,0-2.777-1.271-2.777-3.196c0-2.903,1.733-4.449,3.514-4.449c0.804,0,1.738,0.378,1.738,0.378   l-0.252,1.635c0,0-0.631-0.441-1.416-0.441c-1.05,0-1.992,1.002-1.992,2.824C33.973,29.712,34.412,30.548,35.508,30.548z    M50.574,31.082c-0.075,0.04-0.133,0.098-0.175,0.174c-0.042,0.075-0.063,0.153-0.063,0.234s0.021,0.158,0.063,0.232   c0.041,0.074,0.099,0.133,0.173,0.175c0.075,0.041,0.152,0.062,0.232,0.062c0.082,0,0.16-0.021,0.233-0.062   c0.074-0.042,0.132-0.101,0.173-0.175c0.043-0.074,0.062-0.151,0.062-0.232c0-0.082-0.02-0.16-0.062-0.234   c-0.041-0.076-0.101-0.134-0.176-0.174c-0.074-0.041-0.15-0.061-0.23-0.061C50.727,31.021,50.65,31.041,50.574,31.082z    M51.143,31.293c0.035,0.063,0.054,0.128,0.054,0.195s-0.017,0.133-0.052,0.194c-0.034,0.062-0.082,0.109-0.145,0.146   c-0.062,0.034-0.126,0.052-0.193,0.052c-0.068,0-0.133-0.018-0.194-0.052c-0.063-0.035-0.11-0.083-0.146-0.146   s-0.052-0.127-0.052-0.194s0.017-0.132,0.054-0.195c0.035-0.062,0.082-0.11,0.146-0.145s0.127-0.05,0.192-0.05   s0.129,0.017,0.19,0.05C51.061,31.183,51.108,31.23,51.143,31.293z M44.877,29.517c0,1.265,0.629,2.504,1.913,2.504   c0.925,0,1.437-0.645,1.437-0.645l-0.067,0.551h1.501l1.18-7.339l-1.548,0.003l-0.333,2.065c0,0-0.58-0.803-1.49-0.803   C46.055,25.854,44.877,27.559,44.877,29.517z M48.575,28.618c0,0.815-0.403,1.904-1.239,1.904c-0.556,0-0.816-0.466-0.816-1.198   c0-1.197,0.537-1.986,1.216-1.986C48.29,27.339,48.575,27.72,48.575,28.618z M51.086,36.347c-0.011-0.01-0.025-0.021-0.043-0.026   c0.043-0.003,0.079-0.019,0.105-0.046c0.025-0.027,0.039-0.059,0.039-0.096c0-0.026-0.008-0.051-0.023-0.074   s-0.037-0.04-0.064-0.049c-0.025-0.01-0.068-0.015-0.127-0.015h-0.174v0.505l0,0h0.082v-0.215h0.047   c0.028,0,0.051,0.006,0.064,0.018c0.021,0.017,0.051,0.056,0.086,0.117l0.044,0.08h0.101l-0.062-0.099   C51.131,36.401,51.106,36.368,51.086,36.347z M50.979,36.263h-0.1v-0.152h0.094c0.039,0,0.065,0.003,0.08,0.009   c0.016,0.006,0.026,0.015,0.035,0.026c0.008,0.012,0.012,0.025,0.012,0.039c0,0.023-0.008,0.043-0.025,0.057   S51.025,36.263,50.979,36.263z M55.026,9.939H1.454C0.65,9.939,0,10.59,0,11.393v33.695c0,0.803,0.65,1.454,1.454,1.454h53.572   c0.804,0,1.454-0.651,1.454-1.454V11.393C56.48,10.59,55.83,9.939,55.026,9.939z M51.409,36.519   c-0.042,0.076-0.099,0.134-0.173,0.175s-0.152,0.062-0.232,0.062c-0.082,0-0.16-0.021-0.234-0.062   c-0.073-0.041-0.131-0.099-0.174-0.175c-0.041-0.073-0.062-0.151-0.062-0.232s0.021-0.158,0.063-0.234   c0.041-0.076,0.101-0.133,0.175-0.174c0.075-0.039,0.151-0.06,0.231-0.06c0.079,0,0.155,0.021,0.229,0.06   c0.075,0.041,0.134,0.098,0.175,0.174c0.042,0.076,0.062,0.154,0.062,0.234S51.451,36.447,51.409,36.519z M52.457,28.241   c0.002,8.005-6.484,14.497-14.49,14.499c-3.744,0.001-7.158-1.418-9.73-3.749c-2.572,2.327-5.979,3.745-9.717,3.745   c-8.001,0-14.495-6.493-14.495-14.495c0-7.97,6.443-14.444,14.402-14.496c0.031,0,0.062,0,0.093,0c3.738,0,7.146,1.418,9.718,3.745   c2.571-2.328,5.981-3.747,9.722-3.748c8.006-0.003,14.497,6.486,14.499,14.492C52.457,28.236,52.457,28.238,52.457,28.241z    M50.6,31.244v0.504h0.082v-0.214h0.047c0.029,0,0.052,0.006,0.066,0.017c0.021,0.018,0.049,0.056,0.086,0.119l0.043,0.079h0.101   l-0.062-0.099c-0.029-0.047-0.055-0.08-0.074-0.1c-0.012-0.011-0.025-0.02-0.043-0.026c0.043-0.003,0.078-0.019,0.104-0.046   c0.025-0.026,0.04-0.06,0.04-0.096c0-0.025-0.008-0.051-0.024-0.074c-0.016-0.022-0.037-0.039-0.062-0.049   s-0.069-0.015-0.128-0.015L50.6,31.244L50.6,31.244z M50.891,31.347c0.009,0.013,0.013,0.024,0.013,0.041   c0,0.022-0.009,0.041-0.024,0.055c-0.019,0.015-0.05,0.021-0.097,0.021h-0.099v-0.152h0.092c0.04,0,0.066,0.003,0.082,0.008   C50.871,31.327,50.883,31.334,50.891,31.347z M40.069,25.813c-1.06,0-1.87,0.34-1.87,0.34l-0.225,1.33c0,0,0.67-0.272,1.682-0.272   c0.575,0,0.996,0.064,0.996,0.531c0,0.284-0.053,0.389-0.053,0.389s-0.452-0.037-0.664-0.037c-1.334,0-2.735,0.568-2.735,2.287   c0,1.354,0.92,1.663,1.49,1.663c1.088,0,1.558-0.706,1.583-0.708l-0.051,0.59h1.358l0.606-4.25   C42.189,25.871,40.615,25.813,40.069,25.813z M39.309,30.75c-0.48,0-0.604-0.365-0.604-0.583c0-0.422,0.229-0.93,1.36-0.93   c0.263,0.001,0.291,0.028,0.336,0.036C40.43,29.533,40.237,30.75,39.309,30.75z M45.034,27.694   c-1.071-0.379-1.153,1.694-1.604,4.25h-1.584l0.963-5.982h1.438l-0.138,0.867c0,0,0.513-0.943,1.204-0.943   c0.201,0,0.297,0.02,0.297,0.02C45.405,26.323,45.223,26.706,45.034,27.694z" fill="#FFFFFF"/>
</g>
<g>
</g>
<g>
</g>
<g>
</g>
<g>
</g>
<g>
</g>
<g>
</g>
<g>
</g>
<g>
</g>
<g>
</g>
<g>
</g>
<g>
</g>
<g>
</g>
<g>
</g>
<g>
</g>
<g>
</g>
</svg>
