<?xml version="1.0" encoding="iso-8859-1"?>
<!-- Generator: Adobe Illustrator 16.0.0, SVG Export Plug-In . SVG Version: 6.00 Build 0)  -->
<!DOCTYPE svg PUBLIC "-//W3C//DTD SVG 1.1//EN" "http://www.w3.org/Graphics/SVG/1.1/DTD/svg11.dtd">
<svg xmlns="http://www.w3.org/2000/svg" xmlns:xlink="http://www.w3.org/1999/xlink" version="1.1" id="Capa_1" x="0px" y="0px" width="512px" height="512px" viewBox="0 0 56.48 56.48" style="enable-background:new 0 0 56.48 56.48;" xml:space="preserve">
<g>
	<g>
		<path d="M55.026,9.939H1.454C0.65,9.939,0,10.59,0,11.393v33.695c0,0.803,0.65,1.454,1.454,1.454h53.572    c0.804,0,1.454-0.651,1.454-1.454V11.393C56.48,10.59,55.83,9.939,55.026,9.939z M4.373,21h6.028    c0.813,0.031,1.468,0.29,1.694,1.159l1.311,6.305c-1.288-3.298-4.392-6.042-9.083-7.178L4.373,21z M11.667,35.38L8.185,23.484    c2.503,1.602,4.635,4.144,5.386,5.913l0.406,1.469l3.808-9.729h4.12l-6.123,14.24L11.667,35.38z M24.933,35.392h-3.888    l2.431-14.268h3.89L24.933,35.392z M31.699,35.605c-1.743-0.018-3.422-0.363-4.332-0.762l0.547-3.193l0.501,0.227    c1.277,0.533,2.104,0.749,3.661,0.749c1.117,0,2.314-0.437,2.325-1.393c0.007-0.625-0.501-1.071-2.015-1.771    c-1.476-0.682-3.43-1.826-3.406-3.875c0.021-2.773,2.729-4.708,6.572-4.708c1.506,0,2.713,0.31,3.483,0.599L38.51,24.57    l-0.351-0.165c-0.716-0.288-1.637-0.566-2.91-0.546c-1.522,0-2.228,0.634-2.228,1.227c-0.008,0.668,0.824,1.108,2.184,1.77    c2.243,1.018,3.28,2.253,3.266,3.876C38.441,33.692,35.788,35.605,31.699,35.605z M48.549,35.397c0,0-0.355-1.64-0.473-2.138    c-0.566,0-4.534-0.006-4.98-0.006c-0.151,0.385-0.817,2.144-0.817,2.144h-4.083l5.773-13.075c0.41-0.929,1.105-1.184,2.037-1.184    h3.004l3.147,14.258L48.549,35.397L48.549,35.397z" fill="#FFFFFF"/>
		<path d="M46.28,24.985c-0.198,0.537-0.539,1.4-0.517,1.362c0,0-1.229,3.167-1.549,3.988h3.229c-0.156-0.714-0.901-4.12-0.901-4.12    L46.28,24.985z" fill="#FFFFFF"/>
	</g>
</g>
<g>
</g>
<g>
</g>
<g>
</g>
<g>
</g>
<g>
</g>
<g>
</g>
<g>
</g>
<g>
</g>
<g>
</g>
<g>
</g>
<g>
</g>
<g>
</g>
<g>
</g>
<g>
</g>
<g>
</g>
</svg>
