<?xml version="1.0" encoding="iso-8859-1"?>
<!-- Generator: Adobe Illustrator 16.0.0, SVG Export Plug-In . SVG Version: 6.00 Build 0)  -->
<!DOCTYPE svg PUBLIC "-//W3C//DTD SVG 1.1//EN" "http://www.w3.org/Graphics/SVG/1.1/DTD/svg11.dtd">
<svg xmlns="http://www.w3.org/2000/svg" xmlns:xlink="http://www.w3.org/1999/xlink" version="1.1" id="Capa_1" x="0px" y="0px" width="512px" height="512px" viewBox="0 0 56.48 56.48" style="enable-background:new 0 0 56.48 56.48;" xml:space="preserve">
<g>
	<path d="M16.464,34.933c0.061,0.188,0.082,0.388,0.12,0.582c-0.009,0.002-0.019,0.004-0.028,0.007   c0.001,0.229-0.014,0.458-0.109,0.671c-0.14,0.314-0.336,0.441-0.657,0.434c-0.319-0.008-0.527-0.17-0.626-0.464   c-0.138-0.412-0.139-0.832,0.005-1.241c0.108-0.307,0.351-0.459,0.669-0.455C16.127,34.468,16.365,34.634,16.464,34.933z    M32.032,34.563c-0.233-0.023-0.47-0.007-0.722-0.007c0,0.244,0,0.482,0.004,0.723c0,0.023,0.037,0.066,0.057,0.066   c0.204,0,0.41,0.008,0.611-0.012c0.184-0.019,0.304-0.186,0.309-0.383C32.297,34.742,32.207,34.58,32.032,34.563z M34.354,35.89   c0.275,0,0.541,0,0.816,0c-0.132-0.405-0.26-0.801-0.396-1.219C34.631,35.093,34.492,35.489,34.354,35.89z M49.295,34.55   c-0.184-0.009-0.365-0.007-0.548-0.013c-0.062-0.002-0.083,0.021-0.082,0.08c0.002,0.106,0,0.215,0,0.322   c0,0.106,0.001,0.214,0,0.321c0,0.056,0.017,0.09,0.079,0.088c0.189-0.004,0.38,0.002,0.568-0.012   c0.199-0.015,0.336-0.199,0.328-0.42C49.633,34.69,49.512,34.558,49.295,34.55z M56.48,11.393v33.695   c0,0.803-0.65,1.454-1.454,1.454H1.454C0.65,46.542,0,45.89,0,45.087V11.393c0-0.803,0.65-1.454,1.454-1.454h53.572   C55.83,9.939,56.48,10.59,56.48,11.393z M49.799,30.54c0.193,0,0.381,0,0.575,0c0-3.462,0-6.921,0-10.383c-0.196,0-0.387,0-0.575,0   C49.799,23.622,49.799,27.078,49.799,30.54z M39.379,20.233c0.002,1.511,0.002,3.022,0.002,4.534c0,0.038,0.006,0.076,0.008,0.118   c0.043,0.002,0.074,0.005,0.104,0.005c0.431,0,0.858-0.002,1.29,0.002c0.094,0.001,0.12-0.021,0.12-0.119   c-0.004-0.895-0.002-1.791-0.002-2.686c0-0.033,0.005-0.064,0.007-0.097c0.053,0.079,0.082,0.158,0.109,0.238   c0.296,0.85,0.593,1.7,0.884,2.551c0.03,0.088,0.073,0.112,0.163,0.111c0.68-0.004,1.359-0.002,2.041-0.002   c0.027,0,0.055-0.004,0.083-0.006c0-1.593,0-3.18,0-4.767c-0.507,0-1.003,0-1.509,0c0,0.962,0,1.917,0,2.872   c-0.01,0.001-0.02,0.003-0.028,0.004c-0.015-0.032-0.03-0.063-0.041-0.095c-0.313-0.897-0.627-1.793-0.937-2.691   c-0.025-0.071-0.059-0.1-0.138-0.099c-0.677,0.004-1.354,0.004-2.03,0C39.406,20.106,39.379,20.136,39.379,20.233z M33.484,24.883   c0.611,0,1.215,0,1.832,0c0-0.567,0-1.127,0-1.711c0.158,0.013,0.305,0.016,0.447,0.04c0.119,0.019,0.199,0.1,0.226,0.219   c0.028,0.125,0.046,0.252,0.067,0.379c0.057,0.327,0.113,0.654,0.168,0.981c0.012,0.07,0.041,0.101,0.121,0.101   c0.547-0.004,1.096-0.002,1.644-0.002c0.03,0,0.062-0.004,0.075-0.005c-0.061-0.369-0.121-0.731-0.178-1.093   c-0.035-0.222-0.055-0.447-0.097-0.667c-0.063-0.332-0.271-0.534-0.598-0.615c-0.06-0.015-0.117-0.03-0.204-0.052   c0.057-0.019,0.083-0.027,0.109-0.036c0.254-0.08,0.482-0.198,0.642-0.424c0.179-0.256,0.201-0.549,0.175-0.844   c-0.037-0.432-0.249-0.743-0.669-0.899c-0.321-0.119-0.655-0.141-0.991-0.143c-0.886-0.005-1.771-0.002-2.654-0.002   c-0.036,0-0.071,0-0.115,0C33.484,21.71,33.484,23.296,33.484,24.883z M28.432,24.883c0.024,0.002,0.038,0.006,0.051,0.006   c1.179,0,2.356,0,3.534,0.001c0.072,0,0.093-0.022,0.092-0.093c-0.003-0.343-0.006-0.688,0.001-1.031   c0.001-0.093-0.029-0.113-0.115-0.112c-0.552,0.003-1.104,0.002-1.653,0.001c-0.039,0-0.076-0.004-0.115-0.006   c0-0.185,0-0.356,0-0.545c0.562,0,1.111,0,1.666,0c0-0.415,0-0.82,0-1.236c-0.557,0-1.106,0-1.664,0c0-0.177,0-0.343,0-0.525   c0.609,0,1.211,0,1.811,0c0-0.419,0-0.822,0-1.229c-1.207,0-2.404,0-3.607,0C28.432,21.708,28.432,23.295,28.432,24.883z    M31.549,25.846c-0.309,0.005-0.617,0.002-0.925,0.002c-0.274,0-0.551,0-0.84,0c-0.003,0.044-0.007,0.075-0.007,0.106   c0,1.522,0,3.044-0.001,4.565c0,0.082,0.021,0.111,0.108,0.109c0.541-0.004,1.082-0.002,1.621-0.002c0.146,0,0.146,0,0.146-0.146   c0-1.378,0-2.757,0-4.136c0-0.132-0.004-0.265,0.001-0.397C31.655,25.87,31.629,25.845,31.549,25.846z M22.932,21.392   c0.394,0,0.779,0,1.179,0c0,1.171,0,2.332,0,3.493c0.631,0,1.246,0,1.881,0c0-1.17,0-2.329,0-3.497c0.396,0,0.782,0,1.169,0   c0-0.43,0-0.85,0-1.271c-1.414,0-2.82,0-4.229,0C22.932,20.542,22.932,20.963,22.932,21.392z M17.375,23.487   c0,0.025,0,0.05,0.002,0.075c0.054,0.634,0.393,1.047,0.983,1.266c0.371,0.137,0.757,0.178,1.148,0.184   c0.438,0.006,0.872-0.03,1.29-0.177c0.551-0.194,0.94-0.539,1.052-1.137c0.146-0.786-0.167-1.349-0.916-1.624   c-0.318-0.117-0.649-0.197-0.974-0.294c-0.208-0.062-0.419-0.118-0.624-0.189c-0.108-0.038-0.16-0.132-0.154-0.248   c0.006-0.121,0.073-0.21,0.186-0.236c0.127-0.028,0.262-0.044,0.39-0.033c0.16,0.015,0.261,0.12,0.276,0.27   c0.011,0.1,0.057,0.111,0.14,0.11c0.48-0.003,0.96-0.001,1.439-0.001c0.035,0,0.07-0.004,0.1-0.006   c0.007-0.016,0.012-0.022,0.013-0.028c0.002-0.011,0.002-0.021,0.002-0.032c-0.012-0.489-0.216-0.868-0.649-1.11   c-0.298-0.167-0.625-0.239-0.963-0.266c-0.534-0.042-1.066-0.037-1.582,0.135c-0.584,0.196-0.991,0.556-1.062,1.201   c-0.072,0.645,0.14,1.145,0.77,1.386c0.353,0.135,0.722,0.225,1.083,0.336c0.191,0.059,0.385,0.111,0.572,0.18   c0.162,0.06,0.242,0.193,0.221,0.329c-0.029,0.195-0.185,0.337-0.388,0.354c-0.284,0.022-0.45-0.063-0.517-0.275   c-0.024-0.074-0.036-0.151-0.055-0.232c-0.589,0-1.178,0-1.779,0C17.379,23.452,17.376,23.47,17.375,23.487z M12.522,20.25   c0,1.494,0,2.987,0.001,4.481c0,0.05,0.004,0.099,0.007,0.152c1.235,0,2.451,0,3.669,0c0-0.413,0-0.818,0-1.23   c-0.627,0-1.242,0-1.864,0c0-0.184,0-0.361,0-0.549c0.562,0,1.116,0,1.67,0c0-0.416,0-0.819,0-1.234c-0.559,0-1.112,0-1.672,0   c0-0.178,0-0.344,0-0.525c0.607,0,1.207,0,1.811,0c0.002-0.045,0.006-0.076,0.006-0.108c0-0.337-0.002-0.674,0.002-1.011   c0.001-0.096-0.034-0.118-0.126-0.118c-1.121,0.003-2.243,0.002-3.364,0.002C12.522,20.109,12.522,20.11,12.522,20.25z    M10.416,24.672c0.167-0.764,0.333-1.528,0.499-2.292c0.13-0.601,0.259-1.201,0.388-1.801c0.032-0.152,0.062-0.306,0.094-0.464   c-0.565,0-1.116,0-1.677,0c-0.135,1-0.269,1.996-0.403,2.992c-0.011-0.001-0.022-0.002-0.034-0.002   c-0.043-0.307-0.085-0.614-0.131-0.922c-0.097-0.653-0.199-1.306-0.292-1.961c-0.013-0.093-0.042-0.116-0.131-0.115   c-0.573,0.004-1.146,0.002-1.72,0.002c-0.038,0-0.077,0.004-0.115,0.006c-0.148,1.004-0.295,1.999-0.442,2.993   c-0.011,0-0.021,0-0.032,0c-0.134-0.998-0.269-1.996-0.404-2.996c-0.562,0-1.109,0-1.668,0c0.002,0.041,0,0.069,0.007,0.097   c0.192,0.882,0.385,1.765,0.576,2.648c0.137,0.635,0.274,1.271,0.407,1.907c0.019,0.089,0.049,0.128,0.152,0.126   c0.523-0.006,1.046-0.003,1.568-0.003c0.114,0,0.229,0,0.351,0c0.148-1.031,0.295-2.055,0.442-3.079c0.012,0,0.023,0,0.035,0   c0.147,1.025,0.294,2.05,0.442,3.079c0.055,0,0.094,0,0.132,0c0.563,0,1.125,0,1.688,0C10.367,24.889,10.368,24.89,10.416,24.672z    M13.8,34.155c0.001-0.078-0.025-0.106-0.106-0.104c-0.254,0.004-0.509,0.01-0.763-0.002c-0.126-0.007-0.171,0.045-0.206,0.155   c-0.199,0.652-0.405,1.304-0.615,1.974c-0.014-0.031-0.02-0.041-0.022-0.051c-0.19-0.658-0.382-1.316-0.57-1.976   c-0.021-0.074-0.053-0.104-0.134-0.103c-0.15,0.006-0.301,0.002-0.451,0.002c-0.16,0-0.32,0-0.483,0c0,1,0,1.986,0,2.985   c0.162,0,0.315-0.005,0.468,0.002c0.102,0.005,0.136-0.026,0.134-0.132c-0.004-0.734-0.001-1.469-0.001-2.204   c0-0.028,0-0.06,0-0.089c0.126,0.346,0.235,0.691,0.342,1.04c0.134,0.43,0.268,0.858,0.399,1.29   c0.021,0.068,0.057,0.099,0.13,0.096c0.122-0.006,0.244,0.001,0.365-0.006c0.032-0.002,0.079-0.036,0.089-0.064   c0.192-0.596,0.38-1.19,0.568-1.787c0.064-0.205,0.13-0.407,0.195-0.61c0.006,0.001,0.013,0.002,0.019,0.004   c0,0.815,0,1.631,0,2.461c0.186,0,0.364-0.003,0.542,0.001c0.076,0.002,0.101-0.025,0.1-0.1   C13.799,36.009,13.798,35.082,13.8,34.155z M17.105,34.8c-0.125-0.322-0.34-0.568-0.673-0.695c-0.316-0.12-0.639-0.143-0.969-0.076   c-0.368,0.072-0.652,0.265-0.84,0.59c-0.154,0.266-0.222,0.557-0.251,0.864c0.027,0.212,0.037,0.427,0.083,0.635   c0.086,0.388,0.307,0.679,0.676,0.849c0.34,0.154,0.696,0.184,1.058,0.102c0.386-0.088,0.691-0.295,0.859-0.664   C17.285,35.878,17.314,35.339,17.105,34.8z M20.491,36.171c0-0.668-0.001-1.334,0.002-2c0-0.095-0.029-0.127-0.123-0.123   c-0.121,0.008-0.243,0.008-0.365,0c-0.099-0.005-0.128,0.028-0.127,0.129c0.004,0.666,0.002,1.332,0.002,2c0,0.047,0,0.094,0,0.142   c-0.023-0.017-0.032-0.031-0.039-0.048c-0.336-0.707-0.673-1.414-1.007-2.122c-0.035-0.072-0.074-0.101-0.154-0.099   c-0.189,0.006-0.379,0.002-0.569,0c-0.081,0-0.162,0-0.247,0c0,1.004,0,1.987,0,2.987c0.152,0,0.298,0,0.444,0   c0.165,0,0.165-0.001,0.165-0.16c0-0.741,0-1.483,0-2.254c0.026,0.046,0.038,0.067,0.049,0.089c0.347,0.746,0.695,1.49,1.04,2.237   c0.031,0.065,0.066,0.09,0.137,0.09c0.229-0.004,0.459-0.004,0.688,0c0.077,0.001,0.107-0.022,0.105-0.104   C20.489,36.679,20.491,36.425,20.491,36.171z M20.556,30.636c0.822-0.19,1.283-0.765,1.284-1.604   c0.002-1.019,0.001-2.035,0.001-3.052c0-0.042,0-0.083,0-0.125c-0.635,0-1.252,0-1.882,0c0,0.091,0,0.176,0,0.261   c0,0.931,0.001,1.862-0.003,2.794c0,0.112-0.016,0.229-0.049,0.336c-0.045,0.141-0.153,0.225-0.305,0.23   c-0.157,0.009-0.285-0.055-0.342-0.205c-0.039-0.098-0.064-0.207-0.064-0.312c-0.005-0.991-0.004-1.984-0.004-2.976   c0-0.042,0-0.084,0-0.131c-0.629,0-1.248,0-1.873,0c-0.002,0.027-0.006,0.041-0.006,0.054c0,1.086-0.005,2.171,0.007,3.256   c0.002,0.188,0.053,0.384,0.123,0.562c0.187,0.479,0.573,0.742,1.046,0.877C19.172,30.8,19.864,30.796,20.556,30.636z    M23.254,36.625c0.004-0.082-0.021-0.104-0.103-0.104c-0.383,0.004-0.766,0.002-1.15,0.002c-0.042,0-0.083-0.003-0.136-0.007   c0-0.228,0.003-0.444-0.001-0.662c-0.002-0.084,0.025-0.111,0.109-0.111c0.33,0.004,0.659,0.002,0.989,0.002   c0.049,0,0.098-0.005,0.152-0.008c0-0.167,0-0.323,0-0.489c-0.05-0.003-0.096-0.008-0.141-0.008c-0.333-0.001-0.667,0.001-1-0.002   c-0.036-0.001-0.102-0.034-0.102-0.054c-0.008-0.207-0.005-0.413-0.005-0.637c0.456,0,0.891,0,1.34,0   c0-0.125-0.008-0.242,0.002-0.359c0.009-0.108-0.027-0.141-0.136-0.139c-0.577,0.004-1.153,0.004-1.73,0   c-0.102,0-0.133,0.025-0.132,0.129c0.003,0.906,0.001,1.813,0.001,2.72c0,0.042,0,0.083,0,0.131c0.686,0,1.357,0,2.04,0   C23.252,36.888,23.247,36.757,23.254,36.625z M23.382,30.622c0.506,0,1.003,0,1.518,0c0-0.968,0-1.932,0-2.895   c0.01-0.001,0.02-0.002,0.029-0.004c0.018,0.045,0.037,0.088,0.053,0.133c0.311,0.89,0.621,1.78,0.928,2.672   c0.027,0.077,0.063,0.103,0.144,0.103c0.681-0.004,1.361-0.002,2.042-0.002c0.031,0,0.063-0.005,0.099-0.007   c0-1.594,0-3.18,0-4.768c-0.506,0-1.002,0-1.509,0c0,0.961,0,1.916,0,2.871c-0.01,0.002-0.02,0.004-0.031,0.006   c-0.011-0.024-0.023-0.047-0.031-0.073c-0.317-0.903-0.635-1.806-0.948-2.71c-0.027-0.079-0.064-0.101-0.144-0.1   c-0.676,0.003-1.354,0.003-2.031-0.001c-0.098,0-0.125,0.025-0.125,0.125c0.003,1.511,0.001,3.023,0.001,4.535   C23.377,30.542,23.38,30.582,23.382,30.622z M26.277,34.071c-0.208,0-0.392,0.003-0.577-0.001c-0.068-0.002-0.1,0.021-0.127,0.083   c-0.108,0.241-0.221,0.479-0.333,0.72c-0.081,0.172-0.16,0.344-0.246,0.529c-0.016-0.037-0.025-0.057-0.034-0.075   c-0.178-0.394-0.355-0.789-0.536-1.181c-0.015-0.031-0.057-0.07-0.086-0.072c-0.225-0.005-0.451-0.003-0.697-0.003   c0.022,0.046,0.034,0.075,0.048,0.103c0.297,0.556,0.596,1.108,0.89,1.666c0.034,0.062,0.052,0.14,0.054,0.211   c0.006,0.293,0.004,0.588,0,0.881c-0.001,0.078,0.021,0.109,0.103,0.106c0.143-0.006,0.287-0.006,0.43,0   c0.088,0.004,0.118-0.026,0.117-0.114c-0.004-0.298-0.003-0.596,0-0.893c0-0.051,0.011-0.107,0.035-0.152   c0.234-0.447,0.473-0.892,0.709-1.336C26.108,34.392,26.187,34.241,26.277,34.071z M30.225,34.05c-0.18,0-0.353,0-0.522,0   c-0.588,0-1.175,0.002-1.763,0c-0.092,0-0.131,0.023-0.123,0.121c0.008,0.098,0.006,0.194,0.001,0.291   c-0.004,0.08,0.024,0.106,0.104,0.104c0.218-0.004,0.437,0.002,0.655-0.003c0.092-0.004,0.122,0.023,0.122,0.119   c-0.004,0.725-0.002,1.449-0.002,2.172c0,0.039-0.005,0.08,0.004,0.117c0.006,0.024,0.035,0.061,0.054,0.062   c0.196,0.004,0.392,0.003,0.597,0.003c0-0.059,0-0.102,0-0.143c0-0.703,0-1.404,0.002-2.107c0-0.247-0.045-0.219,0.222-0.221   c0.215-0.002,0.429-0.001,0.647-0.001C30.225,34.39,30.225,34.231,30.225,34.05z M33.051,37.027   c-0.025-0.082-0.057-0.15-0.069-0.223c-0.038-0.222-0.073-0.444-0.104-0.668c-0.039-0.279-0.111-0.533-0.476-0.58   c0.062-0.024,0.096-0.039,0.131-0.053c0.287-0.125,0.456-0.373,0.444-0.673c-0.014-0.319-0.152-0.573-0.459-0.688   c-0.166-0.062-0.355-0.082-0.535-0.088c-0.396-0.014-0.795-0.002-1.192-0.006c-0.096,0-0.12,0.029-0.12,0.123   c0.004,0.912,0.002,1.826,0.002,2.74c0,0.037,0.004,0.075,0.006,0.115c0.225,0,0.437,0,0.66,0c0-0.398,0-0.788,0-1.186   c0.229,0,0.446-0.007,0.664,0.004c0.098,0.004,0.172,0.07,0.197,0.172c0.02,0.08,0.033,0.16,0.044,0.242   c0.038,0.254,0.073,0.508,0.11,0.768C32.59,37.027,32.819,37.027,33.051,37.027z M33.153,29.083   c0.139,0.531,0.413,0.971,0.881,1.275c0.451,0.294,0.955,0.386,1.483,0.402c0.209-0.022,0.422-0.031,0.627-0.07   c0.779-0.148,1.355-0.569,1.639-1.324c0.268-0.709,0.27-1.435,0.038-2.156c-0.183-0.564-0.542-0.984-1.082-1.24   c-0.365-0.173-0.754-0.237-1.155-0.244c-0.539-0.009-1.058,0.072-1.52,0.368c-0.645,0.409-0.917,1.035-0.996,1.765   C33.024,28.272,33.047,28.681,33.153,29.083z M36.198,37.038c-0.013-0.049-0.019-0.073-0.026-0.096   c-0.104-0.304-0.207-0.608-0.313-0.912c-0.218-0.628-0.435-1.255-0.65-1.884c-0.024-0.073-0.063-0.1-0.14-0.098   c-0.176,0.006-0.352,0.01-0.527,0c-0.107-0.007-0.148,0.039-0.181,0.131c-0.25,0.705-0.503,1.406-0.757,2.109   c-0.086,0.241-0.172,0.482-0.268,0.746c0.191,0,0.359-0.004,0.527,0.002c0.075,0.002,0.107-0.027,0.128-0.096   c0.047-0.15,0.104-0.297,0.149-0.447c0.023-0.07,0.059-0.102,0.139-0.1c0.254,0.007,0.509,0.003,0.763,0.003   c0.3,0,0.298,0.001,0.394,0.29c0.037,0.115,0.055,0.266,0.136,0.326c0.078,0.059,0.228,0.021,0.345,0.022   C36.008,37.039,36.098,37.038,36.198,37.038z M39.365,34.146c0-0.068-0.023-0.098-0.093-0.096c-0.132,0.002-0.265,0.006-0.397,0   c-0.093-0.004-0.123,0.021-0.123,0.118c0.004,0.691,0.002,1.384,0.002,2.074c0,0.024-0.002,0.049-0.005,0.095   c-0.021-0.039-0.032-0.058-0.042-0.076c-0.333-0.705-0.669-1.408-1-2.112c-0.033-0.071-0.072-0.103-0.152-0.099   c-0.233,0.004-0.467,0.006-0.698,0c-0.101-0.004-0.125,0.03-0.125,0.129c0.004,0.912,0.002,1.824,0.002,2.738   c0,0.035,0,0.07,0,0.121c0.166,0,0.319,0,0.472,0c0.143-0.001,0.143-0.001,0.143-0.14c0-0.749,0-1.496,0-2.244   c0.006-0.001,0.012-0.002,0.018-0.003c0.086,0.184,0.172,0.367,0.258,0.553c0.271,0.583,0.542,1.167,0.817,1.749   c0.019,0.038,0.075,0.08,0.116,0.081c0.238,0.008,0.479,0.003,0.72,0.005c0.062,0,0.089-0.021,0.089-0.088   C39.364,36.015,39.364,35.081,39.365,34.146z M39.498,30.63c0.426-0.005,0.852-0.005,1.279,0c0.098,0,0.127-0.023,0.126-0.125   c-0.004-0.873-0.002-1.748-0.002-2.622c0-0.051,0-0.103,0-0.154c0.04,0.031,0.058,0.065,0.069,0.099   c0.313,0.901,0.627,1.802,0.938,2.704c0.025,0.073,0.059,0.098,0.137,0.098c0.68-0.002,1.36-0.002,2.041-0.002   c0.032,0,0.063,0,0.105,0c0-1.601,0-3.186,0-4.771c-0.508,0-1.006,0-1.518,0c0,0.962,0,1.915,0,2.868   c-0.033-0.024-0.047-0.053-0.058-0.082c-0.315-0.899-0.631-1.799-0.944-2.7c-0.022-0.066-0.05-0.097-0.125-0.096   c-0.688,0.003-1.375,0.003-2.063,0.001c-0.083-0.001-0.103,0.028-0.103,0.106c0.002,1.522,0.002,3.044,0,4.566   C39.379,30.613,39.412,30.63,39.498,30.63z M42.096,35.591c-0.137-0.103-0.307-0.166-0.471-0.224   c-0.212-0.073-0.435-0.114-0.65-0.179c-0.271-0.081-0.371-0.342-0.213-0.549c0.156-0.207,0.565-0.242,0.74-0.049   c0.075,0.084,0.112,0.207,0.174,0.322c0.176,0,0.375,0,0.582,0c0.041-0.372-0.203-0.718-0.582-0.838   c-0.297-0.093-0.601-0.09-0.9-0.023c-0.182,0.039-0.342,0.119-0.485,0.24c-0.325,0.278-0.448,1.008,0.146,1.305   c0.123,0.062,0.254,0.115,0.386,0.158c0.204,0.064,0.415,0.107,0.618,0.176c0.265,0.091,0.314,0.401,0.095,0.576   c-0.067,0.053-0.157,0.088-0.241,0.105c-0.342,0.066-0.705-0.023-0.705-0.48c0-0.021-0.049-0.057-0.076-0.058   c-0.121-0.007-0.244-0.003-0.365-0.003c-0.223,0-0.227,0-0.206,0.219c0.03,0.34,0.198,0.588,0.521,0.711   c0.346,0.135,0.704,0.135,1.064,0.053c0.267-0.061,0.494-0.184,0.66-0.406C42.434,36.306,42.404,35.825,42.096,35.591z    M44.871,34.065c-0.038-0.003-0.066-0.009-0.095-0.009c-0.572,0-1.146,0.002-1.718,0c-0.096,0-0.108,0.043-0.108,0.125   c0.002,0.906,0.002,1.812,0.002,2.717c0,0.025-0.007,0.054,0.002,0.074c0.011,0.024,0.037,0.06,0.058,0.06   c0.191,0.005,0.385,0.003,0.595,0.003c0-0.43,0-0.839,0-1.26c0.396,0,0.782,0,1.188,0c0-0.131,0-0.25,0-0.371   c0-0.141,0-0.141-0.141-0.141c-0.314,0-0.63,0.002-0.945-0.002c-0.035,0-0.101-0.033-0.102-0.054   c-0.008-0.216-0.004-0.433-0.004-0.661c0.433,0,0.849,0,1.268,0C44.871,34.378,44.871,34.222,44.871,34.065z M45.305,30.54   c0.194,0,0.383,0,0.578,0c0-3.462,0-6.921,0-10.383c-0.197,0-0.389,0-0.578,0C45.305,23.622,45.305,27.078,45.305,30.54z    M47.446,36.524c-0.046,0-0.084,0-0.124,0c-0.383,0-0.766-0.003-1.148,0.001c-0.088,0.001-0.11-0.029-0.108-0.11   c0.005-0.167,0.001-0.336,0.002-0.504c0-0.166,0-0.165,0.159-0.165c0.312,0,0.623,0,0.935,0c0.05-0.001,0.099-0.004,0.161-0.008   c0-0.125,0-0.242,0-0.359c0-0.138,0-0.139-0.143-0.139c-0.332-0.001-0.666,0.001-0.998-0.003c-0.037,0-0.106-0.031-0.106-0.049   c-0.007-0.21-0.005-0.419-0.005-0.642c0.455,0,0.893,0,1.338,0c0-0.13-0.007-0.248,0.002-0.365   c0.008-0.104-0.029-0.133-0.132-0.133c-0.576,0.004-1.153,0.002-1.729,0.002c-0.041,0-0.082,0.004-0.127,0.006   c0,0.996,0,1.98,0,2.973c0.676,0,1.348,0,2.023,0C47.446,36.859,47.446,36.697,47.446,36.524z M50.377,37.034   c-0.041-0.226-0.08-0.438-0.117-0.651c-0.022-0.125-0.037-0.254-0.06-0.379c-0.042-0.242-0.168-0.408-0.446-0.445   c0.055-0.023,0.086-0.039,0.116-0.051c0.356-0.154,0.457-0.414,0.453-0.688c-0.004-0.338-0.212-0.614-0.53-0.701   c-0.156-0.042-0.324-0.062-0.488-0.063c-0.383-0.01-0.766-0.004-1.148-0.002c-0.042,0-0.083,0.004-0.13,0.006   c0,0.996,0,1.979,0,2.971c0.217,0,0.429,0,0.653,0c0-0.396,0-0.786,0-1.188c0.194,0,0.375,0,0.558,0c0.226,0,0.3,0.065,0.333,0.289   c0.04,0.274,0.081,0.549,0.125,0.825c0.004,0.029,0.033,0.076,0.051,0.077C49.963,37.037,50.18,37.034,50.377,37.034z    M52.157,20.701c-0.002-0.358-0.271-0.625-0.627-0.621c-0.342,0.004-0.624,0.287-0.621,0.625c0.003,0.34,0.293,0.621,0.64,0.618   C51.889,21.32,52.159,21.042,52.157,20.701z M52.073,20.709c0,0.314-0.229,0.549-0.536,0.551c-0.298,0.002-0.542-0.251-0.542-0.564   c0-0.31,0.246-0.557,0.55-0.554C51.852,20.146,52.074,20.386,52.073,20.709z M51.844,20.495c-0.019-0.052-0.082-0.117-0.133-0.125   c-0.125-0.018-0.255-0.005-0.379-0.005c0,0.233,0,0.456,0,0.679c0.012,0,0.025,0.001,0.04,0.001c0-0.105,0-0.209,0-0.307   c0.125-0.039,0.202-0.019,0.25,0.087c0.028,0.061,0.066,0.119,0.106,0.172c0.019,0.024,0.053,0.037,0.08,0.055   c0.006-0.007,0.013-0.015,0.019-0.022c-0.062-0.098-0.124-0.196-0.188-0.298c0.047-0.013,0.084-0.019,0.115-0.034   C51.842,20.658,51.875,20.576,51.844,20.495z M35.469,29.517c0.242,0.021,0.41-0.088,0.467-0.358   c0.064-0.303,0.089-0.614,0.129-0.921c-0.012-0.001-0.022-0.002-0.034-0.003c0-0.108,0.006-0.216-0.001-0.323   c-0.018-0.246-0.031-0.493-0.139-0.722c-0.08-0.169-0.215-0.241-0.396-0.234c-0.177,0.006-0.3,0.093-0.361,0.255   c-0.041,0.113-0.084,0.232-0.09,0.351c-0.018,0.396-0.035,0.793-0.02,1.189c0.008,0.19,0.078,0.382,0.141,0.566   C35.208,29.45,35.33,29.507,35.469,29.517z M35.877,22.035c0.168-0.083,0.24-0.225,0.243-0.409c0.001-0.166-0.046-0.305-0.21-0.376   c-0.189-0.081-0.388-0.067-0.59-0.06c0,0.309,0,0.604,0,0.911C35.518,22.115,35.703,22.121,35.877,22.035z M51.404,20.409   c-0.007,0-0.018,0.021-0.021,0.033c-0.05,0.148,0.004,0.224,0.188,0.224c0.017-0.001,0.065,0.007,0.106-0.01   c0.037-0.016,0.08-0.054,0.088-0.091c0.01-0.037-0.012-0.117-0.031-0.121C51.627,20.423,51.516,20.417,51.404,20.409z" fill="#FFFFFF"/>
</g>
<g>
</g>
<g>
</g>
<g>
</g>
<g>
</g>
<g>
</g>
<g>
</g>
<g>
</g>
<g>
</g>
<g>
</g>
<g>
</g>
<g>
</g>
<g>
</g>
<g>
</g>
<g>
</g>
<g>
</g>
</svg>
