<svg xmlns="http://www.w3.org/2000/svg" viewBox="0 0 253.72 32.37"><defs><style>.cls-1{fill:#004da2;}</style></defs><title>Element 1</title><g id="Ebene_2" data-name="Ebene 2"><g id="Ebene_1-2" data-name="Ebene 1"><path class="cls-1" d="M0,29.16H15c4,0,7.44-.85,9.89-3s4-5.65,4-11.08c0-5.82-1.4-9.36-3.74-11.46S19.48.81,15.49.82H0V6.94H13.12A4.29,4.29,0,0,1,17.23,9c.77,1.35,1,3.28,1,5.79s-.21,4.33-1,5.68a4.26,4.26,0,0,1-4.11,2.08h-3v-10H0Z"/><polygon class="cls-1" points="31.1 29.16 41.27 29.16 41.27 18.88 53.94 18.88 53.94 12.51 41.27 12.51 41.27 6.94 53.94 6.94 53.94 0.81 31.1 0.81 31.1 29.16"/><path class="cls-1" d="M60.95,3.89A13,13,0,0,0,56,14.58c0,5.09,1.83,8.83,4.8,11.33s7.09,3.75,11.7,3.75a37.93,37.93,0,0,0,11.31-1.5V15.08H75.2V22.7l-.19.07a7.1,7.1,0,0,1-2.4.27,5.46,5.46,0,0,1-4.79-2.37,9.66,9.66,0,0,1-1.37-5.39A7.91,7.91,0,0,1,69,9.06a9.91,9.91,0,0,1,6.64-2.12,14,14,0,0,1,6.54,1.45V1.33a34.1,34.1,0,0,0-9.63-1h0A18.68,18.68,0,0,0,60.95,3.89"/><path class="cls-1" d="M98.36.78h2.5a4.92,4.92,0,0,1,3.89,1.45A5.65,5.65,0,0,1,105.91,6a4.8,4.8,0,0,1-1.64,4,6.66,6.66,0,0,1-4.15,1.21H98.36Zm1,9.54h.83q4.62.1,4.74-4.4a4.25,4.25,0,0,0-1.19-3.34,4.5,4.5,0,0,0-2.92-.91H99.35v8.65Z"/><path class="cls-1" d="M113.26,11a6.05,6.05,0,0,1-2.14.42,3,3,0,0,1-2.6-1.15,4.72,4.72,0,0,1-.76-2.84,4.64,4.64,0,0,1,.87-2.88,2.7,2.7,0,0,1,2.24-1.11,2.57,2.57,0,0,1,2.26,1.12,4.88,4.88,0,0,1,.68,2.66v.48h-5.06a3.25,3.25,0,0,0,.62,2,2.11,2.11,0,0,0,1.81.87,3.59,3.59,0,0,0,1.13-.2,3.62,3.62,0,0,0,.94-.37v1Zm-.44-4.1A3.81,3.81,0,0,0,112.39,5a1.61,1.61,0,0,0-1.47-.82,1.92,1.92,0,0,0-1.58.84,3,3,0,0,0-.6,1.82h4.07Z"/><path class="cls-1" d="M121.54,9.42a17.72,17.72,0,0,0,.06,1.79h-.88V9.85h0a2.56,2.56,0,0,1-.27.5,2.35,2.35,0,0,1-.45.51,2,2,0,0,1-.68.36,2.55,2.55,0,0,1-1,.17,2.26,2.26,0,0,1-1.93-.84,3.38,3.38,0,0,1-.58-2.1V3.59h.9V8.22a3,3,0,0,0,.42,1.71,1.46,1.46,0,0,0,1.34.66,1.94,1.94,0,0,0,1.05-.27,1.75,1.75,0,0,0,.67-.66,2.68,2.68,0,0,0,.36-.9,4.35,4.35,0,0,0,.11-1V3.59h.9V9.42Z"/><path class="cls-1" d="M127.27,4.39H125.6V9.33a1.58,1.58,0,0,0,.23.88.79.79,0,0,0,.75.37,1.78,1.78,0,0,0,.84-.18l.06.77-.45.13a2.61,2.61,0,0,1-.66.08,1.79,1.79,0,0,1-.94-.21,1.35,1.35,0,0,1-.5-.55,2.76,2.76,0,0,1-.19-.8c0-.3,0-.63,0-1V4.39h-1.45v-.8h1.45V1.75l.9-.33V3.59h1.68v.8Z"/><path class="cls-1" d="M128.51,10.11a4,4,0,0,0,1.92.48,1.81,1.81,0,0,0,1.16-.37,1.18,1.18,0,0,0,.48-1,1.29,1.29,0,0,0-.54-1.07,6.54,6.54,0,0,0-1.23-.67q-.33-.16-.64-.34a5.42,5.42,0,0,1-.58-.4,2.14,2.14,0,0,1-.41-.56,1.49,1.49,0,0,1-.15-.7,1.81,1.81,0,0,1,.75-1.61,2.94,2.94,0,0,1,1.65-.47,7.52,7.52,0,0,1,.83.06,5,5,0,0,1,1,.28l-.08.82A4.32,4.32,0,0,0,131,4.21a2.1,2.1,0,0,0-1.12.26.93.93,0,0,0-.34.38,1.31,1.31,0,0,0-.13.63.72.72,0,0,0,.16.45,1.59,1.59,0,0,0,.42.36c.17.1.37.21.59.31l.65.33a4.18,4.18,0,0,1,1.26.84,2,2,0,0,1,.55,1.45,2,2,0,0,1-.23,1,2.11,2.11,0,0,1-.62.67,3.24,3.24,0,0,1-1.72.5,6,6,0,0,1-2.06-.36Z"/><path class="cls-1" d="M139.69,4.6a3.82,3.82,0,0,0-1.58-.39,2.52,2.52,0,0,0-2,.88,3.48,3.48,0,0,0-.74,2.31,3.43,3.43,0,0,0,.73,2.23,2.34,2.34,0,0,0,2,1,4.26,4.26,0,0,0,1.67-.34l.08.88a6,6,0,0,1-1.89.27,3.17,3.17,0,0,1-2.65-1.21,4.44,4.44,0,0,1-.88-2.78,4.12,4.12,0,0,1,1-2.88A3.43,3.43,0,0,1,138,3.41a5.32,5.32,0,0,1,1.13.1l.4.09.25.1Z"/><path class="cls-1" d="M141.53,0h.9V4.87h0a2.72,2.72,0,0,1,.9-1.06,2.59,2.59,0,0,1,1.4-.4,2.19,2.19,0,0,1,2,.9,4.52,4.52,0,0,1,.51,2.34v4.56h-.9V6.66a7.67,7.67,0,0,0-.06-1,2.18,2.18,0,0,0-.25-.76,1.47,1.47,0,0,0-1.45-.73,1.85,1.85,0,0,0-1.7.94,3.91,3.91,0,0,0-.49,2v4.08h-.9Z"/><path class="cls-1" d="M154.78,11a6.05,6.05,0,0,1-2.14.42A3,3,0,0,1,150,10.24a4.72,4.72,0,0,1-.76-2.84,4.64,4.64,0,0,1,.87-2.88,2.7,2.7,0,0,1,2.24-1.11,2.57,2.57,0,0,1,2.26,1.12,4.88,4.88,0,0,1,.68,2.66v.48h-5.06a3.25,3.25,0,0,0,.62,2,2.11,2.11,0,0,0,1.81.87,3.59,3.59,0,0,0,1.13-.2,3.62,3.62,0,0,0,.94-.37v1Zm-.44-4.1A3.81,3.81,0,0,0,153.92,5a1.61,1.61,0,0,0-1.47-.82,1.92,1.92,0,0,0-1.58.84,3,3,0,0,0-.59,1.82h4.07Z"/><path class="cls-1" d="M98.32,18.72h4.8v.89H99.31v3.73h3.63v.89H99.31v4.92h-1Z"/><path class="cls-1" d="M104.41,25.33a4.58,4.58,0,0,1,.84-2.78,3,3,0,0,1,2.6-1.21,3.08,3.08,0,0,1,2.64,1.21,5.14,5.14,0,0,1,0,5.55,3.09,3.09,0,0,1-2.64,1.23,3,3,0,0,1-2.6-1.23A4.6,4.6,0,0,1,104.41,25.33Zm1,0a3.75,3.75,0,0,0,.64,2.25,2.06,2.06,0,0,0,1.82.94,2.13,2.13,0,0,0,1.84-.94,3.88,3.88,0,0,0,.61-2.25,4,4,0,0,0-.61-2.27,2.16,2.16,0,0,0-1.84-.91,2.08,2.08,0,0,0-1.82.91A3.86,3.86,0,0,0,105.4,25.33Z"/><path class="cls-1" d="M113.29,23.23q0-1.06-.06-1.7h.9V23h0a3.31,3.31,0,0,1,.74-1.15,1.6,1.6,0,0,1,1.16-.5,3,3,0,0,1,.64.09v1a2.37,2.37,0,0,0-.66-.09,1.52,1.52,0,0,0-.88.27,2,2,0,0,0-.57.73,3.78,3.78,0,0,0-.29,1,6.15,6.15,0,0,0-.1,1.08v3.77h-.9V23.23Z"/><path class="cls-1" d="M117.7,28a4,4,0,0,0,1.92.48,1.81,1.81,0,0,0,1.16-.37,1.18,1.18,0,0,0,.48-1,1.29,1.29,0,0,0-.54-1.07,6.48,6.48,0,0,0-1.23-.67c-.22-.11-.43-.22-.64-.34a5.43,5.43,0,0,1-.58-.4,2.13,2.13,0,0,1-.41-.55,1.5,1.5,0,0,1-.15-.7,1.8,1.8,0,0,1,.75-1.61,2.94,2.94,0,0,1,1.65-.47,7.56,7.56,0,0,1,.83.06,5.08,5.08,0,0,1,1,.28l-.08.82a4.3,4.3,0,0,0-1.64-.36,2.09,2.09,0,0,0-1.12.26.93.93,0,0,0-.34.38,1.31,1.31,0,0,0-.13.63.72.72,0,0,0,.16.45,1.53,1.53,0,0,0,.42.36c.17.1.37.21.59.31l.65.33a4.14,4.14,0,0,1,1.26.84,2.22,2.22,0,0,1,.32,2.46,2.1,2.1,0,0,1-.62.67,3.24,3.24,0,0,1-1.72.5,6,6,0,0,1-2.06-.36Z"/><path class="cls-1" d="M128.89,22.53a3.82,3.82,0,0,0-1.58-.39,2.52,2.52,0,0,0-2,.88,3.47,3.47,0,0,0-.74,2.31,3.43,3.43,0,0,0,.73,2.23,2.34,2.34,0,0,0,2,1,4.24,4.24,0,0,0,1.67-.34l.08.88a6,6,0,0,1-1.89.27,3.17,3.17,0,0,1-2.65-1.21,4.44,4.44,0,0,1-.88-2.78,4.12,4.12,0,0,1,1-2.88,3.42,3.42,0,0,1,2.64-1.11,5.25,5.25,0,0,1,1.13.1l.4.09.25.1Z"/><path class="cls-1" d="M130.72,17.93h.9V22.8h0a2.72,2.72,0,0,1,.9-1.06,2.59,2.59,0,0,1,1.4-.4,2.19,2.19,0,0,1,2,.9,4.52,4.52,0,0,1,.51,2.34v4.56h-.9V24.59a7.67,7.67,0,0,0-.06-1,2.19,2.19,0,0,0-.25-.76,1.47,1.47,0,0,0-1.45-.73,1.85,1.85,0,0,0-1.7.94,3.91,3.91,0,0,0-.49,2v4.08h-.9V17.93Z"/><path class="cls-1" d="M144.78,27.35a17.74,17.74,0,0,0,.06,1.8H144V27.79h0a2.59,2.59,0,0,1-.28.5,2.33,2.33,0,0,1-.45.51,2.05,2.05,0,0,1-.68.36,2.57,2.57,0,0,1-1,.17,2.25,2.25,0,0,1-1.93-.84,3.38,3.38,0,0,1-.58-2.09V21.53h.9v4.63a3,3,0,0,0,.42,1.71,1.46,1.46,0,0,0,1.34.66,2,2,0,0,0,1.05-.27,1.76,1.76,0,0,0,.67-.66,2.68,2.68,0,0,0,.36-.9,4.36,4.36,0,0,0,.11-1V21.53h.9v5.82Z"/><path class="cls-1" d="M147.34,23.31q0-.87-.06-1.79h.88v1.36h0a4.43,4.43,0,0,1,.3-.54,2.07,2.07,0,0,1,.43-.49,2,2,0,0,1,.68-.38,3.15,3.15,0,0,1,1-.13,2.27,2.27,0,0,1,2,.84,3.54,3.54,0,0,1,.56,2.09v4.88h-.9V24.5a3.32,3.32,0,0,0-.39-1.73,1.57,1.57,0,0,0-1.36-.63,1.87,1.87,0,0,0-1.71.89,2.83,2.83,0,0,0-.36.89,4.55,4.55,0,0,0-.11,1v4.22h-.9V23.31Z"/><path class="cls-1" d="M161.49,28.52a4.64,4.64,0,0,1-.76,2.72A3.17,3.17,0,0,1,158,32.37a6.37,6.37,0,0,1-1.34-.16l-.9-.24.08-.94a4.65,4.65,0,0,0,2.17.53,2.71,2.71,0,0,0,1.39-.33,1.82,1.82,0,0,0,.77-.84,3.66,3.66,0,0,0,.33-1.24c0-.47.06-1,.06-1.51h0a2.38,2.38,0,0,1-2.24,1.49,2.63,2.63,0,0,1-2.43-1.28,3.68,3.68,0,0,1-.51-1.23,5,5,0,0,1-.18-1.3,5,5,0,0,1,.71-2.87,2.6,2.6,0,0,1,2.33-1.12,4.43,4.43,0,0,1,1.28.17,2.43,2.43,0,0,1,1,.87h0v-.86h.9v7Zm-5.28-3.18a3.93,3.93,0,0,0,.49,2,1.78,1.78,0,0,0,1.65,1,1.89,1.89,0,0,0,1.75-1,4.23,4.23,0,0,0,.5-2,4.92,4.92,0,0,0-.46-2.3,2.12,2.12,0,0,0-2.79-.61,2,2,0,0,0-.68.75,3.82,3.82,0,0,0-.35,1A6.69,6.69,0,0,0,156.21,25.33Z"/><path class="cls-1" d="M163.4,28a4,4,0,0,0,1.92.48,1.81,1.81,0,0,0,1.16-.37,1.18,1.18,0,0,0,.48-1,1.29,1.29,0,0,0-.54-1.07,6.48,6.48,0,0,0-1.23-.67c-.22-.11-.43-.22-.64-.34a5.42,5.42,0,0,1-.58-.4,2.13,2.13,0,0,1-.41-.55,1.5,1.5,0,0,1-.16-.7,1.8,1.8,0,0,1,.75-1.61,2.94,2.94,0,0,1,1.65-.47,7.56,7.56,0,0,1,.83.06,5.08,5.08,0,0,1,1,.28l-.09.82a4.3,4.3,0,0,0-1.64-.36,2.09,2.09,0,0,0-1.12.26.93.93,0,0,0-.34.38,1.31,1.31,0,0,0-.13.63.72.72,0,0,0,.16.45,1.53,1.53,0,0,0,.42.36c.17.1.37.21.59.31l.65.33a4.14,4.14,0,0,1,1.26.84,2.22,2.22,0,0,1,.32,2.46,2.1,2.1,0,0,1-.62.67,3.24,3.24,0,0,1-1.72.5,6,6,0,0,1-2.06-.36Z"/><path class="cls-1" d="M175.62,28.52a4.64,4.64,0,0,1-.76,2.72,3.17,3.17,0,0,1-2.69,1.13,6.37,6.37,0,0,1-1.34-.16l-.9-.24L170,31a4.65,4.65,0,0,0,2.17.53,2.71,2.71,0,0,0,1.39-.33,1.82,1.82,0,0,0,.77-.84,3.66,3.66,0,0,0,.33-1.24c0-.47.06-1,.06-1.51h0a2.38,2.38,0,0,1-2.24,1.49A2.63,2.63,0,0,1,170,27.86a3.68,3.68,0,0,1-.51-1.23,5,5,0,0,1-.18-1.3,5,5,0,0,1,.71-2.87,2.6,2.6,0,0,1,2.33-1.12,4.43,4.43,0,0,1,1.28.17,2.43,2.43,0,0,1,1,.87h0v-.86h.9v7Zm-5.28-3.18a3.93,3.93,0,0,0,.49,2,1.78,1.78,0,0,0,1.65,1,1.89,1.89,0,0,0,1.75-1,4.23,4.23,0,0,0,.5-2,4.92,4.92,0,0,0-.46-2.3,2.12,2.12,0,0,0-2.79-.61,2,2,0,0,0-.68.75,3.82,3.82,0,0,0-.35,1A6.69,6.69,0,0,0,170.34,25.33Z"/><path class="cls-1" d="M183,28.91a6.07,6.07,0,0,1-2.14.42,3,3,0,0,1-2.59-1.15,4.72,4.72,0,0,1-.76-2.84,4.64,4.64,0,0,1,.87-2.88,2.7,2.7,0,0,1,2.24-1.11,2.57,2.57,0,0,1,2.26,1.12,4.88,4.88,0,0,1,.68,2.66v.48h-5.06a3.26,3.26,0,0,0,.62,2,2.11,2.11,0,0,0,1.81.87A5.28,5.28,0,0,0,183,28v1Zm-.44-4.1a3.8,3.8,0,0,0-.42-1.83,1.61,1.61,0,0,0-1.47-.82,1.92,1.92,0,0,0-1.58.84,3,3,0,0,0-.59,1.82h4.07Z"/><path class="cls-1" d="M194.63,29.14V24.07a4.87,4.87,0,0,0-.06-.78,1.63,1.63,0,0,0-.29-.6,1.22,1.22,0,0,0-.49-.42,2.08,2.08,0,0,0-.79-.13,1.9,1.9,0,0,0-1.41.66,3.1,3.1,0,0,0-.65,2.13v4.22H190V24.07a4.33,4.33,0,0,0-.07-.78,1.63,1.63,0,0,0-.29-.6,1.22,1.22,0,0,0-.49-.42,2.09,2.09,0,0,0-.79-.13,1.9,1.9,0,0,0-1.42.66,3.1,3.1,0,0,0-.65,2.13v4.22h-.91V23.31q0-.88-.06-1.79h.91v1.29h0a3.34,3.34,0,0,1,.28-.47,1.73,1.73,0,0,1,.41-.48,2.62,2.62,0,0,1,.67-.39,2.92,2.92,0,0,1,1-.15,3.17,3.17,0,0,1,.58.06,1.83,1.83,0,0,1,.6.24,1.63,1.63,0,0,1,.52.48,2.21,2.21,0,0,1,.31.83h0a2.66,2.66,0,0,1,.91-1.14,2.56,2.56,0,0,1,1.52-.47,2.3,2.3,0,0,1,1.78.72,2.68,2.68,0,0,1,.61,1.84v5.25h-.91Z"/><path class="cls-1" d="M203,28.91a6.07,6.07,0,0,1-2.14.42,3,3,0,0,1-2.59-1.15,4.72,4.72,0,0,1-.76-2.84,4.64,4.64,0,0,1,.87-2.88,2.7,2.7,0,0,1,2.24-1.11,2.57,2.57,0,0,1,2.26,1.12,4.88,4.88,0,0,1,.68,2.66v.48h-5.06a3.26,3.26,0,0,0,.62,2,2.11,2.11,0,0,0,1.81.87A5.28,5.28,0,0,0,203,28v1Zm-.44-4.1A3.8,3.8,0,0,0,202.1,23a1.61,1.61,0,0,0-1.47-.82,1.92,1.92,0,0,0-1.58.84,3,3,0,0,0-.59,1.82h4.07Z"/><path class="cls-1" d="M206.4,19.49h-.9V18.24h.9Zm-.9,2h.9v7.62h-.9Z"/><path class="cls-1" d="M208.81,23.31q0-.87-.06-1.79h.88v1.36h0a4.43,4.43,0,0,1,.3-.54,2.07,2.07,0,0,1,.43-.49,2,2,0,0,1,.68-.38,3.15,3.15,0,0,1,1-.13,2.27,2.27,0,0,1,2,.84,3.54,3.54,0,0,1,.56,2.09v4.88h-.9V24.5a3.32,3.32,0,0,0-.39-1.73,1.57,1.57,0,0,0-1.36-.63,1.87,1.87,0,0,0-1.71.89,2.83,2.83,0,0,0-.36.89,4.55,4.55,0,0,0-.11,1v4.22h-.9V23.31Z"/><path class="cls-1" d="M216.56,28a4,4,0,0,0,1.92.48,1.81,1.81,0,0,0,1.16-.37,1.18,1.18,0,0,0,.48-1,1.29,1.29,0,0,0-.54-1.07,6.48,6.48,0,0,0-1.23-.67c-.22-.11-.43-.22-.64-.34a5.42,5.42,0,0,1-.58-.4,2.13,2.13,0,0,1-.41-.55,1.5,1.5,0,0,1-.16-.7,1.8,1.8,0,0,1,.75-1.61,2.94,2.94,0,0,1,1.65-.47,7.56,7.56,0,0,1,.83.06,5.08,5.08,0,0,1,1,.28l-.09.82a4.3,4.3,0,0,0-1.64-.36,2.09,2.09,0,0,0-1.12.26.93.93,0,0,0-.34.38,1.31,1.31,0,0,0-.13.63.72.72,0,0,0,.16.45,1.53,1.53,0,0,0,.42.36c.17.1.37.21.59.31l.65.33a4.14,4.14,0,0,1,1.26.84,2.22,2.22,0,0,1,.32,2.46,2.1,2.1,0,0,1-.62.67,3.24,3.24,0,0,1-1.72.5,6,6,0,0,1-2.06-.36Z"/><path class="cls-1" d="M227.74,22.53a3.82,3.82,0,0,0-1.58-.39,2.52,2.52,0,0,0-2,.88,3.47,3.47,0,0,0-.74,2.31,3.43,3.43,0,0,0,.73,2.23,2.34,2.34,0,0,0,2,1,4.24,4.24,0,0,0,1.67-.34l.08.88a6,6,0,0,1-1.89.27,3.17,3.17,0,0,1-2.65-1.21,4.44,4.44,0,0,1-.88-2.78,4.12,4.12,0,0,1,1-2.88A3.42,3.42,0,0,1,226,21.34a5.25,5.25,0,0,1,1.13.1l.4.09.25.1Z"/><path class="cls-1" d="M229.58,17.93h.9V22.8h0a2.72,2.72,0,0,1,.9-1.06,2.59,2.59,0,0,1,1.4-.4,2.19,2.19,0,0,1,2,.9,4.52,4.52,0,0,1,.51,2.34v4.56h-.9V24.59a7.67,7.67,0,0,0-.06-1,2.19,2.19,0,0,0-.25-.76,1.47,1.47,0,0,0-1.45-.73,1.85,1.85,0,0,0-1.7.94,3.91,3.91,0,0,0-.49,2v4.08h-.9Z"/><path class="cls-1" d="M242.13,27.92h0a2.23,2.23,0,0,1-1,1,2.88,2.88,0,0,1-2.61.12,1.93,1.93,0,0,1-.76-.57,2.5,2.5,0,0,1,0-2.83,2.43,2.43,0,0,1,1.12-.8,6,6,0,0,1,1.48-.33q.78,0,1.51,0H242v-.39q0-2-1.68-2a3.91,3.91,0,0,0-2.17.63v-.91a5.29,5.29,0,0,1,2.17-.52q2.62,0,2.59,2.84v3.36a10.13,10.13,0,0,0,.08,1.6h-.9V27.92ZM242,25.3h-.26l-1.19,0a4.17,4.17,0,0,0-1.13.26,1.75,1.75,0,0,0-.81.55,1.47,1.47,0,0,0-.33,1,1.17,1.17,0,0,0,.47,1,1.71,1.71,0,0,0,1.07.33,2.13,2.13,0,0,0,1.26-.33,1.9,1.9,0,0,0,.66-.75,2.59,2.59,0,0,0,.24-.92q0-.47,0-.77V25.3Z"/><path class="cls-1" d="M246,22.33h-1.49v-.8H246V21c0-.41,0-.81.06-1.2a2.94,2.94,0,0,1,.22-1,1.52,1.52,0,0,1,.59-.74,1.91,1.91,0,0,1,1.08-.26l.48,0a1,1,0,0,1,.37.13l-.06.82a1.48,1.48,0,0,0-.72-.17,1,1,0,0,0-.69.21,1.2,1.2,0,0,0-.33.58,3,3,0,0,0-.09.73c0,.27,0,.52,0,.77v.66h1.66v.8h-1.66v6.82H246V22.33Z"/><path class="cls-1" d="M253.51,22.33h-1.68v4.94a1.58,1.58,0,0,0,.23.89.79.79,0,0,0,.75.37,1.78,1.78,0,0,0,.84-.18l.06.77-.45.13a2.57,2.57,0,0,1-.66.08,1.78,1.78,0,0,1-.94-.21,1.35,1.35,0,0,1-.5-.55,2.76,2.76,0,0,1-.19-.8c0-.3,0-.63,0-1V22.33h-1.45v-.8h1.45V19.68l.9-.33v2.17h1.68v.81Z"/></g></g></svg>