<?xml version="1.0" encoding="utf-8"?>
<!-- Generator: Adobe Illustrator 22.1.0, SVG Export Plug-In . SVG Version: 6.00 Build 0)  -->
<svg version="1.1" id="Ebene_1" xmlns="http://www.w3.org/2000/svg" xmlns:xlink="http://www.w3.org/1999/xlink" x="0px" y="0px" width="320px" height="30px"
	 viewBox="0 0 320 30" style="enable-background:new 0 0 320 30;" xml:space="preserve">
<style type="text/css">
	.st0{enable-background:new    ;}
	.st1{fill:#A21E3B;}
</style>
<g class="st0">
	<path class="st1" d="M3.8,11.3c0-3.6,0-4.2,0-5c0-0.8-0.2-1.1-1-1.3C2.5,5,2.1,4.9,1.9,4.9c-0.1,0-0.2,0-0.2-0.1
		c0-0.1,0.1-0.2,0.4-0.2c1,0,2.4,0.1,2.6,0.1C5,4.7,6.4,4.6,7,4.6c0.3,0,0.4,0,0.4,0.2c0,0.1-0.1,0.1-0.2,0.1C7.1,4.9,6.9,5,6.7,5
		C6,5.1,5.9,5.5,5.8,6.3c0,0.7,0,1.4,0,5v3.2c0,3.3,0.7,4.7,1.7,5.7c1.1,1.1,2.2,1.3,3.5,1.3c1.4,0,2.8-0.7,3.6-1.7
		c1.1-1.3,1.3-3.3,1.3-5.6v-2.9c0-3.6,0-4.2,0-5c0-0.8-0.2-1.1-1-1.3c-0.2,0-0.6-0.1-0.8-0.1c-0.1,0-0.2,0-0.2-0.1
		c0-0.1,0.1-0.2,0.4-0.2c1,0,2.3,0.1,2.4,0.1c0.2,0,1.2-0.1,1.9-0.1c0.3,0,0.4,0,0.4,0.2c0,0.1-0.1,0.1-0.2,0.1
		c-0.2,0-0.3,0-0.6,0.1c-0.6,0.1-0.8,0.5-0.9,1.3c0,0.7,0,1.4,0,5v2.5c0,2.5-0.3,5.2-2.1,6.9c-1.7,1.5-3.4,1.7-4.7,1.7
		c-0.8,0-3.1-0.1-4.7-1.6c-1.1-1.1-2-2.7-2-6V11.3z"/>
	<path class="st1" d="M24.8,19.3c0,1.6,0.2,2.1,0.8,2.2c0.4,0.1,0.8,0.1,1,0.1c0.1,0,0.2,0.1,0.2,0.2c0,0.1-0.1,0.2-0.4,0.2
		c-1.1,0-2-0.1-2.1-0.1c-0.2,0-1,0.1-2,0.1c-0.2,0-0.3,0-0.3-0.2c0-0.1,0.1-0.2,0.2-0.2c0.2,0,0.5,0,0.8-0.1
		c0.5-0.1,0.6-0.7,0.6-2.4V7.9c0-0.8,0.1-1,0.3-1c0.2,0,0.6,0.4,0.8,0.6c0.3,0.3,3.3,3.4,6.4,6.7c2,2.1,4.2,4.4,4.8,5l-0.2-9.8
		c0-1.3-0.1-1.7-0.8-1.8c-0.4-0.1-0.8-0.1-1-0.1c-0.1,0-0.2-0.1-0.2-0.2c0-0.1,0.2-0.1,0.4-0.1c0.9,0,1.9,0,2.1,0s0.9,0,1.7,0
		c0.2,0,0.4,0,0.4,0.1c0,0.1-0.1,0.2-0.2,0.2c-0.1,0-0.3,0-0.5,0c-0.7,0.1-0.7,0.5-0.7,1.7l0,11.5c0,1.3,0,1.4-0.2,1.4
		c-0.2,0-0.4-0.2-1.5-1.2c-0.2-0.2-3.1-3.1-5.3-5.3c-2.3-2.5-4.6-4.9-5.2-5.5L24.8,19.3z"/>
	<path class="st1" d="M45.5,16.3c0,1.9,0,3.4,0.1,4.2c0.1,0.6,0.1,0.9,0.7,1c0.3,0,0.7,0.1,0.9,0.1c0.1,0,0.2,0.1,0.2,0.2
		c0,0.1-0.1,0.2-0.3,0.2c-1.1,0-2.4-0.1-2.5-0.1c-0.1,0-1.4,0.1-2,0.1c-0.2,0-0.3,0-0.3-0.2c0-0.1,0-0.2,0.2-0.2
		c0.2,0,0.4,0,0.6-0.1c0.4-0.1,0.5-0.5,0.5-1c0.1-0.8,0.1-2.3,0.1-4.2v-3.4c0-3,0-3.6,0-4.2c0-0.7-0.2-1-0.6-1.1
		c-0.2,0-0.5-0.1-0.6-0.1c-0.1,0-0.2-0.1-0.2-0.2c0-0.1,0.1-0.2,0.3-0.2c0.7,0,1.9,0,2,0c0.1,0,1.4,0,2,0c0.2,0,0.3,0,0.3,0.2
		c0,0.1-0.1,0.2-0.2,0.2c-0.1,0-0.3,0-0.5,0c-0.6,0.1-0.7,0.4-0.7,1.1c0,0.6,0,1.2,0,4.2V16.3z"/>
	<path class="st1" d="M58,19.4c1.2-2.6,3.8-9.3,4.3-10.7c0.1-0.3,0.2-0.6,0.2-0.7s-0.1-0.3-0.3-0.4c-0.2-0.1-0.5-0.1-0.7-0.1
		c-0.1,0-0.2-0.1-0.2-0.2c0-0.1,0.1-0.2,0.5-0.2c0.8,0,1.7,0,2,0c0.1,0,1,0,1.6,0c0.2,0,0.3,0,0.3,0.1s-0.1,0.2-0.2,0.2
		c-0.1,0-0.6,0-1,0.2c-0.3,0.2-0.6,0.5-1.1,1.8c-0.2,0.6-1.2,2.9-2.3,5.3c-1.2,2.9-2.1,5-2.6,5.9c-0.6,1.2-0.7,1.5-0.9,1.5
		c-0.2,0-0.4-0.3-0.8-1.2l-5-12c-0.5-1.1-0.7-1.3-1.4-1.5c-0.3-0.1-0.7-0.1-0.8-0.1c-0.1,0-0.2-0.1-0.2-0.2c0-0.1,0.2-0.1,0.5-0.1
		c1,0,2.1,0,2.4,0c0.2,0,1.1,0,1.9,0c0.4,0,0.6,0,0.6,0.1s-0.1,0.2-0.2,0.2c-0.2,0-0.6,0-0.7,0.1c-0.2,0.1-0.2,0.2-0.2,0.3
		c0,0.3,0.3,0.9,0.6,1.6L58,19.4z"/>
	<path class="st1" d="M69.6,12.9c0-3,0-3.6,0-4.2c0-0.7-0.2-1-0.8-1.1c-0.2,0-0.5,0-0.7,0c-0.1,0-0.2-0.1-0.2-0.2
		c0-0.1,0.1-0.2,0.3-0.2c0.9,0,2.2,0,2.3,0c0.1,0,4.4,0,4.8,0c0.4,0,0.8-0.1,0.9-0.1c0.1,0,0.2-0.1,0.3-0.1c0.1,0,0.1,0.1,0.1,0.2
		c0,0.1-0.1,0.4-0.2,0.9c0,0.2-0.1,1.1-0.1,1.3c0,0.1-0.1,0.2-0.2,0.2c-0.1,0-0.2-0.1-0.2-0.3c0-0.1,0-0.5-0.1-0.7
		c-0.1-0.3-0.3-0.5-1.4-0.6c-0.3,0-2.7-0.1-2.9-0.1c-0.1,0-0.1,0.1-0.1,0.2v5.3c0,0.1,0,0.2,0.1,0.2c0.3,0,2.9,0,3.4,0
		c0.5,0,0.8-0.1,1-0.3c0.1-0.1,0.2-0.3,0.3-0.3c0.1,0,0.1,0,0.1,0.2s-0.1,0.4-0.2,1.1c0,0.4-0.1,1.1-0.1,1.3c0,0.2,0,0.4-0.2,0.4
		c-0.1,0-0.1-0.1-0.1-0.2c0-0.2,0-0.4-0.1-0.6c-0.1-0.3-0.3-0.5-1-0.6c-0.6-0.1-2.7-0.1-3.1-0.1c-0.1,0-0.1,0.1-0.1,0.1v1.6
		c0,0.7,0,2.9,0,3.3c0,1.3,0.4,1.6,2.4,1.6c0.5,0,1.5,0,2-0.2c0.5-0.2,0.8-0.6,0.9-1.4c0-0.2,0.1-0.3,0.2-0.3c0.1,0,0.1,0.2,0.1,0.3
		s-0.2,1.5-0.3,1.9C76.7,22,76.5,22,75.7,22c-1.5,0-2.7,0-3.5-0.1c-0.9,0-1.4,0-1.7,0c0,0-0.4,0-0.9,0c-0.4,0-0.9,0-1.2,0
		c-0.2,0-0.3,0-0.3-0.2c0-0.1,0-0.2,0.2-0.2c0.2,0,0.4-0.1,0.6-0.1c0.4-0.1,0.4-0.5,0.5-1c0.1-0.8,0.1-2.3,0.1-4.2V12.9z"/>
	<path class="st1" d="M83.2,12.9c0-3,0-3.6,0-4.2c0-0.7-0.2-1-0.8-1.1c-0.2,0-0.5,0-0.7,0c-0.1,0-0.2-0.1-0.2-0.2
		c0-0.1,0.1-0.2,0.3-0.2c0.9,0,2.3,0,2.4,0c0.2,0,1.9,0,2.5,0c1.3,0,2.7,0.1,3.8,0.9c0.5,0.4,1.4,1.3,1.4,2.7c0,1.4-0.6,2.9-2.5,4.5
		c1.7,2.1,3.1,3.8,4.2,5.1c1.1,1.1,1.7,1.3,2.3,1.4c0.4,0.1,0.6,0.1,0.7,0.1c0.1,0,0.2,0.1,0.2,0.2c0,0.1-0.1,0.2-0.5,0.2h-1.3
		c-1.1,0-1.7-0.1-2.2-0.4c-0.9-0.5-1.6-1.4-2.8-2.9c-0.9-1.1-1.7-2.3-2.2-2.9c-0.1-0.1-0.1-0.1-0.3-0.1l-2.6,0c-0.1,0-0.1,0-0.1,0.2
		v0.5c0,1.9,0,3.4,0.1,4.2c0.1,0.6,0.2,0.9,0.8,1c0.3,0,0.7,0.1,0.9,0.1c0.1,0,0.2,0.1,0.2,0.2c0,0.1-0.1,0.2-0.3,0.2
		c-1.1,0-2.4-0.1-2.5-0.1c0,0-1.4,0.1-2,0.1c-0.2,0-0.3,0-0.3-0.2c0-0.1,0-0.2,0.2-0.2c0.2,0,0.4,0,0.6-0.1c0.4-0.1,0.4-0.5,0.5-1
		c0.1-0.8,0.1-2.3,0.1-4.2V12.9z M85,14.5c0,0.1,0,0.2,0.1,0.3c0.3,0.2,1.3,0.3,2.2,0.3c0.5,0,1,0,1.5-0.3c0.7-0.5,1.2-1.5,1.2-3
		c0-2.4-1.3-3.8-3.5-3.8C86,7.9,85.4,8,85.2,8c-0.1,0-0.2,0.1-0.2,0.2V14.5z"/>
	<path class="st1" d="M97.8,21.7c-0.3-0.1-0.3-0.2-0.3-0.7c0-1,0.1-1.7,0.1-2.1c0-0.2,0-0.3,0.2-0.3c0.1,0,0.2,0.1,0.2,0.2
		s0,0.4,0.1,0.7c0.3,1.4,1.8,1.9,3.2,1.9c2,0,3-1.1,3-2.6c0-1.4-0.8-2.1-2.6-3.4l-0.9-0.7c-2.2-1.6-2.9-2.8-2.9-4.2
		c0-2.3,1.8-3.7,4.5-3.7c0.8,0,1.6,0.1,2.1,0.2c0.4,0.1,0.6,0.1,0.7,0.1c0.2,0,0.2,0,0.2,0.1c0,0.1-0.1,0.7-0.1,2.1
		c0,0.3,0,0.4-0.2,0.4c-0.1,0-0.2-0.1-0.2-0.3c0-0.2-0.2-0.8-0.3-1c-0.1-0.2-0.8-1-2.6-1c-1.5,0-2.7,0.7-2.7,2.1
		c0,1.2,0.6,2,2.6,3.3l0.6,0.4c2.5,1.7,3.3,3,3.3,4.7c0,1.1-0.4,2.4-1.9,3.3c-0.9,0.6-2.1,0.7-3.2,0.7
		C99.8,22.2,98.6,22.1,97.8,21.7z"/>
	<path class="st1" d="M113.9,16.3c0,1.9,0,3.4,0.1,4.2c0.1,0.6,0.1,0.9,0.7,1c0.3,0,0.7,0.1,0.9,0.1c0.1,0,0.2,0.1,0.2,0.2
		c0,0.1-0.1,0.2-0.3,0.2c-1.1,0-2.4-0.1-2.5-0.1c-0.1,0-1.4,0.1-2,0.1c-0.2,0-0.3,0-0.3-0.2c0-0.1,0-0.2,0.2-0.2
		c0.2,0,0.4,0,0.6-0.1c0.4-0.1,0.5-0.5,0.5-1c0.1-0.8,0.1-2.3,0.1-4.2v-3.4c0-3,0-3.6,0-4.2c0-0.7-0.2-1-0.6-1.1
		c-0.2,0-0.5-0.1-0.6-0.1c-0.1,0-0.2-0.1-0.2-0.2c0-0.1,0.1-0.2,0.3-0.2c0.7,0,1.9,0,2,0c0.1,0,1.4,0,2,0c0.2,0,0.3,0,0.3,0.2
		c0,0.1-0.1,0.2-0.2,0.2c-0.1,0-0.3,0-0.5,0c-0.6,0.1-0.7,0.4-0.7,1.1c0,0.6,0,1.2,0,4.2V16.3z"/>
	<path class="st1" d="M126.4,16.3c0,1.9,0,3.4,0.1,4.2c0.1,0.6,0.2,0.9,0.8,1c0.3,0,0.7,0.1,0.9,0.1c0.1,0,0.2,0.1,0.2,0.2
		c0,0.1-0.1,0.2-0.3,0.2c-1.1,0-2.4-0.1-2.5-0.1c-0.1,0-1.5,0.1-2.1,0.1c-0.2,0-0.3,0-0.3-0.2c0-0.1,0-0.1,0.2-0.1
		c0.2,0,0.4,0,0.6-0.1c0.4-0.1,0.5-0.5,0.6-1.1c0.1-0.8,0.1-2.3,0.1-4.2V8.1l-2.9,0c-1.3,0-1.7,0.2-2,0.6c-0.2,0.3-0.3,0.5-0.3,0.6
		c0,0.2-0.1,0.2-0.2,0.2c0,0-0.1,0-0.1-0.2c0-0.2,0.4-2,0.4-2.1c0-0.1,0.1-0.4,0.2-0.4c0.1,0,0.3,0.2,0.9,0.2
		c0.6,0.1,1.4,0.1,1.6,0.1h7.6c0.7,0,1.1,0,1.4-0.1c0.3,0,0.5-0.1,0.6-0.1c0.1,0,0.1,0.1,0.1,0.2c0,0.6-0.1,2-0.1,2.2
		c0,0.2-0.1,0.3-0.2,0.3c-0.1,0-0.1-0.1-0.2-0.3l0-0.2c-0.1-0.6-0.5-1-2.4-1.1l-2.5,0V16.3z"/>
	<path class="st1" d="M139.2,7.6c0.3-0.6,0.3-0.8,0.5-0.8c0.2,0,0.3,0.3,0.5,0.7c0.4,0.8,3.6,8.9,4.9,11.9c0.7,1.7,1.3,2,1.7,2.1
		c0.3,0.1,0.6,0.1,0.8,0.1c0.1,0,0.3,0,0.3,0.2s-0.2,0.2-0.5,0.2c-0.3,0-1.8,0-3.2,0c-0.4,0-0.7,0-0.7-0.1c0-0.1,0-0.1,0.1-0.1
		c0.1,0,0.3-0.2,0.2-0.5l-1.8-4.5c0-0.1-0.1-0.1-0.2-0.1H137c-0.1,0-0.2,0-0.2,0.2l-1.1,3.1c-0.2,0.5-0.3,1-0.3,1.3
		c0,0.4,0.3,0.5,0.7,0.5h0.2c0.2,0,0.2,0.1,0.2,0.2c0,0.1-0.1,0.2-0.3,0.2c-0.5,0-1.6-0.1-1.8-0.1c-0.2,0-1.2,0.1-2,0.1
		c-0.3,0-0.4,0-0.4-0.2c0-0.1,0.1-0.2,0.2-0.2c0.1,0,0.4,0,0.6,0c0.9-0.1,1.3-0.8,1.7-1.8L139.2,7.6z M136.4,4.5c0-0.4,0.3-1,1-1
		c0.6,0,1,0.3,1,0.9c0,0.6-0.4,1.1-1,1.1C136.7,5.5,136.4,4.9,136.4,4.5z M141.4,15.7c0.1,0,0.1,0,0.1-0.1l-2-5.4
		c-0.1-0.3-0.2-0.3-0.3,0l-1.9,5.4c0,0.1,0,0.1,0.1,0.1H141.4z M141,4.5c0-0.4,0.3-1,1-1c0.6,0,1,0.3,1,0.9c0,0.6-0.4,1.1-1,1.1
		C141.3,5.5,141,4.9,141,4.5z"/>
	<path class="st1" d="M154.4,16.3c0,1.9,0,3.4,0.1,4.2c0.1,0.6,0.2,0.9,0.8,1c0.3,0,0.7,0.1,0.9,0.1c0.1,0,0.2,0.1,0.2,0.2
		c0,0.1-0.1,0.2-0.3,0.2c-1.1,0-2.4-0.1-2.5-0.1c-0.1,0-1.5,0.1-2.1,0.1c-0.2,0-0.3,0-0.3-0.2c0-0.1,0-0.1,0.2-0.1
		c0.2,0,0.4,0,0.6-0.1c0.4-0.1,0.5-0.5,0.6-1.1c0.1-0.8,0.1-2.3,0.1-4.2V8.1l-2.9,0c-1.3,0-1.7,0.2-2,0.6c-0.2,0.3-0.3,0.5-0.3,0.6
		c0,0.2-0.1,0.2-0.2,0.2c0,0-0.1,0-0.1-0.2c0-0.2,0.4-2,0.4-2.1c0-0.1,0.1-0.4,0.2-0.4c0.1,0,0.3,0.2,0.9,0.2
		c0.6,0.1,1.4,0.1,1.6,0.1h7.6c0.7,0,1.1,0,1.4-0.1c0.3,0,0.5-0.1,0.6-0.1c0.1,0,0.1,0.1,0.1,0.2c0,0.6-0.1,2-0.1,2.2
		c0,0.2-0.1,0.3-0.2,0.3c-0.1,0-0.1-0.1-0.2-0.3l0-0.2c-0.1-0.6-0.5-1-2.4-1.1l-2.5,0V16.3z"/>
	<path class="st1" d="M163,21.7c-0.3-0.1-0.3-0.2-0.3-0.7c0-1,0.1-1.7,0.1-2.1c0-0.2,0-0.3,0.2-0.3c0.1,0,0.2,0.1,0.2,0.2
		s0,0.4,0.1,0.7c0.3,1.4,1.8,1.9,3.2,1.9c2,0,3-1.1,3-2.6c0-1.4-0.8-2.1-2.6-3.4l-0.9-0.7c-2.2-1.6-2.9-2.8-2.9-4.2
		c0-2.3,1.8-3.7,4.5-3.7c0.8,0,1.6,0.1,2.1,0.2c0.4,0.1,0.6,0.1,0.7,0.1s0.2,0,0.2,0.1c0,0.1-0.1,0.7-0.1,2.1c0,0.3,0,0.4-0.2,0.4
		c-0.1,0-0.2-0.1-0.2-0.3c0-0.2-0.2-0.8-0.3-1c-0.1-0.2-0.8-1-2.6-1c-1.5,0-2.7,0.7-2.7,2.1c0,1.2,0.6,2,2.6,3.3l0.6,0.4
		c2.5,1.7,3.3,3,3.3,4.7c0,1.1-0.4,2.4-1.9,3.3c-0.9,0.6-2.1,0.7-3.2,0.7C165,22.2,163.8,22.1,163,21.7z"/>
	<path class="st1" d="M177.3,12.9c0-3,0-3.6,0-4.2c0-0.7-0.2-1-0.8-1.1c-0.2,0-0.5,0-0.7,0c-0.1,0-0.2,0-0.2-0.1
		c0-0.1,0.1-0.2,0.3-0.2c0.9,0,2.2,0,2.3,0c0.5,0,1.4,0,2.4,0c3.4,0,4.3,2,4.3,3c0,1.5-1,2.5-2,3.4c1.5,0.5,3.6,1.9,3.6,4.1
		c0,2.2-1.6,4.3-5.1,4.3c-0.4,0-1.1,0-1.7-0.1c-0.6,0-1.2,0-1.3,0c0,0-0.4,0-0.8,0c-0.4,0-0.9,0-1.2,0c-0.2,0-0.3,0-0.3-0.2
		c0-0.1,0-0.1,0.2-0.1c0.2,0,0.4-0.1,0.6-0.1c0.4-0.1,0.4-0.5,0.5-1.1c0.1-0.8,0.1-2.3,0.1-4.2V12.9z M179,13.3c0,0.1,0,0.2,0.1,0.2
		c0.1,0,0.5,0.1,1.2,0.1c1.1,0,1.6,0,2-0.5c0.4-0.5,0.8-1.1,0.8-2.1c0-1.5-0.8-3.2-2.9-3.2c-0.2,0-0.7,0-1,0.1
		C179.1,8,179,8,179,8.1V13.3z M179,15.4c0,1.5,0,3.9,0,4.2c0.1,0.9,0.1,1.2,0.7,1.5c0.6,0.3,1.4,0.3,1.8,0.3c1.3,0,3-0.5,3-3
		c0-0.9-0.3-2.6-1.9-3.6c-0.7-0.4-1.3-0.4-1.8-0.5c-0.3,0-1.3,0-1.6,0c-0.1,0-0.1,0-0.1,0.1V15.4z"/>
	<path class="st1" d="M193.6,16.3c0,1.9,0,3.4,0.1,4.2c0.1,0.6,0.1,0.9,0.7,1c0.3,0,0.7,0.1,0.9,0.1c0.1,0,0.2,0.1,0.2,0.2
		c0,0.1-0.1,0.2-0.3,0.2c-1.1,0-2.4-0.1-2.5-0.1c-0.1,0-1.4,0.1-2,0.1c-0.2,0-0.3,0-0.3-0.2c0-0.1,0-0.2,0.2-0.2
		c0.2,0,0.4,0,0.6-0.1c0.4-0.1,0.5-0.5,0.5-1c0.1-0.8,0.1-2.3,0.1-4.2v-3.4c0-3,0-3.6,0-4.2c0-0.7-0.2-1-0.6-1.1
		c-0.2,0-0.5-0.1-0.6-0.1c-0.1,0-0.2-0.1-0.2-0.2c0-0.1,0.1-0.2,0.3-0.2c0.7,0,1.9,0,2,0c0.1,0,1.4,0,2,0c0.2,0,0.3,0,0.3,0.2
		c0,0.1-0.1,0.2-0.2,0.2c-0.1,0-0.3,0-0.5,0c-0.6,0.1-0.7,0.4-0.7,1.1c0,0.6,0,1.2,0,4.2V16.3z"/>
	<path class="st1" d="M201.2,12.9c0-3,0-3.6,0-4.2c0-0.7-0.2-1-0.8-1.1c-0.2,0-0.5,0-0.7,0c-0.1,0-0.2,0-0.2-0.1
		c0-0.1,0.1-0.2,0.3-0.2c0.9,0,2.2,0,2.3,0c0.5,0,1.4,0,2.4,0c3.4,0,4.3,2,4.3,3c0,1.5-1,2.5-2,3.4c1.5,0.5,3.6,1.9,3.6,4.1
		c0,2.2-1.6,4.3-5.1,4.3c-0.4,0-1.1,0-1.7-0.1c-0.6,0-1.2,0-1.3,0c0,0-0.4,0-0.8,0c-0.4,0-0.9,0-1.2,0c-0.2,0-0.3,0-0.3-0.2
		c0-0.1,0-0.1,0.2-0.1c0.2,0,0.4-0.1,0.6-0.1c0.4-0.1,0.4-0.5,0.5-1.1c0.1-0.8,0.1-2.3,0.1-4.2V12.9z M202.9,13.3
		c0,0.1,0,0.2,0.1,0.2c0.1,0,0.5,0.1,1.2,0.1c1.1,0,1.6,0,2-0.5c0.4-0.5,0.8-1.1,0.8-2.1c0-1.5-0.8-3.2-2.9-3.2c-0.2,0-0.7,0-1,0.1
		c-0.2,0-0.3,0.1-0.3,0.2V13.3z M202.9,15.4c0,1.5,0,3.9,0,4.2c0.1,0.9,0.1,1.2,0.7,1.5c0.6,0.3,1.4,0.3,1.8,0.3c1.3,0,3-0.5,3-3
		c0-0.9-0.3-2.6-1.9-3.6c-0.7-0.4-1.3-0.4-1.8-0.5c-0.3,0-1.3,0-1.6,0c-0.1,0-0.1,0-0.1,0.1V15.4z"/>
	<path class="st1" d="M217.5,16.4c0,2.9,0,4,0.4,4.4c0.3,0.3,1.1,0.5,2.7,0.5c1.1,0,2,0,2.4-0.6c0.3-0.3,0.4-0.7,0.5-1.1
		c0-0.1,0.1-0.3,0.2-0.3c0.1,0,0.1,0.1,0.1,0.3s-0.1,1.4-0.3,2c-0.1,0.5-0.2,0.5-1.3,0.5c-1.4,0-2.6,0-3.5-0.1c-0.9,0-1.6,0-2.2,0
		c-0.1,0-0.4,0-0.8,0c-0.4,0-0.9,0-1.2,0c-0.2,0-0.3,0-0.3-0.2c0-0.1,0-0.2,0.2-0.2c0.2,0,0.4,0,0.6-0.1c0.4-0.1,0.4-0.5,0.5-1
		c0.1-0.8,0.1-2.3,0.1-4.2v-3.4c0-3,0-3.6,0-4.2c0-0.7-0.2-1-0.8-1.1c-0.2,0-0.5,0-0.7,0c-0.1,0-0.2-0.1-0.2-0.2
		c0-0.1,0.1-0.2,0.3-0.2c0.9,0,2.2,0,2.3,0c0.1,0,1.6,0,2.2,0c0.2,0,0.3,0,0.3,0.2c0,0.1-0.1,0.1-0.2,0.1c-0.1,0-0.4,0-0.7,0
		c-0.6,0.1-0.7,0.4-0.8,1.1c0,0.6,0,1.2,0,4.2V16.4z"/>
	<path class="st1" d="M230.7,16.3c0,1.9,0,3.4,0.1,4.2c0.1,0.6,0.1,0.9,0.7,1c0.3,0,0.7,0.1,0.9,0.1c0.1,0,0.2,0.1,0.2,0.2
		c0,0.1-0.1,0.2-0.3,0.2c-1.1,0-2.4-0.1-2.5-0.1c-0.1,0-1.4,0.1-2,0.1c-0.2,0-0.3,0-0.3-0.2c0-0.1,0-0.2,0.2-0.2
		c0.2,0,0.4,0,0.6-0.1c0.4-0.1,0.5-0.5,0.5-1c0.1-0.8,0.1-2.3,0.1-4.2v-3.4c0-3,0-3.6,0-4.2c0-0.7-0.2-1-0.6-1.1
		c-0.2,0-0.5-0.1-0.6-0.1c-0.1,0-0.2-0.1-0.2-0.2c0-0.1,0.1-0.2,0.3-0.2c0.7,0,1.9,0,2,0c0.1,0,1.4,0,2,0c0.2,0,0.3,0,0.3,0.2
		c0,0.1-0.1,0.2-0.2,0.2c-0.1,0-0.3,0-0.5,0c-0.6,0.1-0.7,0.4-0.7,1.1c0,0.6,0,1.2,0,4.2V16.3z"/>
	<path class="st1" d="M244.2,6.9c4.6,0,8,2.8,8,7.3c0,4.4-3.2,8-8.1,8c-5.5,0-7.9-4.2-7.9-7.7C236.2,11.4,238.7,6.9,244.2,6.9z
		 M244.7,21.4c1.8,0,5.5-1,5.5-6.6c0-4.7-2.9-7.2-6-7.2c-3.4,0-5.8,2.1-5.8,6.4C238.3,18.6,241,21.4,244.7,21.4z"/>
	<path class="st1" d="M261.9,16.3c0,1.9,0,3.4,0.1,4.2c0.1,0.6,0.2,0.9,0.8,1c0.3,0,0.7,0.1,0.9,0.1c0.1,0,0.2,0.1,0.2,0.2
		c0,0.1-0.1,0.2-0.3,0.2c-1.1,0-2.4-0.1-2.5-0.1c-0.1,0-1.5,0.1-2.1,0.1c-0.2,0-0.3,0-0.3-0.2c0-0.1,0-0.1,0.2-0.1
		c0.2,0,0.4,0,0.6-0.1c0.4-0.1,0.5-0.5,0.6-1.1c0.1-0.8,0.1-2.3,0.1-4.2V8.1l-2.9,0c-1.3,0-1.7,0.2-2,0.6c-0.2,0.3-0.3,0.5-0.3,0.6
		c0,0.2-0.1,0.2-0.2,0.2c0,0-0.1,0-0.1-0.2c0-0.2,0.4-2,0.4-2.1c0-0.1,0.1-0.4,0.2-0.4c0.1,0,0.3,0.2,0.9,0.2
		c0.6,0.1,1.4,0.1,1.6,0.1h7.6c0.7,0,1.1,0,1.4-0.1c0.3,0,0.5-0.1,0.6-0.1s0.1,0.1,0.1,0.2c0,0.6-0.1,2-0.1,2.2
		c0,0.2-0.1,0.3-0.2,0.3s-0.1-0.1-0.2-0.3l0-0.2c-0.1-0.6-0.5-1-2.4-1.1l-2.5,0V16.3z"/>
	<path class="st1" d="M284.9,16.3c0,1.9,0,3.4,0.1,4.2c0.1,0.6,0.1,0.9,0.7,1c0.3,0,0.7,0.1,0.9,0.1c0.1,0,0.2,0.1,0.2,0.2
		c0,0.1-0.1,0.2-0.3,0.2c-1.1,0-2.4-0.1-2.5-0.1c-0.1,0-1.4,0.1-2,0.1c-0.2,0-0.3,0-0.3-0.2c0-0.1,0-0.2,0.2-0.2
		c0.2,0,0.4,0,0.6-0.1c0.4-0.1,0.5-0.5,0.6-1.1c0.1-0.8,0.1-2.3,0.1-4.2v-2c0-0.1,0-0.1-0.1-0.1h-8.4c-0.1,0-0.1,0-0.1,0.1v2
		c0,1.9,0,3.4,0.1,4.2c0.1,0.6,0.1,0.9,0.7,1c0.3,0,0.7,0.1,0.9,0.1c0.1,0,0.2,0.1,0.2,0.2c0,0.1-0.1,0.2-0.3,0.2
		c-1.1,0-2.4-0.1-2.5-0.1c-0.1,0-1.4,0.1-2,0.1c-0.2,0-0.3,0-0.3-0.2c0-0.1,0-0.2,0.2-0.2c0.2,0,0.4,0,0.6-0.1
		c0.4-0.1,0.4-0.5,0.5-1c0.1-0.8,0.1-2.3,0.1-4.2v-3.4c0-3,0-3.6,0-4.2c0-0.7-0.2-1-0.8-1.1c-0.2,0-0.5,0-0.7,0
		c-0.1,0-0.2-0.1-0.2-0.2c0-0.1,0.1-0.2,0.3-0.2c0.9,0,2.2,0,2.3,0c0.1,0,1.4,0,2,0c0.2,0,0.3,0,0.3,0.2c0,0.1-0.1,0.2-0.2,0.2
		c-0.1,0-0.3,0-0.5,0c-0.6,0.1-0.7,0.4-0.7,1.1c0,0.6,0,1.2,0,4.3v0.4c0,0.1,0,0.1,0.1,0.1h8.4c0.1,0,0.1,0,0.1-0.1v-0.4
		c0-3,0-3.6,0-4.3c0-0.7-0.1-1-0.8-1.1c-0.2,0-0.5,0-0.7,0c-0.1,0-0.2-0.1-0.2-0.2c0-0.1,0.1-0.2,0.3-0.2c0.9,0,2.2,0,2.3,0
		c0.1,0,1.4,0,2,0c0.2,0,0.3,0,0.3,0.2c0,0.1-0.1,0.2-0.2,0.2c-0.1,0-0.3,0-0.5,0c-0.5,0.1-0.6,0.4-0.7,1.1c0,0.6,0,1.2,0,4.2V16.3z
		"/>
	<path class="st1" d="M292.5,12.9c0-3,0-3.6,0-4.2c0-0.7-0.2-1-0.8-1.1c-0.2,0-0.5,0-0.7,0c-0.1,0-0.2-0.1-0.2-0.2
		c0-0.1,0.1-0.2,0.3-0.2c0.9,0,2.2,0,2.3,0c0.1,0,4.4,0,4.8,0c0.4,0,0.8-0.1,0.9-0.1c0.1,0,0.2-0.1,0.3-0.1c0.1,0,0.1,0.1,0.1,0.2
		c0,0.1-0.1,0.4-0.2,0.9c0,0.2-0.1,1.1-0.1,1.3c0,0.1-0.1,0.2-0.2,0.2c-0.1,0-0.2-0.1-0.2-0.3c0-0.1,0-0.5-0.1-0.7
		c-0.1-0.3-0.3-0.5-1.4-0.6c-0.3,0-2.7-0.1-2.9-0.1c-0.1,0-0.1,0.1-0.1,0.2v5.3c0,0.1,0,0.2,0.1,0.2c0.3,0,2.9,0,3.4,0
		c0.5,0,0.8-0.1,1-0.3c0.1-0.1,0.2-0.3,0.3-0.3c0.1,0,0.1,0,0.1,0.2s-0.1,0.4-0.2,1.1c0,0.4-0.1,1.1-0.1,1.3c0,0.2,0,0.4-0.2,0.4
		c-0.1,0-0.1-0.1-0.1-0.2c0-0.2,0-0.4-0.1-0.6c-0.1-0.3-0.3-0.5-1-0.6c-0.6-0.1-2.7-0.1-3.1-0.1c-0.1,0-0.1,0.1-0.1,0.1v1.6
		c0,0.7,0,2.9,0,3.3c0,1.3,0.4,1.6,2.4,1.6c0.5,0,1.5,0,2-0.2c0.5-0.2,0.8-0.6,0.9-1.4c0-0.2,0.1-0.3,0.2-0.3s0.1,0.2,0.1,0.3
		s-0.2,1.5-0.3,1.9c-0.1,0.5-0.3,0.5-1.1,0.5c-1.5,0-2.7,0-3.5-0.1c-0.9,0-1.4,0-1.7,0c0,0-0.4,0-0.9,0c-0.4,0-0.9,0-1.2,0
		c-0.2,0-0.3,0-0.3-0.2c0-0.1,0-0.2,0.2-0.2c0.2,0,0.4-0.1,0.6-0.1c0.4-0.1,0.4-0.5,0.5-1c0.1-0.8,0.1-2.3,0.1-4.2V12.9z"/>
	<path class="st1" d="M306.2,12.9c0-3,0-3.6,0-4.2c0-0.7-0.2-1-0.8-1.1c-0.2,0-0.5,0-0.7,0c-0.1,0-0.2-0.1-0.2-0.2
		c0-0.1,0.1-0.2,0.3-0.2c0.9,0,2.2,0,2.3,0c0.2,0,1.4,0,2,0c0.2,0,0.3,0,0.3,0.2c0,0.1-0.1,0.2-0.2,0.2c-0.1,0-0.3,0-0.5,0
		c-0.5,0.1-0.7,0.4-0.7,1.1c0,0.6,0,1.2,0,4.2V14h0.1c0.3-0.4,3.9-3.9,4.7-4.7c0.6-0.6,1.1-1.1,1.1-1.4c0-0.3-0.1-0.4-0.3-0.4
		c-0.1,0-0.2-0.1-0.2-0.2c0-0.1,0.1-0.1,0.2-0.1c0.4,0,1,0,1.5,0c0.1,0,1.4,0,2,0c0.2,0,0.3,0,0.3,0.1s0,0.2-0.2,0.2
		c-0.3,0-0.7,0.1-1.1,0.3c-0.8,0.4-1.2,0.8-2.1,1.7c-0.5,0.5-4,3.8-4.4,4.3c0.5,0.6,4.7,4.8,5.6,5.5c1.7,1.5,1.9,1.8,2.9,2.2
		c0.5,0.2,1.1,0.3,1.2,0.3s0.3,0.1,0.3,0.2s-0.1,0.2-0.4,0.2h-1c-0.6,0-0.9,0-1.4,0c-1.1-0.1-1.6-0.5-2.5-1.2
		c-0.9-0.7-5.2-5.2-6.1-6.3H308v1.9c0,1.9,0,3.4,0.1,4.2c0.1,0.6,0.2,0.9,0.8,1c0.3,0,0.6,0.1,0.8,0.1c0.1,0,0.2,0.1,0.2,0.2
		c0,0.1-0.1,0.2-0.3,0.2c-1,0-2.2-0.1-2.4-0.1s-1.4,0.1-2,0.1c-0.2,0-0.3,0-0.3-0.2c0-0.1,0-0.2,0.2-0.2c0.2,0,0.4,0,0.6-0.1
		c0.4-0.1,0.4-0.5,0.5-1c0.1-0.8,0.1-2.3,0.1-4.2V12.9z"/>
</g>
</svg>
