<?xml version="1.0" encoding="utf-8"?>
<!-- Generator: Adobe Illustrator 16.0.4, SVG Export Plug-In . SVG Version: 6.00 Build 0)  -->
<!DOCTYPE svg PUBLIC "-//W3C//DTD SVG 1.1//EN" "http://www.w3.org/Graphics/SVG/1.1/DTD/svg11.dtd">
<svg version="1.1" id="Layer_1" xmlns="http://www.w3.org/2000/svg" xmlns:xlink="http://www.w3.org/1999/xlink" x="0px" y="0px"
	 width="200.135px" height="63.247px" viewBox="474.515 383.991 200.135 63.247"
	 enable-background="new 474.515 383.991 200.135 63.247" xml:space="preserve">
<g>
	<g>
		<path fill="#FFFFFF" d="M521.427,393.186l-15.623-7.781c-0.222-0.11-2.234-1.075-4.94-1.075c-1.658,0-3.223,0.363-4.652,1.075
			l-15.623,7.781c-0.203,0.1-5.006,2.556-5.006,8.083v28.69c0,0.229,0.06,5.622,5.007,8.085l15.622,7.78
			c0.223,0.111,2.236,1.075,4.941,1.075h0.001c1.656,0,3.221-0.363,4.65-1.075l15.623-7.78c0.204-0.104,5.006-2.557,5.006-8.085
			v-28.69C526.433,401.042,526.375,395.65,521.427,393.186 M522.556,429.959c0,3.1-2.754,4.562-2.856,4.618l-15.623,7.78
			c-0.891,0.442-1.872,0.665-2.924,0.665h-0.001c-1.809,0-3.209-0.662-3.213-0.665l-9.446-4.704l9.4-4.697
			c0.798,1.069,2.069,1.769,3.507,1.769c2.413,0,4.376-1.959,4.373-4.371c0-0.378-0.001-13.651-0.001-13.651l1.135-0.552
			c0.485,0.467,1.139,0.757,1.862,0.757c1.476,0,2.679-1.205,2.679-2.683c0-1.477-1.203-2.677-2.679-2.677
			c-1.479,0-2.682,1.201-2.682,2.677c0,0.016,0.003,0.026,0.003,0.039l-1.773,0.887c-0.348,0.175-0.568,0.53-0.568,0.919v10.599
			c-0.416-0.267-0.879-0.463-1.373-0.577V405.69l6.323-3.177c0.47,0.403,1.079,0.653,1.744,0.653c1.478,0,2.681-1.205,2.681-2.681
			c0-1.479-1.203-2.681-2.681-2.681c-1.475,0-2.678,1.203-2.678,2.681c0,0.063,0.007,0.125,0.011,0.191l-6.569,3.302
			c-0.806-0.939-1.997-1.538-3.327-1.538c-2.415,0-4.379,1.966-4.379,4.381c0,0.092-0.007,13.842-0.007,13.842l-1.41,0.703
			c-0.441-0.312-0.974-0.497-1.553-0.497c-1.476,0-2.681,1.202-2.681,2.68c0,1.475,1.205,2.68,2.681,2.68s2.679-1.205,2.679-2.68
			c0-0.146-0.015-0.289-0.038-0.428l1.81-0.903c0.348-0.174,0.568-0.531,0.568-0.923v-10.775c0.417,0.265,0.882,0.46,1.377,0.572
			v20.048l-10.735,5.365l-3.873-1.93c-2.773-1.38-2.858-4.5-2.86-4.618v-28.688c0-3.098,2.758-4.562,2.86-4.616l15.623-7.78
			c0.89-0.444,1.871-0.667,2.925-0.667c1.807,0,3.209,0.664,3.213,0.667l15.622,7.78c2.773,1.381,2.855,4.5,2.857,4.616v28.69
			H522.556z M501.401,428.092c1.248,0,2.262,1.012,2.262,2.262c0,1.246-1.014,2.261-2.262,2.261c-1.249,0-2.26-1.015-2.26-2.261
			C499.141,429.104,500.152,428.092,501.401,428.092 M500.316,426.122c-0.479,0.121-0.93,0.323-1.335,0.59v-15.657
			c0.484-0.127,0.935-0.326,1.335-0.599V426.122z M497.878,409.111c-1.264,0-2.288-1.025-2.288-2.289c0-1.264,1.024-2.29,2.288-2.29
			c1.265,0,2.291,1.026,2.291,2.29C500.169,408.085,499.143,409.111,497.878,409.111 M507.516,414.225
			c0-0.688,0.562-1.25,1.253-1.25c0.687,0,1.248,0.562,1.248,1.25c0,0.691-0.562,1.251-1.248,1.251
			C508.079,415.477,507.516,414.916,507.516,414.225 M509.193,400.484c0-0.691,0.562-1.25,1.25-1.25c0.689,0,1.251,0.561,1.251,1.25
			c0,0.689-0.562,1.251-1.251,1.251C509.754,401.736,509.193,401.173,509.193,400.484 M491.78,423.549c0,0.688-0.561,1.25-1.25,1.25
			c-0.688,0-1.252-0.562-1.252-1.25c0-0.689,0.564-1.253,1.252-1.253C491.219,422.296,491.78,422.86,491.78,423.549"/>
		<path fill="#FFFFFF" d="M666.36,420.348h-5.591c0.913-3.6,1.883-7.617,2.796-11.01
			C664.482,412.731,665.447,416.748,666.36,420.348 M673.497,429.476l-7.711-30.25c-0.244-1.098-1.113-1.83-2.222-1.83
			c-1.11,0-1.975,0.731-2.219,1.83l-7.713,30.25c-0.338,1.408,0.383,2.713,1.592,3.075c1.304,0.359,2.502-0.417,2.843-1.722
			c0.143-0.419,0.242-0.938,0.39-1.513c0.236-0.99,0.575-2.348,1.01-3.962h8.198c0.381,1.614,0.771,2.972,1.014,3.962
			c0.142,0.574,0.238,1.094,0.388,1.513c0.335,1.305,1.539,2.081,2.846,1.722C673.12,432.189,673.838,430.884,673.497,429.476
			 M638.541,432.607c1.01-0.266,1.783-1.256,1.783-2.455v-30.25c0-1.406-1.016-2.505-2.317-2.505c-1.301,0-2.316,1.099-2.316,2.505
			v19.298c-2.067-4.537-4.289-9.597-6.069-13.563c-1.062-2.347-2.072-4.588-3.044-6.835c-0.522-1.042-1.49-1.613-2.603-1.348
			c-1.107,0.255-1.78,1.248-1.78,2.447v30.25c0,1.408,1.012,2.507,2.314,2.507c1.302,0,2.313-1.097,2.313-2.507v-19.299
			c1.979,4.539,4.29,9.598,6.075,13.562c1.063,2.348,2.076,4.59,3.038,6.831C636.365,432.29,637.429,432.868,638.541,432.607
			 M605.073,432.607c1.016-0.266,1.784-1.256,1.784-2.455v-30.25c0-1.406-1.012-2.505-2.31-2.505c-1.3,0-2.315,1.099-2.315,2.505
			v19.298c-2.079-4.537-4.291-9.597-6.08-13.563c-1.057-2.347-2.07-4.588-3.036-6.835c-0.527-1.042-1.492-1.613-2.606-1.348
			c-1.108,0.255-1.781,1.248-1.781,2.447v30.25c0,1.408,1.015,2.507,2.312,2.507c1.304,0,2.319-1.097,2.319-2.507v-19.299
			c1.975,4.539,4.294,9.598,6.073,13.562c1.064,2.348,2.072,4.59,3.038,6.831C602.907,432.29,603.965,432.868,605.073,432.607
			 M571.082,432.658c1.299,0,2.313-1.098,2.313-2.507v-30.249c0-1.407-1.015-2.505-2.313-2.505c-1.303,0-2.317,1.099-2.317,2.505
			v30.249C568.766,431.56,569.78,432.658,571.082,432.658 M543.402,432.446c1.303,0,2.313-1.095,2.313-2.499V417.01h6.365
			c1.306,0,2.319-1.098,2.319-2.502c0-1.412-1.015-2.505-2.319-2.505h-6.365v-9.388h7.333c1.306,0,2.312-1.099,2.312-2.502
			c0-1.411-1.007-2.506-2.312-2.506h-9.646c-1.301,0-2.314,1.095-2.314,2.506v29.834
			C541.088,431.349,542.101,432.446,543.402,432.446"/>
	</g>
</g>
</svg>
