<svg id="Finna" data-name="Finna" xmlns="http://www.w3.org/2000/svg" viewBox="0 0 128 40">
<style type="text/css">
	.st0{fill:#009BB4;}
	.st1{fill:#484848;}
</style>
<title>Finna</title>
<g id="Finna_logo">
	<g id="symbol">
		<path  shape-rendering="optimizeQuality" class="st0" d="M29.3,5.7l-10-5c-1-0.4-2.1-0.7-3.1-0.7c-1,0-2.1,0.2-3,0.7l-10,5c-1.9,1-3.1,3-3.2,5.1v18.3
			c0,2.2,1.3,4.2,3.2,5.2l10,5c1,0.5,2.1,0.7,3.2,0.7l0,0c1,0,2.1-0.2,3-0.7l10-5c1.9-1,3.2-3,3.2-5.2V10.8
			C32.5,8.6,31.3,6.7,29.3,5.7z M30,29.2c0,1.3-0.7,2.4-1.8,3l-10,5c-0.6,0.3-1.2,0.4-1.9,0.4l0,0c-0.7,0-1.4-0.2-2.1-0.4l-6-3l6-3
			c0.9,1.2,2.7,1.4,3.9,0.5c0.7-0.5,1.1-1.3,1.1-2.2c0-0.2,0-8.7,0-8.7l0.7-0.4c0.7,0.7,1.8,0.6,2.4-0.1s0.6-1.8-0.1-2.4
			s-1.8-0.6-2.4,0.1c-0.3,0.3-0.5,0.7-0.5,1.2l0,0l-1.1,0.6c-0.2,0.1-0.4,0.3-0.4,0.6v6.8c-0.3-0.2-0.6-0.3-0.9-0.4v-13l4-2
			c0.7,0.6,1.8,0.5,2.4-0.2c0.6-0.7,0.5-1.8-0.2-2.4c-0.7-0.6-1.8-0.5-2.4,0.2c-0.3,0.3-0.4,0.7-0.4,1.1c0,0,0,0.1,0,0.1l-4.2,2.1
			c-1-1.2-2.8-1.3-3.9-0.3c-0.6,0.5-1,1.3-1,2.1c0,0.1,0,8.9,0,8.9l-0.9,0.5c-0.8-0.6-1.9-0.4-2.4,0.4c-0.6,0.8-0.4,1.9,0.4,2.4
			s1.9,0.4,2.4-0.4c0.3-0.4,0.4-0.8,0.3-1.3l1.2-0.6c0.2-0.1,0.4-0.3,0.4-0.6v-7c0.3,0.2,0.6,0.3,0.9,0.4v12.8l-6.8,3.4l-2.5-1.2
			c-1.1-0.6-1.8-1.7-1.8-3V10.8c0-1.3,0.7-2.4,1.8-3l10-5c0.6-0.3,1.2-0.4,1.9-0.4c0.7,0,1.4,0.2,2,0.4l10,5c1.1,0.6,1.8,1.7,1.8,3
			L30,29.2L30,29.2z M16.5,28c0.8,0,1.5,0.6,1.5,1.4c0,0.8-0.6,1.5-1.4,1.5c-0.8,0-1.5-0.6-1.5-1.4c0,0,0,0,0,0
			C15.1,28.7,15.7,28,16.5,28z M15.8,26.7c-0.3,0.1-0.6,0.2-0.9,0.4v-10c0.3-0.1,0.6-0.2,0.9-0.4V26.7z M14.2,15.8
			c-0.8,0-1.5-0.7-1.4-1.5c0-0.8,0.7-1.5,1.5-1.4c0.8,0,1.4,0.7,1.4,1.5C15.7,15.2,15.1,15.8,14.2,15.8
			C14.3,15.8,14.3,15.8,14.2,15.8z M20.4,19.1c0-0.4,0.4-0.8,0.8-0.8s0.8,0.4,0.8,0.8s-0.4,0.8-0.8,0.8h0
			C20.8,19.9,20.4,19.6,20.4,19.1z M21.5,10.3c0-0.4,0.4-0.8,0.8-0.8c0.4,0,0.8,0.4,0.8,0.8s-0.4,0.8-0.8,0.8l0,0
			C21.8,11.1,21.5,10.8,21.5,10.3L21.5,10.3z M10.4,25.1c0,0.4-0.4,0.8-0.8,0.8s-0.8-0.4-0.8-0.8c0-0.4,0.4-0.8,0.8-0.8c0,0,0,0,0,0
			C10,24.3,10.4,24.6,10.4,25.1z"/>
		<g id="logotype">
			<path shape-rendering="optimizeQuality" class="st1" d="M122.8,23h-3.6c0.6-2.3,1.2-4.9,1.8-7C121.5,18.2,122.2,20.7,122.8,23 M127.3,28.8l-4.9-19.3
				c-0.1-0.8-0.9-1.3-1.7-1.2c-0.6,0.1-1.1,0.6-1.2,1.2l-4.9,19.3c-0.3,0.8,0.2,1.7,1,2c0.8,0.2,1.6-0.2,1.8-1c0,0,0-0.1,0-0.1
				c0.1-0.3,0.2-0.6,0.2-1c0.2-0.6,0.4-1.5,0.7-2.5h5.2c0.2,1,0.5,1.9,0.7,2.5c0.1,0.4,0.2,0.7,0.2,1c0.2,0.8,0.9,1.3,1.7,1.1
				c0,0,0.1,0,0.1,0C127.1,30.6,127.6,29.7,127.3,28.8 M105,30.9c0.7-0.2,1.2-0.8,1.1-1.6V10c0-0.8-0.7-1.5-1.5-1.5
				s-1.5,0.7-1.5,1.5v12.3c-1.3-2.9-2.7-6.1-3.9-8.7c-0.7-1.5-1.3-2.9-1.9-4.4c-0.3-0.7-1-1-1.7-0.9c-0.7,0.2-1.2,0.9-1.1,1.6v19.3
				c0,0.8,0.7,1.5,1.5,1.5s1.5-0.7,1.5-1.5V17c1.3,2.9,2.7,6.1,3.9,8.7c0.7,1.5,1.3,2.9,1.9,4.4C103.6,30.7,104.3,31.1,105,30.9
				 M83.6,30.9c0.7-0.2,1.2-0.8,1.1-1.6V10c0-0.8-0.7-1.5-1.5-1.5s-1.5,0.7-1.5,1.5l0,0v12.3c-1.3-2.9-2.7-6.1-3.9-8.7
				c-0.7-1.5-1.3-2.9-1.9-4.4c-0.3-0.7-1-1-1.7-0.9c-0.7,0.2-1.2,0.9-1.1,1.6v19.3c0,0.8,0.7,1.5,1.5,1.5s1.5-0.7,1.5-1.5V17
				c1.3,2.9,2.7,6.1,3.9,8.7c0.7,1.5,1.3,2.9,1.9,4.4C82.2,30.7,82.9,31.1,83.6,30.9 M61.9,30.9c0.8,0,1.5-0.7,1.5-1.6c0,0,0,0,0,0
				V10c0-0.8-0.7-1.5-1.5-1.5s-1.5,0.7-1.5,1.5l0,0v19.3C60.3,30.1,61,30.8,61.9,30.9C61.8,30.9,61.8,30.9,61.9,30.9 M44.1,30.8
				c0.8,0,1.5-0.7,1.5-1.6c0,0,0,0,0,0v-8.3h4.1c0.9,0,1.6-0.7,1.6-1.6s-0.7-1.6-1.6-1.6h-4.1v-6h4.7c0.8,0,1.5-0.7,1.5-1.6
				c0,0,0,0,0,0c0-0.8-0.6-1.6-1.4-1.6c0,0,0,0,0,0h-6.2c-0.8,0-1.5,0.7-1.5,1.6c0,0,0,0,0,0v19.1C42.6,30,43.3,30.7,44.1,30.8
				C44.1,30.8,44.1,30.8,44.1,30.8"/>
		</g>
	</g>
</g>
</svg>