<?xml version="1.0" encoding="utf-8"?>
<!DOCTYPE svg PUBLIC "-//W3C//DTD SVG 1.0//EN" "http://www.w3.org/TR/2001/REC-SVG-20010904/DTD/svg10.dtd" [
	<!ENTITY ns_flows "http://ns.adobe.com/Flows/1.0/">
	<!ENTITY ns_svg "http://www.w3.org/2000/svg">
	<!ENTITY ns_xlink "http://www.w3.org/1999/xlink">
]>
<svg  xmlns="&ns_svg;" xmlns:xlink="&ns_xlink;" xmlns:a="http://ns.adobe.com/AdobeSVGViewerExtensions/3.0/"
	 width="340.157" height="113.386" viewBox="0 0 340.157 113.386" overflow="visible" enable-background="new 0 0 340.157 113.386"
	 xml:space="preserve">
	<g id="Hintergrund">
		<g>
			<path fill-rule="evenodd" clip-rule="evenodd" fill="#9B0A7D" d="M0,0h170.079v57.26H0V0z"/>
			<path fill-rule="evenodd" clip-rule="evenodd" fill="#FFFFFF" d="M112.252,0h2.268v40.819h-2.268V0z"/>
			<path fill-rule="evenodd" clip-rule="evenodd" fill="#FFFFFF" d="M55.559,15.874h2.268V57.26h-2.268V15.874z"/>
			<path fill="#FFFFFF" d="M29.579,41.104c-7.525,0-12.805-5.215-12.805-12.836c0-7.301,5.596-12.678,12.743-12.678
				c3.509,0,7.208,0.82,9.516,3.92l-3.509,3.479c-0.918-1.488-3.193-2.529-5.945-2.529c-3.858,0-7.272,3.004-7.272,7.809
				c0,4.553,2.847,8.061,7.526,8.061c1.359,0,4.456-0.281,6.29-3.633l3.796,2.846C37.104,40.092,32.93,41.104,29.579,41.104z"/>
			<path fill="#FFFFFF" d="M141.845,41.023c-7.24,0-10.215-4.456-10.215-9.987V16.237h5.567v14.352c0,3.797,1.328,5.504,4.679,5.504
				c3.32,0,4.395-1.74,4.395-5.504V16.237h5.563v14.799C151.834,36.282,149.116,41.023,141.845,41.023z"/>
			<path fill="#FFFFFF" d="M91.347,40.773l-2.561-5.656h-7.493l-2.563,5.656h-5.912l12.22-25.986L97.26,40.773H91.347z
				 M85.039,26.516L82.873,31.1h4.333L85.039,26.516z"/>
			<path fill-rule="evenodd" clip-rule="evenodd" fill="#D9D9D9" d="M0,56.693h340.157v56.692H0V56.693z"/>
			<path d="M331.148,104.933v-1.563h-0.81c-0.738,0-0.99-0.36-0.99-1.062V92.121h-1.834v10.295c0,1.35,0.756,2.517,2.5,2.517
				H331.148z M323.049,99.627h-4.104c0.019-0.559,0.055-0.829,0.234-1.242c0.288-0.686,0.954-1.154,1.818-1.154
				c0.863,0,1.512,0.469,1.8,1.154C322.977,98.798,323.03,99.068,323.049,99.627z M324.866,100.902v-0.81
				c0-2.594-1.422-4.39-3.869-4.39c-2.339,0-3.866,1.707-3.866,4.661c0,3.474,1.813,4.679,4.1,4.679c1.603,0,2.484-0.487,3.421-1.42
				l-1.171-1.099c-0.647,0.647-1.188,0.937-2.214,0.937c-1.494,0-2.322-0.99-2.322-2.559H324.866z M314.769,95.809h-1.834v9.124
				h1.834V95.809z M314.822,92.066h-1.941v1.94h1.941V92.066z M310.667,104.933l-4.59-7.79l4.157-5.021h-2.376l-5.237,6.443v-6.443
				h-1.942v12.812h1.942v-3.722l2.159-2.593l3.601,6.314H310.667z M293.163,104.933V95.81h-1.834v5.563
				c0,1.404-0.864,2.032-1.891,2.032c-1.027,0-1.838-0.61-1.838-2.032V95.81h-1.834v5.832c0,1.026,0.217,1.892,0.918,2.575
				c0.538,0.519,1.313,0.826,2.25,0.826c0.918,0,1.8-0.343,2.43-1.023v0.913H293.163z M283.265,104.933v-1.634h-4.572l4.572-6.033
				V95.81h-6.552v1.637h4.284l-4.536,6.032v1.454H283.265z M270.782,104.933v-1.563h-0.756c-0.684,0-1.008-0.396-1.008-1.062v-4.934
				h1.764v-1.402h-1.764v-2.771h-1.834v2.771h-1.044v1.402h1.044v5.022c0,1.315,0.792,2.535,2.5,2.535H270.782z M262.037,101.641
				c0,0.65-0.126,1.081-0.396,1.352c-0.486,0.469-1.008,0.521-1.712,0.521c-1.152,0-1.674-0.468-1.674-1.295
				c0-0.831,0.558-1.316,1.638-1.316h2.145V101.641z M263.871,104.933v-6.1c0-2.071-1.259-3.13-3.763-3.13
				c-1.512,0-2.412,0.305-3.273,1.31l1.204,1.137c0.504-0.65,0.989-0.884,1.998-0.884c1.424,0,2,0.559,2,1.713v0.648h-2.414
				c-2.088,0-3.148,1.096-3.148,2.627c0,0.774,0.252,1.477,0.72,1.963c0.557,0.557,1.313,0.826,2.447,0.826s1.765-0.27,2.431-0.935
				v0.824H263.871z M259.209,92.121h-1.654v1.941h1.654V92.121z M263.097,92.121h-1.654v1.941h1.654V92.121z M254.187,104.933
				v-1.563h-0.756c-0.684,0-1.008-0.396-1.008-1.062v-4.934h1.764v-1.402h-1.764v-2.771h-1.834v2.771h-1.044v1.402h1.044v5.022
				c0,1.315,0.792,2.535,2.5,2.535H254.187z M247.185,95.809h-1.833v9.124h1.833V95.809z M247.238,92.066h-1.941v1.94h1.941V92.066z
				 M242.486,102.146c0-1.619-1.006-2.431-2.716-2.575l-1.441-0.124c-0.973-0.091-1.261-0.504-1.261-1.045
				c0-0.686,0.559-1.172,1.658-1.172c0.864,0,1.674,0.18,2.25,0.666l1.15-1.17c-0.845-0.736-2.015-1.023-3.382-1.023
				c-1.91,0-3.438,1.008-3.438,2.788c0,1.602,0.99,2.376,2.698,2.519l1.46,0.127c0.882,0.071,1.224,0.469,1.224,1.082
				c0,0.862-0.881,1.26-1.998,1.26c-0.901,0-1.892-0.197-2.628-0.954l-1.206,1.206c1.08,1.061,2.338,1.313,3.834,1.313
				C240.869,105.043,242.486,104.055,242.486,102.146z M234.513,96.565c-0.63-0.628-1.296-0.862-2.178-0.862
				c-1.026,0-1.962,0.449-2.431,1.098V95.81h-1.798v9.123h1.834v-5.542c0-1.26,0.828-2.054,1.818-2.054
				c0.63,0,0.954,0.2,1.368,0.614L234.513,96.565z M223.587,99.627h-4.104c0.019-0.559,0.055-0.829,0.234-1.242
				c0.288-0.686,0.954-1.154,1.818-1.154c0.863,0,1.512,0.469,1.8,1.154C223.515,98.798,223.568,99.068,223.587,99.627z
				 M225.404,100.902v-0.81c0-2.594-1.422-4.39-3.869-4.39c-2.341,0-3.868,1.707-3.868,4.661c0,3.474,1.815,4.679,4.102,4.679
				c1.603,0,2.484-0.487,3.42-1.42l-1.17-1.099c-0.647,0.647-1.188,0.937-2.214,0.937c-1.494,0-2.322-0.99-2.322-2.559H225.404z
				 M216.442,95.81h-1.943l-2.143,6.427l-2.16-6.427h-1.943l3.348,9.123h1.494L216.442,95.81z M206.379,95.809h-1.834v9.124h1.834
				V95.809z M206.434,92.066h-1.943v1.94h1.943V92.066z M201.448,104.933v-5.829c0-1.027-0.216-1.891-0.918-2.573
				c-0.54-0.522-1.312-0.827-2.25-0.827c-0.918,0-1.8,0.342-2.43,1.025V95.81h-1.798v9.123h1.834v-5.56
				c0-1.404,0.864-2.036,1.89-2.036c1.026,0,1.838,0.614,1.838,2.036v5.56H201.448z M190.847,100.617v-8.496h-1.942v8.406
				c0,1.709-1.062,2.771-2.666,2.771c-1.602,0-2.646-1.063-2.646-2.771v-8.406h-1.942v8.496c0,2.644,1.979,4.426,4.588,4.426
				C188.851,105.043,190.847,103.261,190.847,100.617z M178.696,99.086h-5.254v1.709h5.254V99.086z M170.831,102.146
				c0-1.619-1.008-2.431-2.717-2.575l-1.441-0.124c-0.973-0.091-1.26-0.504-1.26-1.045c0-0.686,0.558-1.172,1.655-1.172
				c0.866,0,1.677,0.18,2.252,0.666l1.15-1.17c-0.844-0.736-2.013-1.023-3.384-1.023c-1.908,0-3.437,1.008-3.437,2.788
				c0,1.602,0.989,2.376,2.699,2.519l1.459,0.127c0.882,0.071,1.224,0.469,1.224,1.082c0,0.862-0.882,1.26-2,1.26
				c-0.9,0-1.89-0.197-2.628-0.954l-1.204,1.206c1.078,1.061,2.339,1.313,3.833,1.313
				C169.213,105.043,170.831,104.055,170.831,102.146z M161.831,104.933v-1.563h-0.757c-0.683,0-1.007-0.396-1.007-1.062v-4.934
				h1.764v-1.402h-1.764v-2.771h-1.834v2.771h-1.044v1.402h1.044v5.022c0,1.315,0.792,2.535,2.5,2.535H161.831z M154.919,104.933
				v-5.884c0-1.98-1.131-3.346-3.166-3.346c-0.902,0-1.73,0.342-2.36,1.025v-4.607h-1.834v12.812h1.834v-5.597
				c0-1.367,0.828-1.999,1.854-1.999c1.027,0,1.838,0.614,1.838,1.999v5.597H154.919z M145.164,103.748l-1.261-1.205
				c-0.576,0.629-1.025,0.862-1.746,0.862c-0.701,0-1.296-0.286-1.691-0.81c-0.397-0.504-0.541-1.17-0.541-2.231
				s0.144-1.712,0.541-2.216c0.395-0.521,0.99-0.812,1.691-0.812c0.721,0,1.17,0.235,1.746,0.866l1.261-1.225
				c-0.865-0.916-1.746-1.275-3.007-1.275c-2.052,0-4.065,1.239-4.065,4.661c0,3.421,2.014,4.679,4.065,4.679
				C143.417,105.043,144.299,104.664,145.164,103.748z M134.039,99.627h-4.104c0.019-0.559,0.054-0.829,0.235-1.242
				c0.288-0.686,0.954-1.154,1.817-1.154c0.864,0,1.513,0.469,1.801,1.154C133.967,98.798,134.021,99.068,134.039,99.627z
				 M135.856,100.902v-0.81c0-2.594-1.422-4.39-3.87-4.39c-2.34,0-3.867,1.707-3.867,4.661c0,3.474,1.815,4.679,4.102,4.679
				c1.602,0,2.484-0.487,3.42-1.42l-1.169-1.099c-0.648,0.647-1.189,0.937-2.214,0.937c-1.495,0-2.323-0.99-2.323-2.559H135.856z
				 M127.4,96.565c-0.63-0.628-1.296-0.862-2.178-0.862c-1.026,0-1.962,0.449-2.43,1.098V95.81h-1.798v9.123h1.834v-5.542
				c0-1.26,0.827-2.054,1.818-2.054c0.63,0,0.954,0.2,1.368,0.614L127.4,96.565z M116.404,100.364c0,1.62-0.233,3.041-1.89,3.041
				c-1.658,0-1.91-1.421-1.91-3.041c0-1.623,0.252-3.027,1.91-3.027C116.171,97.337,116.404,98.741,116.404,100.364z
				 M118.238,100.364c0-1.388-0.107-2.937-1.023-3.853c-0.504-0.504-1.296-0.809-2.214-0.809c-0.973,0-1.73,0.234-2.396,1.025
				v-4.607h-1.834v12.812h1.798v-0.969c0.685,0.827,1.424,1.079,2.415,1.079c0.918,0,1.728-0.308,2.232-0.809
				C118.131,103.316,118.238,101.75,118.238,100.364z M108.482,104.933v-1.563h-0.81c-0.738,0-0.99-0.36-0.99-1.062V92.121h-1.834
				v10.295c0,1.35,0.756,2.517,2.5,2.517H108.482z M99.179,100.707h-3.942l1.999-5.688L99.179,100.707z M102.671,104.933
				l-4.698-12.812h-1.566l-4.697,12.812h2.069l0.882-2.571h5.058l0.882,2.571H102.671z M90.087,99.086h-5.254v1.709h5.254V99.086z
				 M81.986,104.933v-5.829c0-1.027-0.213-1.891-0.916-2.573c-0.54-0.522-1.313-0.827-2.25-0.827c-0.918,0-1.799,0.342-2.432,1.025
				V95.81h-1.796v9.123h1.832v-5.56c0-1.404,0.866-2.036,1.892-2.036s1.837,0.614,1.837,2.036v5.56H81.986z M70.021,101.641
				c0,0.65-0.126,1.081-0.397,1.352c-0.486,0.469-1.009,0.521-1.71,0.521c-1.152,0-1.676-0.468-1.676-1.295
				c0-0.831,0.56-1.316,1.64-1.316h2.144V101.641z M71.853,104.933v-6.1c0-2.071-1.258-3.13-3.76-3.13
				c-1.511,0-2.412,0.305-3.276,1.31l1.207,1.137c0.503-0.65,0.99-0.884,1.998-0.884c1.421,0,2,0.559,2,1.713v0.648h-2.414
				c-2.088,0-3.147,1.096-3.147,2.627c0,0.774,0.25,1.477,0.718,1.963c0.557,0.557,1.313,0.826,2.448,0.826
				c1.134,0,1.764-0.27,2.432-0.935v0.824H71.853z M61.955,95.809h-1.834v9.124h1.834V95.809z M62.009,92.066h-1.942v1.94h1.942
				V92.066z M57.149,104.933v-1.563h-0.756c-0.684,0-1.008-0.396-1.008-1.062v-4.934h1.764v-1.402h-1.764v-2.771h-1.836v2.771
				h-1.042v1.402h1.042v5.022c0,1.315,0.792,2.535,2.502,2.535H57.149z M50.65,102.146c0-1.619-1.008-2.431-2.716-2.575
				l-1.442-0.124c-0.972-0.091-1.26-0.504-1.26-1.045c0-0.686,0.559-1.172,1.657-1.172c0.866,0,1.676,0.18,2.252,0.666l1.15-1.17
				c-0.845-0.736-2.015-1.023-3.384-1.023c-1.907,0-3.436,1.008-3.436,2.788c0,1.602,0.988,2.376,2.698,2.519l1.46,0.127
				c0.882,0.071,1.224,0.469,1.224,1.082c0,0.862-0.882,1.26-2,1.26c-0.899,0-1.889-0.197-2.627-0.954l-1.204,1.206
				c1.078,1.061,2.338,1.313,3.832,1.313C49.033,105.043,50.65,104.055,50.65,102.146z M40.715,95.809h-1.834v9.124h1.834V95.809z
				 M40.769,92.066h-1.941v1.94h1.941V92.066z M37.115,96.565c-0.63-0.628-1.296-0.862-2.178-0.862
				c-1.025,0-1.961,0.449-2.429,1.098V95.81h-1.798v9.123h1.833v-5.542c0-1.26,0.828-2.054,1.817-2.054
				c0.63,0,0.954,0.2,1.368,0.614L37.115,96.565z M27.611,104.933v-5.884c0-1.98-1.132-3.346-3.167-3.346
				c-0.901,0-1.729,0.342-2.359,1.025v-4.607h-1.833v12.812h1.833v-5.597c0-1.367,0.828-1.999,1.854-1.999
				c1.028,0,1.838,0.614,1.838,1.999v5.597H27.611z M17.243,101.104H15.28c-0.305,1.294-1.188,2.195-2.609,2.195
				c-0.756,0-1.44-0.289-1.891-0.774c-0.629-0.686-0.773-1.421-0.773-3.995c0-2.576,0.144-3.315,0.773-3.998
				c0.451-0.486,1.135-0.775,1.891-0.775c1.422,0,2.287,0.9,2.592,2.197h1.98c-0.45-2.557-2.214-3.941-4.572-3.941
				c-1.332,0-2.484,0.485-3.366,1.367c-1.258,1.26-1.241,2.682-1.241,5.15c0,2.465-0.018,3.887,1.241,5.146
				c0.881,0.88,2.034,1.367,3.366,1.367C14.993,105.043,16.811,103.658,17.243,101.104z"/>
		</g>
	</g>
</svg>
