<svg id="Ebene_1" data-name="Ebene 1" xmlns="http://www.w3.org/2000/svg" width="270" viewBox="0 0 392.46 127.19"><defs><style>.cls-1{fill:#1d1d1b;}.cls-2{fill:#e2001a;}.cls-3{fill:#fff;}</style></defs><title>UHH-Logo_2010_RGB_web</title><path class="cls-1" d="M120.1,97.25c-6.11,0-7.41-3.51-7.41-7.26V76.53h3.14V89.75c0,2.72.87,4.78,4.47,4.78,3.17,0,4.61-1.39,4.61-5.2V76.53H128V89.08C128,94.53,125.21,97.25,120.1,97.25Z" transform="translate(0.39 -0.66)"/><path class="cls-1" d="M142,96.95V88c0-1.74-.48-2.74-2.07-2.74-2.1,0-3.64,2.21-3.64,5v6.72h-3V83h2.86a18.23,18.23,0,0,1-.2,2.72l0,0a5.08,5.08,0,0,1,4.84-3c3.16,0,4.14,2,4.14,4.45v9.74Z" transform="translate(0.39 -0.66)"/><path class="cls-1" d="M151.7,81a1.88,1.88,0,1,1,0-3.75,1.88,1.88,0,1,1,0,3.75Zm-1.51,16V83h3V96.95Z" transform="translate(0.39 -0.66)"/><path class="cls-1" d="M164.64,96.95h-3.05L156.38,83h3.3l2.6,7.36c.34,1,.64,1.93.9,2.86h0c.22-.87.5-1.85.81-2.74L166.68,83h3.22Z" transform="translate(0.39 -0.66)"/><path class="cls-1" d="M183.93,90.17h-8.88c-.08,3.22,1.34,4.68,4.12,4.68a9.59,9.59,0,0,0,4.06-.9l.28,2.38a12.72,12.72,0,0,1-4.82.9c-4.34,0-6.72-2.24-6.72-7.14,0-4.2,2.3-7.34,6.36-7.34s5.68,2.72,5.68,6A13.66,13.66,0,0,1,183.93,90.17ZM178.22,85c-1.68,0-2.86,1.23-3.11,3.11H181A2.71,2.71,0,0,0,178.22,85Z" transform="translate(0.39 -0.66)"/><path class="cls-1" d="M195.35,85.69c-2.77-.5-4.12,1.43-4.12,5.6v5.66h-3V83h2.86a18.68,18.68,0,0,1-.28,3.08h.06c.62-1.88,2-3.61,4.62-3.36Z" transform="translate(0.39 -0.66)"/><path class="cls-1" d="M201.32,97.23a15.89,15.89,0,0,1-2.94-.28l.08-2.55a11.25,11.25,0,0,0,3,.45c1.62,0,2.74-.7,2.74-1.85,0-2.8-6.1-1.12-6.1-5.94,0-2.41,2-4.31,5.74-4.31a16.75,16.75,0,0,1,2.6.25l-.08,2.44a9.8,9.8,0,0,0-2.72-.39c-1.65,0-2.46.67-2.46,1.74,0,2.69,6.16,1.32,6.16,5.94C207.37,95.32,205,97.23,201.32,97.23Z" transform="translate(0.39 -0.66)"/><path class="cls-1" d="M213.16,81a1.88,1.88,0,1,1,0-3.75,1.88,1.88,0,1,1,0,3.75Zm-1.51,16V83h3V96.95Z" transform="translate(0.39 -0.66)"/><path class="cls-1" d="M224.87,97.19c-3,0-3.86-1.12-3.86-4.17V85.59h-2.66V83.31H221V79l3-.8v5.13h3.67v2.28H224v6.53c0,2,.42,2.58,1.82,2.58a7.7,7.7,0,0,0,1.82-.22v2.41A14.81,14.81,0,0,1,224.87,97.19Z" transform="translate(0.39 -0.66)"/><path class="cls-1" d="M239.12,96.95a18.67,18.67,0,0,1,.14-2.58l0,0a4.86,4.86,0,0,1-4.62,2.88c-2.38,0-3.89-1.34-3.89-3.56,0-3.19,3.19-5,8.2-5v-.9c0-1.74-.73-2.63-2.91-2.63a8.53,8.53,0,0,0-4.14,1.12l-.28-2.55a13.88,13.88,0,0,1,4.9-.92c4.26,0,5.43,1.85,5.43,4.7v5.68c0,1.2,0,2.63.08,3.81ZM234,80.4A1.69,1.69,0,0,1,234,77a1.69,1.69,0,1,1,0,3.39Zm5,10.25c-4.37,0-5.32,1.32-5.32,2.52a1.69,1.69,0,0,0,1.9,1.71c2,0,3.42-2,3.42-3.95Zm.56-10.25a1.69,1.69,0,1,1,1.68-1.71A1.7,1.7,0,0,1,239.48,80.4Z" transform="translate(0.39 -0.66)"/><path class="cls-1" d="M251.63,97.19c-3,0-3.86-1.12-3.86-4.17V85.59h-2.66V83.31h2.66V79l3-.8v5.13h3.67v2.28h-3.64v6.53c0,2,.42,2.58,1.82,2.58a7.7,7.7,0,0,0,1.82-.22v2.41A14.81,14.81,0,0,1,251.63,97.19Z" transform="translate(0.39 -0.66)"/><path class="cls-1" d="M282.58,96.95V87.78h-9.2v9.16h-3.14V76.53h3.14V85h9.2V76.53h3.12V96.95Z" transform="translate(0.39 -0.66)"/><path class="cls-1" d="M299.59,96.95a18.36,18.36,0,0,1,.14-2.58l0,0a4.86,4.86,0,0,1-4.62,2.88c-2.38,0-3.89-1.34-3.89-3.56,0-3.19,3.19-5,8.2-5v-.9c0-1.74-.73-2.63-2.91-2.63a8.52,8.52,0,0,0-4.14,1.12l-.28-2.55a13.87,13.87,0,0,1,4.9-.92c4.26,0,5.43,1.85,5.43,4.7v5.68c0,1.2,0,2.63.08,3.81Zm-.2-6.3c-4.37,0-5.32,1.32-5.32,2.52a1.69,1.69,0,0,0,1.9,1.71c2,0,3.42-2,3.42-3.95Z" transform="translate(0.39 -0.66)"/><path class="cls-1" d="M325,96.95V88.07c0-1.74-.42-2.83-2-2.83-1.79,0-3.58,2-3.58,5v6.66H316.5V88c0-1.57-.34-2.8-2-2.8-1.9,0-3.56,2.13-3.56,5v6.66h-3V83h2.86a18.43,18.43,0,0,1-.2,2.72l.06,0a5,5,0,0,1,4.7-3,3.56,3.56,0,0,1,3.87,3,5,5,0,0,1,4.65-3c2.66,0,4.14,1.43,4.14,4.59v9.6Z" transform="translate(0.39 -0.66)"/><path class="cls-1" d="M338.18,97.17a18.79,18.79,0,0,1-5-.59V76.51h3v6.41a13.61,13.61,0,0,1-.25,2.66H336a4.64,4.64,0,0,1,4.42-2.83c3.3,0,5.12,2.35,5.12,6.55C345.57,94.12,342.79,97.17,338.18,97.17Zm1.48-11.93c-2.24,0-3.45,2.6-3.45,5v4.31a7.17,7.17,0,0,0,2.19.28c2.38,0,4-1.46,4-5.21C342.4,86.78,341.54,85.24,339.66,85.24Z" transform="translate(0.39 -0.66)"/><path class="cls-1" d="M359.06,96.95a18.18,18.18,0,0,1,.2-2.72l0,0a5.08,5.08,0,0,1-4.84,3c-3.16,0-4.14-2-4.14-4.45V83h3v9c0,1.74.48,2.74,2.07,2.74,2.1,0,3.64-2.21,3.64-5V83h3V96.95Z" transform="translate(0.39 -0.66)"/><path class="cls-1" d="M375.08,85.69c-2.77-.5-4.12,1.43-4.12,5.6v5.66h-3V83h2.86a18.58,18.58,0,0,1-.28,3.08h.06c.62-1.88,2-3.61,4.62-3.36Z" transform="translate(0.39 -0.66)"/><path class="cls-1" d="M384.37,104.11c-3.64,0-5.91-1.4-5.91-4.09a4.05,4.05,0,0,1,2.24-3.5,2.29,2.29,0,0,1-1.37-2.07,2.61,2.61,0,0,1,1.6-2.38,4.23,4.23,0,0,1-2.07-3.92c0-2.94,2.24-5.4,6.22-5.4a10.1,10.1,0,0,1,2.29.28h4.71v2.35h-2.13a2.94,2.94,0,0,1,1,2.32c0,3-2.1,5.15-6,5.15a9.15,9.15,0,0,1-1.6-.14,1.15,1.15,0,0,0-.81,1c0,.7.62,1,2.29,1h2.38c3,0,4.73,1.43,4.73,4C391.88,101.73,388.86,104.11,384.37,104.11Zm2-6.94h-2.6a6.71,6.71,0,0,1-.76,0,2.71,2.71,0,0,0-1.54,2.32c0,1.48,1.4,2.32,3.42,2.32,2.6,0,4.06-1.12,4.06-2.63C388.91,98,388.1,97.17,386.34,97.17ZM384.94,85a2.85,2.85,0,0,0-3.16,2.91c0,1.82,1.12,2.88,3.14,2.88s3.11-1,3.11-2.86A2.76,2.76,0,0,0,384.94,85Z" transform="translate(0.39 -0.66)"/><polygon class="cls-2" points="0.42 0 96.39 0 96.39 95.97 0.42 95.97 0.42 0 0.42 0"/><polygon class="cls-3" points="62.11 56.88 63.48 56.88 62.8 55.7 63.48 54.51 62.11 54.51 61.43 53.32 60.74 54.51 59.37 54.51 60.06 55.7 59.37 56.88 60.74 56.88 61.43 58.07 62.11 56.88 62.11 56.88"/><polygon class="cls-3" points="83.57 56.88 84.94 56.88 84.25 55.7 84.94 54.51 83.57 54.51 82.88 53.32 82.19 54.51 80.83 54.51 81.51 55.7 80.83 56.88 82.19 56.88 82.88 58.07 83.57 56.88 83.57 56.88"/><path class="cls-3" d="M68,58.09v.26H66.5V60.1h1.69v11h-3.9V60.35h-6.5V71.06H55.67v1.82h32.2V71.06H85.74V60.35h-6.5V71.06h-3.9v-11H77V58.35h-1.5a3.89,3.89,0,0,0-3-3.93V52.53h1.41V51.21H72.54V49.6H71v1.61H69.59v1.32H71v1.9a3.76,3.76,0,0,0-3,3.67Z" transform="translate(0.39 -0.66)"/><path class="cls-3" d="M71.77,80.39a4.3,4.3,0,0,0-4.3,4.3l-.08,7.2H53.88a62.94,62.94,0,0,0,3.75-17.13H85.9a63,63,0,0,0,3.75,17.13H76.14l-.08-7.2a4.3,4.3,0,0,0-4.3-4.3Z" transform="translate(0.39 -0.66)"/><path class="cls-3" d="M41.81,32H38V21.2H26.71v2.49c0,5.42-3.2,8.66-9.46,8.66-6.43,0-9.46-3-9.46-8.55V7.94h3.89V23c0,3.87,1.35,6.13,5.61,6.13S22.9,26.89,22.9,23V7.94h3.81v9.95H38V7.94h3.85v9.95H53.14V7.94H57V32H53.14V21.2H41.81V32Z" transform="translate(0.39 -0.66)"/><path class="cls-1" d="M3,126.42c-1.27,0-2.37-.05-3.4-.09V114.15c1,0,2.44-.09,3.95-.09,3.78,0,6.19,1.68,6.19,6S7,126.42,3,126.42ZM3.4,116c-.54,0-1,0-1.43.05v8.23a8.5,8.5,0,0,0,1.29.09c2.3,0,4-1.3,4-4.2C7.21,117.59,6.18,116,3.4,116Z" transform="translate(0.39 -0.66)"/><path class="cls-1" d="M11.87,126.35V114.13h6.64v2H14.22v3h4.07V121H14.22v3.31h4.29v2Z" transform="translate(0.39 -0.66)"/><path class="cls-1" d="M26.82,126.35l-3.4-5h-.09v5H21V114.13c1-.05,2.1-.07,3.51-.07,2.7,0,4.43.94,4.43,3.44a3.42,3.42,0,0,1-3.11,3.4c.34.45.69.92,1,1.34l2.93,4.11ZM24.25,116a6.68,6.68,0,0,0-.92.05v3.53c.16,0,.49,0,.85,0,1.41,0,2.28-.72,2.28-1.86S25.73,116,24.25,116Z" transform="translate(0.39 -0.66)"/><path class="cls-1" d="M40.59,116.18v3.13h3.93v1.93H40.59v5.11H38.25V114.2h6.5v2Z" transform="translate(0.39 -0.66)"/><path class="cls-1" d="M51.7,126.55c-3.71,0-5.53-2.36-5.53-6.12,0-4,2.68-6.43,5.94-6.43s5.53,1.94,5.53,6.1S55,126.55,51.7,126.55Zm.2-10.44c-1.67,0-3.22,1.33-3.22,4.07,0,2.57,1,4.25,3.19,4.25,1.58,0,3.28-1.22,3.28-4.14C55.14,117.58,54,116.11,51.9,116.11Z" transform="translate(0.39 -0.66)"/><path class="cls-1" d="M65.58,126.35l-3.39-5H62.1v5H59.76V114.2c1-.05,2.09-.07,3.49-.07,2.68,0,4.41.94,4.41,3.42a3.4,3.4,0,0,1-3.1,3.38l1,1.33,2.92,4.09ZM63,116a6.6,6.6,0,0,0-.92.05v3.51c.16,0,.49,0,.85,0,1.4,0,2.27-.72,2.27-1.85S64.5,116,63,116Z" transform="translate(0.39 -0.66)"/><path class="cls-1" d="M72.45,126.55a10,10,0,0,1-2.48-.29l.14-2.18a8.4,8.4,0,0,0,2.54.43c1.19,0,2.11-.49,2.11-1.6,0-2.32-5.1-1.26-5.1-5.26,0-2.16,1.71-3.66,4.63-3.66a13.35,13.35,0,0,1,2.2.22l-.13,2.05a8,8,0,0,0-2.18-.32c-1.35,0-2,.61-2,1.48,0,2.18,5.11,1.37,5.11,5.17C77.26,124.87,75.44,126.55,72.45,126.55Z" transform="translate(0.39 -0.66)"/><path class="cls-1" d="M84.56,126.51c-4.25,0-5.62-2.83-5.62-5.85,0-3.85,2-6.55,6.09-6.55a10.1,10.1,0,0,1,2.57.32l-.25,2.12a8.66,8.66,0,0,0-2.45-.36c-2.27,0-3.39,1.71-3.39,4.07,0,2.65,1.1,4.12,3.55,4.12a6.42,6.42,0,0,0,2.36-.5L87.7,126A9.43,9.43,0,0,1,84.56,126.51Z" transform="translate(0.39 -0.66)"/><path class="cls-1" d="M97.6,126.35v-5.28H92.45v5.28H90.11V114.2h2.34v4.86H97.6V114.2h2.34v12.15Z" transform="translate(0.39 -0.66)"/><path class="cls-1" d="M107.75,126.55c-3.84,0-4.7-2.09-4.7-4.41V114.2h2.34V122c0,1.53.5,2.61,2.52,2.61,1.8,0,2.56-.76,2.56-2.83V114.2h2.32v7.44C112.79,125,111,126.55,107.75,126.55Z" transform="translate(0.39 -0.66)"/><path class="cls-1" d="M122.87,126.35l-3.56-6.14A27.38,27.38,0,0,1,118,117.6c.07,1,.11,3,.11,4.41v4.34h-2.27V114.2h3l3.39,5.8c.56.94,1,1.94,1.49,2.86-.09-1.22-.13-3.38-.13-4.88V114.2h2.27v12.15Z" transform="translate(0.39 -0.66)"/><path class="cls-1" d="M138,116.72a9,9,0,0,0-3.22-.61,3.9,3.9,0,0,0-4.12,4.23c0,2.57,1.4,4.09,3.87,4.09a5.2,5.2,0,0,0,1.55-.22V120h2.34v5.8a11.47,11.47,0,0,1-4.16.76c-3.85,0-6.14-2.27-6.14-6s2.59-6.54,6.81-6.54a12.4,12.4,0,0,1,3.44.52Z" transform="translate(0.39 -0.66)"/><path class="cls-1" d="M151.69,127.85V113.74h1.67v14.11Z" transform="translate(0.39 -0.66)"/><path class="cls-1" d="M169.87,126.42c-1.26,0-2.36-.05-3.39-.09V114.21c1,0,2.43-.09,3.93-.09,3.76,0,6.16,1.67,6.16,5.94S173.83,126.42,169.87,126.42Zm.38-10.33c-.54,0-1,0-1.42.05v8.19a8.55,8.55,0,0,0,1.28.09c2.29,0,3.94-1.3,3.94-4.18C174.05,117.64,173,116.09,170.25,116.09Z" transform="translate(0.39 -0.66)"/><path class="cls-1" d="M178.67,126.35V114.2h6.61v2H181v3h4.05v1.91H181v3.29h4.27v2Z" transform="translate(0.39 -0.66)"/><path class="cls-1" d="M193.54,126.35l-3.39-5h-.09v5h-2.34V114.2c1-.05,2.09-.07,3.49-.07,2.68,0,4.41.94,4.41,3.42a3.4,3.4,0,0,1-3.1,3.38c.34.45.68.92,1,1.33l2.92,4.09ZM191,116a6.6,6.6,0,0,0-.92.05v3.51c.16,0,.49,0,.85,0,1.4,0,2.27-.72,2.27-1.85S192.46,116,191,116Z" transform="translate(0.39 -0.66)"/><path class="cls-1" d="M204.92,126.35V114.2h2.34v10.1h3.94v2.05Z" transform="translate(0.39 -0.66)"/><path class="cls-1" d="M212.91,126.35V114.2h6.61v2h-4.27v3h4.05v1.91h-4.05v3.29h4.27v2Z" transform="translate(0.39 -0.66)"/><path class="cls-1" d="M229.54,126.35v-5.28h-5.15v5.28h-2.34V114.2h2.34v4.86h5.15V114.2h2.34v12.15Z" transform="translate(0.39 -0.66)"/><path class="cls-1" d="M240.85,126.35l-3.38-5h-.09v5H235V114.2c1-.05,2.09-.07,3.49-.07,2.68,0,4.41.94,4.41,3.42a3.4,3.4,0,0,1-3.1,3.38l1,1.33,2.92,4.09ZM238.29,116a6.6,6.6,0,0,0-.92.05v3.51c.16,0,.49,0,.85,0,1.4,0,2.27-.72,2.27-1.85S239.77,116,238.29,116Z" transform="translate(0.39 -0.66)"/><path class="cls-1" d="M245.63,126.35V114.2h6.61v2H248v3H252v1.91H248v3.29h4.27v2Z" transform="translate(0.39 -0.66)"/><path class="cls-1" d="M265.36,127.85V113.74H267v14.11Z" transform="translate(0.39 -0.66)"/><path class="cls-1" d="M283.21,126.42c-1.26,0-2.36-.05-3.38-.09V114.21c1,0,2.43-.09,3.93-.09,3.76,0,6.16,1.67,6.16,5.94S287.17,126.42,283.21,126.42Zm.38-10.33c-.54,0-1,0-1.42.05v8.19a8.56,8.56,0,0,0,1.28.09c2.29,0,3.94-1.3,3.94-4.18C287.39,117.64,286.36,116.09,283.59,116.09Z" transform="translate(0.39 -0.66)"/><path class="cls-1" d="M292,126.35V114.2h6.61v2h-4.27v3h4.05v1.91h-4.05v3.29h4.27v2Z" transform="translate(0.39 -0.66)"/><path class="cls-1" d="M306.88,126.35l-3.38-5h-.09v5h-2.34V114.2c1-.05,2.09-.07,3.49-.07,2.68,0,4.41.94,4.41,3.42a3.4,3.4,0,0,1-3.1,3.38c.34.45.69.92,1,1.33l2.92,4.09ZM304.33,116a6.61,6.61,0,0,0-.92.05v3.51c.16,0,.49,0,.85,0,1.4,0,2.27-.72,2.27-1.85S305.8,116,304.33,116Z" transform="translate(0.39 -0.66)"/><path class="cls-1" d="M321.8,126.39c-.74,0-2,0-3.55,0V114.21c1-.05,2.61-.09,4.11-.09,2.63,0,4.09,1.06,4.09,3a3,3,0,0,1-1.93,2.72v0a2.68,2.68,0,0,1,2.16,2.72C326.68,124.37,325.48,126.39,321.8,126.39ZM322,116c-.49,0-1,0-1.37,0v3.17c.29,0,.58,0,1,0,1.6,0,2.43-.65,2.43-1.73C324,116.61,323.44,116,322,116Zm-.34,5c-.18,0-.77,0-1,0v3.4a10.71,10.71,0,0,0,1.28.07c1.53,0,2.3-.72,2.3-1.82S323.15,121,321.62,121Z" transform="translate(0.39 -0.66)"/><path class="cls-1" d="M329.11,126.35V114.2h2.34v12.15Z" transform="translate(0.39 -0.66)"/><path class="cls-1" d="M334.58,126.35V114.2h2.34v10.1h3.94v2.05Z" transform="translate(0.39 -0.66)"/><path class="cls-1" d="M346,126.42c-1.26,0-2.36-.05-3.38-.09V114.21c1,0,2.43-.09,3.92-.09,3.76,0,6.16,1.67,6.16,5.94S349.92,126.42,346,126.42Zm.38-10.33c-.54,0-1,0-1.42.05v8.19a8.56,8.56,0,0,0,1.28.09c2.29,0,3.94-1.3,3.94-4.18C350.13,117.64,349.11,116.09,346.34,116.09Z" transform="translate(0.39 -0.66)"/><path class="cls-1" d="M359.55,126.55c-3.84,0-4.7-2.09-4.7-4.41V114.2h2.34V122c0,1.53.5,2.61,2.52,2.61,1.8,0,2.56-.76,2.56-2.83V114.2h2.32v7.44C364.59,125,362.75,126.55,359.55,126.55Z" transform="translate(0.39 -0.66)"/><path class="cls-1" d="M374.67,126.35l-3.57-6.14a27.86,27.86,0,0,1-1.31-2.61c.07,1,.11,3,.11,4.41v4.34h-2.27V114.2h3l3.38,5.8c.56.94,1,1.94,1.49,2.86-.09-1.22-.12-3.38-.12-4.88V114.2h2.27v12.15Z" transform="translate(0.39 -0.66)"/><path class="cls-1" d="M389.75,116.72a9,9,0,0,0-3.22-.61,3.9,3.9,0,0,0-4.12,4.23c0,2.57,1.4,4.09,3.87,4.09a5.21,5.21,0,0,0,1.55-.22V120h2.34v5.8a11.46,11.46,0,0,1-4.16.76c-3.85,0-6.14-2.27-6.14-6s2.59-6.54,6.81-6.54a12.42,12.42,0,0,1,3.44.52Z" transform="translate(0.39 -0.66)"/></svg>