<?xml version="1.0" encoding="UTF-8" standalone="no"?>
<svg xmlns:svg="http://www.w3.org/2000/svg" xmlns:xlink="http://www.w3.org/1999/xlink" xmlns="http://www.w3.org/2000/svg" version="1.1" x="0px" y="0px" viewBox="0 0 212.6 61.5" xml:space="preserve" width="212.60001" height="61.5" style="fill:#3e3e3b">
<path d="m207.8,53.3 1.1,0c0.5,0 0.9,0.1 1.2,0.2 0.5,0.2 0.9,0.8 0.9,1.3 0,0.6-0.2,1-0.5,1.3-0.3,0.3-0.8,0.4-1.7,0.4l-1,0zm1.1,-0.8-2.1,0 0,8.7 1.1,0 0,-3.9c0.5,0 0.7,0.1 1,0.6 1.2,1.5 2.1,2.8 2.3,3.4l1.4,0c0,0-1.7,-2.5-2.1,-3-0.2,-0.2-0.5,-0.6-0.9,-1l0.1,0c1.5,0 2.4,-1 2.4,-2.4 0,-0.9-0.5,-1.5-0.9,-1.8-0.5,-0.4-1.1,-0.6-2.3,-0.6m-6.1,0-5,0 0,8.7 5.2,0 0,-0.9-4,0 0,-3.2 3.2,0 0,-0.9-3.3,0 0,-2.9 3.8,0zm-8.5,0-6.1,0 0,0.9 2.5,0 0,7.9 1.1,0 0,-7.9 2.5,0zm-15.2,7.3-0.5,0.8c0.9,0.5 1.8,0.8 2.9,0.8 0.8,0 1.5,-0.2 2.1,-0.5 0.8,-0.5 1.3,-1.3 1.3,-2.1 0,-0.5-0.2,-1.1-0.6,-1.5-0.4,-0.4-0.8,-0.6-1.6,-0.9l-1.1,-0.3c-1.1,-0.3-1.5,-0.7-1.5,-1.4 0,-0.9 0.7,-1.4 1.8,-1.4 0.8,0 1.4,0.2 2.2,0.7l0.5,-0.8c-0.9,-0.6-1.8,-0.8-2.8,-0.8-1.8,0-3,1-3,2.5 0,0.6 0.2,1 0.6,1.4 0.4,0.4 0.8,0.5 1.6,0.8l0.9,0.3c1.1,0.3 1.6,0.9 1.6,1.6 0,0.5-0.2,0.9-0.7,1.2-0.4,0.3-0.8,0.4-1.5,0.4-0.7,-0.1-1.4,-0.3-2.2,-0.8m-20,-7.3-1.1,0 0,6.3c0,0.4 0,0.9 0.3,1.4 0.5,0.9 1.3,1.3 2.7,1.3 1.1,0 1.9,-0.2 2.4,-0.7 0.5,-0.4 0.7,-0.9 0.7,-2l0,-6.2-1.1,0 0,6.1c0,0.6 0,1-0.3,1.4-0.3,0.4-0.9,0.5-1.6,0.5-1.1,0-1.6,-0.5-1.8,-0.9-0.1,-0.3-0.2,-0.8-0.2,-1.3zm4,-1.2c0,-0.4-0.3,-0.6-0.7,-0.6-0.4,0-0.7,0.3-0.7,0.6 0,0.4 0.3,0.7 0.7,0.7 0.4,0 0.7,-0.4 0.7,-0.7m-3.5,0.6c0.4,0 0.7,-0.3 0.7,-0.7 0,-0.4-0.3,-0.6-0.7,-0.6-0.4,0-0.7,0.3-0.7,0.6 0,0.4 0.4,0.7 0.7,0.7m-13.7,0.6-0.8,8.7 1.1,0 0.5,-6.2c0,-0.5 0.1,-1.5 0.1,-1.7 0,0.2 0.2,0.8 0.5,1.7l1.8,6.2 0.9,0 2,-6.5c0.2,-0.5 0.3,-1.3 0.4,-1.4 0,0.1 0,0.9 0.1,1.5l0.5,6.4 1.1,0-0.8,-8.7-1.6,0-1.7,5.8c-0.2,0.7-0.3,1.3-0.3,1.4 0,-0.1-0.1,-0.7-0.4,-1.5l-1.7,-5.7zm23.9,0-1.3,0 0,8.7 1.1,0-0.1,-5.1c0,-1.1-0.1,-2.4-0.1,-2.4 0,0 0.5,1 1,2.1l3,5.3 1.2,0 0,-8.7-1.1,0 0,4.8c0,1.2 0.1,2.6 0.1,2.7 0,-0.1-0.4,-1-0.9,-1.8zm42.8,-13.4 0,-14.3-4.3,0 0,13.6c0,1.1 0,1.4-0.1,1.9-0.2,1.6-1.4,2.5-3.2,2.5-1.4,0-2.4,-0.5-2.9,-1.5-0.2,-0.5-0.4,-1.2-0.4,-2.5l0,-14-4.4,0 0,14.8c0,2 0.2,2.9 0.9,4 1.2,1.9 3.6,2.8 6.8,2.8 4.6,0 6.7,-2.3 7.2,-4 0.4,-0.9 0.4,-1.3 0.4,-3.3" /><path d="m162.3,46.2 5.1,-21.5-4.5,0-1.7,8.1c-0.5,2.1-1.1,6.4-1.2,7.1 0,0-0.5,-3.6-0.9,-5.6l-2,-9.5-4.7,0-1.9,8.6c-0.6,2.9-1,6-1.1,6.8 0,0-0.3,-3-1.1,-7l-1.8,-8.4-4.5,0 5.1,21.5 4.9,0 1.8,-8.7c0.6,-2.8 0.9,-5.5 1,-6 0.1,0.8 0.4,3.4 1,6.1l1.9,8.7 4.6,0z" id="w" /><use xlink:href="#w" transform="translate(27.2,0)" /><rect x="63.7" y="0" width="2" height="4.6" /><rect x="60.4" y="6.4" width="8.7" height="2.2" /><rect x="57.4" y="15.8" width="14.7" height="4.6" /><rect x="0" y="24.8" width="50.3" height="4.6" id="a" /><use xlink:href="#a" transform="translate(79.2,0)" /><rect x="0" y="37.6" width="129.6" height="2.2" /><rect x="0" y="56.6" width="129.6" height="4.6" /></svg>