<?xml version="1.0" encoding="utf-8"?>
<!-- Generator: Adobe Illustrator 24.0.2, SVG Export Plug-In . SVG Version: 6.00 Build 0)  -->
<svg version="1.1" id="Ebene_1" xmlns="http://www.w3.org/2000/svg" xmlns:xlink="http://www.w3.org/1999/xlink" x="0px" y="0px"
	 viewBox="0 0 319.6 45.1" style="enable-background:new 0 0 319.6 45.1;" xml:space="preserve">
<style type="text/css">
	.st0{fill:#A21E3B;}
</style>
<g>
	<path class="st0" d="M4.7,8.4c0-3.2,0-3.8,0-4.5c0-0.7-0.2-1-0.9-1.2c-0.2,0-0.5-0.1-0.7-0.1c-0.1,0-0.2,0-0.2-0.1
		c0-0.1,0.1-0.2,0.3-0.2c0.5,0,1,0,1.5,0l0.9,0c0.1,0,4.3,0,4.8,0c0.4,0,0.7-0.1,0.9-0.1c0.1,0,0.2-0.1,0.3-0.1
		c0.1,0,0.1,0.1,0.1,0.2c0,0.1-0.1,0.4-0.2,1c0,0.2-0.1,1.1-0.1,1.4c0,0.1-0.1,0.2-0.1,0.2C11.1,5,11,4.9,11,4.7
		c0-0.1,0-0.5-0.1-0.7c-0.1-0.3-0.4-0.6-1.5-0.7c-0.4,0-2.6-0.1-2.8-0.1c-0.1,0-0.1,0.1-0.1,0.2v5.7c0,0.1,0,0.2,0.1,0.2
		c0.3,0,2.8,0,3.3,0c0.5,0,0.8-0.1,1-0.3c0.1-0.2,0.2-0.3,0.3-0.3c0.1,0,0.1,0,0.1,0.2c0,0.1-0.1,0.5-0.2,1.2c0,0.4-0.1,1.2-0.1,1.3
		c0,0.2,0,0.4-0.1,0.4c-0.1,0-0.1-0.1-0.1-0.2c0-0.2,0-0.4-0.1-0.7c-0.1-0.3-0.3-0.6-1.1-0.7c-0.6-0.1-2.6-0.1-3-0.1
		c-0.1,0-0.1,0.1-0.1,0.1v1.8c0,0.7,0,3.1,0,3.6c0.1,1.4,0.4,1.7,2.4,1.7c0.5,0,1.5,0,2-0.2c0.5-0.2,0.8-0.6,0.9-1.5
		c0-0.2,0.1-0.3,0.2-0.3c0.1,0,0.1,0.2,0.1,0.3c0,0.2-0.2,1.6-0.3,2c-0.1,0.5-0.3,0.5-1.1,0.5c-1.6,0-2.7,0-3.5-0.1
		c-0.8,0-1.3-0.1-1.6-0.1c0,0-0.4,0-0.8,0c-0.4,0-0.9,0-1.2,0c-0.2,0-0.3,0-0.3-0.2c0-0.1,0-0.1,0.2-0.1c0.2,0,0.4,0,0.6-0.1
		c0.4-0.1,0.5-0.5,0.6-1.1c0.1-0.9,0.1-2.5,0.1-4.5V8.4z"/>
	<path class="st0" d="M21.5,15.8c1.1-2.4,3.5-8.4,3.8-9.7c0.1-0.3,0.2-0.5,0.2-0.7s-0.1-0.3-0.2-0.4C25.1,5,24.9,5,24.6,5
		c-0.1,0-0.2-0.1-0.2-0.1c0-0.1,0.1-0.1,0.4-0.1c0.7,0,1.6,0,1.8,0c0.1,0,0.9,0,1.4,0c0.2,0,0.3,0,0.3,0.1C28.4,5,28.3,5,28.2,5
		c-0.1,0-0.5,0-0.9,0.2c-0.2,0.2-0.5,0.4-1,1.6c-0.2,0.5-1.1,2.6-2,4.8c-1.1,2.6-1.9,4.5-2.4,5.4c-0.5,1.1-0.6,1.3-0.8,1.3
		c-0.2,0-0.3-0.2-0.7-1.1L15.9,6.4c-0.4-1-0.7-1.2-1.3-1.3C14.4,5,14,5,13.9,5c-0.1,0-0.1-0.1-0.1-0.2c0-0.1,0.2-0.1,0.5-0.1
		c0.9,0,1.9,0,2.1,0c0.2,0,1,0,1.7,0c0.3,0,0.5,0,0.5,0.1C18.6,5,18.6,5,18.4,5c-0.2,0-0.5,0-0.7,0.1c-0.2,0.1-0.2,0.2-0.2,0.3
		c0,0.2,0.2,0.8,0.5,1.5L21.5,15.8z"/>
	<path class="st0" d="M32.4,5.1c0.2-0.6,0.3-0.7,0.4-0.7c0.2,0,0.2,0.2,0.4,0.6c0.3,0.7,3.3,8,4.4,10.7c0.7,1.6,1.2,1.8,1.6,1.9
		c0.3,0.1,0.5,0.1,0.7,0.1c0.1,0,0.2,0,0.2,0.1s-0.2,0.1-0.4,0.1c-0.3,0-1.6,0-2.9,0c-0.4,0-0.6,0-0.6-0.1c0-0.1,0-0.1,0.1-0.1
		c0.1,0,0.3-0.2,0.2-0.5l-1.6-4.1c0-0.1-0.1-0.1-0.2-0.1h-4.2c-0.1,0-0.1,0-0.2,0.1l-1,2.8C29.1,16.6,29,17,29,17.4
		c0,0.4,0.3,0.5,0.6,0.5h0.2c0.1,0,0.2,0.1,0.2,0.1c0,0.1-0.1,0.1-0.3,0.1c-0.4,0-1.4-0.1-1.6-0.1c-0.2,0-1.1,0.1-1.9,0.1
		c-0.2,0-0.4,0-0.4-0.1c0-0.1,0.1-0.1,0.2-0.1c0.1,0,0.4,0,0.5,0c0.8-0.1,1.2-0.7,1.5-1.6L32.4,5.1z M34.5,12.5c0.1,0,0.1,0,0.1-0.1
		l-1.8-4.8c-0.1-0.3-0.2-0.3-0.3,0l-1.7,4.8c0,0.1,0,0.1,0.1,0.1H34.5z"/>
	<path class="st0" d="M43.4,15.7c0,1.5,0.2,1.9,0.7,2c0.3,0.1,0.7,0.1,0.9,0.1c0.1,0,0.1,0.1,0.1,0.1c0,0.1-0.1,0.1-0.3,0.1
		c-1,0-1.8-0.1-1.9-0.1c-0.2,0-0.9,0.1-1.8,0.1c-0.2,0-0.3,0-0.3-0.1c0-0.1,0.1-0.1,0.1-0.1c0.1,0,0.5,0,0.7-0.1
		c0.5-0.1,0.5-0.6,0.5-2.2V5.4c0-0.7,0.1-0.9,0.2-0.9c0.2,0,0.5,0.4,0.7,0.5c0.3,0.3,3,3.1,5.8,6c1.8,1.9,3.8,4,4.3,4.6l-0.2-8.9
		c0-1.1-0.1-1.5-0.7-1.6C52.1,5.1,51.7,5,51.6,5c-0.1,0-0.1-0.1-0.1-0.2c0-0.1,0.1-0.1,0.4-0.1c0.8,0,1.7,0,1.9,0s0.8,0,1.6,0
		c0.2,0,0.3,0,0.3,0.1c0,0.1-0.1,0.2-0.2,0.2c-0.1,0-0.2,0-0.4,0c-0.6,0.1-0.6,0.5-0.6,1.5l0,10.4c0,1.2,0,1.3-0.1,1.3
		c-0.2,0-0.4-0.1-1.4-1.1c-0.2-0.2-2.8-2.8-4.8-4.8c-2.1-2.2-4.2-4.4-4.7-5L43.4,15.7z"/>
	<path class="st0" d="M68.3,13.6c0-1.4,0-1.6-0.8-1.8c-0.1,0-0.5,0-0.6,0c-0.1,0-0.1-0.1-0.1-0.1c0-0.1,0.1-0.1,0.3-0.1
		c0.8,0,2.1,0,2.2,0c0.1,0,1.2,0,1.8,0c0.2,0,0.3,0,0.3,0.1c0,0.1-0.1,0.1-0.1,0.1c-0.1,0-0.3,0-0.5,0c-0.5,0.1-0.6,0.4-0.7,1
		c0,0.6,0,1.1,0,1.8v2c0,0.8,0,0.8-0.2,1c-1.2,0.6-2.8,0.8-3.9,0.8c-1.4,0-4-0.2-6-1.9c-1.1-0.9-2.2-2.8-2.2-5
		c0-2.8,1.4-4.8,3.1-5.8c1.6-1,3.5-1.1,4.9-1.1c1.2,0,2.5,0.2,2.8,0.3c0.4,0.1,1,0.2,1.5,0.2C70,5,70,5.1,70,5.2
		c0,0.2-0.1,0.7-0.1,2.5c0,0.3-0.1,0.4-0.2,0.4c-0.1,0-0.1-0.1-0.1-0.3c0-0.2-0.1-0.7-0.4-1.2c-0.5-0.7-1.9-1.4-4.2-1.4
		c-1.1,0-2.4,0.1-3.8,1.1c-1.1,0.8-1.8,2.4-1.8,4.5c0,2.5,1.3,4.3,1.9,4.9c1.5,1.4,3,1.9,4.7,1.9c0.6,0,1.5-0.1,2-0.3
		c0.2-0.1,0.4-0.2,0.4-0.5V13.6z"/>
	<path class="st0" d="M75.5,9.9c0-2.7,0-3.2,0-3.8c0-0.6-0.1-0.9-0.7-1c-0.1,0-0.5,0-0.6,0C74,5,73.9,5,73.9,4.9
		c0-0.1,0.1-0.1,0.3-0.1c0.8,0,2,0,2.1,0c0.1,0,4,0,4.4,0c0.4,0,0.7-0.1,0.8-0.1c0.1,0,0.2-0.1,0.2-0.1c0.1,0,0.1,0.1,0.1,0.2
		c0,0.1-0.1,0.3-0.1,0.8c0,0.2-0.1,1-0.1,1.2c0,0.1-0.1,0.2-0.2,0.2c-0.1,0-0.1-0.1-0.1-0.2c0-0.1,0-0.4-0.1-0.6
		c-0.1-0.3-0.3-0.4-1.3-0.5c-0.3,0-2.4-0.1-2.6-0.1c-0.1,0-0.1,0.1-0.1,0.2v4.8c0,0.1,0,0.2,0.1,0.2c0.2,0,2.6,0,3.1,0
		c0.4,0,0.7-0.1,0.9-0.2c0.1-0.1,0.2-0.2,0.3-0.2s0.1,0,0.1,0.1c0,0.1-0.1,0.4-0.1,1c0,0.4-0.1,1-0.1,1.1c0,0.1,0,0.3-0.2,0.3
		c-0.1,0-0.1-0.1-0.1-0.2c0-0.2,0-0.4-0.1-0.6c-0.1-0.2-0.2-0.5-0.9-0.5c-0.5-0.1-2.5-0.1-2.8-0.1c-0.1,0-0.1,0.1-0.1,0.1V13
		c0,0.6,0,2.7,0,3c0,1.2,0.4,1.4,2.2,1.4c0.5,0,1.4,0,1.8-0.2c0.5-0.2,0.7-0.5,0.8-1.2c0-0.2,0.1-0.3,0.2-0.3s0.1,0.1,0.1,0.3
		c0,0.1-0.1,1.3-0.2,1.7c-0.1,0.5-0.3,0.5-1,0.5c-1.4,0-2.4,0-3.2-0.1c-0.8,0-1.2,0-1.5,0c0,0-0.4,0-0.8,0c-0.4,0-0.8,0-1.1,0
		c-0.2,0-0.3,0-0.3-0.1c0-0.1,0-0.1,0.1-0.1c0.2,0,0.4-0.1,0.6-0.1c0.4-0.1,0.4-0.4,0.5-0.9c0.1-0.7,0.1-2.1,0.1-3.8V9.9z"/>
	<path class="st0" d="M88.6,13c0,2.6,0,3.7,0.4,4c0.3,0.3,1,0.4,2.4,0.4c1,0,1.8,0,2.2-0.5c0.2-0.3,0.4-0.6,0.4-1
		c0-0.1,0.1-0.2,0.2-0.2c0.1,0,0.1,0.1,0.1,0.3c0,0.2-0.1,1.2-0.3,1.8c-0.1,0.4-0.2,0.5-1.2,0.5c-1.3,0-2.3,0-3.2-0.1
		c-0.8,0-1.5,0-2,0c-0.1,0-0.4,0-0.7,0c-0.4,0-0.8,0-1.1,0c-0.2,0-0.3,0-0.3-0.1c0-0.1,0-0.1,0.1-0.1c0.2,0,0.4,0,0.6-0.1
		c0.4-0.1,0.4-0.4,0.5-0.9c0.1-0.7,0.1-2.1,0.1-3.8V9.9c0-2.7,0-3.2,0-3.8c0-0.6-0.1-0.9-0.7-1c-0.1,0-0.5,0-0.6,0
		c-0.1,0-0.1-0.1-0.1-0.1c0-0.1,0.1-0.1,0.3-0.1c0.8,0,2,0,2.1,0c0.1,0,1.5,0,2,0c0.2,0,0.3,0,0.3,0.1C90,5,90,5,89.9,5
		c-0.1,0-0.4,0-0.6,0c-0.5,0.1-0.6,0.4-0.7,1c0,0.6,0,1.1,0,3.8V13z"/>
	<path class="st0" d="M99.7,13c0,1.7,0,3.1,0.1,3.8c0.1,0.5,0.1,0.9,0.7,0.9c0.3,0,0.7,0.1,0.8,0.1c0.1,0,0.1,0.1,0.1,0.1
		c0,0.1-0.1,0.1-0.3,0.1c-1,0-2.2-0.1-2.3-0.1c-0.1,0-1.2,0.1-1.8,0.1c-0.2,0-0.3,0-0.3-0.1c0-0.1,0-0.1,0.1-0.1
		c0.2,0,0.4,0,0.6-0.1c0.4-0.1,0.4-0.4,0.5-0.9c0.1-0.7,0.1-2.1,0.1-3.8V9.9c0-2.7,0-3.2,0-3.8c0-0.6-0.2-0.9-0.6-1
		C97.2,5.1,97,5,96.9,5c-0.1,0-0.1-0.1-0.1-0.1c0-0.1,0.1-0.1,0.3-0.1c0.6,0,1.7,0,1.9,0c0.1,0,1.3,0,1.8,0c0.2,0,0.3,0,0.3,0.1
		c0,0.1-0.1,0.1-0.1,0.1c-0.1,0-0.3,0-0.5,0c-0.5,0.1-0.6,0.4-0.6,1c0,0.6,0,1.1,0,3.8V13z"/>
	<path class="st0" d="M104.6,17.9c-0.2-0.1-0.3-0.2-0.3-0.7c0-0.9,0.1-1.6,0.1-1.9c0-0.2,0-0.3,0.1-0.3c0.1,0,0.2,0.1,0.2,0.2
		s0,0.4,0.1,0.6c0.3,1.3,1.7,1.7,2.9,1.7c1.8,0,2.7-1,2.7-2.4c0-1.3-0.7-1.9-2.3-3.1l-0.8-0.6c-2-1.5-2.6-2.6-2.6-3.8
		c0-2.1,1.6-3.3,4.1-3.3c0.7,0,1.5,0.1,1.9,0.2c0.4,0.1,0.5,0.1,0.6,0.1s0.2,0,0.2,0.1c0,0.1-0.1,0.7-0.1,1.9c0,0.3,0,0.4-0.1,0.4
		c-0.1,0-0.1-0.1-0.2-0.2c0-0.2-0.2-0.7-0.3-0.9c-0.1-0.2-0.7-0.9-2.4-0.9c-1.3,0-2.4,0.7-2.4,1.9c0,1.1,0.6,1.8,2.4,3l0.5,0.4
		c2.2,1.5,3,2.7,3,4.3c0,1-0.4,2.2-1.7,3c-0.8,0.5-1.9,0.6-2.9,0.6C106.4,18.4,105.4,18.2,104.6,17.9z"/>
	<path class="st0" d="M117.2,16.5c-1.8-1.5-2.2-3.6-2.2-5.2c0-1.2,0.4-3.2,2.1-4.8c1.1-1.1,2.8-1.9,5.6-1.9c0.7,0,1.8,0.1,2.7,0.2
		c0.7,0.1,1.3,0.2,1.9,0.3c0.2,0,0.2,0.1,0.2,0.2c0,0.1,0,0.4-0.1,1c0,0.6,0,1.6,0,1.8c0,0.3-0.1,0.4-0.2,0.4
		c-0.1,0-0.1-0.1-0.1-0.4c0-0.7-0.3-1.4-0.8-1.8c-0.6-0.5-2-1-3.6-1c-2.4,0-3.5,0.6-4.1,1.2c-1.4,1.2-1.6,2.8-1.6,4.6
		c0,3.4,2.7,6.4,6.6,6.4c1.4,0,2.3-0.1,3-0.8c0.4-0.4,0.6-1.1,0.7-1.5c0-0.2,0.1-0.2,0.2-0.2c0.1,0,0.2,0.1,0.2,0.2
		c0,0.1-0.2,1.7-0.4,2.3c-0.1,0.3-0.1,0.4-0.5,0.5c-0.7,0.3-2.1,0.4-3.3,0.4C120.5,18.4,118.6,17.7,117.2,16.5z"/>
	<path class="st0" d="M142.9,13c0,1.7,0,3.1,0.1,3.8c0.1,0.5,0.1,0.9,0.7,0.9c0.2,0,0.7,0.1,0.8,0.1c0.1,0,0.2,0.1,0.2,0.1
		c0,0.1-0.1,0.1-0.3,0.1c-1,0-2.2-0.1-2.3-0.1c-0.1,0-1.3,0.1-1.8,0.1c-0.2,0-0.3,0-0.3-0.1c0-0.1,0-0.1,0.1-0.1
		c0.2,0,0.4,0,0.5-0.1c0.4-0.1,0.4-0.4,0.5-1c0.1-0.7,0.1-2.1,0.1-3.8v-1.8c0-0.1,0-0.1-0.1-0.1h-7.6c-0.1,0-0.1,0-0.1,0.1V13
		c0,1.7,0,3.1,0.1,3.8c0.1,0.5,0.1,0.9,0.7,0.9c0.3,0,0.7,0.1,0.8,0.1c0.1,0,0.1,0.1,0.1,0.1c0,0.1-0.1,0.1-0.3,0.1
		c-1,0-2.2-0.1-2.3-0.1c-0.1,0-1.3,0.1-1.8,0.1c-0.2,0-0.3,0-0.3-0.1c0-0.1,0-0.1,0.1-0.1c0.2,0,0.4,0,0.6-0.1
		c0.4-0.1,0.4-0.4,0.5-0.9c0.1-0.7,0.1-2.1,0.1-3.8V9.9c0-2.7,0-3.2,0-3.8c0-0.6-0.1-0.9-0.7-1c-0.1,0-0.5,0-0.6,0
		c-0.1,0-0.1-0.1-0.1-0.1c0-0.1,0.1-0.1,0.3-0.1c0.8,0,2,0,2.1,0c0.1,0,1.2,0,1.8,0c0.2,0,0.3,0,0.3,0.1c0,0.1-0.1,0.1-0.1,0.1
		c-0.1,0-0.3,0-0.5,0c-0.5,0.1-0.6,0.4-0.6,1c0,0.6,0,1.1,0,3.8v0.4c0,0.1,0,0.1,0.1,0.1h7.6c0.1,0,0.1,0,0.1-0.1V9.9
		c0-2.7,0-3.3,0-3.8c0-0.6-0.1-0.9-0.7-1c-0.1,0-0.5,0-0.6,0c-0.1,0-0.1-0.1-0.1-0.1c0-0.1,0.1-0.1,0.3-0.1c0.8,0,2,0,2.1,0
		c0.1,0,1.3,0,1.8,0c0.2,0,0.3,0,0.3,0.1c0,0.1-0.1,0.1-0.2,0.1c-0.1,0-0.2,0-0.5,0c-0.5,0.1-0.6,0.4-0.6,1c0,0.6,0,1.1,0,3.8V13z"
		/>
	<path class="st0" d="M152.9,11.6c0.4,0,0.6,0,0.6,0.2c0,0.2-0.4,0.3-0.7,0.4c-0.6,0.1-4.2,0.6-4.9,0.8c-0.4,0.1-0.7,0.3-0.9,0.3
		c-0.1,0-0.1-0.1-0.1-0.3l0.3-1.2c0-0.1,0.1-0.2,0.5-0.2H152.9z"/>
	<path class="st0" d="M162.4,12.1c0,2,0,3.6,0.1,4.5c0.1,0.6,0.2,1.1,0.8,1.1c0.3,0,0.7,0.1,0.9,0.1c0.1,0,0.2,0.1,0.2,0.1
		c0,0.1-0.1,0.2-0.3,0.2c-1.1,0-2.5-0.1-2.6-0.1c-0.1,0-1.4,0.1-2,0.1c-0.2,0-0.3,0-0.3-0.2c0-0.1,0-0.1,0.2-0.1
		c0.2,0,0.4,0,0.6-0.1c0.4-0.1,0.5-0.5,0.6-1.1c0.1-0.9,0.1-2.5,0.1-4.5V3.3l-3.1,0c-1.3,0-1.8,0.2-2.1,0.7
		c-0.2,0.4-0.3,0.5-0.4,0.6c-0.1,0.2-0.1,0.2-0.2,0.2c-0.1,0-0.1-0.1-0.1-0.2c0-0.2,0.4-2,0.5-2.2c0-0.1,0.1-0.4,0.2-0.4
		c0.1,0,0.4,0.2,0.9,0.2c0.6,0.1,1.4,0.1,1.6,0.1h7.8c0.7,0,1.1,0,1.5-0.1c0.3,0,0.5-0.1,0.6-0.1c0.1,0,0.1,0.1,0.1,0.2
		c0,0.6-0.1,2.1-0.1,2.3c0,0.2-0.1,0.3-0.1,0.3c-0.1,0-0.1-0.1-0.2-0.4l0-0.2c-0.1-0.6-0.6-1.1-2.6-1.1l-2.6,0V12.1z"/>
	<path class="st0" d="M182.6,13c0,1.7,0,3.1,0.1,3.8c0.1,0.5,0.1,0.9,0.7,0.9c0.3,0,0.7,0.1,0.8,0.1c0.1,0,0.2,0.1,0.2,0.1
		c0,0.1-0.1,0.1-0.3,0.1c-1,0-2.2-0.1-2.3-0.1c-0.1,0-1.3,0.1-1.8,0.1c-0.2,0-0.3,0-0.3-0.1c0-0.1,0-0.1,0.1-0.1
		c0.2,0,0.4,0,0.5-0.1c0.4-0.1,0.4-0.4,0.5-1c0.1-0.7,0.1-2.1,0.1-3.8v-1.8c0-0.1,0-0.1-0.1-0.1h-7.6c-0.1,0-0.1,0-0.1,0.1V13
		c0,1.7,0,3.1,0.1,3.8c0.1,0.5,0.1,0.9,0.7,0.9c0.3,0,0.7,0.1,0.8,0.1c0.1,0,0.1,0.1,0.1,0.1c0,0.1-0.1,0.1-0.3,0.1
		c-1,0-2.2-0.1-2.3-0.1c-0.1,0-1.3,0.1-1.8,0.1c-0.2,0-0.3,0-0.3-0.1c0-0.1,0-0.1,0.1-0.1c0.2,0,0.4,0,0.6-0.1
		c0.4-0.1,0.4-0.4,0.5-0.9c0.1-0.7,0.1-2.1,0.1-3.8V9.9c0-2.7,0-3.2,0-3.8c0-0.6-0.1-0.9-0.7-1c-0.1,0-0.5,0-0.6,0
		c-0.1,0-0.1-0.1-0.1-0.1c0-0.1,0.1-0.1,0.3-0.1c0.8,0,2,0,2.1,0c0.1,0,1.2,0,1.8,0c0.2,0,0.3,0,0.3,0.1c0,0.1-0.1,0.1-0.1,0.1
		c-0.1,0-0.3,0-0.5,0c-0.5,0.1-0.6,0.4-0.6,1c0,0.6,0,1.1,0,3.8v0.4c0,0.1,0,0.1,0.1,0.1h7.6c0.1,0,0.1,0,0.1-0.1V9.9
		c0-2.7,0-3.3,0-3.8c0-0.6-0.1-0.9-0.7-1c-0.1,0-0.5,0-0.6,0c-0.1,0-0.1-0.1-0.1-0.1c0-0.1,0.1-0.1,0.3-0.1c0.8,0,2,0,2.1,0
		c0.1,0,1.3,0,1.8,0c0.2,0,0.3,0,0.3,0.1c0,0.1-0.1,0.1-0.2,0.1c-0.1,0-0.2,0-0.5,0c-0.5,0.1-0.6,0.4-0.6,1c0,0.6,0,1.1,0,3.8V13z"
		/>
	<path class="st0" d="M188.7,9.9c0-2.7,0-3.2,0-3.8c0-0.6-0.1-0.9-0.7-1c-0.1,0-0.5,0-0.6,0c-0.1,0-0.1-0.1-0.1-0.1
		c0-0.1,0.1-0.1,0.3-0.1c0.8,0,2,0,2.1,0c0.1,0,4,0,4.4,0c0.4,0,0.7-0.1,0.8-0.1c0.1,0,0.2-0.1,0.3-0.1c0.1,0,0.1,0.1,0.1,0.2
		c0,0.1-0.1,0.3-0.1,0.8c0,0.2-0.1,1-0.1,1.2c0,0.1-0.1,0.2-0.2,0.2c-0.1,0-0.1-0.1-0.1-0.2c0-0.1,0-0.4-0.1-0.6
		c-0.1-0.3-0.3-0.4-1.3-0.5c-0.3,0-2.4-0.1-2.6-0.1c-0.1,0-0.1,0.1-0.1,0.2v4.8c0,0.1,0,0.2,0.1,0.2c0.2,0,2.6,0,3.1,0
		c0.4,0,0.7-0.1,0.9-0.2c0.1-0.1,0.2-0.2,0.3-0.2c0.1,0,0.1,0,0.1,0.1c0,0.1-0.1,0.4-0.1,1c0,0.4-0.1,1-0.1,1.1c0,0.1,0,0.3-0.2,0.3
		c-0.1,0-0.1-0.1-0.1-0.2c0-0.2,0-0.4-0.1-0.6c-0.1-0.2-0.2-0.5-0.9-0.5c-0.5-0.1-2.5-0.1-2.8-0.1c-0.1,0-0.1,0.1-0.1,0.1V13
		c0,0.6,0,2.7,0,3c0,1.2,0.4,1.4,2.2,1.4c0.5,0,1.4,0,1.8-0.2c0.5-0.2,0.7-0.5,0.8-1.2c0-0.2,0.1-0.3,0.2-0.3c0.1,0,0.1,0.1,0.1,0.3
		c0,0.1-0.1,1.3-0.2,1.7c-0.1,0.5-0.3,0.5-1,0.5c-1.4,0-2.4,0-3.2-0.1c-0.8,0-1.2,0-1.5,0c0,0-0.4,0-0.8,0c-0.4,0-0.8,0-1.1,0
		c-0.2,0-0.3,0-0.3-0.1c0-0.1,0-0.1,0.1-0.1c0.2,0,0.4-0.1,0.6-0.1c0.4-0.1,0.4-0.4,0.5-0.9c0.1-0.7,0.1-2.1,0.1-3.8V9.9z"/>
	<path class="st0" d="M205.3,4.5c4.1,0,7.2,2.5,7.2,6.6c0,4-2.9,7.2-7.3,7.2c-5,0-7.2-3.8-7.2-6.9C198,8.6,200.2,4.5,205.3,4.5z
		 M205.7,17.6c1.6,0,5-0.9,5-6c0-4.2-2.6-6.5-5.5-6.5c-3.1,0-5.3,1.9-5.3,5.8C199.9,15.1,202.4,17.6,205.7,17.6z"/>
	<path class="st0" d="M218,13c0,2.6,0,3.7,0.4,4c0.3,0.3,1,0.4,2.4,0.4c1,0,1.8,0,2.2-0.5c0.2-0.3,0.4-0.6,0.4-1
		c0-0.1,0.1-0.2,0.2-0.2c0.1,0,0.1,0.1,0.1,0.3c0,0.2-0.1,1.2-0.3,1.8c-0.1,0.4-0.2,0.5-1.2,0.5c-1.3,0-2.3,0-3.2-0.1
		c-0.8,0-1.5,0-2,0c-0.1,0-0.4,0-0.7,0c-0.4,0-0.8,0-1.1,0c-0.2,0-0.3,0-0.3-0.1c0-0.1,0-0.1,0.1-0.1c0.2,0,0.4,0,0.6-0.1
		c0.4-0.1,0.4-0.4,0.5-0.9c0.1-0.7,0.1-2.1,0.1-3.8V9.9c0-2.7,0-3.2,0-3.8c0-0.6-0.1-0.9-0.7-1c-0.1,0-0.5,0-0.6,0
		c-0.1,0-0.1-0.1-0.1-0.1c0-0.1,0.1-0.1,0.3-0.1c0.8,0,2,0,2.1,0c0.1,0,1.5,0,2,0c0.2,0,0.3,0,0.3,0.1c0,0.1-0.1,0.1-0.1,0.1
		c-0.1,0-0.4,0-0.6,0c-0.5,0.1-0.6,0.4-0.7,1c0,0.6,0,1.1,0,3.8V13z"/>
	<path class="st0" d="M232.2,4.5c4.1,0,7.2,2.5,7.2,6.6c0,4-2.9,7.2-7.3,7.2c-5,0-7.2-3.8-7.2-6.9C225,8.6,227.2,4.5,232.2,4.5z
		 M232.6,17.6c1.6,0,5-0.9,5-6c0-4.2-2.6-6.5-5.5-6.5c-3.1,0-5.3,1.9-5.3,5.8C226.8,15.1,229.3,17.6,232.6,17.6z"/>
	<path class="st0" d="M252.4,13.6c0-1.4,0-1.6-0.8-1.8c-0.1,0-0.5,0-0.6,0c-0.1,0-0.1-0.1-0.1-0.1c0-0.1,0.1-0.1,0.3-0.1
		c0.8,0,2.1,0,2.2,0c0.1,0,1.2,0,1.8,0c0.2,0,0.3,0,0.3,0.1c0,0.1-0.1,0.1-0.1,0.1c-0.1,0-0.2,0-0.5,0c-0.5,0.1-0.6,0.4-0.7,1
		c0,0.6,0,1.1,0,1.8v2c0,0.8,0,0.8-0.3,1c-1.2,0.6-2.8,0.8-3.9,0.8c-1.4,0-4-0.2-6-1.9c-1.1-0.9-2.2-2.8-2.2-5
		c0-2.8,1.4-4.8,3.1-5.8c1.6-1,3.5-1.1,4.9-1.1c1.2,0,2.5,0.2,2.8,0.3c0.4,0.1,1,0.2,1.5,0.2c0.2,0,0.2,0.1,0.2,0.2
		c0,0.2-0.1,0.7-0.1,2.5c0,0.3-0.1,0.4-0.2,0.4c-0.1,0-0.1-0.1-0.1-0.3c0-0.2-0.1-0.7-0.4-1.2c-0.5-0.7-1.9-1.4-4.2-1.4
		c-1.1,0-2.4,0.1-3.8,1.1c-1.1,0.8-1.8,2.4-1.8,4.5c0,2.5,1.3,4.3,1.9,4.9c1.5,1.4,3,1.9,4.7,1.9c0.6,0,1.5-0.1,2-0.3
		c0.2-0.1,0.4-0.2,0.4-0.5V13.6z"/>
	<path class="st0" d="M261.3,13c0,1.7,0,3.1,0.1,3.8c0.1,0.5,0.1,0.9,0.7,0.9c0.3,0,0.7,0.1,0.8,0.1c0.1,0,0.1,0.1,0.1,0.1
		c0,0.1-0.1,0.1-0.3,0.1c-1,0-2.2-0.1-2.3-0.1c-0.1,0-1.2,0.1-1.8,0.1c-0.2,0-0.3,0-0.3-0.1c0-0.1,0-0.1,0.1-0.1
		c0.2,0,0.4,0,0.6-0.1c0.4-0.1,0.4-0.4,0.5-0.9c0.1-0.7,0.1-2.1,0.1-3.8V9.9c0-2.7,0-3.2,0-3.8c0-0.6-0.2-0.9-0.6-1
		c-0.2,0-0.4-0.1-0.6-0.1c-0.1,0-0.1-0.1-0.1-0.1c0-0.1,0.1-0.1,0.3-0.1c0.6,0,1.7,0,1.9,0c0.1,0,1.3,0,1.8,0c0.2,0,0.3,0,0.3,0.1
		c0,0.1-0.1,0.1-0.1,0.1c-0.1,0-0.3,0-0.5,0c-0.5,0.1-0.6,0.4-0.6,1c0,0.6,0,1.1,0,3.8V13z"/>
	<path class="st0" d="M266.2,17.9c-0.3-0.1-0.3-0.2-0.3-0.7c0-0.9,0.1-1.6,0.1-1.9c0-0.2,0-0.3,0.1-0.3c0.1,0,0.2,0.1,0.2,0.2
		s0,0.4,0.1,0.6c0.3,1.3,1.7,1.7,2.9,1.7c1.8,0,2.7-1,2.7-2.4c0-1.3-0.7-1.9-2.3-3.1l-0.8-0.6c-2-1.5-2.6-2.6-2.6-3.8
		c0-2.1,1.6-3.3,4.1-3.3c0.7,0,1.5,0.1,1.9,0.2c0.4,0.1,0.5,0.1,0.6,0.1s0.2,0,0.2,0.1c0,0.1-0.1,0.7-0.1,1.9c0,0.3,0,0.4-0.1,0.4
		s-0.1-0.1-0.2-0.2c0-0.2-0.2-0.7-0.3-0.9c-0.1-0.2-0.7-0.9-2.4-0.9c-1.3,0-2.4,0.7-2.4,1.9c0,1.1,0.6,1.8,2.4,3l0.5,0.4
		c2.2,1.5,3,2.7,3,4.3c0,1-0.4,2.2-1.7,3c-0.8,0.5-1.9,0.6-2.9,0.6C268,18.4,266.9,18.2,266.2,17.9z"/>
	<path class="st0" d="M278.8,16.5c-1.8-1.5-2.2-3.6-2.2-5.2c0-1.2,0.4-3.2,2.1-4.8c1.1-1.1,2.8-1.9,5.6-1.9c0.7,0,1.8,0.1,2.7,0.2
		c0.7,0.1,1.3,0.2,1.9,0.3c0.2,0,0.2,0.1,0.2,0.2c0,0.1,0,0.4-0.1,1c0,0.6,0,1.6,0,1.8c0,0.3-0.1,0.4-0.2,0.4
		c-0.1,0-0.1-0.1-0.1-0.4c0-0.7-0.3-1.4-0.8-1.8c-0.6-0.5-2-1-3.6-1c-2.3,0-3.5,0.6-4.1,1.2c-1.4,1.2-1.6,2.8-1.6,4.6
		c0,3.4,2.7,6.4,6.6,6.4c1.4,0,2.3-0.1,3-0.8c0.4-0.4,0.6-1.1,0.7-1.5c0-0.2,0.1-0.2,0.2-0.2c0.1,0,0.2,0.1,0.2,0.2
		c0,0.1-0.2,1.7-0.4,2.3c-0.1,0.3-0.1,0.4-0.5,0.5c-0.7,0.3-2.1,0.4-3.3,0.4C282,18.4,280.2,17.7,278.8,16.5z"/>
	<path class="st0" d="M304.5,13c0,1.7,0,3.1,0.1,3.8c0.1,0.5,0.1,0.9,0.7,0.9c0.3,0,0.7,0.1,0.8,0.1c0.1,0,0.2,0.1,0.2,0.1
		c0,0.1-0.1,0.1-0.3,0.1c-1,0-2.2-0.1-2.3-0.1c-0.1,0-1.3,0.1-1.8,0.1c-0.2,0-0.3,0-0.3-0.1c0-0.1,0-0.1,0.1-0.1
		c0.2,0,0.4,0,0.5-0.1c0.4-0.1,0.4-0.4,0.5-1c0.1-0.7,0.1-2.1,0.1-3.8v-1.8c0-0.1,0-0.1-0.1-0.1h-7.6c-0.1,0-0.1,0-0.1,0.1V13
		c0,1.7,0,3.1,0.1,3.8c0.1,0.5,0.1,0.9,0.7,0.9c0.3,0,0.7,0.1,0.8,0.1c0.1,0,0.1,0.1,0.1,0.1c0,0.1-0.1,0.1-0.3,0.1
		c-1,0-2.2-0.1-2.3-0.1c-0.1,0-1.3,0.1-1.8,0.1c-0.2,0-0.3,0-0.3-0.1c0-0.1,0-0.1,0.1-0.1c0.2,0,0.4,0,0.6-0.1
		c0.4-0.1,0.4-0.4,0.5-0.9c0.1-0.7,0.1-2.1,0.1-3.8V9.9c0-2.7,0-3.2,0-3.8c0-0.6-0.1-0.9-0.7-1c-0.1,0-0.5,0-0.6,0
		c-0.1,0-0.1-0.1-0.1-0.1c0-0.1,0.1-0.1,0.3-0.1c0.8,0,2,0,2.1,0c0.1,0,1.2,0,1.8,0c0.2,0,0.3,0,0.3,0.1c0,0.1-0.1,0.1-0.1,0.1
		c-0.1,0-0.3,0-0.5,0c-0.5,0.1-0.6,0.4-0.6,1c0,0.6,0,1.1,0,3.8v0.4c0,0.1,0,0.1,0.1,0.1h7.6c0.1,0,0.1,0,0.1-0.1V9.9
		c0-2.7,0-3.3,0-3.8c0-0.6-0.1-0.9-0.7-1c-0.1,0-0.5,0-0.6,0c-0.1,0-0.1-0.1-0.1-0.1c0-0.1,0.1-0.1,0.3-0.1c0.8,0,2,0,2.1,0
		c0.1,0,1.3,0,1.8,0c0.2,0,0.3,0,0.3,0.1c0,0.1-0.1,0.1-0.2,0.1c-0.1,0-0.2,0-0.5,0c-0.5,0.1-0.6,0.4-0.6,1c0,0.6,0,1.1,0,3.8V13z"
		/>
	<path class="st0" d="M310.5,9.9c0-2.7,0-3.2,0-3.8c0-0.6-0.1-0.9-0.7-1c-0.1,0-0.5,0-0.6,0C309.1,5,309,5,309,4.9
		c0-0.1,0.1-0.1,0.3-0.1c0.8,0,2,0,2.1,0c0.1,0,4,0,4.4,0c0.4,0,0.7-0.1,0.8-0.1c0.1,0,0.2-0.1,0.3-0.1c0.1,0,0.1,0.1,0.1,0.2
		c0,0.1-0.1,0.3-0.1,0.8c0,0.2-0.1,1-0.1,1.2c0,0.1-0.1,0.2-0.2,0.2c-0.1,0-0.1-0.1-0.1-0.2c0-0.1,0-0.4-0.1-0.6
		c-0.1-0.3-0.3-0.4-1.3-0.5c-0.3,0-2.4-0.1-2.6-0.1c-0.1,0-0.1,0.1-0.1,0.2v4.8c0,0.1,0,0.2,0.1,0.2c0.2,0,2.6,0,3.1,0
		c0.4,0,0.7-0.1,0.9-0.2c0.1-0.1,0.2-0.2,0.3-0.2c0.1,0,0.1,0,0.1,0.1c0,0.1-0.1,0.4-0.1,1c0,0.4-0.1,1-0.1,1.1c0,0.1,0,0.3-0.2,0.3
		c-0.1,0-0.1-0.1-0.1-0.2c0-0.2,0-0.4-0.1-0.6c-0.1-0.2-0.2-0.5-0.9-0.5c-0.5-0.1-2.5-0.1-2.8-0.1c-0.1,0-0.1,0.1-0.1,0.1V13
		c0,0.6,0,2.7,0,3c0,1.2,0.4,1.4,2.2,1.4c0.5,0,1.4,0,1.8-0.2c0.5-0.2,0.7-0.5,0.8-1.2c0-0.2,0.1-0.3,0.2-0.3c0.1,0,0.1,0.1,0.1,0.3
		c0,0.1-0.1,1.3-0.2,1.7c-0.1,0.5-0.3,0.5-1,0.5c-1.4,0-2.4,0-3.2-0.1c-0.8,0-1.2,0-1.5,0c0,0-0.4,0-0.8,0c-0.4,0-0.8,0-1.1,0
		c-0.2,0-0.3,0-0.3-0.1c0-0.1,0-0.1,0.1-0.1c0.2,0,0.4-0.1,0.6-0.1c0.4-0.1,0.4-0.4,0.5-0.9c0.1-0.7,0.1-2.1,0.1-3.8V9.9z"/>
	<path class="st0" d="M4.7,33.4c0-3.2,0-3.8,0-4.5c0-0.7-0.2-1-0.9-1.2c-0.2,0-0.5-0.1-0.7-0.1c-0.1,0-0.2,0-0.2-0.1
		c0-0.1,0.1-0.2,0.3-0.2c0.5,0,1,0,1.5,0l0.9,0c0.4,0,4.6,0,5.1,0c0.4,0,0.7,0,0.9-0.1c0.1,0,0.2-0.1,0.3-0.1s0.1,0.1,0.1,0.2
		c0,0.1-0.1,0.4-0.2,1c0,0.2-0.1,1.1-0.1,1.4c0,0.1-0.1,0.2-0.2,0.2s-0.1-0.1-0.1-0.3c0-0.2-0.1-0.5-0.2-0.8
		c-0.1-0.3-0.6-0.6-1.4-0.7l-3.2-0.1c-0.1,0-0.2,0.1-0.2,0.2v5.7c0,0.1,0,0.2,0.1,0.2l2.7,0c0.4,0,0.6,0,0.9,0c0.5,0,0.8-0.1,1-0.4
		c0.1-0.1,0.1-0.2,0.2-0.2c0.1,0,0.1,0.1,0.1,0.2c0,0.1-0.1,0.5-0.2,1.2c0,0.4-0.1,1.2-0.1,1.4c0,0.2,0,0.4-0.1,0.4
		c-0.1,0-0.1-0.1-0.1-0.2c0-0.2,0-0.5-0.1-0.7c-0.1-0.3-0.4-0.7-1.1-0.7c-0.5-0.1-2.8-0.1-3.1-0.1c-0.1,0-0.1,0-0.1,0.2v1.8
		c0,2,0,3.6,0.1,4.5c0.1,0.6,0.2,1.1,0.8,1.1c0.3,0,0.7,0.1,0.9,0.1c0.1,0,0.2,0.1,0.2,0.1c0,0.1-0.1,0.2-0.3,0.2
		C7,43.1,5.7,43,5.6,43s-1.4,0.1-2,0.1c-0.2,0-0.3,0-0.3-0.2c0-0.1,0-0.1,0.2-0.1c0.2,0,0.4,0,0.6-0.1c0.4-0.1,0.5-0.5,0.6-1.1
		c0.1-0.9,0.1-2.5,0.1-4.5V33.4z"/>
	<path class="st0" d="M18.6,30.1c0.2-0.6,0.3-0.7,0.4-0.7c0.2,0,0.2,0.3,0.4,0.6c0.3,0.7,3.3,8,4.4,10.7c0.7,1.6,1.2,1.8,1.6,1.9
		c0.3,0.1,0.5,0.1,0.7,0.1c0.1,0,0.2,0,0.2,0.1c0,0.1-0.2,0.1-0.4,0.1c-0.3,0-1.6,0-2.9,0c-0.4,0-0.6,0-0.6-0.1c0-0.1,0-0.1,0.1-0.1
		c0.1,0,0.3-0.2,0.2-0.5l-1.6-4.1c0-0.1-0.1-0.1-0.2-0.1h-4.2c-0.1,0-0.1,0-0.2,0.1l-1,2.8c-0.2,0.4-0.3,0.9-0.3,1.2
		c0,0.4,0.3,0.5,0.6,0.5H16c0.1,0,0.2,0.1,0.2,0.1c0,0.1-0.1,0.1-0.3,0.1c-0.4,0-1.4-0.1-1.6-0.1c-0.2,0-1.1,0.1-1.9,0.1
		c-0.2,0-0.4,0-0.4-0.1c0-0.1,0.1-0.1,0.2-0.1c0.1,0,0.4,0,0.5,0c0.8-0.1,1.2-0.7,1.5-1.6L18.6,30.1z M20.7,37.4
		c0.1,0,0.1,0,0.1-0.1l-1.8-4.8c-0.1-0.3-0.2-0.3-0.3,0l-1.7,4.8c0,0.1,0,0.1,0.1,0.1H20.7z"/>
	<path class="st0" d="M28.8,34.8c0-2.7,0-3.2,0-3.8c0-0.6-0.1-0.9-0.7-1c-0.1,0-0.5,0-0.6,0c-0.1,0-0.1-0.1-0.1-0.1
		c0-0.1,0.1-0.1,0.3-0.1c0.8,0,2,0,2.1,0c0.2,0,1.3,0,1.8,0c0.2,0,0.3,0,0.3,0.1c0,0.1-0.1,0.1-0.1,0.1c-0.1,0-0.2,0-0.5,0
		c-0.5,0.1-0.6,0.4-0.6,1c0,0.6,0,1.1,0,3.8v1.1h0.1c0.3-0.3,3.6-3.6,4.2-4.3c0.5-0.5,1-1,1-1.3c0-0.2-0.1-0.3-0.2-0.4
		c-0.1,0-0.2-0.1-0.2-0.2c0-0.1,0.1-0.1,0.2-0.1c0.4,0,0.9,0,1.4,0c0.1,0,1.3,0,1.8,0c0.2,0,0.3,0,0.3,0.1s0,0.1-0.2,0.1
		c-0.3,0-0.7,0.1-1,0.3c-0.7,0.3-1.1,0.7-1.9,1.5c-0.5,0.4-3.6,3.4-4,3.8c0.5,0.5,4.3,4.3,5,5c1.5,1.4,1.7,1.6,2.6,2
		c0.5,0.2,1,0.3,1.1,0.3c0.1,0,0.2,0.1,0.2,0.1s-0.1,0.1-0.4,0.1h-0.9c-0.5,0-0.9,0-1.3,0c-1-0.1-1.4-0.5-2.2-1.1
		c-0.8-0.6-4.7-4.7-5.6-5.7h-0.1V38c0,1.7,0,3.1,0.1,3.8c0.1,0.5,0.1,0.9,0.7,0.9c0.2,0,0.5,0.1,0.7,0.1c0.1,0,0.1,0.1,0.1,0.1
		c0,0.1-0.1,0.1-0.3,0.1c-0.9,0-2-0.1-2.1-0.1s-1.2,0.1-1.8,0.1c-0.2,0-0.3,0-0.3-0.1c0-0.1,0-0.1,0.1-0.1c0.2,0,0.4,0,0.6-0.1
		c0.4-0.1,0.4-0.4,0.5-0.9c0.1-0.7,0.1-2.1,0.1-3.8V34.8z"/>
	<path class="st0" d="M41.7,34.8c0-2.7,0-3.2,0-3.8s-0.1-0.9-0.7-1c-0.1,0-0.5,0-0.6,0c-0.1,0-0.1-0.1-0.1-0.1
		c0-0.1,0.1-0.1,0.3-0.1c0.8,0,1.9,0,2.1,0s1.3,0,1.9,0c0.2,0,0.3,0,0.3,0.1c0,0.1-0.1,0.1-0.2,0.1c-0.1,0-0.2,0-0.5,0
		c-0.5,0.1-0.6,0.4-0.6,1c0,0.6,0,1.1,0,3.8v2.5c0,2.6,0.6,3.6,1.4,4.3c0.9,0.8,1.7,1,2.7,1c1.1,0,2.2-0.5,2.8-1.2
		c0.9-1,1-2.5,1-4.3v-2.2c0-2.7,0-3.2,0-3.8c0-0.6-0.1-0.9-0.7-1c-0.1,0-0.5,0-0.6,0c-0.1,0-0.1-0.1-0.1-0.1c0-0.1,0.1-0.1,0.3-0.1
		c0.8,0,1.9,0,2,0c0.1,0,1,0,1.5,0c0.2,0,0.3,0,0.3,0.1c0,0.1-0.1,0.1-0.1,0.1c-0.1,0-0.2,0-0.5,0c-0.5,0.1-0.6,0.4-0.6,1
		c0,0.6,0,1.1,0,3.8v1.9c0,1.9-0.2,4.1-1.7,5.3c-1.3,1.1-2.7,1.3-3.8,1.3c-0.6,0-2.5,0-3.8-1.2c-0.9-0.8-1.6-2.1-1.6-4.6V34.8z"/>
	<path class="st0" d="M59.6,38c0,2.6,0,3.7,0.4,4c0.3,0.3,1,0.4,2.4,0.4c1,0,1.8,0,2.2-0.5c0.2-0.3,0.4-0.6,0.4-1
		c0-0.1,0.1-0.2,0.2-0.2c0.1,0,0.1,0.1,0.1,0.3c0,0.2-0.1,1.2-0.3,1.8c-0.1,0.4-0.2,0.5-1.2,0.5c-1.3,0-2.3,0-3.2-0.1
		c-0.8,0-1.5,0-2,0c-0.1,0-0.4,0-0.7,0c-0.4,0-0.8,0-1.1,0c-0.2,0-0.3,0-0.3-0.1c0-0.1,0-0.1,0.1-0.1c0.2,0,0.4,0,0.6-0.1
		c0.4-0.1,0.4-0.4,0.5-0.9c0.1-0.7,0.1-2.1,0.1-3.8v-3.1c0-2.7,0-3.2,0-3.8c0-0.6-0.1-0.9-0.7-1c-0.1,0-0.5,0-0.6,0
		c-0.1,0-0.1-0.1-0.1-0.1c0-0.1,0.1-0.1,0.3-0.1c0.8,0,2,0,2.1,0c0.1,0,1.5,0,2,0c0.2,0,0.3,0,0.3,0.1c0,0.1-0.1,0.1-0.1,0.1
		c-0.1,0-0.4,0-0.6,0c-0.5,0.1-0.6,0.4-0.7,1c0,0.6,0,1.1,0,3.8V38z"/>
	<path class="st0" d="M71.9,38c0,1.7,0,3.1,0.1,3.8c0.1,0.5,0.1,0.9,0.7,0.9c0.2,0,0.7,0.1,0.8,0.1c0.1,0,0.1,0.1,0.1,0.1
		c0,0.1-0.1,0.1-0.3,0.1c-1,0-2.2-0.1-2.3-0.1c-0.1,0-1.4,0.1-1.9,0.1c-0.2,0-0.3,0-0.3-0.1c0-0.1,0-0.1,0.1-0.1
		c0.2,0,0.4,0,0.5-0.1c0.4-0.1,0.5-0.4,0.5-1c0.1-0.7,0.1-2.1,0.1-3.8v-7.4l-2.6,0c-1.1,0-1.6,0.1-1.9,0.6c-0.2,0.3-0.2,0.4-0.3,0.6
		c0,0.1-0.1,0.2-0.2,0.2c0,0-0.1,0-0.1-0.1c0-0.2,0.4-1.8,0.4-1.9c0-0.1,0.1-0.3,0.2-0.3c0.1,0,0.3,0.1,0.8,0.2
		c0.5,0.1,1.2,0.1,1.4,0.1h6.9c0.6,0,1,0,1.3-0.1c0.3,0,0.4-0.1,0.5-0.1c0.1,0,0.1,0.1,0.1,0.2c0,0.5-0.1,1.8-0.1,2
		c0,0.1-0.1,0.2-0.2,0.2s-0.1-0.1-0.1-0.3l0-0.2c-0.1-0.5-0.5-0.9-2.2-1l-2.3,0V38z"/>
	<path class="st0" d="M82.5,30.1c0.2-0.6,0.3-0.7,0.4-0.7c0.2,0,0.2,0.3,0.4,0.6c0.3,0.7,3.3,8,4.4,10.7c0.7,1.6,1.2,1.8,1.6,1.9
		c0.3,0.1,0.5,0.1,0.7,0.1c0.1,0,0.2,0,0.2,0.1c0,0.1-0.2,0.1-0.4,0.1c-0.3,0-1.6,0-2.9,0c-0.4,0-0.6,0-0.6-0.1c0-0.1,0-0.1,0.1-0.1
		c0.1,0,0.3-0.2,0.2-0.5L85,38.3c0-0.1-0.1-0.1-0.2-0.1h-4.2c-0.1,0-0.1,0-0.2,0.1l-1,2.8c-0.2,0.4-0.3,0.9-0.3,1.2
		c0,0.4,0.3,0.5,0.6,0.5h0.2c0.1,0,0.2,0.1,0.2,0.1c0,0.1-0.1,0.1-0.3,0.1c-0.4,0-1.4-0.1-1.6-0.1c-0.2,0-1.1,0.1-1.9,0.1
		c-0.2,0-0.4,0-0.4-0.1c0-0.1,0.1-0.1,0.2-0.1c0.1,0,0.4,0,0.5,0c0.8-0.1,1.2-0.7,1.5-1.6L82.5,30.1z M80,27.3
		c0-0.4,0.2-0.9,0.9-0.9c0.5,0,0.9,0.3,0.9,0.8c0,0.5-0.4,1-0.9,1C80.3,28.2,80,27.7,80,27.3z M84.6,37.4c0.1,0,0.1,0,0.1-0.1
		l-1.8-4.8c-0.1-0.3-0.2-0.3-0.3,0l-1.7,4.8c0,0.1,0,0.1,0.1,0.1H84.6z M84.2,27.3c0-0.4,0.2-0.9,0.9-0.9c0.5,0,0.9,0.3,0.9,0.8
		c0,0.5-0.4,1-0.9,1C84.4,28.2,84.2,27.7,84.2,27.3z"/>
	<path class="st0" d="M95.4,38c0,1.7,0,3.1,0.1,3.8c0.1,0.5,0.1,0.9,0.7,0.9c0.2,0,0.7,0.1,0.8,0.1c0.1,0,0.1,0.1,0.1,0.1
		c0,0.1-0.1,0.1-0.3,0.1c-1,0-2.2-0.1-2.3-0.1c-0.1,0-1.4,0.1-1.9,0.1c-0.2,0-0.3,0-0.3-0.1c0-0.1,0-0.1,0.1-0.1
		c0.2,0,0.4,0,0.5-0.1c0.4-0.1,0.5-0.4,0.5-1c0.1-0.7,0.1-2.1,0.1-3.8v-7.4l-2.6,0c-1.1,0-1.6,0.1-1.9,0.6c-0.2,0.3-0.2,0.4-0.3,0.6
		c0,0.1-0.1,0.2-0.2,0.2c0,0-0.1,0-0.1-0.1c0-0.2,0.4-1.8,0.4-1.9c0-0.1,0.1-0.3,0.2-0.3c0.1,0,0.3,0.1,0.8,0.2
		c0.5,0.1,1.2,0.1,1.4,0.1h6.9c0.6,0,1,0,1.3-0.1c0.3,0,0.4-0.1,0.5-0.1c0.1,0,0.1,0.1,0.1,0.2c0,0.5-0.1,1.8-0.1,2
		c0,0.1-0.1,0.2-0.2,0.2s-0.1-0.1-0.1-0.3l0-0.2c-0.1-0.5-0.5-0.9-2.2-1l-2.3,0V38z"/>
</g>
</svg>
