<?xml version="1.0" encoding="utf-8"?>
<!-- Generator: Adobe Illustrator 24.0.2, SVG Export Plug-In . SVG Version: 6.00 Build 0)  -->
<svg version="1.1" id="Ebene_1" xmlns="http://www.w3.org/2000/svg" xmlns:xlink="http://www.w3.org/1999/xlink" x="0px" y="0px"
	 viewBox="0 0 309.6 46.3" style="enable-background:new 0 0 309.6 46.3;" xml:space="preserve">
<style type="text/css">
	.st0{fill:#A21E3B;}
</style>
<g>
	<path class="st0" d="M4.3,8.7c0-3.2,0-3.8,0-4.5c0-0.7-0.2-1-0.9-1.2C3.2,3,2.9,3,2.7,3c-0.1,0-0.2,0-0.2-0.1
		c0-0.1,0.1-0.2,0.3-0.2c0.9,0,2.2,0.1,2.3,0.1c0.2,0,1.4-0.1,2-0.1c0.2,0,0.3,0,0.3,0.2C7.5,2.9,7.4,3,7.3,3C7.2,3,7,3,6.8,3
		C6.2,3.1,6.1,3.5,6,4.2c0,0.7,0,1.2,0,4.5V10h0.1c0.4-0.4,4.1-4.2,4.9-5c0.6-0.6,1.1-1.1,1.1-1.5c0-0.2-0.1-0.4-0.3-0.4
		c-0.1,0-0.2-0.1-0.2-0.2c0-0.1,0.1-0.1,0.3-0.1c0.4,0,1.1,0.1,1.6,0.1c0.1,0,1.5-0.1,2-0.1c0.2,0,0.3,0,0.3,0.1s0,0.1-0.2,0.1
		c-0.3,0-0.7,0.1-1.2,0.3C13.5,3.6,13,4.2,12.1,5c-0.5,0.5-4.1,4-4.6,4.6c0.5,0.6,4.9,5.1,5.7,5.9c1.7,1.6,2.1,2,3.1,2.4
		c0.5,0.2,1.1,0.3,1.3,0.3s0.3,0,0.3,0.1c0,0.1-0.1,0.2-0.5,0.2h-1.1c-0.6,0-1,0-1.4,0c-1.1-0.1-1.6-0.6-2.5-1.3
		c-0.9-0.8-5.3-5.5-6.3-6.8H6v2c0,2,0,3.6,0.1,4.5c0.1,0.6,0.2,1.1,0.8,1.1c0.3,0,0.6,0.1,0.8,0.1c0.1,0,0.2,0.1,0.2,0.1
		c0,0.1-0.1,0.2-0.3,0.2c-1,0-2.2-0.1-2.4-0.1c-0.2,0-1.4,0.1-2,0.1c-0.2,0-0.3,0-0.3-0.2c0-0.1,0-0.1,0.2-0.1c0.2,0,0.4,0,0.6-0.1
		c0.4-0.1,0.5-0.5,0.6-1.1c0.1-0.9,0.1-2.5,0.1-4.5V8.7z"/>
	<path class="st0" d="M22.1,5.4c0.2-0.6,0.3-0.7,0.4-0.7c0.2,0,0.2,0.2,0.4,0.6c0.3,0.7,3.3,8,4.4,10.7c0.7,1.6,1.2,1.8,1.6,1.9
		c0.3,0.1,0.5,0.1,0.7,0.1c0.1,0,0.2,0,0.2,0.1s-0.2,0.1-0.4,0.1c-0.3,0-1.6,0-2.9,0c-0.4,0-0.6,0-0.6-0.1c0-0.1,0-0.1,0.1-0.1
		c0.1,0,0.3-0.2,0.2-0.5l-1.6-4.1c0-0.1-0.1-0.1-0.2-0.1h-4.2c-0.1,0-0.1,0-0.2,0.1l-1,2.8c-0.2,0.4-0.3,0.9-0.3,1.2
		c0,0.4,0.3,0.5,0.6,0.5h0.2c0.1,0,0.2,0.1,0.2,0.1c0,0.1-0.1,0.1-0.3,0.1c-0.4,0-1.4-0.1-1.6-0.1c-0.2,0-1.1,0.1-1.9,0.1
		c-0.2,0-0.4,0-0.4-0.1c0-0.1,0.1-0.1,0.2-0.1c0.1,0,0.4,0,0.5,0c0.8-0.1,1.2-0.7,1.5-1.6L22.1,5.4z M24.2,12.7c0.1,0,0.1,0,0.1-0.1
		l-1.8-4.8c-0.1-0.3-0.2-0.3-0.3,0l-1.7,4.8c0,0.1,0,0.1,0.1,0.1H24.2z"/>
	<path class="st0" d="M35,13.3c0,1.7,0,3.1,0.1,3.8c0.1,0.5,0.1,0.9,0.7,0.9c0.2,0,0.7,0.1,0.8,0.1c0.1,0,0.1,0.1,0.1,0.1
		c0,0.1-0.1,0.1-0.3,0.1c-1,0-2.2-0.1-2.3-0.1c-0.1,0-1.4,0.1-1.9,0.1c-0.2,0-0.3,0-0.3-0.1c0-0.1,0-0.1,0.1-0.1
		c0.2,0,0.4,0,0.5-0.1c0.4-0.1,0.5-0.4,0.5-1c0.1-0.7,0.1-2.1,0.1-3.8V5.8l-2.6,0c-1.1,0-1.6,0.1-1.9,0.6c-0.2,0.3-0.2,0.4-0.3,0.6
		c0,0.1-0.1,0.2-0.2,0.2c0,0-0.1,0-0.1-0.1c0-0.2,0.4-1.8,0.4-1.9c0-0.1,0.1-0.3,0.2-0.3c0.1,0,0.3,0.1,0.8,0.2
		c0.5,0.1,1.2,0.1,1.4,0.1H38c0.6,0,1,0,1.3-0.1c0.3,0,0.4-0.1,0.5-0.1c0.1,0,0.1,0.1,0.1,0.2c0,0.5-0.1,1.8-0.1,2
		c0,0.1-0.1,0.2-0.2,0.2S39.5,7.3,39.5,7l0-0.2c-0.1-0.5-0.5-0.9-2.2-1l-2.3,0V13.3z"/>
	<path class="st0" d="M54.9,13.3c0,1.7,0,3.1,0.1,3.8c0.1,0.5,0.1,0.9,0.7,0.9c0.2,0,0.7,0.1,0.8,0.1c0.1,0,0.2,0.1,0.2,0.1
		c0,0.1-0.1,0.1-0.3,0.1c-1,0-2.2-0.1-2.3-0.1c-0.1,0-1.3,0.1-1.8,0.1c-0.2,0-0.3,0-0.3-0.1c0-0.1,0-0.1,0.1-0.1
		c0.2,0,0.4,0,0.5-0.1c0.4-0.1,0.4-0.4,0.5-1c0.1-0.7,0.1-2.1,0.1-3.8v-1.8c0-0.1,0-0.1-0.1-0.1h-7.6c-0.1,0-0.1,0-0.1,0.1v1.8
		c0,1.7,0,3.1,0.1,3.8c0.1,0.5,0.1,0.9,0.7,0.9c0.3,0,0.7,0.1,0.8,0.1c0.1,0,0.1,0.1,0.1,0.1c0,0.1-0.1,0.1-0.3,0.1
		c-1,0-2.2-0.1-2.3-0.1c-0.1,0-1.3,0.1-1.8,0.1c-0.2,0-0.3,0-0.3-0.1c0-0.1,0-0.1,0.1-0.1c0.2,0,0.4,0,0.6-0.1
		c0.4-0.1,0.4-0.4,0.5-0.9c0.1-0.7,0.1-2.1,0.1-3.8v-3.1c0-2.7,0-3.2,0-3.8c0-0.6-0.1-0.9-0.7-1c-0.1,0-0.5,0-0.6,0
		c-0.1,0-0.1-0.1-0.1-0.1c0-0.1,0.1-0.1,0.3-0.1c0.8,0,2,0,2.1,0c0.1,0,1.2,0,1.8,0c0.2,0,0.3,0,0.3,0.1c0,0.1-0.1,0.1-0.1,0.1
		c-0.1,0-0.3,0-0.5,0c-0.5,0.1-0.6,0.4-0.6,1c0,0.6,0,1.1,0,3.8v0.4c0,0.1,0,0.1,0.1,0.1h7.6c0.1,0,0.1,0,0.1-0.1v-0.4
		c0-2.7,0-3.3,0-3.8c0-0.6-0.1-0.9-0.7-1c-0.1,0-0.5,0-0.6,0c-0.1,0-0.1-0.1-0.1-0.1c0-0.1,0.1-0.1,0.3-0.1c0.8,0,2,0,2.1,0
		c0.1,0,1.3,0,1.8,0c0.2,0,0.3,0,0.3,0.1c0,0.1-0.1,0.1-0.2,0.1c-0.1,0-0.2,0-0.5,0c-0.5,0.1-0.6,0.4-0.6,1c0,0.6,0,1.1,0,3.8V13.3z
		"/>
	<path class="st0" d="M66.2,4.8c4.1,0,7.2,2.5,7.2,6.6c0,4-2.9,7.2-7.3,7.2c-5,0-7.2-3.8-7.2-6.9C58.9,8.8,61.1,4.8,66.2,4.8z
		 M66.6,17.9c1.6,0,4.9-0.9,4.9-6c0-4.2-2.6-6.5-5.5-6.5c-3.1,0-5.3,1.9-5.3,5.8C60.8,15.3,63.3,17.9,66.6,17.9z"/>
	<path class="st0" d="M78.9,13.3c0,2.6,0,3.7,0.4,4c0.3,0.3,1,0.4,2.4,0.4c1,0,1.8,0,2.2-0.5c0.2-0.3,0.4-0.6,0.4-1
		c0-0.1,0.1-0.2,0.2-0.2c0.1,0,0.1,0.1,0.1,0.3c0,0.2-0.1,1.2-0.3,1.8c-0.1,0.4-0.2,0.5-1.2,0.5c-1.3,0-2.3,0-3.2-0.1
		c-0.8,0-1.5,0-2,0c-0.1,0-0.4,0-0.7,0c-0.4,0-0.8,0-1.1,0c-0.2,0-0.3,0-0.3-0.1c0-0.1,0-0.1,0.1-0.1c0.2,0,0.4,0,0.6-0.1
		c0.4-0.1,0.4-0.4,0.5-0.9c0.1-0.7,0.1-2.1,0.1-3.8v-3.1c0-2.7,0-3.2,0-3.8c0-0.6-0.1-0.9-0.7-1c-0.1,0-0.5,0-0.6,0
		c-0.1,0-0.1-0.1-0.1-0.1C75.7,5.1,75.8,5,76,5c0.8,0,2,0,2.1,0c0.1,0,1.5,0,2,0c0.2,0,0.3,0,0.3,0.1c0,0.1-0.1,0.1-0.1,0.1
		c-0.1,0-0.4,0-0.6,0c-0.5,0.1-0.6,0.4-0.7,1c0,0.6,0,1.1,0,3.8V13.3z"/>
	<path class="st0" d="M90.1,13.3c0,1.7,0,3.1,0.1,3.8c0.1,0.5,0.1,0.9,0.7,0.9c0.3,0,0.7,0.1,0.8,0.1c0.1,0,0.1,0.1,0.1,0.1
		c0,0.1-0.1,0.1-0.3,0.1c-1,0-2.2-0.1-2.3-0.1c-0.1,0-1.2,0.1-1.8,0.1c-0.2,0-0.3,0-0.3-0.1c0-0.1,0-0.1,0.1-0.1
		c0.2,0,0.4,0,0.6-0.1c0.4-0.1,0.4-0.4,0.5-0.9c0.1-0.7,0.1-2.1,0.1-3.8v-3.1c0-2.7,0-3.2,0-3.8c0-0.6-0.2-0.9-0.6-1
		c-0.2,0-0.4-0.1-0.6-0.1c-0.1,0-0.1-0.1-0.1-0.1c0-0.1,0.1-0.1,0.3-0.1c0.6,0,1.7,0,1.9,0c0.1,0,1.3,0,1.8,0c0.2,0,0.3,0,0.3,0.1
		c0,0.1-0.1,0.1-0.1,0.1c-0.1,0-0.3,0-0.5,0c-0.5,0.1-0.6,0.4-0.6,1c0,0.6,0,1.1,0,3.8V13.3z"/>
	<path class="st0" d="M94.9,18.2c-0.2-0.1-0.3-0.2-0.3-0.7c0-0.9,0.1-1.6,0.1-1.9c0-0.2,0-0.3,0.1-0.3c0.1,0,0.2,0.1,0.2,0.2
		s0,0.4,0.1,0.6c0.3,1.3,1.7,1.7,2.9,1.7c1.8,0,2.7-1,2.7-2.4c0-1.3-0.7-1.9-2.3-3.1l-0.8-0.6c-2-1.5-2.6-2.6-2.6-3.8
		c0-2.1,1.6-3.3,4.1-3.3c0.7,0,1.5,0.1,1.9,0.2c0.4,0.1,0.5,0.1,0.6,0.1s0.2,0,0.2,0.1c0,0.1-0.1,0.7-0.1,1.9c0,0.3,0,0.4-0.1,0.4
		c-0.1,0-0.1-0.1-0.2-0.2c0-0.2-0.2-0.7-0.3-0.9c-0.1-0.2-0.7-0.9-2.4-0.9c-1.3,0-2.4,0.7-2.4,1.9c0,1.1,0.6,1.8,2.4,3l0.5,0.4
		c2.2,1.5,3,2.7,3,4.3c0,1-0.4,2.2-1.7,3c-0.8,0.5-1.9,0.6-2.9,0.6C96.8,18.6,95.7,18.5,94.9,18.2z"/>
	<path class="st0" d="M107.5,16.7c-1.8-1.5-2.2-3.6-2.2-5.2c0-1.2,0.4-3.2,2.1-4.8c1.1-1.1,2.8-1.9,5.6-1.9c0.7,0,1.8,0.1,2.7,0.2
		c0.7,0.1,1.3,0.2,1.9,0.3c0.2,0,0.2,0.1,0.2,0.2c0,0.1,0,0.4-0.1,1c0,0.6,0,1.6,0,1.8c0,0.3-0.1,0.4-0.2,0.4
		c-0.1,0-0.1-0.1-0.1-0.4c0-0.7-0.3-1.4-0.8-1.8c-0.6-0.5-2-1-3.6-1c-2.4,0-3.5,0.6-4.1,1.2c-1.4,1.2-1.6,2.8-1.6,4.6
		c0,3.4,2.7,6.4,6.6,6.4c1.4,0,2.3-0.1,3-0.8c0.4-0.4,0.6-1.1,0.7-1.5c0-0.2,0.1-0.2,0.2-0.2c0.1,0,0.2,0.1,0.2,0.2
		c0,0.1-0.2,1.7-0.4,2.3c-0.1,0.3-0.1,0.4-0.5,0.5c-0.7,0.3-2.1,0.4-3.3,0.4C110.8,18.6,109,18,107.5,16.7z"/>
	<path class="st0" d="M133.3,13.3c0,1.7,0,3.1,0.1,3.8c0.1,0.5,0.1,0.9,0.7,0.9c0.2,0,0.7,0.1,0.8,0.1c0.1,0,0.2,0.1,0.2,0.1
		c0,0.1-0.1,0.1-0.3,0.1c-1,0-2.2-0.1-2.3-0.1c-0.1,0-1.3,0.1-1.8,0.1c-0.2,0-0.3,0-0.3-0.1c0-0.1,0-0.1,0.1-0.1
		c0.2,0,0.4,0,0.5-0.1c0.4-0.1,0.4-0.4,0.5-1c0.1-0.7,0.1-2.1,0.1-3.8v-1.8c0-0.1,0-0.1-0.1-0.1h-7.6c-0.1,0-0.1,0-0.1,0.1v1.8
		c0,1.7,0,3.1,0.1,3.8c0.1,0.5,0.1,0.9,0.7,0.9c0.3,0,0.7,0.1,0.8,0.1c0.1,0,0.1,0.1,0.1,0.1c0,0.1-0.1,0.1-0.3,0.1
		c-1,0-2.2-0.1-2.3-0.1c-0.1,0-1.3,0.1-1.8,0.1c-0.2,0-0.3,0-0.3-0.1c0-0.1,0-0.1,0.1-0.1c0.2,0,0.4,0,0.6-0.1
		c0.4-0.1,0.4-0.4,0.5-0.9c0.1-0.7,0.1-2.1,0.1-3.8v-3.1c0-2.7,0-3.2,0-3.8c0-0.6-0.1-0.9-0.7-1c-0.1,0-0.5,0-0.6,0
		c-0.1,0-0.1-0.1-0.1-0.1c0-0.1,0.1-0.1,0.3-0.1c0.8,0,2,0,2.1,0c0.1,0,1.2,0,1.8,0c0.2,0,0.3,0,0.3,0.1c0,0.1-0.1,0.1-0.1,0.1
		c-0.1,0-0.3,0-0.5,0c-0.5,0.1-0.6,0.4-0.6,1c0,0.6,0,1.1,0,3.8v0.4c0,0.1,0,0.1,0.1,0.1h7.6c0.1,0,0.1,0,0.1-0.1v-0.4
		c0-2.7,0-3.3,0-3.8c0-0.6-0.1-0.9-0.7-1c-0.1,0-0.5,0-0.6,0c-0.1,0-0.1-0.1-0.1-0.1c0-0.1,0.1-0.1,0.3-0.1c0.8,0,2,0,2.1,0
		c0.1,0,1.3,0,1.8,0c0.2,0,0.3,0,0.3,0.1c0,0.1-0.1,0.1-0.2,0.1c-0.1,0-0.2,0-0.5,0c-0.5,0.1-0.6,0.4-0.6,1c0,0.6,0,1.1,0,3.8V13.3z
		"/>
	<path class="st0" d="M143.3,11.9c0.4,0,0.6,0,0.6,0.2c0,0.2-0.4,0.3-0.7,0.4c-0.6,0.1-4.2,0.6-4.9,0.8c-0.4,0.1-0.7,0.3-0.9,0.3
		c-0.1,0-0.1-0.1-0.1-0.3l0.3-1.2c0-0.1,0.1-0.2,0.5-0.2H143.3z"/>
	<path class="st0" d="M152.7,12.4c0,2,0,3.6,0.1,4.5c0.1,0.6,0.2,1.1,0.8,1.1c0.3,0,0.7,0.1,0.9,0.1c0.1,0,0.2,0.1,0.2,0.1
		c0,0.1-0.1,0.2-0.3,0.2c-1.1,0-2.5-0.1-2.6-0.1c-0.1,0-1.4,0.1-2,0.1c-0.2,0-0.3,0-0.3-0.2c0-0.1,0-0.1,0.2-0.1
		c0.2,0,0.4,0,0.6-0.1c0.4-0.1,0.5-0.5,0.6-1.1c0.1-0.9,0.1-2.5,0.1-4.5V3.6l-3.1,0c-1.3,0-1.8,0.2-2.1,0.7
		c-0.2,0.4-0.3,0.5-0.4,0.6c-0.1,0.2-0.1,0.2-0.2,0.2c-0.1,0-0.1-0.1-0.1-0.2c0-0.2,0.4-2,0.5-2.2c0-0.1,0.1-0.4,0.2-0.4
		c0.1,0,0.4,0.2,0.9,0.2c0.6,0.1,1.4,0.1,1.6,0.1h7.8c0.7,0,1.1,0,1.5-0.1c0.3,0,0.5-0.1,0.6-0.1c0.1,0,0.1,0.1,0.1,0.2
		c0,0.6-0.1,2.1-0.1,2.3c0,0.2-0.1,0.3-0.1,0.3c-0.1,0-0.1-0.1-0.2-0.4l0-0.2c-0.1-0.6-0.6-1.1-2.6-1.1l-2.6,0V12.4z"/>
	<path class="st0" d="M173,13.3c0,1.7,0,3.1,0.1,3.8c0.1,0.5,0.1,0.9,0.7,0.9c0.3,0,0.7,0.1,0.8,0.1c0.1,0,0.2,0.1,0.2,0.1
		c0,0.1-0.1,0.1-0.3,0.1c-1,0-2.2-0.1-2.3-0.1c-0.1,0-1.3,0.1-1.8,0.1c-0.2,0-0.3,0-0.3-0.1c0-0.1,0-0.1,0.1-0.1
		c0.2,0,0.4,0,0.5-0.1c0.4-0.1,0.4-0.4,0.5-1c0.1-0.7,0.1-2.1,0.1-3.8v-1.8c0-0.1,0-0.1-0.1-0.1h-7.6c-0.1,0-0.1,0-0.1,0.1v1.8
		c0,1.7,0,3.1,0.1,3.8c0.1,0.5,0.1,0.9,0.7,0.9c0.3,0,0.7,0.1,0.8,0.1c0.1,0,0.1,0.1,0.1,0.1c0,0.1-0.1,0.1-0.3,0.1
		c-1,0-2.2-0.1-2.3-0.1c-0.1,0-1.3,0.1-1.8,0.1c-0.2,0-0.3,0-0.3-0.1c0-0.1,0-0.1,0.1-0.1c0.2,0,0.4,0,0.6-0.1
		c0.4-0.1,0.4-0.4,0.5-0.9c0.1-0.7,0.1-2.1,0.1-3.8v-3.1c0-2.7,0-3.2,0-3.8c0-0.6-0.1-0.9-0.7-1c-0.1,0-0.5,0-0.6,0
		c-0.1,0-0.1-0.1-0.1-0.1c0-0.1,0.1-0.1,0.3-0.1c0.8,0,2,0,2.1,0c0.1,0,1.2,0,1.8,0c0.2,0,0.3,0,0.3,0.1c0,0.1-0.1,0.1-0.1,0.1
		c-0.1,0-0.3,0-0.5,0c-0.5,0.1-0.6,0.4-0.6,1c0,0.6,0,1.1,0,3.8v0.4c0,0.1,0,0.1,0.1,0.1h7.6c0.1,0,0.1,0,0.1-0.1v-0.4
		c0-2.7,0-3.3,0-3.8c0-0.6-0.1-0.9-0.7-1c-0.1,0-0.5,0-0.6,0c-0.1,0-0.1-0.1-0.1-0.1c0-0.1,0.1-0.1,0.3-0.1c0.8,0,2,0,2.1,0
		c0.1,0,1.3,0,1.8,0c0.2,0,0.3,0,0.3,0.1c0,0.1-0.1,0.1-0.2,0.1c-0.1,0-0.2,0-0.5,0c-0.5,0.1-0.6,0.4-0.6,1c0,0.6,0,1.1,0,3.8V13.3z
		"/>
	<path class="st0" d="M179,10.1c0-2.7,0-3.2,0-3.8c0-0.6-0.1-0.9-0.7-1c-0.1,0-0.5,0-0.6,0c-0.1,0-0.1-0.1-0.1-0.1
		c0-0.1,0.1-0.1,0.3-0.1c0.8,0,2,0,2.1,0c0.1,0,4,0,4.4,0c0.4,0,0.7-0.1,0.8-0.1c0.1,0,0.2-0.1,0.3-0.1c0.1,0,0.1,0.1,0.1,0.2
		c0,0.1-0.1,0.3-0.1,0.8c0,0.2-0.1,1-0.1,1.2c0,0.1-0.1,0.2-0.2,0.2c-0.1,0-0.1-0.1-0.1-0.2c0-0.1,0-0.4-0.1-0.6
		c-0.1-0.3-0.3-0.4-1.3-0.5c-0.3,0-2.4-0.1-2.6-0.1c-0.1,0-0.1,0.1-0.1,0.2v4.8c0,0.1,0,0.2,0.1,0.2c0.2,0,2.6,0,3.1,0
		c0.4,0,0.7-0.1,0.9-0.2c0.1-0.1,0.2-0.2,0.3-0.2c0.1,0,0.1,0,0.1,0.1c0,0.1-0.1,0.4-0.1,1c0,0.4-0.1,1-0.1,1.1c0,0.1,0,0.3-0.2,0.3
		c-0.1,0-0.1-0.1-0.1-0.2c0-0.2,0-0.4-0.1-0.6c-0.1-0.2-0.2-0.5-0.9-0.5c-0.5-0.1-2.5-0.1-2.8-0.1c-0.1,0-0.1,0.1-0.1,0.1v1.5
		c0,0.6,0,2.7,0,3c0,1.2,0.4,1.4,2.2,1.4c0.5,0,1.4,0,1.8-0.2c0.5-0.2,0.7-0.5,0.8-1.2c0-0.2,0.1-0.3,0.2-0.3c0.1,0,0.1,0.1,0.1,0.3
		c0,0.1-0.1,1.3-0.2,1.7c-0.1,0.5-0.3,0.5-1,0.5c-1.4,0-2.4,0-3.2-0.1c-0.8,0-1.2,0-1.5,0c0,0-0.4,0-0.8,0c-0.4,0-0.8,0-1.1,0
		c-0.2,0-0.3,0-0.3-0.1c0-0.1,0-0.1,0.1-0.1c0.2,0,0.4-0.1,0.6-0.1c0.4-0.1,0.4-0.4,0.5-0.9c0.1-0.7,0.1-2.1,0.1-3.8V10.1z"/>
	<path class="st0" d="M195.6,4.8c4.1,0,7.2,2.5,7.2,6.6c0,4-2.9,7.2-7.3,7.2c-5,0-7.2-3.8-7.2-6.9C188.4,8.8,190.6,4.8,195.6,4.8z
		 M196.1,17.9c1.6,0,5-0.9,5-6c0-4.2-2.6-6.5-5.5-6.5c-3.1,0-5.3,1.9-5.3,5.8C190.3,15.3,192.7,17.9,196.1,17.9z"/>
	<path class="st0" d="M208.4,13.3c0,2.6,0,3.7,0.4,4c0.3,0.3,1,0.4,2.4,0.4c1,0,1.8,0,2.2-0.5c0.2-0.3,0.4-0.6,0.4-1
		c0-0.1,0.1-0.2,0.2-0.2c0.1,0,0.1,0.1,0.1,0.3c0,0.2-0.1,1.2-0.3,1.8c-0.1,0.4-0.2,0.5-1.2,0.5c-1.3,0-2.3,0-3.2-0.1
		c-0.8,0-1.5,0-2,0c-0.1,0-0.4,0-0.7,0c-0.4,0-0.8,0-1.1,0c-0.2,0-0.3,0-0.3-0.1c0-0.1,0-0.1,0.1-0.1c0.2,0,0.4,0,0.6-0.1
		c0.4-0.1,0.4-0.4,0.5-0.9c0.1-0.7,0.1-2.1,0.1-3.8v-3.1c0-2.7,0-3.2,0-3.8c0-0.6-0.1-0.9-0.7-1c-0.1,0-0.5,0-0.6,0
		c-0.1,0-0.1-0.1-0.1-0.1c0-0.1,0.1-0.1,0.3-0.1c0.8,0,2,0,2.1,0c0.1,0,1.5,0,2,0c0.2,0,0.3,0,0.3,0.1c0,0.1-0.1,0.1-0.1,0.1
		c-0.1,0-0.4,0-0.6,0c-0.5,0.1-0.6,0.4-0.7,1c0,0.6,0,1.1,0,3.8V13.3z"/>
	<path class="st0" d="M222.6,4.8c4.1,0,7.2,2.5,7.2,6.6c0,4-2.9,7.2-7.3,7.2c-5,0-7.2-3.8-7.2-6.9C215.3,8.8,217.5,4.8,222.6,4.8z
		 M223,17.9c1.6,0,5-0.9,5-6c0-4.2-2.6-6.5-5.5-6.5c-3.1,0-5.3,1.9-5.3,5.8C217.2,15.3,219.7,17.9,223,17.9z"/>
	<path class="st0" d="M242.8,13.9c0-1.4,0-1.6-0.8-1.8c-0.1,0-0.5,0-0.6,0c-0.1,0-0.1-0.1-0.1-0.1c0-0.1,0.1-0.1,0.3-0.1
		c0.8,0,2.1,0,2.2,0c0.1,0,1.2,0,1.8,0c0.2,0,0.3,0,0.3,0.1c0,0.1-0.1,0.1-0.1,0.1c-0.1,0-0.2,0-0.5,0c-0.5,0.1-0.6,0.4-0.7,1
		c0,0.6,0,1.1,0,1.8v2c0,0.8,0,0.8-0.3,1c-1.2,0.6-2.8,0.8-3.9,0.8c-1.4,0-4-0.2-6-1.9c-1.1-0.9-2.2-2.8-2.2-5
		c0-2.8,1.4-4.8,3.1-5.8c1.6-1,3.5-1.1,4.9-1.1c1.2,0,2.5,0.2,2.8,0.3c0.4,0.1,1,0.2,1.5,0.2c0.2,0,0.2,0.1,0.2,0.2
		c0,0.2-0.1,0.7-0.1,2.5c0,0.3-0.1,0.4-0.2,0.4c-0.1,0-0.1-0.1-0.1-0.3c0-0.2-0.1-0.7-0.4-1.2c-0.5-0.7-1.9-1.4-4.2-1.4
		c-1.1,0-2.4,0.1-3.8,1.1c-1.1,0.8-1.8,2.4-1.8,4.5c0,2.5,1.3,4.3,1.9,4.9c1.5,1.4,3,1.9,4.7,1.9c0.6,0,1.5-0.1,2-0.3
		c0.2-0.1,0.4-0.2,0.4-0.5V13.9z"/>
	<path class="st0" d="M251.6,13.3c0,1.7,0,3.1,0.1,3.8c0.1,0.5,0.1,0.9,0.7,0.9c0.3,0,0.7,0.1,0.8,0.1c0.1,0,0.1,0.1,0.1,0.1
		c0,0.1-0.1,0.1-0.3,0.1c-1,0-2.2-0.1-2.3-0.1c-0.1,0-1.2,0.1-1.8,0.1c-0.2,0-0.3,0-0.3-0.1c0-0.1,0-0.1,0.1-0.1
		c0.2,0,0.4,0,0.6-0.1c0.4-0.1,0.4-0.4,0.5-0.9c0.1-0.7,0.1-2.1,0.1-3.8v-3.1c0-2.7,0-3.2,0-3.8c0-0.6-0.2-0.9-0.6-1
		c-0.2,0-0.4-0.1-0.6-0.1c-0.1,0-0.1-0.1-0.1-0.1c0-0.1,0.1-0.1,0.3-0.1c0.6,0,1.7,0,1.9,0c0.1,0,1.3,0,1.8,0c0.2,0,0.3,0,0.3,0.1
		c0,0.1-0.1,0.1-0.1,0.1c-0.1,0-0.3,0-0.5,0c-0.5,0.1-0.6,0.4-0.6,1c0,0.6,0,1.1,0,3.8V13.3z"/>
	<path class="st0" d="M256.5,18.2c-0.3-0.1-0.3-0.2-0.3-0.7c0-0.9,0.1-1.6,0.1-1.9c0-0.2,0-0.3,0.1-0.3c0.1,0,0.2,0.1,0.2,0.2
		s0,0.4,0.1,0.6c0.3,1.3,1.7,1.7,2.9,1.7c1.8,0,2.7-1,2.7-2.4c0-1.3-0.7-1.9-2.3-3.1l-0.8-0.6c-2-1.5-2.6-2.6-2.6-3.8
		c0-2.1,1.6-3.3,4.1-3.3c0.7,0,1.5,0.1,1.9,0.2C262.9,5,263,5,263.2,5s0.2,0,0.2,0.1c0,0.1-0.1,0.7-0.1,1.9c0,0.3,0,0.4-0.1,0.4
		S263,7.4,263,7.2c0-0.2-0.2-0.7-0.3-0.9c-0.1-0.2-0.7-0.9-2.4-0.9c-1.3,0-2.4,0.7-2.4,1.9c0,1.1,0.6,1.8,2.4,3l0.5,0.4
		c2.2,1.5,3,2.7,3,4.3c0,1-0.4,2.2-1.7,3c-0.8,0.5-1.9,0.6-2.9,0.6C258.3,18.6,257.3,18.5,256.5,18.2z"/>
	<path class="st0" d="M269.1,16.7c-1.8-1.5-2.2-3.6-2.2-5.2c0-1.2,0.4-3.2,2.1-4.8c1.1-1.1,2.8-1.9,5.6-1.9c0.7,0,1.8,0.1,2.7,0.2
		c0.7,0.1,1.3,0.2,1.9,0.3c0.2,0,0.2,0.1,0.2,0.2c0,0.1,0,0.4-0.1,1c0,0.6,0,1.6,0,1.8c0,0.3-0.1,0.4-0.2,0.4
		c-0.1,0-0.1-0.1-0.1-0.4c0-0.7-0.3-1.4-0.8-1.8c-0.6-0.5-2-1-3.6-1c-2.3,0-3.5,0.6-4.1,1.2c-1.4,1.2-1.6,2.8-1.6,4.6
		c0,3.4,2.7,6.4,6.6,6.4c1.4,0,2.3-0.1,3-0.8c0.4-0.4,0.6-1.1,0.7-1.5c0-0.2,0.1-0.2,0.2-0.2c0.1,0,0.2,0.1,0.2,0.2
		c0,0.1-0.2,1.7-0.4,2.3c-0.1,0.3-0.1,0.4-0.5,0.5c-0.7,0.3-2.1,0.4-3.3,0.4C272.4,18.6,270.5,18,269.1,16.7z"/>
	<path class="st0" d="M294.8,13.3c0,1.7,0,3.1,0.1,3.8c0.1,0.5,0.1,0.9,0.7,0.9c0.3,0,0.7,0.1,0.8,0.1c0.1,0,0.2,0.1,0.2,0.1
		c0,0.1-0.1,0.1-0.3,0.1c-1,0-2.2-0.1-2.3-0.1c-0.1,0-1.3,0.1-1.8,0.1c-0.2,0-0.3,0-0.3-0.1c0-0.1,0-0.1,0.1-0.1
		c0.2,0,0.4,0,0.5-0.1c0.4-0.1,0.4-0.4,0.5-1c0.1-0.7,0.1-2.1,0.1-3.8v-1.8c0-0.1,0-0.1-0.1-0.1h-7.6c-0.1,0-0.1,0-0.1,0.1v1.8
		c0,1.7,0,3.1,0.1,3.8c0.1,0.5,0.1,0.9,0.7,0.9c0.3,0,0.7,0.1,0.8,0.1c0.1,0,0.1,0.1,0.1,0.1c0,0.1-0.1,0.1-0.3,0.1
		c-1,0-2.2-0.1-2.3-0.1c-0.1,0-1.3,0.1-1.8,0.1c-0.2,0-0.3,0-0.3-0.1c0-0.1,0-0.1,0.1-0.1c0.2,0,0.4,0,0.6-0.1
		c0.4-0.1,0.4-0.4,0.5-0.9c0.1-0.7,0.1-2.1,0.1-3.8v-3.1c0-2.7,0-3.2,0-3.8c0-0.6-0.1-0.9-0.7-1c-0.1,0-0.5,0-0.6,0
		c-0.1,0-0.1-0.1-0.1-0.1c0-0.1,0.1-0.1,0.3-0.1c0.8,0,2,0,2.1,0c0.1,0,1.2,0,1.8,0c0.2,0,0.3,0,0.3,0.1c0,0.1-0.1,0.1-0.1,0.1
		c-0.1,0-0.3,0-0.5,0c-0.5,0.1-0.6,0.4-0.6,1c0,0.6,0,1.1,0,3.8v0.4c0,0.1,0,0.1,0.1,0.1h7.6c0.1,0,0.1,0,0.1-0.1v-0.4
		c0-2.7,0-3.3,0-3.8c0-0.6-0.1-0.9-0.7-1c-0.1,0-0.5,0-0.6,0c-0.1,0-0.1-0.1-0.1-0.1c0-0.1,0.1-0.1,0.3-0.1c0.8,0,2,0,2.1,0
		c0.1,0,1.3,0,1.8,0c0.2,0,0.3,0,0.3,0.1c0,0.1-0.1,0.1-0.2,0.1c-0.1,0-0.2,0-0.5,0c-0.5,0.1-0.6,0.4-0.6,1c0,0.6,0,1.1,0,3.8V13.3z
		"/>
	<path class="st0" d="M300.9,10.1c0-2.7,0-3.2,0-3.8c0-0.6-0.1-0.9-0.7-1c-0.1,0-0.5,0-0.6,0c-0.1,0-0.1-0.1-0.1-0.1
		c0-0.1,0.1-0.1,0.3-0.1c0.8,0,2,0,2.1,0c0.1,0,4,0,4.4,0c0.4,0,0.7-0.1,0.8-0.1c0.1,0,0.2-0.1,0.3-0.1c0.1,0,0.1,0.1,0.1,0.2
		c0,0.1-0.1,0.3-0.1,0.8c0,0.2-0.1,1-0.1,1.2c0,0.1-0.1,0.2-0.2,0.2c-0.1,0-0.1-0.1-0.1-0.2c0-0.1,0-0.4-0.1-0.6
		c-0.1-0.3-0.3-0.4-1.3-0.5c-0.3,0-2.4-0.1-2.6-0.1c-0.1,0-0.1,0.1-0.1,0.2v4.8c0,0.1,0,0.2,0.1,0.2c0.2,0,2.6,0,3.1,0
		c0.4,0,0.7-0.1,0.9-0.2c0.1-0.1,0.2-0.2,0.3-0.2c0.1,0,0.1,0,0.1,0.1c0,0.1-0.1,0.4-0.1,1c0,0.4-0.1,1-0.1,1.1c0,0.1,0,0.3-0.2,0.3
		c-0.1,0-0.1-0.1-0.1-0.2c0-0.2,0-0.4-0.1-0.6c-0.1-0.2-0.2-0.5-0.9-0.5c-0.5-0.1-2.5-0.1-2.8-0.1c-0.1,0-0.1,0.1-0.1,0.1v1.5
		c0,0.6,0,2.7,0,3c0,1.2,0.4,1.4,2.2,1.4c0.5,0,1.4,0,1.8-0.2c0.5-0.2,0.7-0.5,0.8-1.2c0-0.2,0.1-0.3,0.2-0.3c0.1,0,0.1,0.1,0.1,0.3
		c0,0.1-0.1,1.3-0.2,1.7c-0.1,0.5-0.3,0.5-1,0.5c-1.4,0-2.4,0-3.2-0.1c-0.8,0-1.2,0-1.5,0c0,0-0.4,0-0.8,0c-0.4,0-0.8,0-1.1,0
		c-0.2,0-0.3,0-0.3-0.1c0-0.1,0-0.1,0.1-0.1c0.2,0,0.4-0.1,0.6-0.1c0.4-0.1,0.4-0.4,0.5-0.9c0.1-0.7,0.1-2.1,0.1-3.8V10.1z"/>
	<path class="st0" d="M4.3,33.7c0-3.2,0-3.8,0-4.5c0-0.7-0.2-1-0.9-1.2c-0.2,0-0.5-0.1-0.7-0.1c-0.1,0-0.2,0-0.2-0.1
		c0-0.1,0.1-0.2,0.3-0.2c0.5,0,1,0,1.5,0l0.9,0c0.4,0,4.6,0,5.1,0c0.4,0,0.7,0,0.9-0.1c0.1,0,0.2-0.1,0.3-0.1s0.1,0.1,0.1,0.2
		c0,0.1-0.1,0.4-0.2,1c0,0.2-0.1,1.1-0.1,1.4c0,0.1-0.1,0.2-0.2,0.2s-0.1-0.1-0.1-0.2c0-0.2-0.1-0.5-0.2-0.8
		c-0.1-0.3-0.6-0.6-1.4-0.7l-3.2-0.1c-0.1,0-0.2,0.1-0.2,0.2v5.7c0,0.1,0,0.2,0.1,0.2l2.7,0c0.4,0,0.6,0,0.9,0c0.5,0,0.8-0.1,1-0.4
		c0.1-0.1,0.1-0.2,0.2-0.2c0.1,0,0.1,0.1,0.1,0.2c0,0.1-0.1,0.5-0.2,1.2c0,0.4-0.1,1.2-0.1,1.4c0,0.2,0,0.4-0.1,0.4
		c-0.1,0-0.1-0.1-0.1-0.2c0-0.2,0-0.5-0.1-0.7c-0.1-0.3-0.4-0.7-1.1-0.7c-0.5-0.1-2.8-0.1-3.1-0.1c-0.1,0-0.1,0-0.1,0.2v1.8
		c0,2,0,3.6,0.1,4.5C6.2,42.4,6.4,42.9,7,43c0.3,0,0.7,0.1,0.9,0.1c0.1,0,0.2,0.1,0.2,0.1c0,0.1-0.1,0.2-0.3,0.2
		c-1.1,0-2.5-0.1-2.6-0.1s-1.4,0.1-2,0.1c-0.2,0-0.3,0-0.3-0.2c0-0.1,0-0.1,0.2-0.1c0.2,0,0.4,0,0.6-0.1c0.4-0.1,0.5-0.5,0.6-1.1
		c0.1-0.9,0.1-2.5,0.1-4.5V33.7z"/>
	<path class="st0" d="M18.3,30.3c0.2-0.6,0.3-0.7,0.4-0.7c0.2,0,0.2,0.3,0.4,0.6c0.3,0.7,3.3,8,4.4,10.7c0.7,1.6,1.2,1.8,1.6,1.9
		c0.3,0.1,0.5,0.1,0.7,0.1c0.1,0,0.2,0,0.2,0.1c0,0.1-0.2,0.1-0.4,0.1c-0.3,0-1.6,0-2.9,0c-0.4,0-0.6,0-0.6-0.1c0-0.1,0-0.1,0.1-0.1
		c0.1,0,0.3-0.2,0.2-0.5l-1.6-4.1c0-0.1-0.1-0.1-0.2-0.1h-4.2c-0.1,0-0.1,0-0.2,0.1l-1,2.8c-0.2,0.4-0.3,0.9-0.3,1.2
		c0,0.4,0.3,0.5,0.6,0.5h0.2c0.1,0,0.2,0.1,0.2,0.1c0,0.1-0.1,0.1-0.3,0.1c-0.4,0-1.4-0.1-1.6-0.1c-0.2,0-1.1,0.1-1.9,0.1
		c-0.2,0-0.4,0-0.4-0.1c0-0.1,0.1-0.1,0.2-0.1c0.1,0,0.4,0,0.5,0c0.8-0.1,1.2-0.7,1.5-1.6L18.3,30.3z M20.3,37.7
		c0.1,0,0.1,0,0.1-0.1l-1.8-4.8c-0.1-0.3-0.2-0.3-0.3,0l-1.7,4.8c0,0.1,0,0.1,0.1,0.1H20.3z"/>
	<path class="st0" d="M28.4,35.1c0-2.7,0-3.2,0-3.8c0-0.6-0.1-0.9-0.7-1c-0.1,0-0.5,0-0.6,0c-0.1,0-0.1-0.1-0.1-0.1
		c0-0.1,0.1-0.1,0.3-0.1c0.8,0,2,0,2.1,0c0.2,0,1.3,0,1.8,0c0.2,0,0.3,0,0.3,0.1c0,0.1-0.1,0.1-0.1,0.1c-0.1,0-0.2,0-0.5,0
		c-0.5,0.1-0.6,0.4-0.6,1c0,0.6,0,1.1,0,3.8v1.1h0.1c0.3-0.3,3.6-3.6,4.2-4.3c0.5-0.5,1-1,1-1.3c0-0.2-0.1-0.3-0.2-0.4
		c-0.1,0-0.2-0.1-0.2-0.2c0-0.1,0.1-0.1,0.2-0.1c0.4,0,0.9,0,1.4,0c0.1,0,1.3,0,1.8,0c0.2,0,0.3,0,0.3,0.1c0,0.1,0,0.1-0.2,0.1
		c-0.3,0-0.7,0.1-1,0.2c-0.7,0.3-1.1,0.7-1.9,1.5c-0.5,0.4-3.6,3.4-4,3.8c0.5,0.5,4.3,4.3,5,5c1.5,1.4,1.7,1.6,2.6,2
		c0.5,0.2,1,0.3,1.1,0.3c0.1,0,0.2,0.1,0.2,0.1s-0.1,0.1-0.4,0.1h-0.9c-0.5,0-0.9,0-1.3,0c-1-0.1-1.4-0.5-2.2-1.1
		c-0.8-0.6-4.7-4.7-5.6-5.7H30v1.7c0,1.7,0,3.1,0.1,3.8c0.1,0.5,0.1,0.9,0.7,0.9c0.2,0,0.5,0.1,0.7,0.1c0.1,0,0.1,0.1,0.1,0.1
		c0,0.1-0.1,0.1-0.3,0.1c-0.9,0-2-0.1-2.1-0.1s-1.2,0.1-1.8,0.1c-0.2,0-0.3,0-0.3-0.1c0-0.1,0-0.1,0.1-0.1c0.2,0,0.4,0,0.6-0.1
		c0.4-0.1,0.4-0.4,0.5-0.9c0.1-0.7,0.1-2.1,0.1-3.8V35.1z"/>
	<path class="st0" d="M41.4,35.1c0-2.7,0-3.2,0-3.8s-0.1-0.9-0.7-1c-0.1,0-0.5,0-0.6,0c-0.1,0-0.1-0.1-0.1-0.1
		c0-0.1,0.1-0.1,0.3-0.1c0.8,0,1.9,0,2.1,0s1.3,0,1.9,0c0.2,0,0.3,0,0.3,0.1c0,0.1-0.1,0.1-0.2,0.1c-0.1,0-0.2,0-0.5,0
		c-0.5,0.1-0.6,0.4-0.6,1c0,0.6,0,1.1,0,3.8v2.5c0,2.6,0.6,3.6,1.4,4.3c0.9,0.8,1.7,1,2.7,1c1.1,0,2.2-0.5,2.8-1.2
		c0.9-1,1-2.5,1-4.3v-2.2c0-2.7,0-3.2,0-3.8c0-0.6-0.1-0.9-0.7-1c-0.1,0-0.5,0-0.6,0c-0.1,0-0.1-0.1-0.1-0.1c0-0.1,0.1-0.1,0.3-0.1
		c0.8,0,1.9,0,2,0c0.1,0,1,0,1.5,0c0.2,0,0.3,0,0.3,0.1c0,0.1-0.1,0.1-0.1,0.1c-0.1,0-0.2,0-0.5,0c-0.5,0.1-0.6,0.4-0.6,1
		c0,0.6,0,1.1,0,3.8V37c0,1.9-0.2,4.1-1.7,5.3c-1.3,1.1-2.7,1.3-3.8,1.3c-0.6,0-2.5,0-3.8-1.2c-0.9-0.8-1.6-2.1-1.6-4.6V35.1z"/>
	<path class="st0" d="M59.2,38.3c0,2.6,0,3.7,0.4,4c0.3,0.3,1,0.4,2.4,0.4c1,0,1.8,0,2.2-0.5c0.2-0.3,0.4-0.6,0.4-1
		c0-0.1,0.1-0.2,0.2-0.2c0.1,0,0.1,0.1,0.1,0.3c0,0.2-0.1,1.2-0.3,1.8c-0.1,0.4-0.2,0.5-1.2,0.5c-1.3,0-2.3,0-3.2-0.1
		c-0.8,0-1.5,0-2,0c-0.1,0-0.4,0-0.7,0c-0.4,0-0.8,0-1.1,0c-0.2,0-0.3,0-0.3-0.1c0-0.1,0-0.1,0.1-0.1c0.2,0,0.4,0,0.6-0.1
		c0.4-0.1,0.4-0.4,0.5-0.9c0.1-0.7,0.1-2.1,0.1-3.8v-3.1c0-2.7,0-3.2,0-3.8c0-0.6-0.1-0.9-0.7-1c-0.1,0-0.5,0-0.6,0
		c-0.1,0-0.1-0.1-0.1-0.1C56,30,56,30,56.3,30c0.8,0,2,0,2.1,0c0.1,0,1.5,0,2,0c0.2,0,0.3,0,0.3,0.1c0,0.1-0.1,0.1-0.1,0.1
		c-0.1,0-0.4,0-0.6,0c-0.5,0.1-0.6,0.4-0.7,1c0,0.6,0,1.1,0,3.8V38.3z"/>
	<path class="st0" d="M71.5,38.2c0,1.7,0,3.1,0.1,3.8c0.1,0.5,0.1,0.9,0.7,0.9c0.2,0,0.7,0.1,0.8,0.1c0.1,0,0.1,0.1,0.1,0.1
		c0,0.1-0.1,0.1-0.3,0.1c-1,0-2.2-0.1-2.3-0.1c-0.1,0-1.4,0.1-1.9,0.1c-0.2,0-0.3,0-0.3-0.1c0-0.1,0-0.1,0.1-0.1
		c0.2,0,0.4,0,0.5-0.1c0.4-0.1,0.5-0.4,0.5-1c0.1-0.7,0.1-2.1,0.1-3.8v-7.4l-2.6,0c-1.1,0-1.6,0.1-1.9,0.6c-0.2,0.3-0.2,0.4-0.3,0.6
		c0,0.1-0.1,0.2-0.2,0.2c0,0-0.1,0-0.1-0.1c0-0.2,0.4-1.8,0.4-1.9c0-0.1,0.1-0.3,0.2-0.3c0.1,0,0.3,0.1,0.8,0.2
		c0.5,0.1,1.2,0.1,1.4,0.1h6.9c0.6,0,1,0,1.3-0.1c0.3,0,0.4-0.1,0.5-0.1c0.1,0,0.1,0.1,0.1,0.2c0,0.5-0.1,1.8-0.1,2
		c0,0.1-0.1,0.2-0.2,0.2S76,32.3,76,32l0-0.2c-0.1-0.5-0.5-0.9-2.2-1l-2.3,0V38.2z"/>
	<path class="st0" d="M82.1,30.3c0.2-0.6,0.3-0.7,0.4-0.7c0.2,0,0.2,0.3,0.4,0.6c0.3,0.7,3.3,8,4.4,10.7c0.7,1.6,1.2,1.8,1.6,1.9
		c0.3,0.1,0.5,0.1,0.7,0.1c0.1,0,0.2,0,0.2,0.1c0,0.1-0.2,0.1-0.4,0.1c-0.3,0-1.6,0-2.9,0c-0.4,0-0.6,0-0.6-0.1c0-0.1,0-0.1,0.1-0.1
		c0.1,0,0.3-0.2,0.2-0.5l-1.6-4.1c0-0.1-0.1-0.1-0.2-0.1h-4.2c-0.1,0-0.1,0-0.2,0.1l-1,2.8c-0.2,0.4-0.3,0.9-0.3,1.2
		c0,0.4,0.3,0.5,0.6,0.5h0.2c0.1,0,0.2,0.1,0.2,0.1c0,0.1-0.1,0.1-0.3,0.1c-0.4,0-1.4-0.1-1.6-0.1c-0.2,0-1.1,0.1-1.9,0.1
		c-0.2,0-0.4,0-0.4-0.1c0-0.1,0.1-0.1,0.2-0.1c0.1,0,0.4,0,0.5,0c0.8-0.1,1.2-0.7,1.5-1.6L82.1,30.3z M79.6,27.5
		c0-0.4,0.2-0.9,0.9-0.9c0.5,0,0.9,0.3,0.9,0.8c0,0.5-0.4,1-0.9,1C79.9,28.4,79.6,27.9,79.6,27.5z M84.2,37.7c0.1,0,0.1,0,0.1-0.1
		l-1.8-4.8c-0.1-0.3-0.2-0.3-0.3,0l-1.7,4.8c0,0.1,0,0.1,0.1,0.1H84.2z M83.8,27.5c0-0.4,0.2-0.9,0.9-0.9c0.5,0,0.9,0.3,0.9,0.8
		c0,0.5-0.4,1-0.9,1C84.1,28.4,83.8,27.9,83.8,27.5z"/>
	<path class="st0" d="M95,38.2c0,1.7,0,3.1,0.1,3.8c0.1,0.5,0.1,0.9,0.7,0.9c0.2,0,0.7,0.1,0.8,0.1c0.1,0,0.1,0.1,0.1,0.1
		c0,0.1-0.1,0.1-0.3,0.1c-1,0-2.2-0.1-2.3-0.1c-0.1,0-1.4,0.1-1.9,0.1c-0.2,0-0.3,0-0.3-0.1c0-0.1,0-0.1,0.1-0.1
		c0.2,0,0.4,0,0.5-0.1c0.4-0.1,0.5-0.4,0.5-1c0.1-0.7,0.1-2.1,0.1-3.8v-7.4l-2.6,0c-1.1,0-1.6,0.1-1.9,0.6c-0.2,0.3-0.2,0.4-0.3,0.6
		c0,0.1-0.1,0.2-0.2,0.2c0,0-0.1,0-0.1-0.1c0-0.2,0.4-1.8,0.4-1.9c0-0.1,0.1-0.3,0.2-0.3c0.1,0,0.3,0.1,0.8,0.2
		c0.5,0.1,1.2,0.1,1.4,0.1H98c0.6,0,1,0,1.3-0.1c0.3,0,0.4-0.1,0.5-0.1c0.1,0,0.1,0.1,0.1,0.2c0,0.5-0.1,1.8-0.1,2
		c0,0.1-0.1,0.2-0.2,0.2s-0.1-0.1-0.1-0.3l0-0.2c-0.1-0.5-0.5-0.9-2.2-1l-2.3,0V38.2z"/>
</g>
</svg>
